<svg xmlns="http://www.w3.org/2000/svg" viewBox="0 0 601.26 350.85"><defs><style>.cls-1{fill:#366191;}.cls-2{fill:#018751;}.cls-3{fill:#fff;}</style></defs><title>Asset 1</title><g id="Layer_2" data-name="Layer 2"><g id="Layer_1-2" data-name="Layer 1"><path class="cls-1" d="M584.62,0c.53,1.89,1,3.79,1.6,5.67s1.16,3.75,1.78,5.75c-1.75.82-3.41,1.64-5.1,2.38-2.71,1.2-5.47,2.28-8.16,3.53C570.8,19.16,566.91,21.08,563,23c-4,2-8.11,4-12.09,6.08-4.37,2.32-8.67,4.78-13,7.23-4.56,2.6-9.15,5.17-13.62,7.93-6.09,3.76-12.12,7.64-18.12,11.56q-6.06,3.95-11.94,8.14-8.29,5.91-16.46,12c-4.4,3.29-8.73,6.67-13,10.08-3,2.42-6,5-9,7.45s-5.84,4.77-8.69,7.23c-2.54,2.18-5,4.45-7.47,6.68l-10.13,9c-.33.29-.63.61-.94.91-4.09,4-8.24,8-12.26,12.05-4.45,4.52-8.81,9.11-13.13,13.75-2.87,3.08-5.63,6.27-8.36,9.48-3.72,4.38-7.49,8.73-11,13.28-4.48,5.82-8.77,11.79-13.05,17.75-2.49,3.46-4.8,7-7.19,10.57a4.21,4.21,0,0,1-2.09,1.66c-5.83,2.23-11.64,4.49-17.41,6.83-2.75,1.11-5.44,2.4-8.11,3.68-1.66.8-3.25,1.75-5.06,2.73-.09-.5-.16-.77-.18-1.05-.25-2.89-.44-5.79-.76-8.67-.45-4-.91-8.09-1.53-12.1s-1.59-8.22-2.15-12.36a155.67,155.67,0,0,0-3.84-18c-.86-3.41-1.92-6.76-3-10.11-1.17-3.78-2.32-7.56-3.66-11.27-2.52-7-5.13-13.9-7.78-20.82-1.9-5-3.78-9.94-5.94-14.79a49.65,49.65,0,0,0-6.9-11.63C292,84.37,288.56,82.12,284,80a4.38,4.38,0,0,0,.73-.21,82.71,82.71,0,0,1,14.7-6.58,53.86,53.86,0,0,1,8.11-1.72,22.33,22.33,0,0,1,6.07.17,11,11,0,0,1,4.12,1.5A27,27,0,0,1,325,80a77.67,77.67,0,0,1,7.42,11.09c2.15,4,4.26,8.11,6.26,12.23,1.41,2.89,2.7,5.85,3.88,8.84a154.49,154.49,0,0,1,7.22,22.71c1.36,6.07,2.52,12.17,3.8,18.25.23,1.06.59,2.1.94,3.33,1.75-1.93,3.4-3.74,5-5.56.21-.23.36-.51.57-.73,2.61-2.75,5.22-5.51,7.86-8.23,4.57-4.72,9.12-9.46,13.76-14.12,3.36-3.37,6.82-6.66,10.29-9.92,2.62-2.47,5.32-4.85,8-7.26,2.35-2.12,4.67-4.26,7.08-6.31,2.72-2.32,5.53-4.55,8.29-6.84,3.09-2.56,6.15-5.18,9.26-7.72q3.79-3.12,7.68-6.12,5.21-4,10.48-7.94c3.26-2.43,6.52-4.89,9.86-7.21,6.65-4.61,13.28-9.24,20.05-13.67q9.52-6.26,19.34-12.07c6.75-4,13.65-7.76,20.51-11.6,2.86-1.6,5.73-3.19,8.66-4.66,5.29-2.65,10.56-5.37,16-7.76Q550.93,12.66,564.83,7c4.27-1.76,8.71-3.13,13-4.72,1.89-.7,3.74-1.5,5.61-2.25Z"/><path class="cls-2" d="M358.29,244.73c1.49-1.89,1.52-2,3.25-1.21.91.4,1.43-.08,2-.54.81-.69,1.47-1.55,2.29-2.22,1.14-.93,2.36-1.77,3.57-2.61a5.35,5.35,0,0,1,4.49-.59,5.62,5.62,0,0,0,4.46-.53,5.11,5.11,0,0,1,4.64-.35,4.29,4.29,0,0,1,2.42,1.92,2.56,2.56,0,0,0,2.75,1.46,3.81,3.81,0,0,1,4.06,2c.81,1.35,1.84,1.6,3.38,1.13.42-.13.81-.31,1.23-.42a3.22,3.22,0,0,1,4.3,3.06c0,.31,0,.62,0,.93a1.5,1.5,0,0,0,1.54,1.53c1.75.19,2.72,1,2.83,2.56a8.06,8.06,0,0,1-.55,2.1c-.2.85-1,.86-1.56,1.13a10.92,10.92,0,0,0-1,.56c.3,1.26.42,2.4-1,3.07-.22.1-.21.66-.34,1-.47,1.2-1.21,1.39-2.26.61a5.46,5.46,0,0,0-.75-.54,1.18,1.18,0,0,0-1.63.43,1,1,0,0,0,.37,1.57,10.39,10.39,0,0,1,1.91,1.46c1.3,1.23,1.38,1.93.6,3.53a2,2,0,0,0,0,.64c2.35.95,4.76,1.66,7.28.9a17.41,17.41,0,0,0,3.64-1.75c4.47-2.59,9.07-5,14.23-5.57a26.49,26.49,0,0,1,11.24.89,112.19,112.19,0,0,1,13.23,5.34c4.66,2.17,9.37,4.25,14,6.45,2.35,1.12,4.62,2.41,6.92,3.65a6.78,6.78,0,0,0,3.38.81c4.93-.05,9.86,0,14.79-.05a2.66,2.66,0,0,1,2.36,1.19q4.9,6.41,9.78,12.82c.06.08,0,.23.05.48l-2,.28v5.85a40.56,40.56,0,0,0,4.81,0c2.57-.32,4.36.37,5.38,2.95a25,25,0,0,0,2.48,3.9l-1.45.49v14.77c1.28.13,2.55.21,3.8.39,3.35.5,6.71.95,10,1.6,2.29.44,4.54,1.12,6.78,1.78a5.85,5.85,0,0,1,2.38,1.45,21.13,21.13,0,0,1-2.27-.42,38.14,38.14,0,0,0-8-1.41c-2.16-.19-4.33-.17-6.49-.41a45.51,45.51,0,0,0-7.92.1,69,69,0,0,0-9.66,1.49c-3,.62-6.05,1.08-9.11,1.49-3.8.51-7.58.21-11.36.29a53.44,53.44,0,0,1-10.84-1.23c-3.64-.66-7.24-1.4-10.93-1.81a93.78,93.78,0,0,0-13.61-.22,50.41,50.41,0,0,0-11.45,1.92,38,38,0,0,1-10.06,1.36c-1.94,0-3.87,0-5.81,0a78.42,78.42,0,0,1-10.37-.69c-4.17-.5-8.25-1.32-12.35-2.21a38.74,38.74,0,0,0-4.6-.48c-1.23-.12-2.46-.32-3.69-.35a79.57,79.57,0,0,0-10,.67,84.77,84.77,0,0,0-9.62,1.77c-2.28.49-4.65.52-6.95.93-3.41.62-6.83.28-10.24.34a70.62,70.62,0,0,1-14-1.58c-2.78-.5-5.57-1-8.37-1.38-2-.26-4-.14-5.92-.43a39.85,39.85,0,0,0-8.67.14c-3.54.23-7,1.19-10.55,1.79-2.36.41-4.74.71-7.11,1.11-4.39.73-8.82.35-13.23.31a56.4,56.4,0,0,1-8.25-1c-3.52-.57-7-1.51-10.53-1.91s-7.06-.33-10.6-.43a60.21,60.21,0,0,0-16.13,2c-2.08.51-4.26.61-6.38,1-4.15.72-8.33.3-12.49.32a51.36,51.36,0,0,1-6.62-.66c-2.81-.35-5.61-.76-8.41-1.18-2.19-.32-4.37-.76-6.56-1-1.78-.23-3.58-.37-5.37-.43-2.18-.07-4.37,0-6.55,0a41.32,41.32,0,0,0-10.08,1.28q-5.13,1.13-10.36,1.79c-4.24.55-8.46.21-12.68.27a33,33,0,0,1-5.12-.65l-5.49-.79c-1.77-.26-3.53-.54-5.3-.78s-3.69-.38-5.49-.76c-2.84-.59-5.7-.2-8.55-.35a54.19,54.19,0,0,0-15.77,1.95c-2.14.52-4.37.67-6.55,1.06-4.09.72-8.21.38-12.3.31a84.88,84.88,0,0,1-9.37-1c-3.54-.47-7.09-.92-10.59-1.59-5.12-1-10.28-.79-15.42-.65a58.34,58.34,0,0,0-8,1.21c-3.27.56-6.53,1.2-9.81,1.71a61.44,61.44,0,0,1-6.62.72c-1.53.07-3.08-.31-4.62-.32A78.67,78.67,0,0,1,2,323.88a4.37,4.37,0,0,1-2-1.09l4.17.43c2.27.23,4.54.51,6.81.68,1.24.1,2.5,0,3.74,0a36.46,36.46,0,0,0,7.37-.71,3.64,3.64,0,0,0,1.6-.72,1.47,1.47,0,0,0,.59-1.91c-.43-1.46-.47-2.79,1.24-3.61a9.4,9.4,0,0,0,2.38-1.74c.44-.42,1-1.21.83-1.65a1.48,1.48,0,0,1,.56-1.79,2.33,2.33,0,0,0,.8-2c0-1.62.76-2.29,2.41-2.37l5.48-.28c-.17-.75-2.07-.34-1.35-1.86l2.14-.28c-1.11-1.25-.45-2.54-.42-3.79a1.36,1.36,0,0,1,.41-1c1.55-1,2.47-3,4.66-2.9.19,0,.46,0,.55-.06,1.74-1.92,3.86-.29,5.77-.62.51-.09,1.08.3,1.62.29a3.07,3.07,0,0,1,2.7.93c.15.18.55.13,1.09.23V296c0-9.11.07-18.22,0-27.33a8.63,8.63,0,0,1,2-6.17c1.67-1.93,3.3-3.91,5.92-4.58a5.88,5.88,0,0,1,6,1.46,24.1,24.1,0,0,1,3.71,4.41,4.89,4.89,0,0,1,.82,2.78c0,5.49,0,11,0,16.47v1.79l.38.1c.44-.85.91-1.69,1.3-2.56,1-2.14,1.88-4.3,2.88-6.43a5.84,5.84,0,0,1,1.16-1.66q3.73-3.81,7.54-7.55a3.5,3.5,0,0,1,1.21-.8c3.35-1.24,6.72-2.45,10.09-3.67a3.2,3.2,0,0,1,2.3-.07c3.47,1.28,7,2.48,10.44,3.79a6.53,6.53,0,0,1,2,1.31c2,1.84,4,3.7,6,5.61a2,2,0,0,0,2.62.54c6.8-3.17,14.06-4.94,21.29-6.76l4.35-1.09c-.65-.8-1.64-1.31-1.21-2.24a8.71,8.71,0,0,1,1.5-1.69c-.12-.77-.8-2,.66-2.88s2.23.41,3.24,1.06c.79-.79.39-2.58,2.17-2.38,1,.94,1,.94,1.22,2.24l2.54-.15.8,2a2.62,2.62,0,0,1,2.5.52,2.28,2.28,0,0,0,1.7.46c2-.24,3.88-.66,5.83-1,1.46-.21,2.93-.41,4.41-.5,2.78-.17,5.57-.36,8.36-.35,1.71,0,3.42.43,5.14.58,2.75.23,5.52.4,8.39.6.06-.75.1-1.23.14-1.71.67-8.08.27-16.18.38-24.27a2.35,2.35,0,0,1,0-.75c.62-1.91,1.26-3.82,1.86-5.62l3.93-.48a4.82,4.82,0,0,1,.17.9q.19,12.15.37,24.28c0,2,0,4,0,6,0,.54.08,1.07.12,1.57,2.27,0,4.37.13,6.45,0,2.76-.22,5.52-.59,8.25-1s5.47-.91,8.15-1.58c6.29-1.58,12.37-3.83,17.34-8.07s10.81-7,16.55-9.85a65.43,65.43,0,0,1,7.18-3,15.49,15.49,0,0,1,10.53.23c3.09,1.07,6.09,2.4,9.14,3.58,2.41.93,4.84,1.85,7.28,2.69a2.1,2.1,0,0,0,1.58-.1,3.13,3.13,0,0,1,3.58.3c1-.8,2.15-1.18,3.05-.33l3-1.11-1.89-2.58c-2.64-.27-2.53-.38-1.42-2.77a2.7,2.7,0,0,1,3.14-1.84,4.67,4.67,0,0,0,.92-.14c-.29-.44-.5-.78-.74-1.1-1-1.28-1-2.13-.21-3.21s1.32-1,3.07-.3c.25-.83-.21-2.06.84-2.43a12.2,12.2,0,0,1,2.88-.27c.25-.79.06-2.35,1.87-2.27s1.53,1.48,1.87,2.9c.5-.47.8-.78,1.13-1.06a2.46,2.46,0,0,1,3.85.44,1.39,1.39,0,0,1,.17,1.56,5.62,5.62,0,0,0-.35,1.37c3,1.38,2.2,2.62-.08,4.37a2.57,2.57,0,0,1,2.68,1.63c.36,1,.26,1.62-.6,2.06-.66.34-1.63.44-1.68,1.26a7.24,7.24,0,0,0,.67,2.28,7.58,7.58,0,0,1,2.41.06,9.25,9.25,0,0,1,2.12,1.56,11.33,11.33,0,0,1,4.8-3.73c-.32-1.41-1-2.85.68-3.84s2.73.37,3.93,1.39c.24-.7.39-1.26.61-1.79a1.45,1.45,0,0,1,2.59-.5,8.75,8.75,0,0,1,.9,1.9c2.56-.64,3.21,0,3.87,2.34a1.88,1.88,0,0,1,2.72.59c1.32,1.73-.35,2.77-1.17,4.2,2.39-.08,4.39,1.09,6.95.51.15-.22.54-.76.9-1.32a4.33,4.33,0,0,1,2.42-2.16c1.68-.49,2.12-.38,3.36,1A9.67,9.67,0,0,0,358.29,244.73Zm-152.35,36c0-.22.08-.4.09-.59a1.47,1.47,0,0,1,1.23-1.45,1.58,1.58,0,0,1,1.86.83,4.64,4.64,0,0,0,1.91,1.35,1.78,1.78,0,0,1,1.07,2.5c-.21.59-.32,1.22-.5,1.93a6,6,0,0,0,1,.06c1.92-.34,1.94-.35,2,1.56a1.71,1.71,0,0,0,.79,1.54c1.08.74,1.16,1.28.69,2.52a8.53,8.53,0,0,1-.55,1,6.3,6.3,0,0,1,1.14.66c.24.22.58.7.49.89-.36.83-.12,1.91-1,2.5-.58.38-1.13.78-1.92,1.32,1.17.75,1.85,1.15,2.5,1.59a2.2,2.2,0,0,0,2.41.36,10,10,0,0,1,2.68-.65c2.23-.31,4.52-.52,6.42,1a4.17,4.17,0,0,0,3.23,1.07,6.7,6.7,0,0,1,4.88,1.38,3.78,3.78,0,0,0,3.14.79c.9-.19,1.79-.43,2.69-.59,1.39-.23,3.59,1,3.81,2.32.2,1.2.78,1.33,1.77,1.37,2.36.08,3.08,1.08,2.43,3.35.9,0,1.77,0,2.64,0s1.68-.06,2.47-.09a12.53,12.53,0,0,0-1.33-8.15,31.29,31.29,0,0,1-1.91-5,2.88,2.88,0,0,0-1.83-2.15,2.15,2.15,0,0,1-1.55-2.45,1.63,1.63,0,0,0-.13-.54h-1.25l-.69-2a4.11,4.11,0,0,1-1,.74c-.38.12-1.16.11-1.2,0-.36-1.16-1.29-.86-2.12-1-1.51-.26-1.86-1.42-.85-2.57.44-.5.9-1,1.65-1.79-1.93,0-2.2-2.06-3.86-2-.17,0-.51-.32-.5-.48,0-.88-.64-1.23-1.11-1.78a1.71,1.71,0,0,1-.38-1.48c.47-.85,0-1.41-.35-2a4.24,4.24,0,0,0,1.57-3.36l-.85-.27a7.65,7.65,0,0,1-1-.36,1.31,1.31,0,0,1-.73-1.82c.23-.76.39-1.54.55-2.32A1.55,1.55,0,0,1,237.7,267a11.88,11.88,0,0,1,1.45-.09c.37-.58.68-1.11,1-1.61,1.11-1.55,2.48-1.71,3.91-.46.49.43,1,1,1.6.41.92-.85,1.84-.43,2.74-.2,1.27-1.09,2.47-2.16,3.71-3.18s2.59-2,4.19-1.55a7,7,0,0,0,4.66-.45,3.3,3.3,0,0,1,4.38,1.28A2.6,2.6,0,0,0,268,262.5a2.57,2.57,0,0,1,2.65,1.33,2,2,0,0,0,2.08.92,12.29,12.29,0,0,0,1.43-.33,2.34,2.34,0,0,1,3,2.19c0,.23.1.45.25,1.1.43-.52.79-.77.82-1a20.88,20.88,0,0,0,.05-2.24c0-2.41.11-2.5,2.41-1.94.1,0,.24-.06.49-.13.15-.65.32-1.36.47-2.07A2.2,2.2,0,0,1,284,258.4a3,3,0,0,1,2.63,1.77c.31.58.79,1.4,1.29,1.47,1.51.21,3.14.46,4.65-.7-.53-.38-1-.64-1.31-1a2.42,2.42,0,0,1-.6-3.31c1-1.64.92-1.86-.62-3-.14-.11-.37-.14-.48-.27a2.16,2.16,0,0,1-.57-2.18,1.47,1.47,0,0,1,1.74-1,6.75,6.75,0,0,0,1.49,0,1.18,1.18,0,0,0,1.08-1.58,3,3,0,0,0-2.13-2.47c-2.65-.79-5.21-1.9-7.79-2.91-3.39-1.32-6.62-3.07-10.28-3.63a15.63,15.63,0,0,0-8.21.6,116.4,116.4,0,0,0-13.64,6.33,44.85,44.85,0,0,0-7.75,5.05,39.68,39.68,0,0,1-10.41,6.38,69.31,69.31,0,0,1-17.84,4.66,112,112,0,0,1-12.92,1.08,7.93,7.93,0,0,0-1.23.19c.14,1.54.38,3,.39,4.47.07,5.61,0,11.23.08,16.85a3.3,3.3,0,0,0,.24.82c0-2.43.06-2.53,2.27-2.42,0-.86.09-1.72.14-2.66Zm260.86-3.58.08-.33c-1.38-.77-2.71-1.63-4.14-2.3-5.83-2.72-11.7-5.38-17.55-8.08a59.78,59.78,0,0,0-12.33-4.47,22.83,22.83,0,0,0-9.94,0,38.34,38.34,0,0,0-12,5.25,11.67,11.67,0,0,1-10.76,1.36c-.45-.17-.93-.27-1.4-.4a11.8,11.8,0,0,0-1.13,1.07,2.17,2.17,0,0,1-2.33.74c-1.4-.25-1.75.09-2.08,1.51a5.68,5.68,0,0,1-1,2.32,5.14,5.14,0,0,0-1.24,3c-.13,1.53-.8,1.94-2.36,1.51-.74-.2-1.51-.3-2.3-.46a7.35,7.35,0,0,0-.53,2c.06,1.19-.65,1.95-1.22,2.82a25.42,25.42,0,0,0-2,3.11c-1.31,2.78-2.5,5.62-3.8,8.57,2.11.21,2.2,2.51,3.15,3.57,1.46-.21,2.61-.33,3.74-.54s2.12-1,3.36-.14V289.7l-1.43-.52,17.88-9.43c4.16,1.95,7.92,4.08,12,5.86v-6l-1.15-.44c0-.16.06-.24.1-.27,5.54-3,11.1-5.95,16.63-9a2.2,2.2,0,0,1,2.27.19l16.16,8.12c.41.2.79.46,1.55.92l-2.43.34v7.72c.74-.71,1.29-1.17,1.77-1.7.75-.82,1.46-1.68,2.18-2.53,1.32-1.56,2.66-3.1,3.95-4.68a2.87,2.87,0,0,1,2.54-1.21C463,277.19,464.89,277.12,466.8,277.12ZM194.1,301.68c-.38-12.51.8-25.19.2-38.1-1.56-.11-3-.22-4.5-.31-.62,0-1.25,0-1.86-.08-2-.21-4-.55-6.07-.65a81.67,81.67,0,0,0-17,1.11c-1.34.21-2.67.46-4,.78-.6.14-1.38.3-1.15,1.29,1.82-.3,2.06-.25,2.82.71a10.67,10.67,0,0,1,1.1,1.64,1,1,0,0,1-.64,1.49,3.9,3.9,0,0,1-.93.11c-.81.73-1.31,1.47-2,1.71a3.91,3.91,0,0,0-2,1.58c.31.56.31,1.36,1.25,1.05.94-2.23,1-2.27,3.17-1.2,1.24-.71,1.24-.71,2.63.13,1.75-.73,2.84-.58,3.73.64a1.89,1.89,0,0,1,.21,1.31,15.3,15.3,0,0,1-.7,2.13,9,9,0,0,0,2.09.4c.76-.05,1.43,0,1.73.72a1.74,1.74,0,0,1-.64,2.15c-1.41,1.11-1.39,1.14-.6,2.85a1.78,1.78,0,0,1-.46,2.34c-.4.34-.77.71-1.43,1.32,1.05.18,1.75.35,2.46.42a1.61,1.61,0,0,1,1.29,2.63,18.16,18.16,0,0,1-1.15,1.41c.8,0,1.35.08,1.89.08,2,0,4,0,6,0a2.47,2.47,0,0,1,2,.82c2.14,2.19,4.32,4.33,6.47,6.5.33.33.61.72,1,1.2l-2,.22v4.69a4.27,4.27,0,0,1,1.66-.12c.95.4,1.55-.14,2.2-.59C191.87,303.36,192.84,302.61,194.1,301.68Zm-58.31-27.12c.34-.62.6-1.07.84-1.53.16-.29.48-.62.42-.86-.3-1.23.5-1.47,1.13-1.69.67.33,1.22.84,1.61.74a1.8,1.8,0,0,1,2.25,1.14c.31.55.73.83,1.48.32a6,6,0,0,1,0-1.58c.1-.4.52-.71.81-1.06a7.19,7.19,0,0,1,1,.93c.16.2.13.54.29,1.27l1.77-2.3-2.69-2.11-1.18.3c-6.09,1.55-12.22,3-18.06,5.33-1.38.56-3,.83-4,2.06,1.88,3.51,3.72,6.93,5.63,10.48-.62.28-1.17.5-1.7.77-1,.48-1.44,3.65-.6,4.29a2.14,2.14,0,0,0,1.22.27c1.94,0,3.87,0,5.8,0a2.6,2.6,0,0,0,.93,0c.37-.15.85-.38,1-.69s-.14-.77-.34-1.11-.59-.36-.67-.61a4.1,4.1,0,0,1-.28-1.75c.1-.68.78-.68,1.36-.67h2.31c-.19-.52-.28-.74-.35-1s-.19-.59-.26-.89a1.15,1.15,0,0,1,1.45-1.48,2.73,2.73,0,0,1,1,.52,1.63,1.63,0,0,0,2.19,0c.73-.58.52-1.29.22-2.07a3.51,3.51,0,0,0-1.13.13,1.19,1.19,0,0,1-1.62-.43c-.35-1.15-1.42-1.23-2.2-1.8-.06-1.15.2-2.48-1.66-2.51-.61,0-.82-1.07-.46-1.72a1.17,1.17,0,0,1,1.71-.54c.51.34,1,.76,1.51,1.07s1,.31,1.17-.36Zm196.78,36.62c0-3.95,0-7.62,0-11.29,0-.32-.28-.64-.42-.94-2.79.74-4.39-.43-3.86-2.79-1.18.31-2.15,1.49-3.57.82s-.72-2.29-1.35-3.46a19.31,19.31,0,0,1-2,1.7,2.16,2.16,0,0,1-2.83-.55,2.19,2.19,0,0,1,.8-2.69,14.23,14.23,0,0,0,1.4-1.31c-1.49-1.27-2.05-1.34-3.24-.49-.85.61-1.66,1.25-2.42,1.83v5.47a6.64,6.64,0,0,0,4.38.45,6.11,6.11,0,0,1,2.2-.17,5.26,5.26,0,0,1,2.19.92c.35.26.31,1,.55,1.47a1.7,1.7,0,0,0,.78.88,13.11,13.11,0,0,0,2.16.43c1,.16,2,.82,1.8,1.54a3.34,3.34,0,0,1-1.25,1.69,6.31,6.31,0,0,1-1.81.64c-.06.53.07,1.14-.18,1.39a3.86,3.86,0,0,1-1.44.58c-.08,2,1,3.78,2.49,3.86C328.72,311.26,330.53,311.18,332.57,311.18Zm-60.2-14c-.6-.36-1-.61-1.35-.81a3.36,3.36,0,0,1-2.09-3.73,1.75,1.75,0,0,0,0-.56,1.91,1.91,0,0,0-1.88-1.45c-.93,0-1,.63-1.13,1.38a3.49,3.49,0,0,1-.8,1.8,9.57,9.57,0,0,0-2,3.51,17.5,17.5,0,0,1-1.69,3.7c-1.79,2.63-.91,5.44-1.08,8.21h5.56l-.52-1.27c1.28-.37,1.73-1.46,2.47-2.33-1.4-1.1-3.31-.46-4.48-1.69a8.67,8.67,0,0,0,1-2.33c.11-1.06.87-1.62,1.54-1.53,2.16.28,3.63-.81,5.09-2.06A14.82,14.82,0,0,1,272.37,297.16Zm65.57,6.76v7.65c3.13-.32,6.09.86,9.22.17-.18-1.84-.34-3.61-.54-5.37a4.23,4.23,0,0,0-.43-1.22c-.65-1.4-1.17-1.61-2.66-1.32a3.27,3.27,0,0,1-2,0A3.53,3.53,0,0,0,337.94,303.92Zm-41.32-11.74c1.33.63,2.42,1.18,3.54,1.66a1.43,1.43,0,0,0,.89,0,7,7,0,0,1,5.91,1.3,3.45,3.45,0,0,0,2.86.9c-.39-1.66.48-3.41-.67-5.16-.87.58-1.74,1.44-2.53.49a7.24,7.24,0,0,1-.92-2.2c-1.19.25-2.3.77-3.29.6s-1.81-1-2.78-1.66C298.84,289.49,296.73,290.07,296.62,292.18Zm-113.86,8.58c-2.44-.07-4.69-.09-6.93,0v7.44c2.37,0,4.62.08,6.93-.07Zm-19.26,0v7.31h6.81v-7.31Zm-11.27,7.42h3.48c1.14,0,2.29-.05,3.39-.08v-7.3h-6.87Zm-5.83-7.37h-6.87v7.27h6.87Zm-18.49,0v7.36c2.37,0,4.62.12,6.86-.05V300.8Zm268.43-6.74V301a17,17,0,0,0,4.64-.12v-6.83Zm-22.49-1.92c-.39-4.63-.55-9-2.41-13.49a21.42,21.42,0,0,1-1.31,2.24,4.13,4.13,0,0,0-.54,4.36c.67,1.64,1.46,3.23,2.23,4.84C372.18,290.85,372.41,291.75,373.85,292.14Zm99.88,11.07v-3.8c0-3.29-.53-3.74-3.82-3.18-.06,0-.15,0-.18,0-.28.28-.78.57-.8.87-.07,2,0,4.06,0,6.09Zm-44.29.77v-7.25h-4.27V304Zm69.86,5.43v6.87h4.26v-6.87Zm-16.85,0v6.87h4.28v-6.87Zm-22.32,6.92v-6.87h-4.26v6.87ZM429.4,290.91V284h-4.19v6.93Zm13.26,0V284h-4.37v6.94Zm44.18,12.35v-6.93h-4.38v6.93Zm-31-7v7h4.28v-6.85a11.35,11.35,0,0,0-1.17-.11C458,296.2,457,296.21,455.86,296.21ZM413.91,301a18.46,18.46,0,0,0,0-6.92h-4.14c0,2.4-.08,4.65,0,6.92Zm-38.35-16.51c1.48.15,1.84-.73,2.16-1.5a19.52,19.52,0,0,0,1-3,18.51,18.51,0,0,0,.32-2.37c.06-.63-.27-1-.82-1.31-1.5-.91-1.62-1.34-1.2-3a3.46,3.46,0,0,0,0-.72c-.49.3-.85.65-.87,1C375.9,277.2,375.74,280.78,375.56,284.51Zm5.73-3.3c-.64.93-1.26,1.43-1.36,2a8.29,8.29,0,0,1-2.7,4.51,3.76,3.76,0,0,0-.2,4.64,17.79,17.79,0,0,0,4.93-9.66C382,282.4,381.66,282,381.29,281.21Zm19.46,32.89a17.94,17.94,0,0,0,.05-6.94h-4.06c-.13.8-.24,1.37.45,2a17.18,17.18,0,0,1,1.83,2.69C399.56,312.65,400.16,313.35,400.75,314.1ZM255.06,291.38a10.45,10.45,0,0,0-1,1.69,4.31,4.31,0,0,0-.42,2.12,13.74,13.74,0,0,0,2.94,5.93C257.21,299.14,256.25,293.19,255.06,291.38Zm99.31,12.1a2.86,2.86,0,0,0-2.72,1.08c-1.54,1.57-1.07,3.69-1.45,5.57a5,5,0,0,0,.16,1.39c2.18-1.14,2.22-1.11,2.08-2.73,0-.24,0-.6.1-.72C354,306.87,353.31,305,354.37,303.48Zm-95.71-16.26c-.13,2.79-.76,5.43-.05,8.15,1.46-.89,2.17-2.91,2-5.13Zm3.78,6c-.32.4-.84.77-.92,1.22a7,7,0,0,1-1.92,3.51,2.59,2.59,0,0,0-.46,3.18C261.33,299.72,263.12,295.86,262.44,293.19Z"/><path class="cls-1" d="M279.11,106.35c-1.11-.65-2.24-1.25-3.31-1.94a40,40,0,0,0-11.93-5,17.57,17.57,0,0,0-4.4-.49,55.77,55.77,0,0,0-8.56.29,33.6,33.6,0,0,0-13.59,5,45.76,45.76,0,0,0-6.2,5,33.25,33.25,0,0,0-7.87,12.23,48.5,48.5,0,0,0-2.55,10.18,32.37,32.37,0,0,0-.4,6.67c.38,6.55,1.33,13,4.41,18.95a34.33,34.33,0,0,0,17.06,16.17,38.88,38.88,0,0,0,9.41,2.62,55.65,55.65,0,0,0,10.79.25,25.25,25.25,0,0,0,8.38-2.13,41.84,41.84,0,0,0,9.19-5.14,3.91,3.91,0,0,1,1.12-.31q-1.95,15.54-3.84,30.57a56.87,56.87,0,0,1-12.68,4.17,65.16,65.16,0,0,1-7.5,1c-2.24.16-4.49.07-6.74,0a58,58,0,0,1-22.27-4.85A59.61,59.61,0,0,1,216,192.81c-1.19-.88-2.27-1.92-3.39-2.9s-2.22-1.81-3.19-2.84a69.54,69.54,0,0,1-10.15-13.22,67.84,67.84,0,0,1-6.52-16.3,75.77,75.77,0,0,1-1.63-9.64c-.27-2-.26-4.07-.41-6.11a30.7,30.7,0,0,1-.34-3.68c.16-3,.57-5.9.69-8.86a46.72,46.72,0,0,1,1.54-9.28,68,68,0,0,1,4.3-12.2,53.74,53.74,0,0,1,7.59-12.23A110.08,110.08,0,0,1,214,85.91a50.89,50.89,0,0,1,12.74-8.22,68,68,0,0,1,15.79-5.08c5.92-1.19,11.86-1.15,17.79-1a44.12,44.12,0,0,1,10.7,2c1.19.34,2.38.66,3.54,1a1.36,1.36,0,0,1,1.13,1.27c.14,1.47.52,2.91.69,4.37.3,2.45.48,4.91.79,7.36s.76,4.86,1.06,7.3.52,5.16.8,7.74c.12,1.15.3,2.3.46,3.45Z"/><path class="cls-1" d="M85.69,75.79l30.61-6.58c8,24,16,47.7,24,71.54h1.91c.73-2.44,1.37-4.94,2.22-7.37,2.32-6.64,4.74-13.24,7.1-19.87,2.71-7.61,5.39-15.24,8.11-22.85C162,84.1,164.38,77.55,166.72,71c.63-1.77,1.1-1.78,2.75-1.44,3.25.68,6.55,1.1,9.83,1.66,2.24.38,4.48.83,6.72,1.23,2.6.47,5.21.9,7.8,1.39,1.19.22,2.36.52,3.69.83l-3.9,9c-2,4.65-4,9.3-6.05,13.94-1.65,3.73-3.38,7.43-5,11.17-1.47,3.33-2.84,6.71-4.29,10.05s-2.91,6.55-4.35,9.84c-2.05,4.7-4.07,9.41-6.12,14.11-1.44,3.29-2.92,6.55-4.36,9.84-2,4.7-4.07,9.41-6.12,14.11-1.12,2.55-2.3,5.07-3.41,7.62-2,4.59-4,9.19-6,13.77-1.49,3.4-3,6.79-4.51,10.18-.77,1.75-1.5,3.53-2.28,5.28-.32.72-.72,1.4-1.28,2.48Z"/><path class="cls-1" d="M28,347.15a32.61,32.61,0,0,1,3.28.39c3.73.85,7.52.61,11.3.74a58.18,58.18,0,0,0,13.22-1.54c4.47-.89,8.86-2.21,13.47-2.25,1.6,0,3.21-.39,4.8-.32,2.71.12,5.42.38,8.12.71,3.54.43,7.07,1,10.6,1.51,3.3.49,6.6.89,9.91,1.22a63.93,63.93,0,0,0,9.87.2,67.65,67.65,0,0,0,14-2.26,42.11,42.11,0,0,1,6.93-1,47.44,47.44,0,0,1,6.3-.36c2.9.1,5.78.49,8.68.68,3.95.26,7.78,1.21,11.67,1.85,2.85.47,5.77.57,8.66.8,2.1.16,4.21.38,6.31.35a55.8,55.8,0,0,0,10.3-1.05,110.47,110.47,0,0,1,11.6-2.15c3.48-.33,7-1.14,10.54-.18a11.66,11.66,0,0,0,1.68,0c3.13.33,6.25.66,9.37,1.05,2.81.36,5.62.74,8.41,1.21a71.72,71.72,0,0,0,15.54,1.05,48.14,48.14,0,0,0,9-1c3-.73,6.12-1.33,9.2-1.94a23,23,0,0,1,3.31-.39,108.91,108.91,0,0,1,11-.32,67.33,67.33,0,0,1,11.71,1.54c2.57.61,5.21.89,7.81,1.4a63.3,63.3,0,0,0,13.54.7c2.15-.05,4.29-.56,6.44-.64,4.05-.16,7.81-1.71,11.77-2.28a69.55,69.55,0,0,1,14.84-.75,93.17,93.17,0,0,1,13,1.94c2.16.47,4.38.69,6.56,1a56.66,56.66,0,0,0,10,.72A80.51,80.51,0,0,0,386.85,346a83.92,83.92,0,0,1,9.48-1.53c2.68-.29,5.33-.22,8-.29a50.57,50.57,0,0,1,11.74,1.44,84.53,84.53,0,0,0,10.4,1.61c3.7.32,7.39.71,11.11.7a63,63,0,0,0,15.77-2,41,41,0,0,1,9.67-1.44c1.85,0,3.71-.39,5.55-.32,3,.11,6,.51,9.06.68,4.39.26,8.6,1.54,12.91,2.22,1.58.25,3.2.33,4.8.43,2.72.15,5.45.39,8.17.34,2.46,0,4.91-.53,7.37-.66,4.34-.23,8.47-1.58,12.72-2.25,1.71-.26,3.45-.29,5.18-.42a34.66,34.66,0,0,1,5.74-.32c3.68.37,7.38.39,11.06.95,3.86.58,7.61,1.51,11.38,2.4a7.86,7.86,0,0,1,4.09,2c-1.7-.33-3.39-.62-5.08-1-2.34-.52-4.72-.81-7.11-1.12a71,71,0,0,0-10.61-.25,56.41,56.41,0,0,0-8.07,1c-3.27.56-6.5,1.37-9.77,1.93-1.82.3-3.7.29-5.55.43a37.93,37.93,0,0,1-4.62.34c-3.14-.13-6.28-.51-9.42-.69-4.4-.25-8.6-1.55-12.92-2.2-1.77-.27-3.6-.16-5.35-.48-3.29-.61-6.59-.35-9.87-.29a51.41,51.41,0,0,0-7.89.91c-3,.53-6,1.38-9,2a47.82,47.82,0,0,1-4.8.45c-1.54.13-3.08.37-4.62.35-3.23,0-6.47-.05-9.67-.4A109.79,109.79,0,0,1,421.76,348a45.17,45.17,0,0,0-7.91-.87c-1.8-.12-3.61,0-5.42,0a46.91,46.91,0,0,0-10.3,1.06c-3.13.66-6.26,1.32-9.41,1.86-1.64.29-3.33.31-5,.45s-3.08.31-4.62.34c-1.23,0-2.46-.16-3.69-.23-.87-.05-1.74-.11-2.61-.1a45.62,45.62,0,0,1-8.63-1c-3.5-.67-7-1.45-10.53-1.91-2.69-.36-5.44-.34-8.17-.43-6.35-.23-12.53.91-18.7,2.3a61.64,61.64,0,0,1-7.68,1,63.56,63.56,0,0,1-7.42.36c-2.84-.08-5.66-.52-8.5-.68-4.15-.23-8.11-1.45-12.16-2.2-1.63-.3-3.34-.18-5-.48a48.27,48.27,0,0,0-10.05-.3,57.45,57.45,0,0,0-8.25,1c-3.15.53-6.25,1.37-9.4,1.92a53.05,53.05,0,0,1-5.36.44,51.85,51.85,0,0,1-5.56.34c-3-.11-6-.36-9-.72q-6.87-.83-13.72-1.9a52,52,0,0,0-7.37-.74c-2.41,0-4.82-.32-7.24-.33a48.27,48.27,0,0,0-9.72,1.17c-3.31.68-6.57,1.64-10,1.83-2.46.14-4.91.57-7.37.69a41.45,41.45,0,0,1-4.43-.33c-2.41-.15-4.84-.12-7.23-.42-3.17-.41-6.3-1.12-9.46-1.61-2.56-.4-5.13-.74-7.7-1q-4.28-.34-8.55-.38a48.93,48.93,0,0,0-14.06,2,25.57,25.57,0,0,1-4.89.93c-4,.34-7.9.68-11.86.73-2.58,0-5.16-.55-7.74-.63-3.67-.11-7.19-1.07-10.78-1.6-3.12-.46-6.24-.82-9.36-1.18a51.72,51.72,0,0,0-9.3-.2,102.41,102.41,0,0,0-10.4,1.58c-3.58.6-7.1,1.47-10.74,1.8a81.72,81.72,0,0,1-8.56.24,57.58,57.58,0,0,1-6.25-.65c-2.14-.25-4.28-.5-6.42-.81A20.09,20.09,0,0,1,28,347.15Z"/><path class="cls-1" d="M545.6,336.73c-4.15-.9-8.15-1.5-12.19-2a78.08,78.08,0,0,0-11.74-.24,57.11,57.11,0,0,0-8.78,1.17c-3.45.63-6.81,1.66-10.36,1.79-3.15.12-6.29.64-9.43.66-2.64,0-5.28-.48-7.93-.65-4.45-.29-8.72-1.55-13.1-2.24-1.76-.27-3.6-.12-5.35-.47a37.87,37.87,0,0,0-8.37-.29,63.14,63.14,0,0,0-15.51,2.28,32.57,32.57,0,0,1-5.44,1,57.54,57.54,0,0,1-7.42.38c-3.52-.1-7-.42-10.55-.72-2.15-.18-4.29-.42-6.43-.75s-4.34-.86-6.53-1.21c-2.55-.4-5.11-.79-7.69-1-2-.16-4.11,0-6.17,0a64.54,64.54,0,0,0-12.85,1.52c-2.84.53-5.69,1.06-8.55,1.46-1.83.25-3.7.25-5.55.4a25.64,25.64,0,0,1-3.12.34c-3.08-.17-6.15-.51-9.24-.7-4.27-.25-8.35-1.49-12.54-2.19a68.81,68.81,0,0,0-12.59-.85,65.23,65.23,0,0,0-15.55,2.1,58.44,58.44,0,0,1-6.21.92,55.24,55.24,0,0,1-11.11.71,68.85,68.85,0,0,1-10.31-1c-4-.84-8.09-1.6-12.15-2.26a52.21,52.21,0,0,0-5.74-.42c-.93-.05-1.87,0-2.81,0a74.61,74.61,0,0,0-18.87,2.36,62.73,62.73,0,0,1-7.51,1,31,31,0,0,1-4.8.35c-3.4-.14-6.78-.5-10.18-.69-4.26-.24-8.41-1.19-12.61-1.84-2.8-.44-5.65-.58-8.48-.8-2.22-.17-4.45-.3-6.68-.37a48.4,48.4,0,0,0-10.65,1.23c-3.32.64-6.56,1.63-10,1.79-2.84.13-5.66.66-8.49.66s-5.66-.52-8.5-.65c-4.39-.2-8.63-1.41-13-1.92-2.32-.27-4.65-.53-7-.74-2-.17-4-.31-5.93-.37a55.2,55.2,0,0,0-15.75,2,41.52,41.52,0,0,1-10.06,1.41c-1.85,0-3.71.39-5.55.32-3-.11-6-.47-9.05-.69-4.81-.36-9.49-1.48-14.23-2.23-1.89-.29-3.82-.3-5.74-.42-2.28-.13-4.57-.31-6.86-.35a52.33,52.33,0,0,0-10.65,1.25c-3.62.68-7.22,1.62-10.88,2a83.69,83.69,0,0,1-11.53.39c-2.88-.07-5.74-.78-8.62-1a53.3,53.3,0,0,1-8.15-1.56,6.62,6.62,0,0,1-2.34-1.08c1.07.12,2.17.15,3.22.37,4.17.9,8.39.63,12.61.75a53.24,53.24,0,0,0,10.83-1.28c4.12-.75,8.18-1.82,12.31-2.41a42.4,42.4,0,0,1,9.28-.38,125.3,125.3,0,0,1,13.75,1.7,105.44,105.44,0,0,0,12.46,1.7,89.44,89.44,0,0,0,9.11.22,70,70,0,0,0,9-1c2.78-.47,5.51-1.28,8.28-1.83a34.31,34.31,0,0,1,4.42-.46c2.6-.16,5.2-.4,7.8-.34a69.91,69.91,0,0,1,7.36.69c3.61.46,7.21.93,10.79,1.54,3.35.58,6.73.84,10.1,1.19a45.43,45.43,0,0,0,7.81.22,78.33,78.33,0,0,0,12.26-1.65c3.47-.79,6.93-1.77,10.57-1.69,1.66,0,3.33-.38,5-.31,2.65.11,5.29.41,7.93.7q4.5.51,9,1.15c2.07.3,4.12.71,6.19,1,1.15.18,2.32.36,3.49.43,3,.16,6.07.37,9.11.37a67.71,67.71,0,0,0,15.77-1.91c2.15-.51,4.37-.71,6.55-1.08a48.23,48.23,0,0,1,10.92-.7c3.19.2,6.39.57,9.55,1.06s6.27,1.27,9.42,1.82a36.59,36.59,0,0,0,4.8.44c3.53.17,7.07.36,10.6.35,2,0,4.06-.39,6.09-.54,5.06-.38,9.85-2.2,14.87-2.75a84.74,84.74,0,0,1,8.73-.39,64.93,64.93,0,0,1,14.68,1.72c2.63.6,5.35.85,8,1.26a57,57,0,0,0,11.3.72c2.52-.12,5-.55,7.55-.68,4.1-.2,8-1.46,12-2.24a39.36,39.36,0,0,1,5-.43q3.53-.21,7.05-.37a48.59,48.59,0,0,1,11.78,1.18,107.58,107.58,0,0,0,11.29,1.87c3.7.33,7.39.71,11.12.7a60.31,60.31,0,0,0,15.75-2,40.48,40.48,0,0,1,9.87-1.41c2.1,0,4.2-.36,6.3-.32a59.12,59.12,0,0,1,10.86,1.05c3.38.68,6.77,1.32,10.17,1.86a49.35,49.35,0,0,0,5.17.42c2.85.15,5.7.38,8.55.34,2.27,0,4.53-.51,6.81-.65,4.27-.26,8.34-1.6,12.53-2.26,1.83-.28,3.7-.28,5.55-.42a29.89,29.89,0,0,1,3.87-.34c3.21.15,6.4.56,9.61.66,3.93.13,7.67,1.18,11.46,2a49.21,49.21,0,0,1,5.67,1.7A7.17,7.17,0,0,1,545.6,336.73Z"/><path class="cls-2" d="M232.08,225.2a5.17,5.17,0,0,1-1.59.6q-13.28,0-26.56,0a1.38,1.38,0,0,1-.36-.12c-.36-.86.25-1.32.83-1.64,3.2-1.78,6.42-3.45,10.33-2.38a26.85,26.85,0,0,0,4,.43c3.24.37,6.5.67,9.72,1.17a19.54,19.54,0,0,1,3.58,1.31Z"/><path class="cls-2" d="M194.64,228c.2.54.58,1,.49,1.36-.74,3.15-1.72,6.23-4.25,8.46-1.95,1.71-4,3.33-6,4.91-2.3,1.76-4.68,3.42-7,5.17a3.51,3.51,0,0,1-3.38.61,9.89,9.89,0,0,1,1.1-1.71q9.09-9.15,18.24-18.25A7.43,7.43,0,0,1,194.64,228Z"/><path class="cls-2" d="M196.11,221.34a6.49,6.49,0,0,1-1.79-.28,32.91,32.91,0,0,1-3-1.86,14.5,14.5,0,0,1-1.73-1.4,4.93,4.93,0,0,1-1.19-1.4c-1.66-3.79-3.29-7.6-4.85-11.43-.75-1.83-1.35-3.71-2-5.58a2.84,2.84,0,0,1,.45-3.25,8.31,8.31,0,0,1,1.12,1.24c1.51,2.7,3,5.43,4.47,8.14l7.81,14.15A17.65,17.65,0,0,1,196.11,221.34Z"/><path class="cls-2" d="M201.17,224.91a3.56,3.56,0,0,1-3,3.15,3.79,3.79,0,0,1-3.3-3.18,3.49,3.49,0,0,1,3.27-3.17A3,3,0,0,1,201.17,224.91Z"/><path class="cls-3" d="M205.94,280.7l-1.69.2c-.05.94-.1,1.8-.14,2.66-2.21-.11-2.29,0-2.27,2.42a3.3,3.3,0,0,1-.24-.82c0-5.62,0-11.24-.08-16.85,0-1.47-.25-2.93-.39-4.47a7.93,7.93,0,0,1,1.23-.19,112,112,0,0,0,12.92-1.08,69.31,69.31,0,0,0,17.84-4.66,39.68,39.68,0,0,0,10.41-6.38,44.85,44.85,0,0,1,7.75-5.05,116.4,116.4,0,0,1,13.64-6.33,15.63,15.63,0,0,1,8.21-.6c3.66.56,6.89,2.31,10.28,3.63,2.58,1,5.14,2.12,7.79,2.91a3,3,0,0,1,2.13,2.47,1.18,1.18,0,0,1-1.08,1.58,6.75,6.75,0,0,1-1.49,0,1.47,1.47,0,0,0-1.74,1,2.16,2.16,0,0,0,.57,2.18c.11.13.34.16.48.27,1.54,1.17,1.58,1.39.62,3a2.42,2.42,0,0,0,.6,3.31c.36.32.78.58,1.31,1-1.51,1.16-3.14.91-4.65.7-.5-.07-1-.89-1.29-1.47A3,3,0,0,0,284,258.4a2.2,2.2,0,0,0-2.36,1.88c-.15.71-.32,1.42-.47,2.07-.25.07-.39.15-.49.13-2.3-.56-2.4-.47-2.41,1.94a20.88,20.88,0,0,1-.05,2.24c0,.28-.39.53-.82,1-.15-.65-.21-.87-.25-1.1a2.34,2.34,0,0,0-3-2.19,12.29,12.29,0,0,1-1.43.33,2,2,0,0,1-2.08-.92A2.57,2.57,0,0,0,268,262.5a2.6,2.6,0,0,1-2.65-1.32A3.3,3.3,0,0,0,261,259.9a7,7,0,0,1-4.66.45c-1.6-.46-3,.55-4.19,1.55s-2.44,2.09-3.71,3.18c-.9-.23-1.82-.65-2.74.2-.6.56-1.11,0-1.6-.41-1.43-1.25-2.8-1.09-3.91.46-.36.5-.67,1-1,1.61a11.88,11.88,0,0,0-1.45.09,1.55,1.55,0,0,0-1.33,1.36c-.16.78-.32,1.56-.55,2.32a1.31,1.31,0,0,0,.73,1.82,7.65,7.65,0,0,0,1,.36l.85.27a4.24,4.24,0,0,1-1.57,3.36c.35.6.82,1.16.35,2a1.71,1.71,0,0,0,.38,1.48c.47.55,1.15.9,1.11,1.78,0,.16.33.49.5.48,1.66,0,1.93,2,3.86,2-.75.81-1.21,1.29-1.65,1.79-1,1.15-.66,2.31.85,2.57.83.15,1.76-.15,2.12,1,0,.13.82.14,1.2,0a4.11,4.11,0,0,0,1-.74l.69,2h1.25a1.63,1.63,0,0,1,.13.54,2.15,2.15,0,0,0,1.55,2.45,2.88,2.88,0,0,1,1.83,2.15,31.29,31.29,0,0,0,1.91,5,12.53,12.53,0,0,1,1.33,8.15c-.79,0-1.63.08-2.47.09s-1.74,0-2.64,0c.65-2.27-.07-3.27-2.43-3.35-1,0-1.57-.17-1.77-1.37-.22-1.35-2.42-2.55-3.81-2.32-.9.16-1.79.4-2.69.59a3.78,3.78,0,0,1-3.14-.79,6.7,6.7,0,0,0-4.88-1.38,4.17,4.17,0,0,1-3.23-1.07c-1.9-1.53-4.19-1.32-6.42-1a10,10,0,0,0-2.68.65,2.2,2.2,0,0,1-2.41-.36c-.65-.44-1.33-.84-2.5-1.59.79-.54,1.34-.94,1.92-1.32.91-.59.67-1.67,1-2.5.09-.19-.25-.67-.49-.89a6.3,6.3,0,0,0-1.14-.66,8.53,8.53,0,0,0,.55-1c.47-1.24.39-1.78-.69-2.52a1.71,1.71,0,0,1-.79-1.54c-.1-1.91-.12-1.9-2-1.56a6,6,0,0,1-1-.06c.18-.71.29-1.34.5-1.93a1.78,1.78,0,0,0-1.07-2.5,4.64,4.64,0,0,1-1.91-1.35,1.58,1.58,0,0,0-1.86-.83,1.47,1.47,0,0,0-1.23,1.45C206,280.3,206,280.48,205.94,280.7Z"/><path class="cls-3" d="M466.8,277.12c-1.91,0-3.82.07-5.73,0a2.87,2.87,0,0,0-2.54,1.21c-1.29,1.58-2.63,3.12-3.95,4.68-.72.85-1.43,1.71-2.18,2.53-.48.53-1,1-1.77,1.7v-7.72l2.43-.34c-.76-.46-1.14-.72-1.55-.92l-16.16-8.12a2.2,2.2,0,0,0-2.27-.19c-5.53,3-11.09,6-16.63,9,0,0-.05.11-.1.27l1.15.44v6c-4.08-1.78-7.84-3.91-12-5.86l-17.88,9.43,1.43.52v7.48c-1.24-.85-2.26-.06-3.36.14s-2.28.33-3.74.54c-.95-1.06-1-3.36-3.15-3.57,1.3-3,2.49-5.79,3.8-8.57a25.42,25.42,0,0,1,2-3.11c.57-.87,1.28-1.63,1.22-2.82a7.35,7.35,0,0,1,.53-2c.79.16,1.56.26,2.3.46,1.56.43,2.23,0,2.36-1.51a5.14,5.14,0,0,1,1.24-3,5.68,5.68,0,0,0,1-2.32c.33-1.42.68-1.76,2.08-1.51a2.17,2.17,0,0,0,2.33-.74,11.8,11.8,0,0,1,1.13-1.07c.47.13.95.23,1.4.4a11.67,11.67,0,0,0,10.76-1.36,38.34,38.34,0,0,1,12-5.25,22.83,22.83,0,0,1,9.94,0,59.78,59.78,0,0,1,12.33,4.47c5.85,2.7,11.72,5.36,17.55,8.08,1.43.67,2.76,1.53,4.14,2.3Z"/><path class="cls-3" d="M194.1,301.68c-1.26.93-2.23,1.68-3.22,2.37-.65.45-1.25,1-2.2.59a4.27,4.27,0,0,0-1.66.12v-4.69l2-.22c-.4-.48-.68-.87-1-1.2-2.15-2.17-4.33-4.31-6.47-6.5a2.47,2.47,0,0,0-2-.82c-2,.05-4,0-6,0-.54,0-1.09,0-1.89-.08a18.16,18.16,0,0,0,1.15-1.41,1.61,1.61,0,0,0-1.29-2.63c-.71-.07-1.41-.24-2.46-.42.66-.61,1-1,1.43-1.32a1.78,1.78,0,0,0,.46-2.34c-.79-1.71-.81-1.74.6-2.85a1.74,1.74,0,0,0,.64-2.15c-.3-.73-1-.77-1.73-.72a9,9,0,0,1-2.09-.4,15.3,15.3,0,0,0,.7-2.13,1.89,1.89,0,0,0-.21-1.31c-.89-1.22-2-1.37-3.73-.64-1.39-.84-1.39-.84-2.63-.13-2.13-1.07-2.23-1-3.17,1.2-.94.31-.94-.49-1.25-1.05a3.91,3.91,0,0,1,2-1.58c.67-.24,1.17-1,2-1.71a3.9,3.9,0,0,0,.93-.11,1,1,0,0,0,.64-1.49,10.67,10.67,0,0,0-1.1-1.64c-.76-1-1-1-2.82-.71-.23-1,.55-1.15,1.15-1.29,1.31-.32,2.64-.57,4-.78a81.67,81.67,0,0,1,17-1.11c2,.1,4,.44,6.07.65.61.06,1.24,0,1.86.08,1.47.09,2.94.2,4.5.31C194.9,276.49,193.72,289.17,194.1,301.68Z"/><path class="cls-3" d="M135.79,274.56l1.8.91c-.22.67-.72.61-1.17.36s-1-.73-1.51-1.07a1.17,1.17,0,0,0-1.71.54c-.36.65-.15,1.71.46,1.72,1.86,0,1.6,1.36,1.66,2.51.78.57,1.85.65,2.2,1.8a1.19,1.19,0,0,0,1.62.43,3.51,3.51,0,0,1,1.13-.13c.3.78.51,1.49-.22,2.07a1.63,1.63,0,0,1-2.19,0,2.73,2.73,0,0,0-1-.52,1.15,1.15,0,0,0-1.45,1.48c.07.3.17.59.26.89s.16.45.35,1h-2.31c-.58,0-1.26,0-1.36.67a4.1,4.1,0,0,0,.28,1.75c.08.25.53.36.67.61s.45.81.34,1.11-.59.54-1,.69a2.6,2.6,0,0,1-.93,0c-1.93,0-3.86,0-5.8,0a2.14,2.14,0,0,1-1.22-.27c-.84-.64-.37-3.81.6-4.29.53-.27,1.08-.49,1.7-.77-1.91-3.55-3.75-7-5.63-10.48,1-1.23,2.66-1.5,4-2.06,5.84-2.35,12-3.78,18.06-5.33l1.18-.3,2.69,2.11-1.77,2.3c-.16-.73-.13-1.07-.29-1.27a7.19,7.19,0,0,0-1-.93c-.29.35-.71.66-.81,1.06a6,6,0,0,0,0,1.58c-.75.51-1.17.23-1.48-.32a1.8,1.8,0,0,0-2.25-1.14c-.39.1-.94-.41-1.61-.74-.63.22-1.43.46-1.13,1.69.06.24-.26.57-.42.86C136.39,273.49,136.13,273.94,135.79,274.56Z"/><path class="cls-3" d="M332.57,311.18c-2,0-3.85.08-5.64,0-1.45-.08-2.57-1.9-2.49-3.86a3.86,3.86,0,0,0,1.44-.58c.25-.25.12-.86.18-1.39a6.31,6.31,0,0,0,1.81-.64,3.34,3.34,0,0,0,1.25-1.69c.16-.72-.78-1.38-1.8-1.54a13.11,13.11,0,0,1-2.16-.43,1.7,1.7,0,0,1-.78-.88c-.24-.47-.2-1.21-.55-1.47a5.26,5.26,0,0,0-2.19-.92,6.11,6.11,0,0,0-2.2.17,6.64,6.64,0,0,1-4.38-.45V292c.76-.58,1.57-1.22,2.42-1.83,1.19-.85,1.75-.78,3.24.49a14.23,14.23,0,0,1-1.4,1.31,2.19,2.19,0,0,0-.8,2.69,2.16,2.16,0,0,0,2.83.55,19.31,19.31,0,0,0,2-1.7c.63,1.17-.14,2.77,1.35,3.46s2.39-.51,3.57-.82c-.53,2.36,1.07,3.53,3.86,2.79.14.3.42.62.42.94C332.58,303.56,332.57,307.23,332.57,311.18Z"/><path class="cls-3" d="M272.37,297.16A14.82,14.82,0,0,0,271,298c-1.46,1.25-2.93,2.34-5.09,2.06-.67-.09-1.43.47-1.54,1.53a8.67,8.67,0,0,1-1,2.33c1.17,1.23,3.08.59,4.48,1.69-.74.87-1.19,2-2.47,2.33l.52,1.27h-5.56c.17-2.77-.71-5.58,1.08-8.21a17.5,17.5,0,0,0,1.69-3.7,9.57,9.57,0,0,1,2-3.51,3.49,3.49,0,0,0,.8-1.8c.12-.75.2-1.37,1.13-1.38a1.91,1.91,0,0,1,1.88,1.45,1.75,1.75,0,0,1,0,.56,3.36,3.36,0,0,0,2.09,3.73C271.41,296.55,271.77,296.8,272.37,297.16Z"/><path class="cls-3" d="M337.94,303.92a3.53,3.53,0,0,1,3.63-.08,3.27,3.27,0,0,0,2,0c1.49-.29,2-.08,2.66,1.32a4.23,4.23,0,0,1,.43,1.22c.2,1.76.36,3.53.54,5.37-3.13.69-6.09-.49-9.22-.17Z"/><path class="cls-3" d="M296.62,292.18c.11-2.11,2.22-2.69,3-4.09,1,.62,1.82,1.49,2.78,1.66s2.1-.35,3.29-.6a7.24,7.24,0,0,0,.92,2.2c.79.95,1.66.09,2.53-.49,1.15,1.75.28,3.5.67,5.16a3.45,3.45,0,0,1-2.86-.9,7,7,0,0,0-5.91-1.3,1.43,1.43,0,0,1-.89,0C299,293.36,298,292.81,296.62,292.18Z"/><path class="cls-3" d="M182.76,300.76v7.36c-2.31.15-4.56,0-6.93.07v-7.44C178.07,300.67,180.32,300.69,182.76,300.76Z"/><path class="cls-3" d="M163.5,300.77h6.81v7.31H163.5Z"/><path class="cls-3" d="M152.23,308.19v-7.38h6.87v7.3c-1.1,0-2.25.07-3.39.08Z"/><path class="cls-3" d="M146.4,300.82v7.27h-6.87v-7.27Z"/><path class="cls-3" d="M127.91,300.8h6.86v7.31c-2.24.17-4.49.07-6.86.05Z"/><path class="cls-3" d="M396.34,294.06H401v6.83a17,17,0,0,1-4.64.12Z"/><path class="cls-3" d="M373.85,292.14c-1.44-.39-1.67-1.29-2-2.05-.77-1.61-1.56-3.2-2.23-4.84a4.13,4.13,0,0,1,.54-4.36,21.42,21.42,0,0,0,1.31-2.24C373.3,283.12,373.46,287.51,373.85,292.14Z"/><path class="cls-3" d="M473.73,303.21H468.9c0-2,0-4.06,0-6.09,0-.3.52-.59.8-.87,0,0,.12,0,.18,0,3.29-.56,3.82-.11,3.82,3.18Z"/><path class="cls-3" d="M429.44,304h-4.27v-7.25h4.27Z"/><path class="cls-3" d="M499.3,309.41h4.26v6.87H499.3Z"/><path class="cls-3" d="M482.45,309.42h4.28v6.87h-4.28Z"/><path class="cls-3" d="M460.13,316.34h-4.26v-6.87h4.26Z"/><path class="cls-3" d="M429.4,290.91h-4.19V284h4.19Z"/><path class="cls-3" d="M442.66,290.89h-4.37V284h4.37v6.94Z"/><path class="cls-3" d="M486.84,303.24h-4.38v-6.93h4.38v6.93Z"/><path class="cls-3" d="M455.86,296.21c1.14,0,2.13,0,3.11,0a11.35,11.35,0,0,1,1.17.11v6.85h-4.28Z"/><path class="cls-3" d="M413.91,301h-4.15c-.1-2.27-.05-4.52,0-6.92h4.14A18.46,18.46,0,0,1,413.91,301Z"/><path class="cls-3" d="M375.56,284.51c.18-3.73.34-7.31.55-10.9,0-.37.38-.72.87-1a3.46,3.46,0,0,1,0,.72c-.42,1.7-.3,2.13,1.2,3,.55.33.88.68.82,1.31a18.51,18.51,0,0,1-.32,2.37,19.52,19.52,0,0,1-1,3C377.4,283.78,377,284.66,375.56,284.51Z"/><path class="cls-3" d="M381.29,281.21c.37.79.74,1.19.67,1.51a17.79,17.79,0,0,1-4.93,9.66,3.76,3.76,0,0,1,.2-4.64,8.29,8.29,0,0,0,2.7-4.51C380,282.64,380.65,282.14,381.29,281.21Z"/><path class="cls-3" d="M400.75,314.1c-.59-.75-1.19-1.45-1.73-2.21a17.18,17.18,0,0,0-1.83-2.69c-.69-.67-.58-1.24-.45-2h4.06A17.94,17.94,0,0,1,400.75,314.1Z"/><path class="cls-3" d="M255.06,291.38c1.19,1.81,2.15,7.76,1.52,9.74a13.74,13.74,0,0,1-2.94-5.93,4.31,4.31,0,0,1,.42-2.12A10.45,10.45,0,0,1,255.06,291.38Z"/><path class="cls-3" d="M354.37,303.48c-1.06,1.47-.41,3.39-1.83,4.59-.14.12-.12.48-.1.72.14,1.62.1,1.59-2.08,2.73a5,5,0,0,1-.16-1.39c.38-1.88-.09-4,1.45-5.57A2.86,2.86,0,0,1,354.37,303.48Z"/><path class="cls-3" d="M258.66,287.22l2,3c.13,2.22-.58,4.24-2,5.13C257.9,292.65,258.53,290,258.66,287.22Z"/><path class="cls-3" d="M262.44,293.19c.68,2.67-1.11,6.53-3.3,7.91a2.59,2.59,0,0,1,.46-3.18,7,7,0,0,0,1.92-3.51C261.6,294,262.12,293.59,262.44,293.19Z"/><path class="cls-2" d="M463.12,148.45h-1.59c-.21,0-.29,0-.43.39l-8.21,20.81c-.32.79-.43,1.26-.79,1.26s-.36-.29-.61-.94l-7.63-18.46c-1.23-2.92-1.44-3.06-2.63-3.06h-.86v-1.08h7.77v1.08H446.2c-.22,0-.36,0-.36.21s2.52,5.91,7.13,17.1c4.6-11.19,6.26-15.33,6.26-16.7,0-.5-.29-.61-.9-.61h-2.05v-1.08h6.84Z"/><path class="cls-2" d="M475.43,168a9.3,9.3,0,0,1-6.77,2.84c-4.53,0-6.87-3.56-6.87-7.77s2.26-8.72,7-8.72c3.35,0,5,2.27,6.37,5.12l-10.55,2.84c.18,3.53,1.66,6.84,5.8,6.84a6.73,6.73,0,0,0,4.54-1.8Zm-3.49-8.71c-.58-1.59-1.8-3.85-3.71-3.85-2.48,0-3.64,3.52-3.64,5.79Z"/><path class="cls-2" d="M482.34,163.6c0,3.93,0,5.65,1.12,5.65h1.73v1h-7.67v-1h1.26c.32,0,.75-.14.75-.57v-8.5c0-4.32-.28-4.32-1.47-4.32h-1.37v-1c.54,0,1.76-.14,2.92-.29s2.34-.29,2.73-.29v3.14c1.44-1.51,3.1-3.14,4.65-3.14a2.36,2.36,0,0,1,1.76.76c-.47,2.74-.5,2.81-.83,2.81-.54,0-.21-1.15-2.12-1.15a4.87,4.87,0,0,0-3.46,2Z"/><path class="cls-2" d="M495.3,163.6c0,3.93,0,5.65,1.12,5.65H498v1h-7.52v-1h1.26c.32,0,.75-.14.75-.57v-8.5c0-4.32-.28-4.32-1.47-4.32h-1.37v-1c.54,0,1.76-.14,2.92-.29s2.34-.29,2.73-.29v3c1.87-1.51,3.24-2.92,5.94-2.92a3.38,3.38,0,0,1,3.71,2.84c1.76-1.36,3.31-2.88,5.58-2.88,3.74,0,4.35,2.45,4.35,5.12v4.17c0,3.93,0,5.65,1.12,5.65h1.58v1h-7.52v-1h1.26c.32,0,.76-.14.76-.57v-8.5c0-3.31-1.23-4.1-2.85-4a7,7,0,0,0-4.14,2v5.4c0,3.93,0,5.65,1.12,5.65h1.58v1h-7.52v-1h1.26c.32,0,.75-.14.75-.57v-8.5c0-3.31-1.22-4.07-2.84-4-1.8.07-2.88,1.12-4.14,2Z"/><path class="cls-2" d="M534.83,162.23c0,2.88-1.87,8.57-8.17,8.57-4.65,0-7.31-3.42-7.31-7.92,0-2.88,1.87-8.57,8.17-8.57C532.16,154.31,534.83,157.73,534.83,162.23Zm-2.92.9c0-3.13-1.37-7.73-5.22-7.73-3.6,0-4.42,3.74-4.42,6.62,0,3.13,1.36,7.7,5.21,7.7C531.08,169.72,531.91,166,531.91,163.13Z"/><path class="cls-2" d="M552.86,163.6c0,3.93,0,5.65,1.12,5.65h1.58v1H548v-1h1.26c.32,0,.76-.14.76-.57v-8.5c0-3.31-1.23-4-2.85-4a6.94,6.94,0,0,0-4.61,2v5.4c0,3.93,0,5.65,1.12,5.65h1.58v1h-7.52v-1H539c.33,0,.76-.14.76-.57v-8.5c0-4.32-.29-4.32-1.48-4.32H537v-1c.54,0,1.77-.14,2.92-.29s2.34-.29,2.73-.29V157c1.84-1.37,3.46-2.71,5.91-2.71,3.74,0,4.35,2.45,4.35,5.12Z"/><path class="cls-2" d="M565.79,154.89c-.15.79-.22,1-.72,1H562v9.47c0,2.3.11,4,2.38,4a6.07,6.07,0,0,0,2.37-.58l.36.8a11.18,11.18,0,0,1-4.14,1.29c-1.26,0-3.77-.11-3.77-3.56V155.86c-1.66,0-1.8,0-1.8-.25s.32-.54,4-4.35H562v3.63Z"/><path class="cls-2" d="M427.39,186.93c-.33,0-.36-.14-.44-.68-.18-1.3-3.16-2.27-5.32-2.27-6.63,0-10.44,5-10.44,11.3,0,6.7,5,10.33,9.5,10.33,3.24,0,6.8-1.47,7.06-3.49,0-.29.07-.65.46-.65s.36.26.36.47-.07.87-.21,3.13a19.57,19.57,0,0,1-8.28,1.84c-7.16,0-12.17-3.74-12.17-11.23,0-7.74,6.45-13,13.93-13a16.82,16.82,0,0,1,6.19,1.23C427.78,186.82,427.75,186.93,427.39,186.93Z"/><path class="cls-2" d="M446.76,198.23c0,2.88-1.88,8.57-8.18,8.57-4.64,0-7.3-3.42-7.3-7.92,0-2.88,1.87-8.57,8.17-8.57C444.09,190.31,446.76,193.73,446.76,198.23Zm-2.92.9c0-3.13-1.37-7.73-5.22-7.73-3.6,0-4.43,3.74-4.43,6.62,0,3.13,1.37,7.7,5.22,7.7C443,205.72,443.84,202,443.84,199.13Z"/><path class="cls-2" d="M464.79,199.6c0,3.93,0,5.65,1.12,5.65h1.58v1H460v-1h1.26c.32,0,.75-.14.75-.57v-8.5c0-3.31-1.22-4-2.84-4a6.92,6.92,0,0,0-4.61,2v5.4c0,3.93,0,5.65,1.12,5.65h1.58v1h-7.52v-1H451c.32,0,.75-.14.75-.57v-8.5c0-4.32-.28-4.32-1.47-4.32h-1.37v-1c.54,0,1.76-.14,2.92-.29s2.34-.29,2.73-.29V193c1.84-1.37,3.46-2.71,5.91-2.71,3.74,0,4.35,2.45,4.35,5.12Z"/><path class="cls-2" d="M473.36,206.8a12.26,12.26,0,0,1-4.28-.72c-.25-1.58-.44-2.63-.44-2.91,0-.44.15-.54.4-.54s.43.25.51.57c.46,1.62,2.95,2.41,4.39,2.41,1.94,0,4.21-.9,4.21-3.31,0-3.67-9.07-1.51-9.07-7.16,0-1.73,1.44-4.83,6.48-4.83a9.65,9.65,0,0,1,3.81.8c.11,1.08.22,2,.22,2.3s-.07.5-.33.5-.36-.18-.46-.39c-.62-1.37-2.49-2-3.86-2s-3.63.83-3.63,2.67c0,3.63,9.29,1.69,9.29,7.41C480.6,205.36,476.53,206.8,473.36,206.8Z"/><path class="cls-2" d="M496.54,204a9.26,9.26,0,0,1-6.76,2.84c-4.54,0-6.88-3.56-6.88-7.77s2.27-8.72,7-8.72c3.35,0,5,2.27,6.38,5.12l-10.55,2.84c.18,3.53,1.65,6.84,5.79,6.84a6.69,6.69,0,0,0,4.54-1.8Zm-3.49-8.71c-.57-1.59-1.8-3.85-3.71-3.85-2.48,0-3.63,3.52-3.63,5.79Z"/><path class="cls-2" d="M503.46,199.6c0,3.93,0,5.65,1.11,5.65h1.73v1h-7.67v-1h1.26c.33,0,.76-.14.76-.57v-8.5c0-4.32-.29-4.32-1.48-4.32H497.8v-1c.54,0,1.77-.14,2.92-.29s2.34-.29,2.74-.29v3.14c1.44-1.51,3.09-3.14,4.64-3.14a2.35,2.35,0,0,1,1.76.76c-.47,2.74-.5,2.81-.83,2.81-.54,0-.21-1.15-2.12-1.15a4.85,4.85,0,0,0-3.45,2Z"/><path class="cls-2" d="M527.29,191.86c-1.34,0-1.59,0-1.88.62l-6.11,14c-.11.25-.26.43-.44.43s-.28-.11-.47-.51c-6-14.54-6.29-14.54-6.87-14.54h-1v-1h7.23v1h-1.62c-.21,0-.57,0-.57.33s.75,2.12,4.32,10.58c3-6.84,3.77-9.36,3.77-10.26,0-.57-.28-.65-.75-.65h-1.69v-1h6.12Z"/><path class="cls-2" d="M537.26,196.54v-1.83c0-1.62-.11-3-2.66-3a5.25,5.25,0,0,0-2.92.86c0,1.94-.79,3.35-2,3.35a1,1,0,0,1-1-1c0-2.51,3.82-4.68,7.63-4.68,3.57,0,3.75,1.73,3.75,4.65v5.51c0,3,.21,4,2.37,4.5l-1.08,1.83a4.22,4.22,0,0,1-3.89-3.27c-1.4,1.4-3.81,3.27-5.83,3.27a3.1,3.1,0,0,1-3.24-3.38c0-3.1,3.06-4.47,7.56-6.34Zm0,1.12c-3.67,1.4-5.94,2.63-5.94,5.07a1.75,1.75,0,0,0,1.87,2,5.38,5.38,0,0,0,4.07-2.38Z"/><path class="cls-2" d="M552.88,190.89c-.14.79-.21,1-.72,1h-3.09v9.47c0,2.3.1,4,2.37,4a6.16,6.16,0,0,0,2.38-.58l.36.8A11.18,11.18,0,0,1,550,206.8c-1.26,0-3.78-.11-3.78-3.56V191.86c-1.66,0-1.8,0-1.8-.25s.32-.54,4-4.35h.58v3.63Z"/><path class="cls-2" d="M563.18,206.23h-7.67v-1h1.26c.32,0,.76-.14.76-.57v-8.5c0-4.32-.29-4.32-1.48-4.32h-1.37v-1c.54,0,1.77-.14,2.92-.29s2.34-.29,2.73-.29v9.29c0,3.93,0,5.65,1.12,5.65h1.73Zm-2.88-21.06a1.62,1.62,0,0,1-3.24,0,1.62,1.62,0,0,1,3.24,0Z"/><path class="cls-2" d="M580.53,198.23c0,2.88-1.87,8.57-8.17,8.57-4.65,0-7.31-3.42-7.31-7.92,0-2.88,1.87-8.57,8.17-8.57C577.86,190.31,580.53,193.73,580.53,198.23Zm-2.92.9c0-3.13-1.36-7.73-5.22-7.73-3.6,0-4.42,3.74-4.42,6.62,0,3.13,1.36,7.7,5.22,7.7C576.79,205.72,577.61,202,577.61,199.13Z"/><path class="cls-2" d="M598.56,199.6c0,3.93,0,5.65,1.12,5.65h1.58v1h-7.52v-1H595c.32,0,.76-.14.76-.57v-8.5c0-3.31-1.23-4-2.85-4a6.94,6.94,0,0,0-4.61,2v5.4c0,3.93,0,5.65,1.12,5.65H591v1h-7.53v-1h1.26c.33,0,.76-.14.76-.57v-8.5c0-4.32-.29-4.32-1.48-4.32h-1.37v-1c.54,0,1.77-.14,2.92-.29s2.34-.29,2.73-.29V193c1.84-1.37,3.46-2.71,5.91-2.71,3.74,0,4.35,2.45,4.35,5.12Z"/><path class="cls-2" d="M481,220.45h-1.58c-.22,0-.29,0-.43.39l-8.21,20.81c-.32.79-.43,1.26-.79,1.26s-.36-.29-.61-.94l-7.64-18.46c-1.22-2.92-1.44-3.06-2.62-3.06h-.87v-1.08H466v1.08h-1.95c-.21,0-.36,0-.36.21s2.52,5.91,7.13,17.1c4.61-11.19,6.26-15.33,6.26-16.7,0-.5-.28-.61-.9-.61h-2.05v-1.08H481Z"/><path class="cls-2" d="M494.4,234.23c0,2.88-1.87,8.57-8.17,8.57-4.64,0-7.31-3.42-7.31-7.92,0-2.88,1.87-8.57,8.17-8.57C491.74,226.31,494.4,229.73,494.4,234.23Zm-2.92.9c0-3.13-1.36-7.73-5.21-7.73-3.6,0-4.43,3.74-4.43,6.62,0,3.13,1.37,7.7,5.22,7.7C490.66,241.72,491.48,238,491.48,235.13Z"/><path class="cls-2" d="M505.71,226.89c-.15.79-.22,1-.72,1h-3.1v9.47c0,2.3.11,4,2.37,4a6.08,6.08,0,0,0,2.38-.58l.36.8a11.18,11.18,0,0,1-4.14,1.29c-1.26,0-3.78-.11-3.78-3.56V227.86c-1.65,0-1.8,0-1.8-.25s.33-.54,4-4.35h.58v3.63Z"/><path class="cls-2" d="M521.87,240a9.3,9.3,0,0,1-6.77,2.84c-4.53,0-6.87-3.56-6.87-7.77s2.26-8.72,7-8.72c3.35,0,5,2.27,6.37,5.12L511,234.27c.18,3.53,1.66,6.84,5.8,6.84a6.68,6.68,0,0,0,4.53-1.8Zm-3.49-8.71c-.58-1.59-1.8-3.85-3.71-3.85-2.49,0-3.64,3.52-3.64,5.79Z"/><path class="cls-2" d="M528.78,235.6c0,3.93,0,5.65,1.12,5.65h1.72v1H524v-1h1.26c.32,0,.75-.14.75-.57v-8.5c0-4.32-.29-4.32-1.47-4.32h-1.37v-1c.54,0,1.76-.14,2.92-.29s2.34-.29,2.73-.29v3.14c1.44-1.51,3.1-3.14,4.64-3.14a2.37,2.37,0,0,1,1.77.76c-.47,2.74-.51,2.81-.83,2.81-.54,0-.22-1.15-2.12-1.15a4.87,4.87,0,0,0-3.46,2Z"/><path class="cls-2" d="M540.91,242.8a12.3,12.3,0,0,1-4.28-.72c-.25-1.58-.43-2.63-.43-2.91,0-.44.14-.54.39-.54s.44.25.51.57c.46,1.62,2.95,2.41,4.39,2.41,1.94,0,4.21-.9,4.21-3.31,0-3.67-9.07-1.51-9.07-7.16,0-1.73,1.44-4.83,6.48-4.83a9.65,9.65,0,0,1,3.81.8c.11,1.08.22,2,.22,2.3s-.07.5-.32.5-.36-.18-.47-.39c-.61-1.37-2.49-2-3.85-2-1.52,0-3.64.83-3.64,2.67,0,3.63,9.29,1.69,9.29,7.41C548.15,241.36,544.08,242.8,540.91,242.8Z"/></g></g></svg>