<svg xmlns="http://www.w3.org/2000/svg" viewBox="0 0 243.98 224.17"><defs><style>.cls-1{fill:#2a6a35;}</style></defs><title>energyAsset 3</title><g id="Layer_2" data-name="Layer 2"><g id="Layer_1-2" data-name="Layer 1"><path class="cls-1" d="M210.71,30.22a3.29,3.29,0,1,0,4.06,2.26A3.28,3.28,0,0,0,210.71,30.22Zm7.79,1.18a7.18,7.18,0,1,0-4.91,8.88A7.18,7.18,0,0,0,218.5,31.4ZM203.92,64.66C184.5,54.31,184.57,39.58,188,29.05a3.56,3.56,0,0,0,.26-2.29,2.61,2.61,0,0,0-5.09.29l-.11.38c-5.82,17.57.72,32.41,18.37,41.83a2.78,2.78,0,0,0,1.95.2A2.69,2.69,0,0,0,205,68.17a2.6,2.6,0,0,0-1.09-3.51ZM163.86,21.73a8.85,8.85,0,0,0-6.53,2.52,8.34,8.34,0,0,0,.4,12.21,8.74,8.74,0,0,0,6.62,2.12,2.36,2.36,0,0,0,.46-.1,2.59,2.59,0,0,0-1-5.08,3.53,3.53,0,0,1-2.67-.83,3.09,3.09,0,0,1-1.09-2.29A3,3,0,0,1,161,28a3.57,3.57,0,0,1,2.64-1,2.62,2.62,0,0,0,.2-5.23Zm15.25,49.59a2.63,2.63,0,0,0-3.67-.42,3.11,3.11,0,0,1-2.51.69,3.17,3.17,0,0,1-2.15-1.34,3.39,3.39,0,0,1-.32-2.73,3.26,3.26,0,0,1,1.78-1.92,2.64,2.64,0,0,0,1.29-3.48,2.61,2.61,0,0,0-3.45-1.27,8.45,8.45,0,0,0-4.57,5.05,8.57,8.57,0,0,0,.81,7,8.38,8.38,0,0,0,5.77,3.8A8.5,8.5,0,0,0,178.7,75a2.6,2.6,0,0,0,.41-3.65Zm-17-13.74a8.81,8.81,0,0,0,6.35.53c.15,0,.26-.24.4-.28a2.79,2.79,0,0,0,1.59-3.46,2.9,2.9,0,0,0-3.26-2l-.13,0c-1,.28-1.88.59-2.67.19a2.69,2.69,0,0,1-1.53-1.73,3.15,3.15,0,0,1,.43-2.51,3.46,3.46,0,0,1,2.33-1.5,2.56,2.56,0,0,0,2.15-3,2.62,2.62,0,0,0-3-2.13,8.63,8.63,0,0,0-5.83,3.78,8.26,8.26,0,0,0-1.12,6.69,8.69,8.69,0,0,0,4.29,5.35ZM143.3,24.66A8.31,8.31,0,0,0,137,27.28a9,9,0,0,0,.82,13.22,8.37,8.37,0,0,0,6.55,1.87,1.23,1.23,0,0,0,.38-.08,2.59,2.59,0,0,0,1.84-2.85,2.62,2.62,0,0,0-2.92-2.23,3.3,3.3,0,0,1-2.56-.73,3.86,3.86,0,0,1-.35-5.58,3.33,3.33,0,0,1,2.43-1,2.6,2.6,0,0,0,.07-5.19Zm17.22,54.21a2.58,2.58,0,0,0-3.59-.73,3.32,3.32,0,0,1-2.5.47,4.12,4.12,0,0,1-2.49-1.89,3.81,3.81,0,0,1-.28-3.07,3.17,3.17,0,0,1,1.74-1.93A2.6,2.6,0,1,0,151.28,67a8.27,8.27,0,0,0-4.56,5,9.21,9.21,0,0,0,.66,7.34,9.53,9.53,0,0,0,5.89,4.39,8.22,8.22,0,0,0,4.18-.11,8.65,8.65,0,0,0,2.34-1.07,2.63,2.63,0,0,0,.73-3.64Zm-17-23a3.64,3.64,0,0,1,.35-2.92,3.3,3.3,0,0,1,2.2-1.58,2.61,2.61,0,1,0-1-5.12,8.74,8.74,0,0,0-6.55,11,8.83,8.83,0,0,0,4.39,5.6,8.67,8.67,0,0,0,6.4.69c.2-.06.37-.11.57-.19A2.6,2.6,0,0,0,151.38,60a2.52,2.52,0,0,0-3.31-1.54,3.44,3.44,0,0,1-2.78-.23,3.65,3.65,0,0,1-1.77-2.38Zm-8.2,17.09a2.61,2.61,0,0,0-3.66-.55,3.36,3.36,0,0,1-2.77.63,2.71,2.71,0,0,1-1.77-1.34A2.75,2.75,0,0,1,127,69.4a3.42,3.42,0,0,1,2-1.93,2.6,2.6,0,1,0-1.82-4.87,8.57,8.57,0,0,0-5.08,5,7.9,7.9,0,0,0,5.67,10.55,8.53,8.53,0,0,0,4.17-.13,9,9,0,0,0,2.83-1.39,2.65,2.65,0,0,0,.55-3.66ZM119.21,58.29c2,1.38,4.45,1.38,6.86.69l.1,0c1.32-.38,2.3-1.24,1.94-2.61s-1.61-1.73-3-1.36a3.52,3.52,0,0,1-2.82-.47,2.63,2.63,0,0,1-1.17-1.91,2.73,2.73,0,0,1,.65-2.16,3.49,3.49,0,0,1,2.59-1.17,2.61,2.61,0,0,0,2.54-2.68,2.66,2.66,0,0,0-2.67-2.6,8.76,8.76,0,0,0-6.45,2.9A7.59,7.59,0,0,0,115.86,53a7.37,7.37,0,0,0,3.35,5.32Zm121-21.22c-4.36,10.81-20.47,39.65-71.15,54.13C115.33,106.55,69.84,84.92,59,79c.33-.44,39.32-50.78,87.79-64.62,3.23-.93,6.54-1.28,9.65-2.17,18.74-4,36.93-1.58,51.4,2.33A150.21,150.21,0,0,1,236.9,25.91c-1.26,2.69-1.66,4.89-1.19,6.57s2,3.3,4.51,4.59ZM123.52.18c-3.6,10.33-.67,16.53,0,17.68a132.67,132.67,0,0,1,21.8-8.48c1.28-.36,2.57-.68,3.84-1C141.94,4.14,130.92-1,123.52.18ZM53.72,82.05l-2.37-1.44L53,78.34c.17-.24.83-1.16,1.9-2.57-5.87-4-22.42-14.21-39.62-13.42C17.69,69,22.66,75.86,26.11,80.62c2.49,3.41,3.42,4.69,4,6.66.46,1.61.63,4.21.32,8.45-.41,5.85-1,14.23.42,21.17C47,108,56,89.6,58.28,84.57c-2.88-1.48-4.49-2.46-4.56-2.52Zm31.34,13c-.16.12-5.24,6.56-3.34,8.84,4.78,5.76,21.45-1.16,25.52-3.9a205.06,205.06,0,0,1-22.18-4.94Zm85.12,1.24c-10.67,10.36-23.84,22.28-27.85,23.43-1,.28-1.35,0-1.54-.16-2.45-2.12-2.61-11.34-1.95-18a145.94,145.94,0,0,0,31.34-5.24Z"/><path class="cls-1" d="M174.38,194c-19.47,0-36.28-9-45.45-16.93-65.42-51.75-114.19-2.79-116.24-.68L0,164.24a103,103,0,0,1,40.48-24c23-7.23,58.87-9.08,99.54,23.18l.33.27c1.38,1.19,34.85,29.34,68.63-2.31l12,12.84C205.4,188.88,189.13,194,174.38,194Z"/><path class="cls-1" d="M175.15,224.17c-20.19,0-44.67-6.54-71.19-27.57l-.32-.27C102.25,195.14,68.77,167,35,198.64L23,185.81c36.28-34,76-16.83,92.08-2.87,65.78,52,114.19,2.81,116.22.68L244,195.79a102.92,102.92,0,0,1-40.47,24,94.3,94.3,0,0,1-28.36,4.39Z"/></g></g></svg>