<svg xmlns="http://www.w3.org/2000/svg" viewBox="0 0 388.33 301.31"><defs><style>.cls-1{fill:#2a6a35;}.cls-2{fill:#fff;}</style></defs><title>energyAsset 1</title><g id="Layer_2" data-name="Layer 2"><g id="Layer_1-2" data-name="Layer 1"><path class="cls-1" d="M164.52,183.53c-1.39,2.07-2.07,4.15-3.46,6.23a16.3,16.3,0,0,1-4.84,4.84,28.56,28.56,0,0,1,.69-7.62c0-.69-1.39-1.39-1.39-.69a42.76,42.76,0,0,0-.69,9c0,3.46-1.39,6.93-2.08,10.39-1.38,6.23-2.07,11.77-4.84,16.62v-.7c0-11.77.69-23.53.69-34.61a2.08,2.08,0,1,0-4.15,0c0,9.69,0,20.08-.7,29.76v4.85c-.69-2.08-1.38-4.16-2.76-5.54,0-4.16-1.39-8.31-2.08-12.46,0-.7-1.39-.7-1.39.69.7,2.77,1.39,6.23,2.08,9.69,0-.69-.69-.69-.69-1.38-2.08-4.16-3.47-8.31-6.23-11.77-.7-.69-1.39,0-1.39.69a51.78,51.78,0,0,1,4.84,8.31,46.08,46.08,0,0,0-5.54-2.08c-3.46-1.38-6.92-3.46-11.07-4.84-.69,0-1.39.69-.69,1.39a70,70,0,0,1,10.38,4.84c2.77,1.39,4.85,1.39,7.62,3.46h.69v.7c.7.69.7,2.07,1.39,2.76,1.39,2.08,2.08,4.85,2.77,7.62.69,1.39.69,2.77,1.39,3.46v4.16c-.7,6.23-1.39,23.38-1.39,24.07-.69,2.77,4.11,2.08,6.87,1.39,1.39-.69-.64-22-.64-31,3.46-4.84,4.84-10.38,5.54-16.61.69-3.47,1.38-6.93,2.07-11.08v-.69c1.39-1.39,3.46-2.77,4.85-4.84,2.07-2.77,2.76-5.54,4.84-7.62.69-1.4,0-2.09-.69-1.4Z"/><path class="cls-1" d="M132.67,178c1.39,4.16,2.08,9,3.47,13.16,0,.69,1.38.69,1.38-.7A83.62,83.62,0,0,1,134.06,178c-.69-1.38-1.39-.69-1.39,0Z"/><path class="cls-1" d="M140.29,175.21c0-4.15-1.39-8.3-2.77-12.46,0-.69-1.39-.69-1.39.7,1.39,4.15,2.77,7.61,2.77,12.46,0,0,1.39,0,1.39-.7Z"/><path class="cls-1" d="M140.29,162.75a52.62,52.62,0,0,1,.69,10.39c0,.69,1.39.69,1.39,0a51.89,51.89,0,0,0-.7-10.39C141.67,162.06,140.29,162.06,140.29,162.75Z"/><path class="cls-1" d="M133.37,151c.69,1.39,1.39,2.77,2.07,4.16.7.69,1.39,0,1.39-.69-.69-.7-.69-2.08-1.39-2.77,2.77-1.39,3.47-4.85,3.47-7.62,0-.69-1.39-.69-1.39,0,0,2.08-.7,5.54-2.77,6.93a33.5,33.5,0,0,0-2.07-4.85c-.7-.69-1.39,0-1.39.7.69,1.38,1.39,2.76,2.08,4.15Z"/><path class="cls-1" d="M141,153.75c-.69-3.46,1.39-6.92,1.39-10.38,0-.7-1.39-.7-1.39,0,0,4.15-1.38,7.61-.69,11.08,0,.69,1.38.69.69-.7Z"/><path class="cls-1" d="M179.75,178.68h0l-.69.69h-1.39c0-.69-.69-1.39-.69-.69V178a.68.68,0,0,0,.69-.69h.69C178.36,178,179.06,178,179.75,178.68ZM155.51,203.6h0V205c0-.7-.69-.7-1.38-.7h-.7v-.69c1.4.69,2.08.69,2.08,0Zm-54.68-11.77c0-.69.69-.69.69-1.39l-.69,1.39Zm88.61-55.38h0c.69,0,.69.69,0,0h0C190.13,137.14,189.44,137.14,189.44,136.45ZM138.91,185.6h0a.68.68,0,0,1,.69.69c.69,0,0,0-.69-.69Zm-26.31-54Zm-1.39,49.15-.69-.69v-.7h.69v1.39Zm24.23-32.53c0,.69-.69.69-.69,1.38l-.69-.69h-.7a.68.68,0,0,1,.7-.69v-.7A2.12,2.12,0,0,0,135.44,148.22Zm3.46-1.39c0,.69-.69.69-.69,1.39h-1.39v-.7c.7.7,1.39,0,1.39-.69Zm16.62-17.3h2.76v.69a5.22,5.22,0,0,0-2.76-.69ZM141,187.68h0c0-.7,0-.7-.69-1.39.69,0,.69,0,.69-.7v-1.38a2.53,2.53,0,0,0,.69,2.07c0,.7-.69.7-.69,1.4Zm-21.46-7.62v-1.38l.69.69a2.11,2.11,0,0,0,2.77,0h.7l.69.69c-.69,0-1.39,0-1.39.7a6.18,6.18,0,0,0-3.46-.7Zm1.39-63h0l.69-.69A.68.68,0,0,1,120.91,117.06Zm89.3,42.23c-.69-.69-.69-.69-1.39,0a.68.68,0,0,0-.69.69h-.69v-.69h.69v-.69c.69,0,0-1.39-.69-1.39a.68.68,0,0,0-.7.69c0-.69-.69-.69-1.39-.69a.69.69,0,0,0-1.38,0v-1.39c-.7-.69-.7-.69-1.39,0a.68.68,0,0,0-.69.7h-.7v-.7h.7v-.69c.69,0,0-1.39-.7-1.39a.68.68,0,0,0-.69.69c0-.69-.69-.69-1.39-.69,0-.69,0-.69-.69-.69v-.7a.68.68,0,0,0,.69-.69l.7-.69h.69v.69c0,.69.69,1.39,1.39.69v-.69c0,.69,1.38.69,1.38,0V151c0-.7-.69-.7-1.38-.7h-.7a.68.68,0,0,0-.69-.69v-.69h.69l.7-.7c.69,0,.69-1.39,0-1.39a.69.69,0,0,0-.7.7c0-.7-.69-1.39-.69-.7,0-.69,0-.69-.69-.69a.68.68,0,0,0-.7.69v-1.38a.68.68,0,0,0-.69-.7h-.7a2.41,2.41,0,0,0-1.38-.69v-.69c.69,0,.69-1.39,0-1.39a.68.68,0,0,0-.7.69c0-.69-.69-1.38-.69-.69,0-.69,0-.69-.69-.69a.68.68,0,0,0-.7.69v-1.39a.68.68,0,0,0-.69-.69h-.69a2.57,2.57,0,0,0-2.08-.69v-1.39c-.69-1.39-1.39-1.39-2.77-.7,0-.69,0-.69-.69-1.38a.69.69,0,0,0-.7-.7h-1.38a1.49,1.49,0,0,0-1.39-1.38h.69c0,.69,1.39,0,1.39-.7-.69-1.38-1.39-1.38-2.77-.69,0-.69,0-.69-.69-1.39s-.69,0-.69.7a.69.69,0,0,1-.7-.7,2.4,2.4,0,0,0,.7-1.39.68.68,0,0,0,.69-.69l.69-.69h.7v.69c0,.69.69,1.39,1.38.69v-.69c0,.69,1.39.69,1.39,0v-.69c0-.7-.69-.7-1.39-.7h-.69a.68.68,0,0,0-.69-.69V126h.69l.69-.7c.7,0,.7-1.38,0-1.38a.68.68,0,0,0-.69.69c0-.69-.69-1.39-.69-.69,0-.7,0-.7-.7-.7,0-.62,0,.07,0,.07v-1.38a.68.68,0,0,0-.69-.7h-.7c.7,0,.7-1.38,0-1.38a.68.68,0,0,0-.69.69c0-.69-.7-1.39-.7-.69,0-.7,0-.7-.69-.7a.68.68,0,0,0-.69.7v-1.39a.68.68,0,0,0-.7-.69H177c-.69-.7-.69-.7-1.39-.7a.68.68,0,0,0-.69-.69c0-.7,0-.7-.69-.7a.69.69,0,0,0-.7.7c0-.7-.69-.7-1.38-1.39h.69c0,.69,1.39.69,1.39-.69-.7-1.39-1.39-1.39-2.77-.7a.68.68,0,0,0-.7-.69c.7-.69,1.39-1.39,1.39-2.07a2.21,2.21,0,0,0,2.08,2.07c2.07,0,2.76-2.07,2.07-2.77a.7.7,0,0,1,1.39,0h.69c.7,0,.7-1.39,0-1.39,1.39-1.38-.69-4.15-2.07-2.76v-2.08c-.7-.7-1.39,0-.7.69v.69l-.69-.69c0-1.39-.69-2.77-2.08-2.77v-.69a.68.68,0,0,1-.69-.7c-.69-.69-1.39,0-1.39.7v.69l-.69-.69c-1.37.71-2.06.71-2.75,0v-.69c-.69,0-.69-.7-1.39-.7a.68.68,0,0,0-.69.7h-.69c0-.7-.7-2.08-1.39-2.08s-1.39.7-2.08,1.39a1.49,1.49,0,0,0-1.38-1.39h-1.39A1.49,1.49,0,0,0,156.89,97a2.52,2.52,0,0,0-2.07-.7,2.21,2.21,0,0,0-2.08-2.07,1.83,1.83,0,0,0-2.07,2.07H147.9c-.69.7-1.38,0-2.07,0a2.52,2.52,0,0,0-2.07.69c0-.69-.7-1.39-2.08-1.39a2.5,2.5,0,0,0-2.07.7,2.54,2.54,0,0,0-2.77,2.77c-1.39-.7-2.77,0-4.16.69a.68.68,0,0,0-.69-.69c0,.68-.7.68-.7,1.38-.69-.7-2.08,0-2.77.69,0,.69.69.69,1.39,0,0-.69,0-.69.69,0-.69.69-1.39,1.39-1.39,2.08h-1.38c-.69-.69-.69,0,0,.69h-.7c-.69,0,0,1.39.7,1.39V106c-.7.69,0,.69-2.08,0h-1.39a.68.68,0,0,0-.69-.69c-.69,0-.69.69-.69,1.38a2.52,2.52,0,0,0-2.08.7h-.69a.68.68,0,0,1-.69.69v1.39a5.36,5.36,0,0,0,.7-2.09c-.7,0-.7,0-.7.7a2.45,2.45,0,0,0-1.39.69l-.69-.69c-.69,0-.69,1.38,0,1.38,0,.7,0,.7.69.7h.7v.69a.68.68,0,0,0-.7.69h-.69c-.69,0-1.39,0-1.39.7v.69c0,.69.7.69,1.39,0v.69c0,.7,1.39,0,1.39-.69v.69h.69v.7a.68.68,0,0,0-.69.69h-.7c-.69,0-1.38,0-1.38.7v.69c0,.69.69.69,1.38,0v.69h-1.38a1.84,1.84,0,0,0-2.08-2.07,2.93,2.93,0,0,0-.69,2,2.51,2.51,0,0,0-2.07.7c-.69,0-.69.69-.69,1.39-.7,0-1.39-.7-2.08-.7a1.5,1.5,0,0,0-1.39,1.39c0-.69-.69-1.39-2.07-1.39s-2.08,1.39-1.39,2.08h-.69c0-.7,0-.7-.69-.7s-.7,0-1.39.7a1,1,0,0,0,0,1.38l-.7.7c-.68,0-1.38.68-2.06,1.38v-.7c.68-.69,0-1.38-.7-.69V124c-2.07-1.39-4.15,1.38-2.77,2.77-.69,0-.69,1.38,0,1.38H96a.68.68,0,0,0,.69-.69,3,3,0,0,0-.69,3.46c-.7,0-.7,1.38,0,1.38h.69a.68.68,0,0,0,.69-.69.68.68,0,0,1,.7.69c-.7,1.39,0,3.47,2.07,2.77a2.21,2.21,0,0,0,2.08-2.07,2.2,2.2,0,0,0,2.07,2.07c-1.38,0-1.38,1.39-.69,1.39H105a3.57,3.57,0,0,0-1.39,2.77v-.7c0-.69-.69-1.38-1.39-.69v1.39c-2.07-.7-3.45,2.07-2.07,3.46v.69c-.7,0-.7.69-1.38.69h-.7c-.69-1.38-1.39-2.07-2.77-1.38-.69.69-1.38,1.38-.69,2.77-1.39,0-2.07.69-2.07,1.38s-.7.69,0,1.39a2.54,2.54,0,0,0-2.08.69c-1.39,0-1.39.69-1.39,1.38-.69,0-1.38-.69-2.08,0-1.38.7-1.38,1.39-1.38,2.77h-.69a.68.68,0,0,0-.7-.69c-.69,0-.69.69-1.38.69,0,.69,0,1.39.69,1.39v.69a5.26,5.26,0,0,0-1.38,2.77v-.69c0-.7-1.39-1.39-1.39-.7v1.39a3.8,3.8,0,0,0-2.07,3.46,4.18,4.18,0,0,0,.69,2.77c-.69,0-.69,1.38.69,1.38h.7a.68.68,0,0,0,.69-.69h1.39c-.69,1.38.69,2.77,2.77,2.77,0-.69,0-2.08,0-2.77l2.08,2.08c-.7,0-.7,1.39,0,1.39v1.38c-.7,0-.7,1.39,0,1.39h.69a.68.68,0,0,0,.69-.69l.7.69c-.7,1.39,0,3.46,1.38,3.46a2.21,2.21,0,0,0,2.08-2.07c0,.69.69,2.07,1.39,2.07-.7,0-.7.7,0,1.39H96a.68.68,0,0,0,.7-.69h3.46c.69,0,1.39-.7,2.07-1.39a2.21,2.21,0,0,0,2.08,2.07c.69,0,.69,0,1.39-.69v.69c-.7,0-.7.7-.7,1.39l-.69.69v-.69c0-.69-1.39-1.39-1.39-.69,0,1.38,0,2.07,1.39,2.07a2.54,2.54,0,0,0,.69,2.08v.69h-.69c0-.69,0-.69-.7-.69h-1.38a1,1,0,0,0,0,1.38l-.7.7c-.69.69-1.38.69-2.07,2.07v-.69c.69-.7-.69-1.39-.69-.7s-.7.7-.7,1.39v.7c-2.07-1.39-3.46,1.38-2.77,2.76-.69,0-.69,1.39,0,1.39H96a.68.68,0,0,0,.69-.69.68.68,0,0,1,.69.69,1.3,1.3,0,0,0,0,2.08c-1.38,0-2.07,2.07-1.38,3.46-.7,0-.7,1.39,0,1.39h.69a.68.68,0,0,0,.69-.7l.7.7c-.7,1.38,0,3.46,1.39,3.46a2.21,2.21,0,0,0,2.07-2.08c0,.7.69,2.08,1.39,2.08-.7,0-.7.69,0,1.38h1.38a.68.68,0,0,0,.7-.69h3.46c.69,0,1.39-.69,2.08-1.39,0,.7.69.7,1.38.7s.7,0,1.39-.7v1.39c-.69,0-.69.69-.69,1.39l-.7.69v-.69c0-.7-1.38-1.39-1.38-.7,0,1.39,0,2.08,1.38,2.08a1.83,1.83,0,0,0,2.08,2.07c.69,0,1.38,0,1.38-.69,0,1.39,0,2.08,1.39,2.77a2.54,2.54,0,0,0,2.08-.69c1.37,1.38,1.37.68,1.37,0s-.7-1.39-1.39-2.08v-.69h.69c-.69,1.39,0,2.77,2.08,2.77,1.38,0,2.07-1.39,2.07-2.77h.69a2.45,2.45,0,0,0,1.39.69c.7,0,1.39,0,1.39-.69a.68.68,0,0,0,.69.69,2.09,2.09,0,0,0,2.77,0h.7c.69.7.69,1.39,1.38,1.39a.68.68,0,0,0-.69.7c-.69.69,0,1.38.69.69a.68.68,0,0,0,.7-.69c.69,0,.69.69,1.38.69s.7-.69,1.39-.69a.68.68,0,0,0,.69-.7c1.39.7,2.77.7,3.47,0,0,.7,0,.7.69,1.39-.69,0-.69,1.39,0,1.39h.69l.7.69v.69c0,.7,1.38.7,1.38,0,.7,0,1.39.7,2.08.7a2.5,2.5,0,0,0,2.07-.7c.7.7,1.39,0,1.39-.69v-.69a.68.68,0,0,0-.69-.7c1.38.7,2.77,0,2.77-1.38h.69l.69-.7h.7v.7c-.7.69.69,1.38,1.38.69v-.69c0,.69,1.39.69,1.39,0v-.7c0,.7.69.7,1.39.7h.69c.7,0,1.39,0,1.39-.7v-.69h2.08c.69-.7.69-.7,0-1.39s-.69-.69-1.39-.69l-.69-.7c0-.69-.69-.69-1.39-.69h-.69v-.69h.69c.7-.7.7-.7,0-1.39a2.54,2.54,0,0,0-2.07-.69.68.68,0,0,0-.7.69h-1.38v-.69c0-.7-.7-.7-1.39-.7h-.69a.68.68,0,0,0-.7-.69v-.7h.7l.69-.69c.69,0,.69-1.39,0-1.39h-.69c0-.69-.7-1.38-.7-.69,0-.69,0-.69-.69-.69a.68.68,0,0,0-.7.69v-1.39a.68.68,0,0,0-.69-.69v-.69c0-.7-.69-1.39-1.39-2.08V189h.7c-.7,1.38,0,2.77,2.07,2.77,1.39,0,2.08-1.39,2.08-2.77h.69a2.41,2.41,0,0,0,1.39.69c.69,0,1.39,0,1.39-.69a.68.68,0,0,0,.69.69,2.11,2.11,0,0,0,2.77,0h.69c.69.69.69,1.39,1.39,1.39a.68.68,0,0,0-.7.69c-.69.7,0,1.39.7.7a.68.68,0,0,0,.69-.7c.7,0,.7.7,1.39.7s.69-.7,1.39-.7a.68.68,0,0,0,.69-.69c1.39.69,2.77.69,3.46,0,0,.69,0,.69.7,1.39-.7,0-.7,1.38,0,1.38h.69l.69.7v.69c0,.69,1.39.69,1.39,0,.69,0,1.39.69,2.07.69a2.54,2.54,0,0,0,2.08-.69c.69.69,1.39,0,1.39-.69v-.7a.68.68,0,0,0-.7-.69c1.39.69,2.77,0,2.77-1.39h.7l.69-.69h.69v.69c-.69.7.7,1.39,1.39.7v-.7c0,.7,1.39.7,1.39,0v-.69c0-.7-.7-.7-1.39-.7h-.69a.68.68,0,0,0-.7-.69V189h.7l.69-.7c.69,0,.69-1.38,0-1.38h-.69c0-.7-.7-1.39-.7-.7,0-.69,0-.69-.69-.69a.68.68,0,0,0-.69.69v-1.38a.69.69,0,0,0-.7-.7v-.69c0-.7-.69-.7-1.39-.7h-1.38v-.69h.69l.69-.69a.69.69,0,0,0,.7-.7,1,1,0,0,0,1.39,0,.68.68,0,0,0,.69-.69c.69,0,.69.69,1.39.69s.69-.69,1.38-.69a.68.68,0,0,0,.7-.69c1.38.69,2.77.69,3.46,0,0,.69,0,.69.69,1.38-.69,0-.69,1.39,0,1.39h.7l.69.69v.7c0,.69,1.39.69,1.39,0,.69,0,1.38.69,2.07.69a2.54,2.54,0,0,0,2.08-.69c.69.69,1.38,0,1.38-.7v-.69a.68.68,0,0,0-.69-.69c1.39.69,2.77,0,2.77-1.39h.69l.7-.69H202V180c-.69.69.69,1.39,1.39.69V180c0,.69,1.38.69,1.38,0v-.69c0-.7-.69-.7-1.38-.7h-.7a.68.68,0,0,0-.69-.69v-.69h.69l.7-.7c.69,0,.69-1.39,0-1.39h-.7c0-.69-.69-1.38-.69-.69,0-.69,0-.69-.69-.69a.68.68,0,0,0-.7.69v-1.39a.68.68,0,0,0-.69-.69h-.69c-2.83-.64-3.52-1.33-4.9-1.33H195l.69-.69c.7,0,.7-1.39,0-1.39H195c0-.69-.69-1.38-.69-.69,0-.69,0-.69-.7-.69a.68.68,0,0,0-.69.69V166.9a.68.68,0,0,0-.69-.69h.69s.69-.7,0-.7a5.28,5.28,0,0,0,3.46-1.38.68.68,0,0,0,.7.69c-.7,0-.7,1.39.69,1.39a.68.68,0,0,0,.69-.7l.7.7v1.39c0,.69,1.38.69,1.38-.7h2.08c.69,0,1.39-.69,2.07-1.39.7.7,1.39-.69.7-.69a.68.68,0,0,0-.7-.69H204c1.39,0,2.77-.7,2.07-2.08a.68.68,0,0,0,.7-.69l.69-.69h.7v.69c0,.69,1.38,1.39,1.38,0v-.69c.7.69,1.39,0,1.39-.7-.7,0-.7,0-.7-.68Z"/><path class="cls-1" d="M109.86,157.22c-1.28,1.84-1.92,3.68-3.2,5.52a14.8,14.8,0,0,1-4.49,4.28,24.13,24.13,0,0,1,.64-6.74c0-.61-1.28-1.23-1.28-.61a35.61,35.61,0,0,0-.65,8c0,3.07-1.28,6.13-1.92,9.19-1.28,5.51-1.92,10.41-4.49,14.7v-.61c0-10.41.65-20.82.65-30.62,0-2.45-3.86-2.45-3.86,0,0,8.57,0,17.76-.64,26.33v4.28a12.2,12.2,0,0,0-2.56-4.9c0-3.67-1.29-7.34-1.93-11,0-.61-1.28-.61-1.28.61.64,2.45,1.28,5.52,1.92,8.58,0-.61-.64-.61-.64-1.23-1.92-3.67-3.21-7.35-5.77-10.41-.65-.61-1.29,0-1.29.62a44.84,44.84,0,0,1,4.49,7.34,46.44,46.44,0,0,0-5.13-1.83c-3.21-1.23-6.42-3.07-10.26-4.29-.65,0-1.29.62-.65,1.23a67.6,67.6,0,0,1,9.63,4.28c2.56,1.23,4.49,1.23,7.06,3.07h.64v.61c.64.61.64,1.84,1.28,2.45a21.07,21.07,0,0,1,2.57,6.74c.64,1.23.64,2.45,1.28,3.06v3.68c-.64,5.51-1.28,43.13-1.28,43.74-.64,2.45,3.8,1.84,6.37,1.23,1.28-.61-.6-41.91-.6-49.87,3.21-4.28,4.49-9.19,5.13-14.7.65-3.06,1.29-6.13,1.93-9.8v-.61c1.28-1.23,3.2-2.45,4.48-4.28,1.93-2.45,2.57-4.9,4.49-6.74.64-1.24,0-1.85-.64-1.24Z"/><path class="cls-1" d="M80.35,152.32c1.29,3.68,1.93,8,3.21,11.64,0,.61,1.29.61,1.29-.62a71.3,71.3,0,0,1-3.22-11c-.63-1.22-1.28-.61-1.28,0Z"/><path class="cls-1" d="M87.41,149.87c0-3.68-1.29-7.35-2.57-11,0-.62-1.28-.62-1.28.61,1.28,3.68,2.56,6.74,2.56,11,0,0,1.29,0,1.29-.61Z"/><path class="cls-1" d="M87.41,138.85a44.38,44.38,0,0,1,.64,9.19c0,.61,1.29.61,1.29,0a43.71,43.71,0,0,0-.65-9.19C88.69,138.23,87.41,138.23,87.41,138.85Z"/><path class="cls-1" d="M81,128.44l1.92,3.67c.64.62,1.29,0,1.29-.61-.65-.61-.65-1.84-1.29-2.45,2.57-1.23,3.21-4.29,3.21-6.74,0-.61-1.29-.61-1.29,0,0,1.84-.64,4.9-2.56,6.13a28.88,28.88,0,0,0-1.92-4.29c-.65-.61-1.29,0-1.29.62.64,1.22,1.29,2.44,1.93,3.67Z"/><path class="cls-1" d="M88.05,130.89c-.64-3.07,1.29-6.13,1.29-9.19,0-.62-1.29-.62-1.29,0,0,3.67-1.28,6.74-.64,9.8,0,.61,1.28.61.64-.61Z"/><path class="cls-1" d="M124,152.93h0l-.65.62h-1.28c0-.62-.65-1.23-.65-.62v-.61s.65,0,.65-.61h.64C122.69,152.32,123.33,152.32,124,152.93Zm-22.46,22h0v1.23c0-.61-.64-.61-1.29-.61h-.64V175c1.29.62,1.93.62,1.93,0ZM50.85,164.57c0-.61.64-.61.64-1.23l-.64,1.23Zm82.11-49h0c.63,0,.63.61,0,0h0C133.59,116.19,133,116.19,133,115.58ZM86.13,159.06h0a.61.61,0,0,1,.64.61c.64,0,0,0-.64-.61ZM61.75,111.29Zm-1.28,43.48-.64-.61v-.62h.64v1.23ZM82.92,126c0,.61-.64.61-.64,1.23l-.65-.62H81a.61.61,0,0,1,.64-.61v-.62A2,2,0,0,0,82.92,126Zm3.21-1.23c0,.61-.65.61-.65,1.23H84.2v-.62c.64.62,1.28,0,1.28-.61Zm15.39-15.31h2.56v.62a5,5,0,0,0-2.56-.62ZM88.05,160.9h0c0-.62,0-.62-.64-1.23.64,0,.64,0,.64-.62v-1.22a2.17,2.17,0,0,0,.64,1.83c0,.62-.64.62-.64,1.24Zm-19.88-6.74v-1.23l.64.62a2,2,0,0,0,2.56,0H72l.64.61c-.64,0-1.29,0-1.29.62a5.93,5.93,0,0,0-3.2-.62Zm1.28-55.73h0l.64-.61A.61.61,0,0,1,69.45,98.43Zm82.75,37.35c-.64-.61-.64-.61-1.29,0a.62.62,0,0,0-.64.62h-.64v-.62h.64v-.61c.64,0,0-1.23-.64-1.23a.62.62,0,0,0-.64.62c0-.62-.65-.62-1.29-.62a.62.62,0,0,0-.64-.61.61.61,0,0,0-.65.61v-1.22c-.64-.62-.64-.62-1.28,0a.62.62,0,0,0-.64.61h-.65v-.61h.65v-.62c.64,0,0-1.22-.65-1.22a.62.62,0,0,0-.64.61c0-.61-.64-.61-1.28-.61,0-.62,0-.62-.65-.62v-.61a.63.63,0,0,0,.65-.62l.64-.61h.64V129c0,.62.64,1.23,1.29.62V129c0,.62,1.28.62,1.28,0v-.61c0-.61-.64-.61-1.28-.61h-.65a.61.61,0,0,0-.64-.62v-.61h.64l.65-.61c.64,0,.64-1.23,0-1.23,0,0-.65,0-.65.61,0-.61-.64-1.22-.64-.61,0-.61,0-.61-.64-.61a.61.61,0,0,0-.64.61v-1.23a.61.61,0,0,0-.65-.61h-.64a2.26,2.26,0,0,0-1.29-.62v-.61c.65,0,.65-1.23,0-1.23a.62.62,0,0,0-.64.62c0-.62-.64-1.23-.64-.62,0-.61,0-.61-.64-.61a.61.61,0,0,0-.65.61v-1.22a.61.61,0,0,0-.64-.62h-.64a2.44,2.44,0,0,0-1.92-.61v-1.23c-.65-1.23-1.29-1.23-2.57-.61,0-.62,0-.62-.64-1.23a.61.61,0,0,0-.64-.61h-1.29a1.35,1.35,0,0,0-1.29-1.23h.65c0,.61,1.28,0,1.28-.61-.64-1.23-1.28-1.23-2.56-.62,0-.61,0-.61-.65-1.22s-.64,0-.64.61a.62.62,0,0,1-.64-.61,2.14,2.14,0,0,0,.64-1.23.62.62,0,0,0,.64-.61l.65-.62h.64v.62c0,.61.64,1.22,1.29.61v-.61c0,.61,1.28.61,1.28,0v-.62c0-.61-.64-.61-1.28-.61h-.65a.61.61,0,0,0-.64-.62v-.61h.64l.65-.61c.64,0,.64-1.23,0-1.23,0,0-.65,0-.65.61,0-.61-.64-1.22-.64-.61,0-.61,0-.61-.64-.61,0-.55,0,.06,0,.06v-1.23a.61.61,0,0,0-.64-.61h-.64c.64,0,.64-1.23,0-1.23a.63.63,0,0,0-.65.62c0-.62-.64-1.23-.64-.62,0-.61,0-.61-.64-.61a.61.61,0,0,0-.65.61V99.65A.61.61,0,0,0,122,99h-.64c-.64-.61-.64-.61-1.29-.61a.61.61,0,0,0-.64-.62c0-.61,0-.61-.64-.61a.61.61,0,0,0-.64.61c0-.61-.65-.61-1.29-1.22h.64c0,.61,1.29.61,1.29-.62-.64-1.22-1.29-1.22-2.57-.61a.61.61,0,0,0-.64-.61c.64-.62,1.29-1.23,1.29-1.84a2,2,0,0,0,1.92,1.84c1.92,0,2.56-1.84,1.92-2.45a.62.62,0,0,0,.64-.62.62.62,0,0,0,.65.62h.64c.64,0,.64-1.23,0-1.23,1.28-1.23-.64-3.68-1.92-2.45V86.77c-.65-.61-1.29,0-.65.61V88l-.64-.62c0-1.22-.64-2.45-1.92-2.45v-.61a.62.62,0,0,1-.64-.61c-.65-.62-1.29,0-1.29.61v.61l-.64-.61c-1.27.64-1.91.64-2.55,0v-.61c-.64,0-.64-.61-1.29-.61a.61.61,0,0,0-.64.61h-.64c0-.61-.64-1.84-1.29-1.84s-1.28.62-1.92,1.23a1.35,1.35,0,0,0-1.28-1.23h-1.29a1.35,1.35,0,0,0-1.29-1.22,2.4,2.4,0,0,0-1.92-.62A2,2,0,0,0,99,78.22c-1.29,0-1.92.61-1.92,1.83H94.46c-.63.62-1.28,0-1.91,0a2.44,2.44,0,0,0-1.93.61c0-.61-.64-1.23-1.92-1.23a2.39,2.39,0,0,0-1.92.62,2.3,2.3,0,0,0-2.57,2.45c-1.28-.62-2.56,0-3.85.61a.62.62,0,0,0-.64-.61c0,.61-.65.61-.65,1.22-.64-.61-1.92,0-2.56.61,0,.62.64.62,1.28,0,0-.61,0-.61.64,0-.64.62-1.28,1.23-1.28,1.84H75.86c-.63-.61-.63,0,0,.61h-.64c-.64,0,0,1.23.64,1.23v.61c-.64.62,0,.62-1.92,0H72.66A.61.61,0,0,0,72,88c-.64,0-.64.61-.64,1.23a2.42,2.42,0,0,0-1.92.61H68.8a.61.61,0,0,1-.64.61V91.7a4.58,4.58,0,0,0,.65-1.85c-.64,0-.64,0-.64.62a2.27,2.27,0,0,0-1.29.61l-.64-.61c-.64,0-.64,1.23,0,1.23,0,.61,0,.61.64.61h.64v.61a.62.62,0,0,0-.64.62h-.64c-.64,0-1.29,0-1.29.61v.61c0,.62.65.62,1.29,0v.62c0,.61,1.28,0,1.28-.62v.62h.65V96s-.65,0-.65.61h-.64c-.64,0-1.28,0-1.28.62v.61c0,.62.64.62,1.28,0v.62H65.6c0-1.23-.65-1.84-1.93-1.84A2.55,2.55,0,0,0,63,98.43a2.44,2.44,0,0,0-1.93.61c-.64,0-.64.62-.64,1.23-.64,0-1.28-.61-1.92-.61a1.36,1.36,0,0,0-1.29,1.22c0-.61-.64-1.22-1.92-1.22s-1.92,1.22-1.28,1.83h-.65c0-.61,0-.61-.64-.61s-.64,0-1.28.61a.82.82,0,0,0,0,1.23l-.65.61c-.63,0-1.28.61-1.91,1.22v-.61c.63-.61,0-1.23-.65-.61v1.22c-1.92-1.22-3.85,1.23-2.56,2.45-.64,0-.64,1.23,0,1.23h.64a.62.62,0,0,0,.64-.61,2.6,2.6,0,0,0-.64,3c-.64,0-.64,1.23,0,1.23H47s.65,0,.65-.61a.62.62,0,0,1,.64.61c-.64,1.23,0,3.06,1.92,2.45a2,2,0,0,0,1.92-1.83,2,2,0,0,0,1.93,1.83c-1.29,0-1.29,1.23-.65,1.23H54.7A3.14,3.14,0,0,0,53.41,118v-.62c0-.61-.64-1.22-1.28-.61V118a1.87,1.87,0,0,0-1.92,3.06v.61c-.65,0-.65.61-1.28.61h-.65c-.64-1.22-1.28-1.83-2.56-1.22-.65.61-1.29,1.22-.65,2.45-1.28,0-1.92.61-1.92,1.22s-.64.61,0,1.23a2.43,2.43,0,0,0-1.92.61c-1.29,0-1.29.61-1.29,1.22-.64,0-1.28-.61-1.92,0-1.28.62-1.28,1.23-1.28,2.45h-.65a.62.62,0,0,0-.64-.61c-.64,0-.64.61-1.28.61,0,.62,0,1.23.64,1.23v.61a4.57,4.57,0,0,0-1.28,2.45V134c0-.61-1.29-1.23-1.29-.61v1.22a3.36,3.36,0,0,0-1.92,3.07,3.55,3.55,0,0,0,.64,2.44c-.64,0-.64,1.23.65,1.23h.64a.62.62,0,0,0,.64-.62h1.29c-.65,1.23.64,2.45,2.56,2.45v-2.44l1.92,1.83c-.64,0-.64,1.23,0,1.23V145c-.64,0-.64,1.23,0,1.23h.64a.62.62,0,0,0,.64-.62l.65.62c-.65,1.22,0,3.06,1.28,3.06a2,2,0,0,0,1.93-1.84c0,.62.64,1.84,1.28,1.84-.64,0-.64.61,0,1.23h1.29a.62.62,0,0,0,.64-.62h3.21c.64,0,1.28-.61,1.92-1.23a2,2,0,0,0,1.92,1.84c.64,0,.64,0,1.29-.61v.61c-.65,0-.65.61-.65,1.23l-.64.61v-.61c0-.62-1.28-1.23-1.28-.62,0,1.23,0,1.84,1.28,1.84a2.17,2.17,0,0,0,.64,1.83v.62h-.64c0-.62,0-.62-.64-.62H52.13a.83.83,0,0,0,0,1.23l-.64.62c-.64.61-1.28.61-1.92,1.83v-.61c.64-.62-.64-1.23-.64-.62s-.65.62-.65,1.23v.61c-1.92-1.22-3.21,1.23-2.56,2.45-.64,0-.64,1.23,0,1.23h.64a.62.62,0,0,0,.64-.61s.65,0,.65.61a1.11,1.11,0,0,0,0,1.84c-1.29,0-1.93,1.83-1.29,3.06-.64,0-.64,1.23,0,1.23H47a.63.63,0,0,0,.65-.62l.64.62c-.64,1.22,0,3.06,1.28,3.06a2,2,0,0,0,1.93-1.84c0,.62.64,1.84,1.28,1.84-.64,0-.64.61,0,1.23h1.29a.62.62,0,0,0,.64-.62h3.21c.64,0,1.28-.61,1.92-1.22,0,.61.64.61,1.29.61s.64,0,1.28-.61v1.22c-.64,0-.64.62-.64,1.23l-.64.61v-.61c0-.61-1.29-1.23-1.29-.61,0,1.22,0,1.83,1.29,1.83,0,1.23.64,1.84,1.92,1.84.64,0,1.28,0,1.28-.62,0,1.23,0,1.84,1.29,2.45a2.43,2.43,0,0,0,1.92-.61c1.27,1.22,1.27.61,1.27,0s-.64-1.22-1.29-1.83v-.62h.65c-.65,1.23,0,2.45,1.92,2.45,1.29,0,1.92-1.22,1.92-2.45h.65a2.26,2.26,0,0,0,1.28.62c.64,0,1.29,0,1.29-.62a.61.61,0,0,0,.64.62,2,2,0,0,0,2.56,0h.65c.64.61.64,1.23,1.28,1.23a.62.62,0,0,0-.64.61c-.64.61,0,1.23.64.61a.62.62,0,0,0,.64-.61c.65,0,.65.61,1.29.61s.64-.61,1.29-.61a.61.61,0,0,0,.64-.61c1.28.61,2.56.61,3.21,0,0,.61,0,.61.64,1.22-.64,0-.64,1.23,0,1.23h.64l.64.61v.62c0,.61,1.29.61,1.29,0,.64,0,1.29.61,1.92.61a2.44,2.44,0,0,0,1.93-.61c.64.61,1.28,0,1.28-.62v-.61a.62.62,0,0,0-.64-.61c1.28.61,2.56,0,2.56-1.23h.65l.64-.61h.64v.61c-.64.61.64,1.23,1.29.61v-.61c0,.61,1.28.61,1.28,0v-.61c0,.61.64.61,1.29.61h.64c.64,0,1.29,0,1.29-.61v-.62h1.92c.65-.61.65-.61,0-1.23s-.64-.61-1.28-.61l-.64-.61c0-.62-.65-.62-1.29-.62h-.64v-.61h.64c.64-.61.64-.61,0-1.23a2.44,2.44,0,0,0-1.92-.61s-.65,0-.65.61h-1.28v-.61c0-.61-.64-.61-1.29-.61h-.64a.61.61,0,0,0-.64-.62v-.61h.64l.64-.62c.65,0,.65-1.22,0-1.22h-.64c0-.62-.64-1.23-.64-.62,0-.61,0-.61-.64-.61a.61.61,0,0,0-.65.61v-1.22a.61.61,0,0,0-.64-.62v-.61c0-.61-.64-1.23-1.28-1.84v-.61h.64c-.64,1.23,0,2.45,1.92,2.45,1.29,0,1.92-1.23,1.92-2.45h.65a2.27,2.27,0,0,0,1.28.61c.64,0,1.29,0,1.29-.61a.61.61,0,0,0,.64.61,2,2,0,0,0,2.56,0H106c.64.62.64,1.23,1.28,1.23a.62.62,0,0,0-.64.61c-.64.62,0,1.23.64.62a.63.63,0,0,0,.65-.62c.64,0,.64.62,1.28.62s.64-.62,1.29-.62a.61.61,0,0,0,.64-.61c1.28.61,2.56.61,3.21,0,0,.61,0,.61.64,1.23-.64,0-.64,1.23,0,1.23h.64l.64.61v.61c0,.62,1.29.62,1.29,0,.64,0,1.29.62,1.92.62a2.41,2.41,0,0,0,1.93-.62c.64.62,1.28,0,1.28-.61v-.61a.62.62,0,0,0-.64-.62c1.28.62,2.56,0,2.56-1.23h.65l.64-.61h.64v.61c-.64.62.64,1.23,1.29.62v-.62c0,.62,1.28.62,1.28,0v-.61c0-.61-.64-.61-1.28-.61h-.65a.61.61,0,0,0-.64-.62v-.61h.64l.65-.61c.64,0,.64-1.23,0-1.23h-.65c0-.61-.64-1.23-.64-.61,0-.62,0-.62-.64-.62a.61.61,0,0,0-.64.62v-1.23a.62.62,0,0,0-.65-.62v-.61c0-.61-.64-.61-1.28-.61h-1.29V156h.64l.65-.61a.61.61,0,0,0,.64-.61.93.93,0,0,0,1.29,0,.62.62,0,0,0,.64-.62c.64,0,.64.62,1.28.62s.65-.62,1.29-.62a.61.61,0,0,0,.64-.61c1.29.61,2.57.61,3.21,0,0,.61,0,.61.64,1.23-.64,0-.64,1.22,0,1.22h.65l.64.62v.61c0,.61,1.28.61,1.28,0,.65,0,1.29.61,1.93.61a2.43,2.43,0,0,0,1.92-.61c.64.61,1.28,0,1.28-.61V156a.62.62,0,0,0-.64-.61c1.29.61,2.57,0,2.57-1.23h.64l.64-.61h.64v.61c-.64.62.65,1.23,1.29.62v-.62c0,.62,1.29.62,1.29,0v-.61c0-.61-.65-.61-1.29-.61h-.64a.62.62,0,0,0-.65-.62v-.61h.65l.64-.61c.64,0,.64-1.23,0-1.23h-.64c0-.62-.65-1.23-.65-.62,0-.61,0-.61-.64-.61a.61.61,0,0,0-.64.61V148a.61.61,0,0,0-.64-.62H142c-2.61-.56-3.25-1.17-4.53-1.17h.64l.64-.61c.64,0,.64-1.23,0-1.23h-.64c0-.61-.64-1.23-.64-.61,0-.62,0-.62-.65-.62a.61.61,0,0,0-.64.62v-1.23a.61.61,0,0,0-.64-.62h.64s.64-.61,0-.61a5,5,0,0,0,3.21-1.23.62.62,0,0,0,.64.62c-.64,0-.64,1.22.64,1.22,0,0,.65,0,.65-.61l.64.61v1.23c0,.62,1.28.62,1.28-.61h1.93c.64,0,1.28-.62,1.92-1.23.64.61,1.28-.61.64-.61a.62.62,0,0,0-.64-.62h-.64c1.28,0,2.56-.61,1.92-1.83a.62.62,0,0,0,.64-.62l.64-.61h.65v.61c0,.62,1.28,1.23,1.28,0V137c.65.61,1.29,0,1.29-.61-.65,0-.65,0-.65-.61Z"/><path class="cls-1" d="M219.52,179.53c-1.39,2.07-2.07,4.15-3.46,6.23a16.3,16.3,0,0,1-4.84,4.84,28.56,28.56,0,0,1,.69-7.62c0-.69-1.39-1.39-1.39-.69a42.76,42.76,0,0,0-.69,9c0,3.46-1.39,6.93-2.08,10.39-1.38,6.23-2.07,11.77-4.84,16.62v-.7c0-11.77.69-23.53.69-34.61a2.08,2.08,0,1,0-4.15,0c0,9.69,0,20.08-.7,29.76v4.85c-.69-2.08-1.38-4.16-2.76-5.54,0-4.16-1.39-8.31-2.08-12.46,0-.7-1.39-.7-1.39.69.7,2.77,1.39,6.23,2.08,9.69,0-.69-.69-.69-.69-1.38-2.08-4.16-3.47-8.31-6.23-11.77-.7-.69-1.39,0-1.39.69a51.78,51.78,0,0,1,4.84,8.31,46.08,46.08,0,0,0-5.54-2.08c-3.46-1.38-6.92-3.46-11.07-4.84-.69,0-1.39.69-.69,1.39a70,70,0,0,1,10.38,4.84c2.77,1.39,4.85,1.39,7.62,3.46h.69v.7c.7.69.7,2.07,1.39,2.76,1.39,2.08,2.08,4.85,2.77,7.62.69,1.39.69,2.77,1.39,3.46v4.16c-.7,6.23-1.39,27.7-1.39,28.39-.69,2.77,4.11,2.08,6.87,1.39,1.39-.69-.64-26.32-.64-35.32,3.46-4.84,4.84-10.38,5.54-16.61.69-3.47,1.38-6.93,2.07-11.08v-.69c1.39-1.39,3.46-2.77,4.85-4.84,2.07-2.77,2.76-5.54,4.84-7.62.69-1.4,0-2.09-.69-1.4Z"/><path class="cls-1" d="M187.67,174c1.39,4.16,2.08,9,3.47,13.16,0,.69,1.38.69,1.38-.7A83.62,83.62,0,0,1,189.06,174c-.69-1.38-1.39-.69-1.39,0Z"/><path class="cls-1" d="M195.29,171.21c0-4.15-1.39-8.3-2.77-12.46,0-.69-1.39-.69-1.39.7,1.39,4.15,2.77,7.61,2.77,12.46,0,0,1.39,0,1.39-.7Z"/><path class="cls-1" d="M195.29,158.75a52.62,52.62,0,0,1,.69,10.39c0,.69,1.39.69,1.39,0a51.89,51.89,0,0,0-.7-10.39C196.67,158.06,195.29,158.06,195.29,158.75Z"/><path class="cls-1" d="M188.37,147c.69,1.39,1.39,2.77,2.07,4.16.7.69,1.39,0,1.39-.69-.69-.7-.69-2.08-1.39-2.77,2.77-1.39,3.47-4.85,3.47-7.62,0-.69-1.39-.69-1.39,0,0,2.08-.7,5.54-2.77,6.93a33.5,33.5,0,0,0-2.07-4.85c-.7-.69-1.39,0-1.39.7.69,1.38,1.39,2.76,2.08,4.15Z"/><path class="cls-1" d="M196,149.75c-.69-3.46,1.39-6.92,1.39-10.38,0-.7-1.39-.7-1.39,0,0,4.15-1.38,7.61-.69,11.08,0,.69,1.38.69.69-.7Z"/><path class="cls-1" d="M234.75,174.68h0l-.69.69h-1.39c0-.69-.69-1.39-.69-.69V174a.68.68,0,0,0,.69-.69h.69C233.36,174,234.06,174,234.75,174.68ZM210.51,199.6h0V201c0-.7-.69-.7-1.38-.7h-.7v-.69c1.4.69,2.08.69,2.08,0Zm-54.68-11.77c0-.69.69-.69.69-1.39l-.69,1.39Zm88.61-55.38h0c.69,0,.69.69,0,0h0C245.13,133.14,244.44,133.14,244.44,132.45ZM193.91,181.6h0a.68.68,0,0,1,.69.69c.69,0,0,0-.69-.69Zm-26.31-54Zm-1.39,49.15-.69-.69v-.7h.69v1.39Zm24.23-32.53c0,.69-.69.69-.69,1.38l-.69-.69h-.7a.68.68,0,0,1,.7-.69v-.7A2.12,2.12,0,0,0,190.44,144.22Zm3.46-1.39c0,.69-.69.69-.69,1.39h-1.39v-.7c.7.7,1.39,0,1.39-.69Zm16.62-17.3h2.76v.69a5.22,5.22,0,0,0-2.76-.69ZM196,183.68h0c0-.7,0-.7-.69-1.39.69,0,.69,0,.69-.7v-1.38a2.53,2.53,0,0,0,.69,2.07c0,.7-.69.7-.69,1.4Zm-21.46-7.62v-1.38l.69.69a2.11,2.11,0,0,0,2.77,0h.7l.69.69c-.69,0-1.39,0-1.39.7a6.18,6.18,0,0,0-3.46-.7Zm1.39-63h0l.69-.69A.68.68,0,0,1,175.91,113.06Zm89.3,42.23c-.69-.69-.69-.69-1.39,0a.68.68,0,0,0-.69.69h-.69v-.69h.69v-.69c.69,0,0-1.39-.69-1.39a.68.68,0,0,0-.7.69c0-.69-.69-.69-1.39-.69a.69.69,0,1,0-1.38,0v-1.39c-.7-.69-.7-.69-1.39,0a.68.68,0,0,0-.69.7h-.7v-.7h.7v-.69c.69,0,0-1.39-.7-1.39a.68.68,0,0,0-.69.69c0-.69-.69-.69-1.39-.69,0-.69,0-.69-.69-.69v-.7a.68.68,0,0,0,.69-.69l.7-.69h.69v.69c0,.69.69,1.39,1.39.69v-.69c0,.69,1.38.69,1.38,0V147c0-.7-.69-.7-1.38-.7h-.7a.68.68,0,0,0-.69-.69v-.69h.69l.7-.7c.69,0,.69-1.39,0-1.39a.69.69,0,0,0-.7.7c0-.7-.69-1.39-.69-.7,0-.69,0-.69-.69-.69a.68.68,0,0,0-.7.69v-1.38a.68.68,0,0,0-.69-.7h-.7a2.41,2.41,0,0,0-1.38-.69v-.69c.69,0,.69-1.39,0-1.39a.68.68,0,0,0-.7.69c0-.69-.69-1.38-.69-.69,0-.69,0-.69-.69-.69a.68.68,0,0,0-.7.69v-1.39a.68.68,0,0,0-.69-.69h-.69a2.57,2.57,0,0,0-2.08-.69v-1.39c-.69-1.39-1.39-1.39-2.77-.7,0-.69,0-.69-.69-1.38a.69.69,0,0,0-.7-.7h-1.38a1.49,1.49,0,0,0-1.39-1.38h.69c0,.69,1.39,0,1.39-.7-.69-1.38-1.39-1.38-2.77-.69,0-.69,0-.69-.69-1.39s-.69,0-.69.7a.69.69,0,0,1-.7-.7,2.4,2.4,0,0,0,.7-1.39.68.68,0,0,0,.69-.69l.69-.69h.7v.69c0,.69.69,1.39,1.38.69v-.69c0,.69,1.39.69,1.39,0v-.69c0-.7-.69-.7-1.39-.7h-.69a.68.68,0,0,0-.69-.69V122h.69l.69-.7c.7,0,.7-1.38,0-1.38a.68.68,0,0,0-.69.69c0-.69-.69-1.39-.69-.69,0-.7,0-.7-.7-.7,0-.62,0,.07,0,.07v-1.38a.68.68,0,0,0-.69-.7h-.7c.7,0,.7-1.38,0-1.38a.68.68,0,0,0-.69.69c0-.69-.7-1.39-.7-.69,0-.7,0-.7-.69-.7a.68.68,0,0,0-.69.7v-1.39a.68.68,0,0,0-.7-.69H232c-.69-.7-.69-.7-1.39-.7a.68.68,0,0,0-.69-.69c0-.7,0-.7-.69-.7a.69.69,0,0,0-.7.7c0-.7-.69-.7-1.38-1.39h.69c0,.69,1.39.69,1.39-.69-.7-1.39-1.39-1.39-2.77-.7a.68.68,0,0,0-.7-.69c.7-.69,1.39-1.39,1.39-2.07a2.21,2.21,0,0,0,2.08,2.07c2.07,0,2.76-2.07,2.07-2.77a.7.7,0,0,1,1.39,0h.69c.7,0,.7-1.39,0-1.39,1.39-1.38-.69-4.15-2.07-2.76V99.89c-.7-.7-1.39,0-.7.69v.69l-.69-.69c0-1.39-.69-2.77-2.08-2.77v-.69a.68.68,0,0,1-.69-.7c-.69-.69-1.39,0-1.39.7v.69l-.69-.69c-1.37.71-2.06.71-2.75,0v-.69c-.69,0-.69-.7-1.39-.7a.68.68,0,0,0-.69.7h-.69c0-.7-.7-2.08-1.39-2.08s-1.39.7-2.08,1.39a1.49,1.49,0,0,0-1.38-1.39h-1.39A1.49,1.49,0,0,0,211.89,93a2.52,2.52,0,0,0-2.07-.7,2.21,2.21,0,0,0-2.08-2.07,1.83,1.83,0,0,0-2.07,2.07H202.9c-.69.7-1.38,0-2.07,0a2.52,2.52,0,0,0-2.07.69c0-.69-.7-1.39-2.08-1.39a2.5,2.5,0,0,0-2.07.7,2.54,2.54,0,0,0-2.77,2.77c-1.39-.7-2.77,0-4.16.69a.68.68,0,0,0-.69-.69c0,.68-.7.68-.7,1.38-.69-.7-2.08,0-2.77.69,0,.69.69.69,1.39,0,0-.69,0-.69.69,0-.69.69-1.39,1.39-1.39,2.08h-1.38c-.69-.69-.69,0,0,.69h-.7c-.69,0,0,1.39.7,1.39V102c-.7.69,0,.69-2.08,0h-1.39a.68.68,0,0,0-.69-.69c-.69,0-.69.69-.69,1.38a2.52,2.52,0,0,0-2.08.7h-.69a.68.68,0,0,1-.69.69v1.39a5.36,5.36,0,0,0,.7-2.09c-.7,0-.7,0-.7.7a2.45,2.45,0,0,0-1.39.69l-.69-.69c-.69,0-.69,1.38,0,1.38,0,.7,0,.7.69.7h.7v.69a.68.68,0,0,0-.7.69h-.69c-.69,0-1.39,0-1.39.7v.69c0,.69.7.69,1.39,0v.69c0,.7,1.39,0,1.39-.69v.69h.69v.7a.68.68,0,0,0-.69.69h-.7c-.69,0-1.38,0-1.38.7v.69c0,.69.69.69,1.38,0v.69h-1.38a1.84,1.84,0,0,0-2.08-2.07,2.93,2.93,0,0,0-.69,2,2.51,2.51,0,0,0-2.07.7c-.69,0-.69.69-.69,1.39-.7,0-1.39-.7-2.08-.7a1.5,1.5,0,0,0-1.39,1.39c0-.69-.69-1.39-2.07-1.39s-2.08,1.39-1.39,2.08h-.69c0-.7,0-.7-.69-.7s-.7,0-1.39.7a1,1,0,0,0,0,1.38l-.7.7c-.68,0-1.38.68-2.06,1.38v-.7c.68-.69,0-1.38-.7-.69V120c-2.07-1.39-4.15,1.38-2.77,2.77-.69,0-.69,1.38,0,1.38h.7a.68.68,0,0,0,.69-.69,3,3,0,0,0-.69,3.46c-.7,0-.7,1.38,0,1.38h.69a.68.68,0,0,0,.69-.69.68.68,0,0,1,.7.69c-.7,1.39,0,3.47,2.07,2.77a2.21,2.21,0,0,0,2.08-2.07,2.2,2.2,0,0,0,2.07,2.07c-1.38,0-1.38,1.39-.69,1.39H160a3.57,3.57,0,0,0-1.39,2.77v-.7c0-.69-.69-1.38-1.39-.69v1.39c-2.07-.7-3.45,2.07-2.07,3.46v.69c-.7,0-.7.69-1.38.69h-.7c-.69-1.38-1.39-2.07-2.77-1.38-.69.69-1.38,1.38-.69,2.77-1.39,0-2.07.69-2.07,1.38s-.7.69,0,1.39a2.54,2.54,0,0,0-2.08.69c-1.39,0-1.39.69-1.39,1.38-.69,0-1.38-.69-2.08,0-1.38.7-1.38,1.39-1.38,2.77h-.69a.68.68,0,0,0-.7-.69c-.69,0-.69.69-1.38.69,0,.69,0,1.39.69,1.39v.69a5.26,5.26,0,0,0-1.38,2.77v-.69c0-.7-1.39-1.39-1.39-.7v1.39a3.8,3.8,0,0,0-2.07,3.46,4.18,4.18,0,0,0,.69,2.77c-.69,0-.69,1.38.69,1.38h.7a.68.68,0,0,0,.69-.69h1.39c-.69,1.38.69,2.77,2.77,2.77,0-.69,0-2.08,0-2.77l2.08,2.08c-.7,0-.7,1.39,0,1.39v1.38c-.7,0-.7,1.39,0,1.39h.69a.68.68,0,0,0,.69-.69l.7.69c-.7,1.39,0,3.46,1.38,3.46a2.21,2.21,0,0,0,2.08-2.07c0,.69.69,2.07,1.39,2.07-.7,0-.7.7,0,1.39H151a.68.68,0,0,0,.7-.69h3.46c.69,0,1.39-.7,2.07-1.39a2.21,2.21,0,0,0,2.08,2.07c.69,0,.69,0,1.39-.69v.69c-.7,0-.7.7-.7,1.39l-.69.69v-.69c0-.69-1.39-1.39-1.39-.69,0,1.38,0,2.07,1.39,2.07a2.54,2.54,0,0,0,.69,2.08v.69h-.69c0-.69,0-.69-.7-.69h-1.38a1,1,0,0,0,0,1.38l-.7.7c-.69.69-1.38.69-2.07,2.07v-.69c.69-.7-.69-1.39-.69-.7s-.7.7-.7,1.39v.7c-2.07-1.39-3.46,1.38-2.77,2.76-.69,0-.69,1.39,0,1.39h.7a.68.68,0,0,0,.69-.69.68.68,0,0,1,.69.69,1.3,1.3,0,0,0,0,2.08c-1.38,0-2.07,2.07-1.38,3.46-.7,0-.7,1.39,0,1.39h.69a.68.68,0,0,0,.69-.7l.7.7c-.7,1.38,0,3.46,1.39,3.46a2.21,2.21,0,0,0,2.07-2.08c0,.7.69,2.08,1.39,2.08-.7,0-.7.69,0,1.38h1.38a.68.68,0,0,0,.7-.69h3.46c.69,0,1.39-.69,2.08-1.39,0,.7.69.7,1.38.7s.7,0,1.39-.7v1.39c-.69,0-.69.69-.69,1.39l-.7.69v-.69c0-.7-1.38-1.39-1.38-.7,0,1.39,0,2.08,1.38,2.08a1.83,1.83,0,0,0,2.08,2.07c.69,0,1.38,0,1.38-.69,0,1.39,0,2.08,1.39,2.77a2.54,2.54,0,0,0,2.08-.69c1.37,1.38,1.37.68,1.37,0s-.7-1.39-1.39-2.08v-.69h.69c-.69,1.39,0,2.77,2.08,2.77,1.38,0,2.07-1.39,2.07-2.77h.69a2.45,2.45,0,0,0,1.39.69c.7,0,1.39,0,1.39-.69a.68.68,0,0,0,.69.69,2.09,2.09,0,0,0,2.77,0h.7c.69.7.69,1.39,1.38,1.39a.68.68,0,0,0-.69.7c-.69.69,0,1.38.69.69a.68.68,0,0,0,.7-.69c.69,0,.69.69,1.38.69s.7-.69,1.39-.69a.68.68,0,0,0,.69-.7c1.39.7,2.77.7,3.47,0,0,.7,0,.7.69,1.39-.69,0-.69,1.39,0,1.39h.69l.7.69v.69c0,.7,1.38.7,1.38,0,.7,0,1.39.7,2.08.7a2.5,2.5,0,0,0,2.07-.7c.7.7,1.39,0,1.39-.69v-.69a.68.68,0,0,0-.69-.7c1.38.7,2.77,0,2.77-1.38h.69l.69-.7h.7v.7c-.7.69.69,1.38,1.38.69v-.69c0,.69,1.39.69,1.39,0v-.7c0,.7.69.7,1.39.7h.69c.7,0,1.39,0,1.39-.7v-.69h2.08c.69-.7.69-.7,0-1.39s-.69-.69-1.39-.69l-.69-.7c0-.69-.69-.69-1.39-.69h-.69v-.69h.69c.7-.7.7-.7,0-1.39a2.54,2.54,0,0,0-2.07-.69.68.68,0,0,0-.7.69h-1.38v-.69c0-.7-.7-.7-1.39-.7h-.69a.68.68,0,0,0-.7-.69v-.7h.7l.69-.69c.69,0,.69-1.39,0-1.39h-.69c0-.69-.7-1.38-.7-.69,0-.69,0-.69-.69-.69a.68.68,0,0,0-.7.69v-1.39a.68.68,0,0,0-.69-.69v-.69c0-.7-.69-1.39-1.39-2.08V185h.7c-.7,1.38,0,2.77,2.07,2.77,1.39,0,2.08-1.39,2.08-2.77h.69a2.41,2.41,0,0,0,1.39.69c.69,0,1.39,0,1.39-.69a.68.68,0,0,0,.69.69,2.11,2.11,0,0,0,2.77,0h.69c.69.69.69,1.39,1.39,1.39a.68.68,0,0,0-.7.69c-.69.7,0,1.39.7.7a.68.68,0,0,0,.69-.7c.7,0,.7.7,1.39.7s.69-.7,1.39-.7a.68.68,0,0,0,.69-.69c1.39.69,2.77.69,3.46,0,0,.69,0,.69.7,1.39-.7,0-.7,1.38,0,1.38h.69l.69.7v.69c0,.69,1.39.69,1.39,0,.69,0,1.39.69,2.07.69a2.54,2.54,0,0,0,2.08-.69c.69.69,1.39,0,1.39-.69v-.7a.68.68,0,0,0-.7-.69c1.39.69,2.77,0,2.77-1.39h.7l.69-.69h.69v.69c-.69.7.7,1.39,1.39.7v-.7c0,.7,1.39.7,1.39,0v-.69c0-.7-.7-.7-1.39-.7h-.69a.68.68,0,0,0-.7-.69V185h.7l.69-.7c.69,0,.69-1.38,0-1.38h-.69c0-.7-.7-1.39-.7-.7,0-.69,0-.69-.69-.69a.68.68,0,0,0-.69.69v-1.38a.69.69,0,0,0-.7-.7v-.69c0-.7-.69-.7-1.39-.7h-1.38v-.69h.69l.69-.69a.69.69,0,0,0,.7-.7,1,1,0,0,0,1.39,0,.68.68,0,0,0,.69-.69c.69,0,.69.69,1.39.69s.69-.69,1.38-.69a.68.68,0,0,0,.7-.69c1.38.69,2.77.69,3.46,0,0,.69,0,.69.69,1.38-.69,0-.69,1.39,0,1.39h.7l.69.69v.7c0,.69,1.39.69,1.39,0,.69,0,1.38.69,2.07.69a2.54,2.54,0,0,0,2.08-.69c.69.69,1.38,0,1.38-.7v-.69a.68.68,0,0,0-.69-.69c1.39.69,2.77,0,2.77-1.39h.69l.7-.69H257V176c-.69.69.69,1.39,1.39.69V176c0,.69,1.38.69,1.38,0v-.69c0-.7-.69-.7-1.38-.7h-.7a.68.68,0,0,0-.69-.69v-.69h.69l.7-.7c.69,0,.69-1.39,0-1.39h-.7c0-.69-.69-1.38-.69-.69,0-.69,0-.69-.69-.69a.68.68,0,0,0-.7.69v-1.39a.68.68,0,0,0-.69-.69h-.69c-2.83-.64-3.52-1.33-4.9-1.33H250l.69-.69c.7,0,.7-1.39,0-1.39H250c0-.69-.69-1.38-.69-.69,0-.69,0-.69-.7-.69a.68.68,0,0,0-.69.69V162.9a.68.68,0,0,0-.69-.69h.69s.69-.7,0-.7a5.28,5.28,0,0,0,3.46-1.38.68.68,0,0,0,.7.69c-.7,0-.7,1.39.69,1.39a.68.68,0,0,0,.69-.7l.7.7v1.39c0,.69,1.38.69,1.38-.7h2.08c.69,0,1.39-.69,2.07-1.39.7.7,1.39-.69.7-.69a.68.68,0,0,0-.7-.69H259c1.39,0,2.77-.7,2.07-2.08a.68.68,0,0,0,.7-.69l.69-.69h.7v.69c0,.69,1.38,1.39,1.38,0v-.69c.7.69,1.39,0,1.39-.7-.7,0-.7,0-.7-.68Z"/><path class="cls-1" d="M234.76,55.78c-6.13-3.54-12.25-6.09-16.88-7.05,0,.13,0,.24-.07.37a7.58,7.58,0,0,1-.15.83c0,.19-.11.37-.17.55a6.24,6.24,0,0,1-.27.72c-.11.24-.25.46-.38.69a4.62,4.62,0,0,1-.28.48,7.39,7.39,0,0,1-.88,1.06,5.9,5.9,0,0,1-.74.66l-.08.07s0,0,0,0c.5.55,1.05,1.13,1.66,1.71.44.43.91.87,1.4,1.3a71.5,71.5,0,0,0,11.38,8c13.23,7.63,22,8.27,22.79,6.85S248,63.4,234.76,55.78Z"/><path class="cls-1" d="M202.6,57.57c.49-.42.91-.8,1.32-1.19a0,0,0,0,0,0,0,1.85,1.85,0,0,0,.14-.14c.31-.28.61-.57.89-.85a3.07,3.07,0,0,0,.25-.26q.36-.36.69-.72l0,0-.06-.05a7.82,7.82,0,0,1-.85-.67,7.64,7.64,0,0,1-1-1.1c-.09-.13-.16-.27-.25-.41a8.68,8.68,0,0,1-.48-.84c-.08-.17-.14-.35-.21-.52a7.32,7.32,0,0,1-.27-.83c-.05-.2-.08-.39-.11-.59s-.08-.33-.1-.5a62.86,62.86,0,0,0-16.48,7C173,63.4,168,70.66,168.84,72.08c1,1.65,10.35.32,22.78-6.86a71.17,71.17,0,0,0,11-7.65Z"/><path class="cls-1" d="M214.34,47.1a4.07,4.07,0,0,0-1.09-2h0a4.23,4.23,0,0,0-5.48-.34l-.21.15a4,4,0,0,0-1.32,2.19,4,4,0,0,0-.1.94,4.16,4.16,0,0,0,1.31,3,4.24,4.24,0,0,0,1.74,1,4.56,4.56,0,0,0,.62.13,4.17,4.17,0,0,0,1.8-.18,4.07,4.07,0,0,0,1.61-1,4.12,4.12,0,0,0,1.25-2.86c0-.07,0-.1,0-.16a3.57,3.57,0,0,0-.1-.89Z"/><path class="cls-1" d="M212.14,56.33l-.65-.75a8.19,8.19,0,0,1-1.12.09h-.09l-.37,0c-.15,0-.3,0-.45,0l-.06.06c-.33.4-.7.82-1.09,1.23a3.76,3.76,0,0,1-.28.29c-.31.33-.64.67-1,1l-.19.2-3.31,146.44H217L213.62,57.91c-.44-.44-.86-.88-1.25-1.31l-.23-.27Z"/><path class="cls-1" d="M207.45,41a6.92,6.92,0,0,1,.88-.28,4.84,4.84,0,0,1,.51-.14,9.44,9.44,0,0,1,1.18-.12c.09,0,.17,0,.25,0a8.44,8.44,0,0,1,1.42.14l.14,0a7,7,0,0,1,1.28.39.72.72,0,0,1,.2.09l.31.13c1.46-4.5,2.32-11,2.32-18C216,7.87,212.13,0,210.49,0,208.57,0,205,8.79,205,23.14A62.58,62.58,0,0,0,207.3,41a.44.44,0,0,0,.15,0Z"/><path class="cls-1" d="M171.9,27H120.23a1.65,1.65,0,0,0,0,3.3H171.9a6.11,6.11,0,1,1-6.11,6.1,1.65,1.65,0,0,0-3.3,0A9.41,9.41,0,1,0,171.9,27ZM132.37,23h30.39a9.41,9.41,0,1,0-9.41-9.41,1.65,1.65,0,1,0,3.3,0,6.11,6.11,0,1,1,6.11,6.11H132.37a1.65,1.65,0,0,0,0,3.3Z"/><circle class="cls-1" cx="311.19" cy="252.55" r="7.68"/><circle class="cls-1" cx="356.57" cy="252.55" r="7.68"/><path class="cls-1" d="M350.07,233.87a2.33,2.33,0,0,1-2.13,1.42H331.51a2.36,2.36,0,0,1-2.36-2.36v-8.16a2.36,2.36,0,0,1,2.36-2.36h7.33a2.18,2.18,0,0,1,1.66.71l9,8.15a2.21,2.21,0,0,1,.59,2.6Zm-16,8.16h-3.54v-2.37h3.54Zm-8.5-9.1a2.37,2.37,0,0,1-2.37,2.36H305.75a2.29,2.29,0,0,1-2-1.18,2.42,2.42,0,0,1,0-2.36l5.91-8.28a2.62,2.62,0,0,1,2-1.06h11.58a2.36,2.36,0,0,1,2.36,2.36Zm41.24-.47a51.69,51.69,0,0,0-10.28-3.08,4.82,4.82,0,0,1-1.18-.59l-12.3-11.46a3.74,3.74,0,0,0-2.36-.94H309.06a3.4,3.4,0,0,0-3,1.66l-9,14.3a3.6,3.6,0,0,0-.59,1.89v13.59a6,6,0,0,0,4.61,5.79v-1.06a10,10,0,1,1,20.09,0,4.29,4.29,0,0,1-.11,1.18h25.52c0-.35-.12-.83-.12-1.18a10,10,0,1,1,20.09,0,4,4,0,0,1-.12,1.18h2.13a3.49,3.49,0,0,0,3.55-3.55V237.54c-.24-2-2.37-3.67-5.32-5.08Z"/><path class="cls-1" d="M289.4,240.71a9.8,9.8,0,0,0-9.64-8.11h-4.67v3H269a1.74,1.74,0,0,0-1.7,1.76,1.71,1.71,0,0,0,1.71,1.7l6.13.05v6.55H269a1.69,1.69,0,0,0-1.7,1.7,1.74,1.74,0,0,0,1.7,1.76h6.13v3.07h4.67a9.81,9.81,0,0,0,9.64-8.1"/><rect class="cls-1" x="285.82" y="240.32" width="21.32" height="4.16"/><path class="cls-1" d="M346.52,165a40.45,40.45,0,0,1-7.84,3.5L357,183.23,353.39,160h0a42.56,42.56,0,0,1-6.87,5Z"/><path class="cls-1" d="M304.84,92.85a41,41,0,0,1,7.84-3.48L294.25,74.6l3.61,23.31a40.86,40.86,0,0,1,7-5.06Z"/><path class="cls-1" d="M361.7,149.84a40.92,40.92,0,0,1-5.07,7l23.31,3.47L365.18,142a42.26,42.26,0,0,1-3.48,7.84Z"/><path class="cls-1" d="M289.57,108a42.07,42.07,0,0,1,5-6.93l-23.26-3.52,14.76,18.29h0a40.14,40.14,0,0,1,3.49-7.84Z"/><path class="cls-1" d="M388.33,128.93l-21.95-8.52a41.4,41.4,0,0,1,.86,8.52,40.35,40.35,0,0,1-.89,8.57Z"/><path class="cls-1" d="M284,128.93a42.16,42.16,0,0,1,.86-8.46l-21.95,8.46,22,8.52a40.61,40.61,0,0,1-.89-8.52Z"/><path class="cls-1" d="M361.65,108a40.79,40.79,0,0,1,3.5,7.84l14.76-18.29-23.26,3.58h0a42.12,42.12,0,0,1,5,6.87Z"/><path class="cls-1" d="M289.52,149.84A42.26,42.26,0,0,1,286,142l-14.76,18.29,23.31-3.6a41.84,41.84,0,0,1-5.07-6.85Z"/><path class="cls-1" d="M353.36,97.91,357,74.61,338.68,89.37a41.9,41.9,0,0,1,7.84,3.48,40.73,40.73,0,0,1,6.84,5.06Z"/><path class="cls-1" d="M297.83,160l-3.58,23.26,18.29-14.77h0a40.45,40.45,0,0,1-7.84-3.5,42.56,42.56,0,0,1-6.87-5Z"/><path class="cls-1" d="M334.13,88.19l-8.52-22-8.52,22a41.33,41.33,0,0,1,8.52-.86,40,40,0,0,1,8.52.88Z"/><path class="cls-1" d="M317.09,169.7l8.52,22,8.52-22a42.16,42.16,0,0,1-17,0Z"/><path class="cls-1" d="M362.54,128.93a37,37,0,1,1-10.84-26.07,37,37,0,0,1,10.84,26.07Z"/><path class="cls-1" d="M45.56,237.45c-3.27,1-7.22-1.09-7.94-4.45h6.49a.82.82,0,0,0,.73-1.09l-2.91-6.49a6.28,6.28,0,0,1,3.63,12Zm-5-11.44,2.41,5.4H37.48a5.87,5.87,0,0,1,3-5.4Zm-4.72,5.4H34.26l4-10.48,1.54,3.63A7.86,7.86,0,0,0,35.8,231.41Zm-5.13-11.07-1.49,6-.64.32-5.72-6.35Zm-6.76-3.5a2.22,2.22,0,0,1,.36-.63l.32.27,1.41-.77c.73,0,1.45,0,1.95,0v-1.18l5.9-3.31c.59,1.54,1.09,2.41.37,4.31l-2.86,3.27H23.28Zm13.66.41.28.09-.55,1.45c.09-.54.18-1,.27-1.54Zm-8.12,10.21.27.55-.41-.46Zm6.31-10.12c-.18.45-.37.95-.55,1.54h-1Zm-3.09,3h2c-.68,2-1.49,4.58-2.4,7.76a1.44,1.44,0,0,0-.46,0,1.93,1.93,0,0,0-.86.18l-.54-1.13.72-.5,0-.09h0ZM24.27,234a6.27,6.27,0,0,1-11.43-5.17,6.38,6.38,0,0,1,6.85-3.63l-1.9,6c-.37,1,1.22,1.46,1.45.5l1.81-5.9A6.1,6.1,0,0,1,24.27,234Zm27-5.08a7.9,7.9,0,0,0-10-5l-2.27-5,.59-1.54h1.81v-1.54H41c.36-4.5-2.72-6.81-6.58-9.54v-.27a2.19,2.19,0,1,0-1.23.14v.27c-1,3.54-3.45,6-6.58,7.94-1.72,0-3.58.23-4.22,2.18l-2.18,7.36a8,8,0,0,0-8.8,4.58,7.71,7.71,0,0,0,4.17,10.26,7.9,7.9,0,1,0,6.13-14.57l.59-2.05,7.17,8a1.64,1.64,0,0,0,0,.46,2.42,2.42,0,0,0,2.4,2.4H32l.78,1.46-.87.36.5.95,2.64-1.31-.5-1-.86.5-.55-1H36a7.88,7.88,0,1,0,15.2-4Z"/><path class="cls-1" d="M79.78,148.11c-1.29,1.92-1.93,3.86-3.22,5.79a15.2,15.2,0,0,1-4.5,4.5,26.55,26.55,0,0,1,.64-7.08c0-.65-1.29-1.29-1.29-.65a39.91,39.91,0,0,0-.64,8.37c0,3.22-1.29,6.44-1.93,9.65-1.29,5.79-1.93,10.94-4.5,15.45v-.65c0-10.93.65-21.87.65-32.17a1.94,1.94,0,0,0-3.87,0c0,9,0,18.66-.64,27.66v4.51c-.65-1.93-1.29-3.87-2.57-5.15,0-3.86-1.29-7.72-1.93-11.58,0-.65-1.29-.65-1.29.64.64,2.58,1.29,5.79,1.93,9,0-.64-.65-.64-.65-1.29-1.93-3.86-3.22-7.72-5.79-10.93-.64-.65-1.29,0-1.29.64a47.47,47.47,0,0,1,4.5,7.72,42.64,42.64,0,0,0-5.14-1.93c-3.22-1.29-6.44-3.22-10.29-4.5-.65,0-1.29.65-.65,1.29a64.77,64.77,0,0,1,9.65,4.5c2.58,1.29,4.51,1.29,7.08,3.22h.65v.64c.64.65.64,1.93,1.29,2.58,1.29,1.92,1.93,4.5,2.57,7.07.65,1.29.65,2.58,1.29,3.22v3.86c-.64,5.79-1.29,45.31-1.29,46-.64,2.57,3.82,1.92,6.39,1.29,1.29-.65-.6-44-.6-52.39,3.22-4.5,4.5-9.65,5.15-15.44.64-3.22,1.29-6.44,1.92-10.29V161c1.29-1.29,3.22-2.57,4.51-4.5,1.92-2.57,2.57-5.15,4.5-7.08.64-1.29,0-1.94-.64-1.29Z"/><path class="cls-1" d="M50.18,143c1.29,3.87,1.93,8.37,3.22,12.23,0,.64,1.29.64,1.29-.65A77.58,77.58,0,0,1,51.46,143c-.63-1.28-1.28-.63-1.28,0Z"/><path class="cls-1" d="M57.26,140.38c0-3.86-1.29-7.72-2.58-11.58,0-.64-1.29-.64-1.29.65C54.68,133.31,56,136.53,56,141c0,0,1.29,0,1.29-.65Z"/><path class="cls-1" d="M57.26,128.8a49,49,0,0,1,.64,9.65c0,.65,1.29.65,1.29,0a48.25,48.25,0,0,0-.65-9.65C58.54,128.16,57.26,128.16,57.26,128.8Z"/><path class="cls-1" d="M50.83,117.87c.64,1.28,1.29,2.57,1.92,3.86.65.64,1.29,0,1.29-.65-.64-.64-.64-1.93-1.29-2.57C55.33,117.22,56,114,56,111.43c0-.64-1.29-.64-1.29,0,0,1.93-.64,5.15-2.57,6.44a30.54,30.54,0,0,0-1.93-4.51c-.64-.64-1.29,0-1.29.65.65,1.28,1.29,2.57,1.94,3.86Z"/><path class="cls-1" d="M57.9,120.44c-.65-3.22,1.29-6.44,1.29-9.65,0-.65-1.29-.65-1.29,0,0,3.86-1.28,7.07-.65,10.29,0,.65,1.29.65.65-.64Z"/><path class="cls-1" d="M93.93,143.6h0l-.64.64H92c0-.64-.65-1.28-.65-.64V143a.64.64,0,0,0,.65-.65h.64C92.64,143,93.29,143,93.93,143.6ZM71.41,166.76h0v1.29c0-.64-.65-.64-1.29-.64h-.65v-.65c1.3.65,1.94.65,1.94,0ZM20.59,155.82c0-.64.64-.64.64-1.28l-.64,1.28Zm82.35-51.46h0c.64,0,.64.64,0,0h0C103.58,105,102.94,105,102.94,104.36ZM56,150h0a.64.64,0,0,1,.65.65c.64,0,0,0-.65-.65ZM31.52,99.85Zm-1.28,45.68-.65-.65v-.64h.65v1.29Zm22.51-30.24c0,.65-.64.65-.64,1.29l-.65-.64h-.64a.63.63,0,0,1,.64-.65v-.64A2,2,0,0,0,52.75,115.29ZM56,114c0,.65-.64.65-.64,1.29H54v-.64c.64.64,1.29,0,1.29-.65ZM71.41,97.92H74v.65a4.81,4.81,0,0,0-2.57-.65ZM57.9,152h0c0-.64,0-.64-.65-1.29.65,0,.65,0,.65-.64v-1.29a2.37,2.37,0,0,0,.64,1.93c0,.65-.64.65-.64,1.29ZM38,144.89V143.6l.64.64a1.94,1.94,0,0,0,2.57,0h.65l.64.65c-.64,0-1.29,0-1.29.64a5.8,5.8,0,0,0-3.21-.64Zm1.29-58.55h0l.64-.64A.63.63,0,0,1,39.25,86.34Zm83,39.24c-.65-.64-.65-.64-1.29,0a.64.64,0,0,0-.65.65h-.64v-.65h.64v-.64c.65,0,0-1.29-.64-1.29a.63.63,0,0,0-.65.64c0-.64-.64-.64-1.29-.64a.64.64,0,0,0-1.28,0v-1.29c-.65-.64-.65-.64-1.29,0a.64.64,0,0,0-.65.65h-.64v-.65h.64v-.64c.65,0,0-1.29-.64-1.29a.63.63,0,0,0-.65.64c0-.64-.64-.64-1.29-.64,0-.65,0-.65-.64-.65v-.64a.63.63,0,0,0,.64-.65l.65-.64h.64v.64c0,.65.65,1.29,1.29.65v-.65c0,.65,1.29.65,1.29,0v-.64c0-.65-.64-.65-1.29-.65h-.64a.63.63,0,0,0-.65-.64v-.65h.65l.64-.64c.65,0,.65-1.29,0-1.29a.63.63,0,0,0-.64.65c0-.65-.65-1.29-.65-.65,0-.64,0-.64-.64-.64a.63.63,0,0,0-.65.64v-1.29a.63.63,0,0,0-.64-.64h-.65a2.23,2.23,0,0,0-1.29-.65v-.64c.65,0,.65-1.29,0-1.29a.63.63,0,0,0-.64.64c0-.64-.64-1.29-.64-.64,0-.65,0-.65-.65-.65a.63.63,0,0,0-.64.65v-1.29a.64.64,0,0,0-.65-.65h-.64a2.38,2.38,0,0,0-1.93-.64V105.6c-.65-1.29-1.29-1.29-2.57-.64,0-.65,0-.65-.65-1.29a.63.63,0,0,0-.64-.65H98.4a1.4,1.4,0,0,0-1.29-1.29h.64c0,.65,1.29,0,1.29-.64-.64-1.29-1.29-1.29-2.57-.65,0-.64,0-.64-.64-1.29s-.65,0-.65.65a.63.63,0,0,1-.64-.65,2.23,2.23,0,0,0,.64-1.28.64.64,0,0,0,.65-.65l.64-.64h.64v.64c0,.65.65,1.29,1.29.65v-.65c0,.65,1.29.65,1.29,0v-.64c0-.65-.64-.65-1.29-.65h-.64a.63.63,0,0,0-.65-.64v-.65h.65L98.4,94c.65,0,.65-1.29,0-1.29a.63.63,0,0,0-.64.64c0-.64-.65-1.29-.65-.64,0-.65,0-.65-.64-.65,0-.57,0,.07,0,.07V90.84a.63.63,0,0,0-.64-.64h-.65c.65,0,.65-1.29,0-1.29a.63.63,0,0,0-.64.64c0-.64-.64-1.29-.64-.64,0-.65,0-.65-.65-.65a.63.63,0,0,0-.64.65V87.62A.63.63,0,0,0,92,87h-.64c-.65-.65-.65-.65-1.29-.65a.63.63,0,0,0-.65-.64c0-.65,0-.65-.64-.65a.64.64,0,0,0-.65.65c0-.65-.64-.65-1.29-1.29h.65c0,.64,1.29.64,1.29-.65-.65-1.29-1.29-1.29-2.57-.64a.64.64,0,0,0-.65-.65c.65-.64,1.29-1.29,1.29-1.93a2,2,0,0,0,1.93,1.93c1.93,0,2.57-1.93,1.93-2.57a.63.63,0,0,0,.64-.64.63.63,0,0,0,.65.64h.64c.65,0,.65-1.29,0-1.29C93.92,77.31,92,74.74,90.7,76V74.09c-.64-.64-1.29,0-.64.65v.64l-.65-.64c0-1.29-.64-2.57-1.93-2.57v-.65a.63.63,0,0,1-.64-.64c-.64-.65-1.29,0-1.29.64v.65l-.64-.65c-1.28.67-1.92.67-2.56,0V70.9c-.64,0-.64-.64-1.29-.64a.63.63,0,0,0-.64.64h-.65c0-.64-.64-1.93-1.29-1.93s-1.29.65-1.93,1.29A1.39,1.39,0,0,0,75.27,69H74a1.4,1.4,0,0,0-1.29-1.29A2.38,2.38,0,0,0,70.76,67a2.06,2.06,0,0,0-1.93-1.93A1.7,1.7,0,0,0,66.9,67H64.33c-.64.64-1.28,0-1.92,0a2.34,2.34,0,0,0-1.93.65c0-.65-.65-1.29-1.93-1.29a2.37,2.37,0,0,0-1.93.64,2.36,2.36,0,0,0-2.57,2.58c-1.29-.65-2.57,0-3.86.64a.63.63,0,0,0-.65-.64c0,.64-.65.64-.65,1.28-.64-.64-1.92,0-2.57.64,0,.65.65.65,1.29,0,0-.64,0-.64.64,0-.64.65-1.28,1.29-1.28,1.93H45.68c-.64-.64-.64,0,0,.65H45c-.64,0,0,1.29.65,1.29v.64c-.65.65,0,.65-1.93,0H42.46a.63.63,0,0,0-.65-.64c-.64,0-.64.64-.64,1.29a2.37,2.37,0,0,0-1.93.64H38.6A.63.63,0,0,1,38,78v1.29a5,5,0,0,0,.65-1.94c-.64,0-.64,0-.64.65a2.24,2.24,0,0,0-1.29.64L36,78c-.64,0-.64,1.29,0,1.29,0,.64,0,.64.65.64h.64v.65a.63.63,0,0,0-.64.64H36c-.64,0-1.28,0-1.28.65v.64c0,.65.64.65,1.28,0v.65c0,.64,1.29,0,1.29-.65v.65H38v.64a.64.64,0,0,0-.65.65h-.64c-.65,0-1.29,0-1.29.64v.64c0,.65.64.65,1.29,0v.65H35.38a1.7,1.7,0,0,0-1.93-1.93,2.73,2.73,0,0,0-.64,1.91,2.35,2.35,0,0,0-1.93.65c-.64,0-.64.64-.64,1.29-.64,0-1.29-.65-1.93-.65A1.4,1.4,0,0,0,27,88.92c0-.64-.64-1.29-1.93-1.29s-1.92,1.29-1.28,1.93h-.65c0-.65,0-.65-.64-.65s-.65,0-1.29.65a.89.89,0,0,0,0,1.29l-.65.64c-.64,0-1.28.64-1.92,1.29v-.65c.64-.64,0-1.29-.65-.64v1.29c-1.92-1.29-3.86,1.28-2.57,2.57-.64,0-.64,1.29,0,1.29h.65a.63.63,0,0,0,.64-.65,2.83,2.83,0,0,0-.64,3.22c-.65,0-.65,1.29,0,1.29h.64a.64.64,0,0,0,.65-.65.63.63,0,0,1,.64.65c-.64,1.28,0,3.21,1.93,2.57a2.05,2.05,0,0,0,1.93-1.93,2.05,2.05,0,0,0,1.93,1.93c-1.29,0-1.29,1.29-.65,1.29h1.29a3.34,3.34,0,0,0-1.29,2.57v-.64c0-.65-.64-1.29-1.29-.65v1.29c-1.93-.64-3.21,1.93-1.93,3.22v.64c-.64,0-.64.64-1.28.64H18c-.64-1.28-1.28-1.93-2.57-1.28-.64.64-1.29,1.28-.64,2.57-1.29,0-1.93.64-1.93,1.28s-.65.65,0,1.29a2.34,2.34,0,0,0-1.93.65c-1.29,0-1.29.64-1.29,1.28-.64,0-1.29-.64-1.93,0-1.29.65-1.29,1.29-1.29,2.57H5.79a.63.63,0,0,0-.64-.64c-.65,0-.65.64-1.29.64,0,.65,0,1.29.64,1.29v.65a4.88,4.88,0,0,0-1.28,2.57v-.64c0-.65-1.29-1.29-1.29-.65v1.29A3.53,3.53,0,0,0,0,127.52a3.87,3.87,0,0,0,.64,2.57c-.64,0-.64,1.28.65,1.28h.64a.63.63,0,0,0,.65-.64H3.87c-.65,1.29.64,2.57,2.57,2.57,0-.64,0-1.93,0-2.56l1.93,1.92c-.64,0-.64,1.29,0,1.29v1.29c-.64,0-.64,1.29,0,1.29H9a.63.63,0,0,0,.64-.64l.65.64c-.65,1.29,0,3.22,1.29,3.22a2,2,0,0,0,1.92-1.93c0,.64.65,1.93,1.29,1.93-.64,0-.64.64,0,1.29h1.29a.64.64,0,0,0,.65-.65H20c.65,0,1.29-.64,1.93-1.29A2.06,2.06,0,0,0,23.81,141c.65,0,.65,0,1.29-.64V141c-.64,0-.64.65-.64,1.29l-.65.65v-.65c0-.64-1.29-1.29-1.29-.64,0,1.29,0,1.92,1.29,1.92a2.34,2.34,0,0,0,.65,1.93v.65h-.65c0-.65,0-.65-.64-.65H21.88a.89.89,0,0,0,0,1.29l-.65.65c-.64.64-1.29.64-1.93,1.92v-.64c.65-.64-.64-1.29-.64-.64s-.64.64-.64,1.28V150c-1.93-1.29-3.22,1.29-2.58,2.57-.64,0-.64,1.29,0,1.29h.65a.63.63,0,0,0,.64-.64.63.63,0,0,1,.65.64,1.2,1.2,0,0,0,0,1.93c-1.29,0-1.93,1.93-1.29,3.22-.65,0-.65,1.29,0,1.29h.64a.64.64,0,0,0,.65-.65l.64.65c-.64,1.29,0,3.21,1.29,3.21a2.05,2.05,0,0,0,1.93-1.92c0,.64.64,1.92,1.29,1.92-.65,0-.65.65,0,1.29h1.29a.63.63,0,0,0,.64-.64h3.22c.64,0,1.29-.65,1.93-1.29,0,.64.64.64,1.29.64s.64,0,1.29-.64v1.29c-.65,0-.65.64-.65,1.29l-.64.64v-.64c0-.65-1.29-1.29-1.29-.65,0,1.29,0,1.93,1.29,1.93a1.7,1.7,0,0,0,1.92,1.93c.65,0,1.29,0,1.29-.65,0,1.29,0,1.93,1.29,2.58a2.34,2.34,0,0,0,1.93-.65c1.27,1.29,1.27.64,1.27,0s-.64-1.29-1.29-1.93v-.65H38c-.65,1.29,0,2.58,1.93,2.58,1.29,0,1.92-1.29,1.92-2.58h.65a2.23,2.23,0,0,0,1.29.65c.64,0,1.29,0,1.29-.65a.63.63,0,0,0,.64.65,2,2,0,0,0,2.57,0h.65c.64.64.64,1.29,1.29,1.29a.63.63,0,0,0-.65.64c-.64.65,0,1.29.65.65a.63.63,0,0,0,.64-.65c.65,0,.65.65,1.29.65s.65-.65,1.29-.65a.63.63,0,0,0,.65-.64c1.29.64,2.57.64,3.21,0,0,.64,0,.64.65,1.29-.65,0-.65,1.29,0,1.29h.64l.65.64v.65c0,.64,1.29.64,1.29,0,.64,0,1.29.64,1.93.64a2.35,2.35,0,0,0,1.92-.64c.65.64,1.29,0,1.29-.65v-.64a.63.63,0,0,0-.64-.65c1.29.65,2.57,0,2.57-1.29h.65l.64-.64h.64V170c-.64.65.65,1.29,1.29.65V170c0,.65,1.29.65,1.29,0v-.64c0,.64.65.64,1.29.64H74c.64,0,1.29,0,1.29-.64v-.65h1.93c.64-.64.64-.64,0-1.29s-.64-.64-1.29-.64l-.64-.65c0-.64-.65-.64-1.29-.64h-.65v-.64H74c.64-.65.64-.65,0-1.29a2.36,2.36,0,0,0-1.93-.65.64.64,0,0,0-.65.65H70.15v-.65c0-.64-.64-.64-1.28-.64h-.65a.63.63,0,0,0-.64-.65V161h.64l.65-.65c.64,0,.64-1.29,0-1.29h-.65c0-.64-.64-1.29-.64-.64,0-.65,0-.65-.65-.65a.63.63,0,0,0-.64.65v-1.29a.63.63,0,0,0-.65-.64v-.65c0-.64-.64-1.29-1.29-1.93v-.64H65c-.65,1.29,0,2.57,1.93,2.57,1.29,0,1.92-1.29,1.92-2.57h.65a2.24,2.24,0,0,0,1.29.64c.64,0,1.29,0,1.29-.64a.63.63,0,0,0,.64.64,1.94,1.94,0,0,0,2.57,0h.65c.64.65.64,1.29,1.29,1.29a.64.64,0,0,0-.65.65c-.64.64,0,1.29.65.64a.63.63,0,0,0,.64-.64c.65,0,.65.64,1.29.64s.65-.64,1.29-.64a.64.64,0,0,0,.65-.65c1.29.65,2.57.65,3.21,0,0,.65,0,.65.65,1.29-.65,0-.65,1.29,0,1.29h.64l.65.65V159c0,.64,1.29.64,1.29,0,.64,0,1.29.64,1.92.64a2.36,2.36,0,0,0,1.93-.64c.65.64,1.29,0,1.29-.64v-.65a.63.63,0,0,0-.64-.64c1.29.64,2.57,0,2.57-1.29h.64l.65-.65h.64v.65c-.64.64.65,1.29,1.29.64v-.64c0,.64,1.29.64,1.29,0v-.65c0-.64-.64-.64-1.29-.64h-.64a.64.64,0,0,0-.65-.65v-.64h.65l.64-.65c.65,0,.65-1.29,0-1.29h-.64c0-.64-.65-1.28-.65-.64,0-.64,0-.64-.64-.64a.63.63,0,0,0-.65.64v-1.29a.63.63,0,0,0-.64-.64v-.65c0-.64-.64-.64-1.29-.64H92v-.65h.65l.64-.64a.64.64,0,0,0,.65-.65.88.88,0,0,0,1.28,0,.63.63,0,0,0,.65-.64c.64,0,.64.64,1.29.64s.64-.64,1.29-.64a.63.63,0,0,0,.64-.65c1.29.65,2.57.65,3.22,0,0,.65,0,.65.64,1.29-.64,0-.64,1.29,0,1.29h.65l.64.65v.64c0,.65,1.29.65,1.29,0,.65,0,1.29.65,1.93.65a2.34,2.34,0,0,0,1.93-.65c.64.65,1.29,0,1.29-.64v-.65a.63.63,0,0,0-.65-.64c1.29.64,2.58,0,2.58-1.29h.64l.65-.65h.64v.65c-.64.64.64,1.29,1.29.64v-.64c0,.64,1.29.64,1.29,0v-.65c0-.64-.65-.64-1.29-.64h-.65a.63.63,0,0,0-.64-.65v-.64h.64l.65-.64c.64,0,.64-1.29,0-1.29h-.65c0-.65-.64-1.29-.64-.65,0-.64,0-.64-.64-.64a.63.63,0,0,0-.65.64V138.4a.63.63,0,0,0-.64-.64H112c-2.62-.6-3.26-1.23-4.55-1.23h.64l.65-.65c.64,0,.64-1.29,0-1.29h-.65c0-.64-.64-1.29-.64-.64,0-.65,0-.65-.64-.65a.64.64,0,0,0-.65.65v-1.29a.63.63,0,0,0-.64-.65h.64s.65-.64,0-.64a5,5,0,0,0,3.22-1.29.63.63,0,0,0,.64.64c-.64,0-.64,1.29.65,1.29a.63.63,0,0,0,.64-.64l.65.64v1.29c0,.65,1.29.65,1.29-.64h1.92c.65,0,1.29-.65,1.93-1.29.65.64,1.29-.65.65-.65a.63.63,0,0,0-.65-.64h-.64c1.29,0,2.57-.65,1.93-1.93a.63.63,0,0,0,.64-.64l.64-.65h.65v.65c0,.64,1.29,1.29,1.29,0v-.65c.64.65,1.29,0,1.29-.64-.65,0-.65,0-.65-.64Z"/><path class="cls-1" d="M123.78,296c10.62,1.48,21.23,2.63,31.69,3.56,72.4,6.38,142.3-5.7,212.45-22.34l8.37-2c.2,0-103.21,0-103.25.24-.36,2-14,4.66-15.47,5a236.52,236.52,0,0,1-46.86,6.35,513.73,513.73,0,0,1-118.15-8.35q-22.36-4.2-44.28-10.38c-6.63-1.87-13.11-3.4-18.81-7.37-.16-.11-6-4.77-5.37-5.06,0,0-11.2,0-11.2,0-.2,0,3.78,5.62,4.06,5.9,6.84,6.91,16.91,11,25.78,14.49C68.35,286.11,96.12,292.17,123.78,296Z"/><path class="cls-2" d="M280,187.89l-51.91-50.61a9,9,0,0,0-6.67-2.53H139.84a7.82,7.82,0,0,0-5.94,2.89L80.14,192.23a3.25,3.25,0,0,0-.74,4,3.57,3.57,0,0,0,3.34,2.17H99.42v57.48a1.73,1.73,0,0,0,1.85,1.81H262.94a1.73,1.73,0,0,0,1.85-1.81V203.8h9.27a9.07,9.07,0,0,0,9.27-9,10.2,10.2,0,0,0-3.34-6.87Z"/><polygon class="cls-2" points="92.08 190.97 142.91 139.64 224.41 139.14 277.91 194.14 275.74 199.64 261.41 204.3 260.74 256.64 162.91 257.64 160.74 258.14 107.74 256.8 103.24 200.3 92.08 190.97"/><path class="cls-1" d="M244.72,181.94h-6.51A5.42,5.42,0,0,1,235,180.5l-4.33-4.34c-.73-.72-.37-1.45.72-1.45h6.51a5.4,5.4,0,0,1,3.25,1.45l4.34,4.34C246.16,181.58,245.8,181.94,244.72,181.94Zm-13.38,0h-6.51a5.39,5.39,0,0,1-3.25-1.44l-4.34-4.34c-.72-.72-.36-1.45.72-1.45h6.51a5.4,5.4,0,0,1,3.25,1.45l4.34,4.34C232.79,181.58,232.42,181.94,231.34,181.94Zm-13.38,0h-6.51a5.39,5.39,0,0,1-3.25-1.44l-4.34-4.34c-.72-.72-.36-1.45.73-1.45h6.5a5.43,5.43,0,0,1,3.26,1.45l4.34,4.34C219.41,181.58,219.05,181.94,218,181.94Zm-13.37,0h-6.51a5.42,5.42,0,0,1-3.26-1.44l-4.33-4.34c-.73-.72-.37-1.45.72-1.45h6.14a5.4,5.4,0,0,1,3.26,1.45L205,180.5c1.08,1.08.72,1.44-.36,1.44Zm-18.8-10.12-4.34-4.34c-.73-.72-.36-1.44.72-1.44h6.51a5.39,5.39,0,0,1,3.25,1.44l4.34,4.34c.72.72.36,1.45-.72,1.45H189C188.32,172.9,186.51,172.54,185.79,171.82Zm-8.68-9-4.34-4.34c-.72-.72-.36-1.44.72-1.44H180a5.36,5.36,0,0,1,3.25,1.44l4.34,4.34c.73.72.36,1.45-.72,1.45h-6.51A5.4,5.4,0,0,1,177.11,162.78Zm9.76-5.78h6.51a5.39,5.39,0,0,1,3.25,1.44l4.34,4.34c.72.72.36,1.45-.72,1.45h-6.51a5.37,5.37,0,0,1-3.25-1.45l-4.34-4.34C185.42,157.72,185.79,157,186.87,157Zm13.38,0h6.5a5.39,5.39,0,0,1,3.26,1.44l4.34,4.34c.72.72.36,1.45-.73,1.45h-6.5a5.43,5.43,0,0,1-3.26-1.45l-4.34-4.34C198.8,157.72,199.16,157,200.25,157Zm13.37,0h6.51a5.42,5.42,0,0,1,3.26,1.44l4.33,4.34c.73.72.37,1.45-.72,1.45h-6.51a5.4,5.4,0,0,1-3.25-1.45l-4.34-4.34C212.18,157.72,212.54,157,213.62,157Zm-4.7,15.9h-6.5a5.42,5.42,0,0,1-3.26-1.44l-4.34-4.34c-.72-.72-.36-1.45.73-1.45h6.51a5.4,5.4,0,0,1,3.25,1.45l4.34,4.34C210.37,172.54,210.37,172.9,208.92,172.9Zm-.36-5.42c-.72-.72-.36-1.44.73-1.44h6.14a5.42,5.42,0,0,1,3.26,1.44l4.33,4.34c.73.72.37,1.45-.72,1.45h-6.51a5.4,5.4,0,0,1-3.25-1.45Zm23.86,0,4.34,4.34c.72.72.36,1.45-.72,1.45h-6.51a5.4,5.4,0,0,1-3.25-1.45l-4.34-4.34c-.72-.72-.36-1.44.72-1.44h6.51A5,5,0,0,1,232.42,167.48Zm-8.31-11.93a7.67,7.67,0,0,0-4.7-1.81H167.35c-1.45,0-2.17.73-1.09,1.81l27.84,28.2a7.57,7.57,0,0,0,4.7,1.81h52.06c1.45,0,2.17-.72,1.09-1.81Zm49.17,41.94H197.72a5.7,5.7,0,0,1-4.34-1.81l-51-53.15h79.54c.36,0,1.08.37,1.45.37l51,51a1.9,1.9,0,0,1,.73,1.45,2,2,0,0,1-1.81,2.17Zm-21,42.3H233.15V217.73h19.16Zm-31.46,0H201.69V217.73h19.16Zm-59.29,17.69H130.47V204h31.09Zm-57.48-65.41H95.4L137.7,148l5.06,5.06Zm175-3.26L228.44,138.2a8.68,8.68,0,0,0-6.5-2.53H142.4a7.55,7.55,0,0,0-5.79,2.89L84.19,193.15a3.31,3.31,0,0,0-.72,4,3.48,3.48,0,0,0,3.25,2.17H103v57.48a1.71,1.71,0,0,0,1.81,1.81H262.43a1.71,1.71,0,0,0,1.81-1.81V204.72h9a9,9,0,0,0,9-9,10.27,10.27,0,0,0-3.25-6.87Z"/></g></g></svg>