<svg xmlns="http://www.w3.org/2000/svg" viewBox="0 0 395.41 294.89"><defs><style>.cls-1,.cls-2{fill:#2a6a35;}.cls-2{fill-rule:evenodd;}</style></defs><title>energyAsset 7</title><g id="Layer_2" data-name="Layer 2"><g id="Layer_1-2" data-name="Layer 1"><polygon class="cls-1" points="395.41 230.44 358.61 155.61 367.36 155.61 336.99 102.71 335.6 100.41 345.27 100.41 325.95 67.29 319.97 57.17 328.25 57.17 317.67 38.3 306.64 19.9 296.05 38.3 285 57.17 293.28 57.17 287.3 67.29 268.45 100.41 277.65 100.41 276.27 102.71 245.9 155.61 258.33 155.61 221.53 230.44 294.2 230.44 294.2 291.63 318.59 291.63 318.59 230.44 395.41 230.44"/><polygon class="cls-1" points="235.93 170.05 216.76 134.8 221.4 134.8 205.93 107.58 205.31 106.65 209.95 106.65 200.05 89.33 197.27 84.38 201.29 84.38 195.72 74.8 190.47 65.21 184.9 74.8 179.33 84.38 183.35 84.38 180.57 89.33 170.66 106.65 175.3 106.65 174.69 107.58 159.22 134.8 165.41 134.8 146.55 170.05 183.66 170.05 183.66 196.97 196.34 196.97 196.34 170.05 235.93 170.05"/><path class="cls-2" d="M129.43,166.11a64.55,64.55,0,0,0-11.91-37.57,52.46,52.46,0,0,0-6.9-25.48h0c-.21-.38-.44-.75-.65-1.11a1.74,1.74,0,0,1-.11-.18c-.19-.31-.38-.62-.58-.93-.06-.09-.11-.18-.17-.26l-.55-.83a3.53,3.53,0,0,1-.21-.32l-.53-.76c-.09-.11-.16-.23-.25-.34s-.35-.48-.53-.71l-.27-.37-.53-.68-.3-.39-.53-.64-.32-.38-.55-.65-.32-.36-.62-.69-.29-.31c-.3-.32-.6-.64-.92-1A37.63,37.63,0,0,0,35.2,69.06q-.56.7-1.08,1.44A37.67,37.67,0,0,0,27,92.19a0,0,0,0,1,0,0c-.31.32-.61.64-.92,1l-.28.32c-.21.23-.42.44-.61.68l-.32.36c-.19.22-.38.43-.56.65l-.32.38c-.18.21-.35.43-.52.64l-.31.39-.52.68c-.1.12-.19.24-.28.37s-.35.46-.52.71-.17.23-.25.34c-.19.26-.36.51-.53.76l-.22.32-.55.83-.16.26-.59.93-.1.18c-.23.36-.44.73-.65,1.11h0a50.9,50.9,0,0,0-3.45,7.32,53.14,53.14,0,0,0-3.45,18.15,65.12,65.12,0,0,0,25,96.23c.5.24,1,.48,1.53.7l.22.11c.45.19.89.39,1.34.57l.31.13,1.27.51.36.13,1.25.46.37.13c.43.16.86.29,1.3.43a2.13,2.13,0,0,0,.33.11c.48.16,1,.3,1.43.44l.21.07c1.12.32,2.26.62,3.41.88l.08,0,1.59.34.44.08c.41.09.83.17,1.24.24.19,0,.38.07.58.09l1.12.18.64.09,1.08.14.67.08,1.07.11.69.06,1,.07v59.47a4.29,4.29,0,1,0,8.58,0V230.94l1-.07.68-.06,1.07-.11.67-.08,1.08-.14.64-.09,1.12-.18.58-.09c.42-.07.83-.15,1.24-.24l.45-.08,1.59-.34.07,0c1.15-.26,2.28-.56,3.41-.88l.21-.07c.48-.13,1-.28,1.42-.44a1.79,1.79,0,0,0,.35-.11c.43-.14.86-.27,1.29-.43l.37-.13,1.25-.46.37-.13,1.26-.51.32-.13c.45-.18.89-.38,1.33-.57l.22-.11c.51-.22,1-.46,1.53-.7a65.08,65.08,0,0,0,36.9-58.66"/><path class="cls-1" d="M108.06,254.65c2.2-1.47,4.83-2.15,6.78-5.65a9.6,9.6,0,0,1,3.7-4.42c.63-.73,0-11.53,3.25-6.6,2.94,3.77,7.66,10.59,11.64,13,2.2,1.36,5.53,3.32,12.77,1.35,6.79-2,24.61-4.16,33.36,5.78,7.35-11.55,22.59.92,31.1,1.1s9.19-1.81,14.36-7.89c4.28,20.59-20.41,31.32-43.68,8.68-.63-.53.5,1.29.92,2.34s-1,9.52,6.63,15.78c1.16.52.38,8.29,3.22,14.92.21,1-4.6,2.64-4.82.64-.14-1.29,1.27-1.05,1.21-2-.26-3.89-1.55-9.85-4.37-10.88-4.08-1.67-8.75-7.78-9.38-9.88-.11-.1-4.21,6.15-2.93,10.85,1.16,2.42-.69,2.57-2,6.92-1.26,3.25-1.7,7.23-6.21,5.95-.45-1.87-.21-1.89,1.78-2.73.32-1.26,3.53-8.91,2-10.69a19.6,19.6,0,0,1-4.05-9h0a17.23,17.23,0,0,1,.07-9.29s-2.22,3.44-1,9.58c-1.11.71-2.05,2.07-14.21,1.65a6.45,6.45,0,0,0-3.07,1.27c1.13,5.35-1.69,17.44-1.69,17.44s-2.31,3-4.19.42c.19-1.2.26-1.06,1.15-1.89,1.1-2.68.06-12.29.06-12.29a22.06,22.06,0,0,1-1.18-4c2.22-1.44,4.43-5.13,5.13-8.44,0,0-1.9,5.67-6.42,8.57-1.72,1.06-5.08,3.3-9.34,5.9-.95,1.57-2,3.67-2,3.67s0,7.65-3.67,5.76c-.2-2.62-.73-3.66,1.37-7a27.79,27.79,0,0,1,4.09-6.19,33.07,33.07,0,0,0,3.56-4.29s-9.37-7.69-12-14.19c-2.2-1.26-8.77,0-10.34-.6,0,0-3.78-2.21-1.57-3.67Z"/><path class="cls-1" d="M170.79,45.37a4.8,4.8,0,0,0-.7-3,4.85,4.85,0,0,1-1.4-2.62c-.17-1.05-1.92-1.22-1.92-1.22a5.57,5.57,0,0,0-1.39-2.27,35.42,35.42,0,0,0-5.07,5.24,34.88,34.88,0,0,1-5.76,5.59l-1.05-.35a23.71,23.71,0,0,0,1.92-3.49,16.4,16.4,0,0,0,1.05-7.51,24.42,24.42,0,0,1,.34-5.07c1.75-3.49,1.4-5.06,1.4-5.06,1.57-3.85-.17-3.85-.17-3.85,1.22-2.79.17-4.19.17-4.19,1.57-3.85-.35-3.32-.35-3.32,1.57-3.31.18-3.84.18-3.84a5.59,5.59,0,0,0,.18-3.32c-.35-1-1.23,0-1.23,0a31.58,31.58,0,0,0,.7-3.15c.18-1.22-.52-1.74-.87-.34s-2.44,3.49-2.44,3.49.52-2.45.69-4-.69-3.32-1-1.39a43.39,43.39,0,0,1-2.44,6.46,17.8,17.8,0,0,0,.34-5.42c-.34-2.27-1.39-3.49-1-2.27S150.71,5,150,9.39s-5.24,15.2-6.11,17.12a13.55,13.55,0,0,0-1.4,7.16c.35,2.62,0,11,0,11a27.62,27.62,0,0,1-4.19,2.79c-2.09-.7-4.89.53-4.89.53-2.62-1.4-8.56-1.22-12-1.57s-11.18,0-14-.18a10.58,10.58,0,0,1-6.11-2.1c-1.75-1.22-2.44-.69-1.57.35s3,1.75,5.93,3A31.47,31.47,0,0,0,110.19,49c.34.88,4.36,1.23,4.36,1.23.18,1,2.79,1.39,4.37,1.92s3.31,1,3.31,1c1,.53,2.1.88,5.77,1.05a65.84,65.84,0,0,0,7.68-.17,5.69,5.69,0,0,0,3,1.22c2.09.35,3.14,1,5.42,1.92a29.94,29.94,0,0,0,5.24,1.22c-1.22,3-5.24,7.51-5.24,7.51a25,25,0,0,1,2.79.18c1.39.17,1.22.52,2.27.7s.87-.35,2.27-.7a9.69,9.69,0,0,1,3.15-.35c1.39,0,.52-.53,2.44-1s2.27.7,3.67-.52a9.75,9.75,0,0,1,3.14-1.92c1.4-.71,1.22-1.4,3-2.63s1.4-1.22,2.8-3.49.52-1.75,1.05-3.85.52-2.44.87-3.84a5,5,0,0,0-.7-3.13Z"/></g></g></svg>