<svg xmlns="http://www.w3.org/2000/svg" viewBox="0 0 243.46 101.02"><defs><style>.cls-1{fill:#fff;}</style></defs><g id="Layer_2" data-name="Layer 2"><g id="Layer_1-2" data-name="Layer 1"><g id="Group_26" data-name="Group 26"><path id="Path_118" data-name="Path 118" class="cls-1" d="M93,37.55l-.3.27a2,2,0,0,0-.21.19l-.09.09-.26.25-.31.44.23,0,.27-.23a1.24,1.24,0,0,1,.19-.16l.09-.07a2.5,2.5,0,0,0,.23-.17,2.59,2.59,0,0,0,.35-.31,2.5,2.5,0,0,1,.34-.31h-.5Z"/><path id="Path_119" data-name="Path 119" class="cls-1" d="M100.22,32l-.12.28-.14.27-.29.54-.35.57-.27.38-.2.3-.13.18a1.12,1.12,0,0,1-.18.2,4.69,4.69,0,0,0-.47.53v0c-.69.78-1.45,1.51-2.2,2.25q9.33-.08,14.59,1.88l.33.15h11.4a46.78,46.78,0,0,0-9.77-5.27,37.31,37.31,0,0,0-12.12-2.43l-.06.12Z"/><path id="Path_120" data-name="Path 120" class="cls-1" d="M89.9,36.21l0-.14s0-.13,0-.19a.87.87,0,0,0-.06-.32,3,3,0,0,0-.41-.59L89,34.4A3.75,3.75,0,0,1,88.29,33c-.08-.23-.16-.47-.23-.71a2.62,2.62,0,0,1-.09-.38v-.08c-1.1.06-1.38.13-2.53.22q-10.55.54-22.27-6.84a116.67,116.67,0,0,1-11-8.6Q38,3.57,13.51.44C12.09.29,10.73.16,9.42,0A3.43,3.43,0,0,0,7,.54a2.21,2.21,0,0,0-.9,2,2.79,2.79,0,0,0,1,2.28,4.94,4.94,0,0,0,2.35,1,47.47,47.47,0,0,1,5.19.65q20.63,3,32.8,13.79a106.43,106.43,0,0,0,11.92,9.22Q74,38.84,87.09,37.85c1.16-.09,1.44-.16,2.54-.21,0-.24.08-.47.13-.7Z"/><path id="Path_121" data-name="Path 121" class="cls-1" d="M243.36,85.6a3.81,3.81,0,0,0-1.42-2.15,3.69,3.69,0,0,0-2.53-.51c-3.08-.12-6.06.49-9.18.11a38.94,38.94,0,0,1-9-2.32q-10.12-3.81-15.56-8.5c-.75-.69-1.55-1.35-2.38-2H192.51a38.23,38.23,0,0,1,8.61,5.65q6.1,5.61,18,10.08A37.35,37.35,0,0,0,229,88.68a48.33,48.33,0,0,0,10.55,0,.59.59,0,0,1,.35,0,4.42,4.42,0,0,1,1,0A3.36,3.36,0,0,0,243,87.52,2,2,0,0,0,243.36,85.6Z"/><path id="Path_122" data-name="Path 122" class="cls-1" d="M139.34,72.87l.14,0A76.9,76.9,0,0,0,165.62,78q10.73-.21,16.84,2.15a42.07,42.07,0,0,1,13.17,7.63q6.09,5.61,18,10.08a40.57,40.57,0,0,0,12.93,3,37.64,37.64,0,0,0,8.81-.32,3.36,3.36,0,0,0,2.11-1.14,2,2,0,0,0,.35-1.92,3.81,3.81,0,0,0-1.42-2.15,3.63,3.63,0,0,0-2.53-.51c-3.36-.14-6.57.48-10,0a39.46,39.46,0,0,1-9.63-2.77c-4.92-2.08-10.15-4.26-14.16-7.94a47.32,47.32,0,0,0-15.65-9.21q-7.29-2.79-19.86-2.7a65,65,0,0,1-14.82-2H133.43A61,61,0,0,0,139.34,72.87Z"/><path id="Path_123" data-name="Path 123" class="cls-1" d="M57.67,37.16a119.33,119.33,0,0,1-11-8.6Q32.47,15.5,8,12.36c-1.41-.15-2.78-.28-4.09-.4a3.43,3.43,0,0,0-2.38.5,2.23,2.23,0,0,0-.9,2,2.83,2.83,0,0,0,1,2.28,5.12,5.12,0,0,0,2.36,1,45.42,45.42,0,0,1,5.19.65q20.61,3,32.8,13.79a115.55,115.55,0,0,0,9.17,7.34H61.79Q59.75,38.47,57.67,37.16Z"/><path id="Path_124" data-name="Path 124" class="cls-1" d="M0,68.58H8.09v-9.4h5.72v-7H8.05V49.38h6.29v-7.3H0Z"/><path id="Path_125" data-name="Path 125" class="cls-1" d="M34.13,56.45a5.65,5.65,0,0,0,1-1.4,9.14,9.14,0,0,0,1.05-4.36,11.1,11.1,0,0,0-.55-3.57A7.07,7.07,0,0,0,34,44.4a7.15,7.15,0,0,0-2.79-1.72,12.06,12.06,0,0,0-4-.6H17.37v26.5h7.78V59.07h.68l2.82,9.51h8.6L33,57.28A3.89,3.89,0,0,0,34.13,56.45Zm-6.24-4.12a2.33,2.33,0,0,1-.56.72,2,2,0,0,1-.75.35,3.2,3.2,0,0,1-.75.09h-.68V48.85h.9a3,3,0,0,1,.66.08,1.51,1.51,0,0,1,.67.33,2,2,0,0,1,.53.71,2.92,2.92,0,0,1,.2,1.2,2.62,2.62,0,0,1-.22,1.17Z"/><path id="Path_126" data-name="Path 126" class="cls-1" d="M54.17,61.28H47.28V58.51h5.8V51.88h-5.8V49.23h6.4V42.08H39.53v26.5H54.17Z"/><path id="Path_127" data-name="Path 127" class="cls-1" d="M65.13,58.51h5.8V51.89h-5.8V49.23h6.4V42.08H57.38v26.5H72v-7.3H65.13Z"/><path id="Path_128" data-name="Path 128" class="cls-1" d="M103.24,42.08H94.37L92.05,58.81h-.12l-2.4-16.73H80.26l6.28,26.5H96.81Z"/><path id="Path_129" data-name="Path 129" class="cls-1" d="M116.91,49h4.68V42.08H104.22V49h4.68V68.58h8Z"/><path id="Path_130" data-name="Path 130" class="cls-1" d="M145.68,57.28a4,4,0,0,0,1.12-.83,5.65,5.65,0,0,0,1-1.4,9.56,9.56,0,0,0,.75-1.92,9.17,9.17,0,0,0,.3-2.44,11.09,11.09,0,0,0-.54-3.57,7.18,7.18,0,0,0-1.64-2.71,7.06,7.06,0,0,0-2.79-1.73,12.32,12.32,0,0,0-4-.6H130v26.5h7.79V59.07h.67l2.82,9.51h8.6Zm-7.85-8.42h.9a2.81,2.81,0,0,1,.65.07,1.62,1.62,0,0,1,.68.34,2,2,0,0,1,.52.71,3.07,3.07,0,0,1,.21,1.2,2.73,2.73,0,0,1-.23,1.16,2,2,0,0,1-.56.71,1.91,1.91,0,0,1-.75.35,3.66,3.66,0,0,1-.75.1h-.67Z"/><rect id="Rectangle_18" data-name="Rectangle 18" class="cls-1" x="152.2" y="42.08" width="8.24" height="26.5"/><path id="Path_131" data-name="Path 131" class="cls-1" d="M185.52,42.08h-8.87l-2.33,16.73h-.11l-2.4-16.73h-9.28l6.29,26.5h10.25Z"/><path id="Path_132" data-name="Path 132" class="cls-1" d="M202.25,68.58v-7.3h-6.89V58.51h5.8V51.88h-5.8V49.23h6.4V42.08H187.61v26.5Z"/><path id="Path_133" data-name="Path 133" class="cls-1" d="M205.47,42.08v26.5h7.79V59.07h.67l1.58,5.34,1.24,4.17h8.6l-4.24-11.3a4,4,0,0,0,1.12-.83,5.65,5.65,0,0,0,1-1.4,9.56,9.56,0,0,0,.75-1.92,9.17,9.17,0,0,0,.3-2.44,11.1,11.1,0,0,0-.55-3.57,6.86,6.86,0,0,0-4.42-4.44,12.05,12.05,0,0,0-3.82-.59h-10Zm10,7.22a2.1,2.1,0,0,1,.5.68,2.89,2.89,0,0,1,.2,1.2,2.61,2.61,0,0,1-.22,1.16,2.2,2.2,0,0,1-.48.62.73.73,0,0,0-.08.09,1.91,1.91,0,0,1-.75.35,3.86,3.86,0,0,1-.75.1h-.68V48.85h.9a3.72,3.72,0,0,1,.66.08,1.51,1.51,0,0,1,.67.33l0,0Z"/><path id="Path_134" data-name="Path 134" class="cls-1" d="M234.46,61.49a1.77,1.77,0,0,1-1.07.32,5.13,5.13,0,0,1-2-.45,8.14,8.14,0,0,1-1.89-1.16l-3.89,6.17a10.21,10.21,0,0,0,1.46,1,12.8,12.8,0,0,0,1.89.94,13.64,13.64,0,0,0,2.24.65,12.36,12.36,0,0,0,2.57.24,11.16,11.16,0,0,0,3.39-.52,8.67,8.67,0,0,0,3-1.61,7.56,7.56,0,0,0,2.1-2.81A9.69,9.69,0,0,0,243,60.2a7.52,7.52,0,0,0-.62-3.18,8.26,8.26,0,0,0-1.51-2.3,9.62,9.62,0,0,0-1.91-1.58c-.68-.41-1.29-.75-1.84-1a14.35,14.35,0,0,1-2-1.08,1.19,1.19,0,0,1-.51-1,1.13,1.13,0,0,1,.49-1.05,2,2,0,0,1,1.09-.3,3.64,3.64,0,0,1,1.64.43,5.66,5.66,0,0,1,1.5,1.06l4-6.1a9.91,9.91,0,0,0-3.16-1.94,11.65,11.65,0,0,0-4.29-.75,10.85,10.85,0,0,0-3.2.49,8.57,8.57,0,0,0-3,1.55,8.21,8.21,0,0,0-2.19,2.77,9.09,9.09,0,0,0-.86,4.14,8.37,8.37,0,0,0,.47,2.93,7.33,7.33,0,0,0,1.25,2.19,8,8,0,0,0,1.8,1.59,16.55,16.55,0,0,0,2.14,1.18,11.24,11.24,0,0,1,1.92,1.13,1.46,1.46,0,0,1,.62,1.2A1.05,1.05,0,0,1,234.46,61.49Z"/><path id="Path_135" data-name="Path 135" class="cls-1" d="M83.41,13.16a.26.26,0,0,0,.35,0l.06-.08a.33.33,0,0,0,.09-.3.63.63,0,0,0-.28-.28.23.23,0,0,0-.26.09.22.22,0,0,0-.05.08.44.44,0,0,0,.09.52Z"/><path id="Path_136" data-name="Path 136" class="cls-1" d="M88.87,31.84a2.62,2.62,0,0,0,.09.38c.07.24.15.48.23.71a4.09,4.09,0,0,0,.68,1.37l.47.57a3,3,0,0,1,.41.59.87.87,0,0,1,.06.32c0,.06,0,.14,0,.19l0,.15-.15.72a10.5,10.5,0,0,0-.28,3c.05.5.11,1,.2,1.5,0,.13,0,.25.08.38a1,1,0,0,0,0,.11,1.11,1.11,0,0,0,.07.16.27.27,0,0,0,.1.08s.08,0,.12-.06l.11-.1a.3.3,0,0,0,.08-.08l.12-.15.22-.3h0a31,31,0,0,1,2.79-3.16c1-1,2.13-2,3.1-3.08v0a4.88,4.88,0,0,1,.49-.53l.18-.2.06-.08.21-.3,0,0a2,2,0,0,0,.25-.34L99,33.1c.11-.18.2-.36.3-.54l.14-.27.13-.28,0-.07.06-.12c0-.09.09-.19.13-.29s.1-.3.16-.45.19-.63.29-.95,0-.31.14-.72c0-.07,0,.06.06-.2l-.07.25c.06-.28.1-.57.14-.82,0-.06,0-.15,0-.25s0,0,0-.1a.45.45,0,0,1,0-.12v-.23l0,.14c0-.34,0-.67.06-1,0,.12,0,.34,0,0l0-.27s0,.1,0-.36a3.85,3.85,0,0,0,0-.48s0,.33,0,.33c0-.46,0-.36,0-.78v.06c0-.34,0-.58,0-.81v0a14.31,14.31,0,0,0-.21-1.42l0-.33c0,.09,0,.06,0-.09a3,3,0,0,1-.08-.51l-.2-.95c0-.14-.06-.28-.1-.44V21h0l0-.05a2.4,2.4,0,0,0,.21-.23h0a.41.41,0,0,1,0-.09.39.39,0,0,0,.08-.1l0,0,.09-.12h0l.08-.11s0,0,0,0l.11-.18v0l.1-.18.08-.19h0l.06-.14a1.2,1.2,0,0,0,0-.14,3.1,3.1,0,0,1-.25.56.33.33,0,0,1-.06.1,3.25,3.25,0,0,0,.23-.54,2.64,2.64,0,0,0,.12-.4v0a3.38,3.38,0,0,1-.13.42.69.69,0,0,1,0,.13l0-.09c.07-.14,0-.1.07-.12a2.2,2.2,0,0,0,.12-.62l0,.07s0-.13,0-.25v-.26c0-.17,0,.17,0,.09v.17c0-.2,0-.39,0-.39s0,0,0-.23,0-.22,0-.5c0,.09,0,.13,0,.16,0-.13,0-.22,0-.3s0-.08,0-.11a.18.18,0,0,0,0-.1.29.29,0,0,1,.07.16.88.88,0,0,0,0,.16h0v-.05c0-.14,0,.17,0,0l0-.15a.17.17,0,0,0,0-.1s0,0,0,0l0,0-.89-.32L99,16.67l-1.51-.31a4.27,4.27,0,0,1-.72-.21L96,15.9c-.25-.08-.5-.19-.77-.29l-.2-.08-.1,0h0l0,0a2.17,2.17,0,0,0-.37-.31c-.24-.16-.88-.54-1.13-.69l.08.05c-.33-.2-.45-.24-.71-.4l-.26-.16a3.42,3.42,0,0,0-.43-.21c-.23-.13-.7-.33-.74-.36-.53-.22-.83-.33-1.35-.53l0,0c-.11,0-.24-.1-.38-.14.07,0,.48.18.14.07a9.25,9.25,0,0,0-1.07-.37l-.37-.13c-.19-.06-.45-.13-.16,0-.23-.06-.46-.14-.68-.22-.65-.21-1.1-.3-1.71-.47A15.61,15.61,0,0,0,83,11.15h-.06s0,0,0,0a9.55,9.55,0,0,0-1.31,0,.14.14,0,0,0-.13.12.06.06,0,0,0,0,0,3,3,0,0,1,.3.73h0v.07s0,.08,0,.12h0v0l0,0,0,0,0,0h0c-.14.15-.45.21-1.08.09-.06,0-.16,0-.15.11v0c0,.13.09.34.18.6,0,.05,0,.11.07.21s0-.09,0-.14c.05.16.1.33.17.5h0s.23.58.25.68a1.17,1.17,0,0,0,0-.11c0,.1.13.31.2.42l-.07-.15c.25.44.17.36.43.83,0,0-.36-.73-.15-.35a3.62,3.62,0,0,0,.17.35l.16.24.1.17c.13.23.28.47.37.61-.08-.13-.14-.22-.22-.37a3.11,3.11,0,0,0,.2.3c.07.09.12.17.18.26h0a1.3,1.3,0,0,1,.1.15l.25.36,0,0a2.67,2.67,0,0,1-.18-.23l.19.26a.79.79,0,0,1,.12.15,2.88,2.88,0,0,1,.27.34c.2.23.07.08.1.08.15.21.52.63.45.57s-.29-.34-.2-.22a2.55,2.55,0,0,1,.25.3c-.24-.3.33.34.15.12l.49.55h0l.29.32s0,0,0,0l.31.31a2.23,2.23,0,0,0,.35.4l-.06-.08.35.33v0h0L85.31,20l0,0c.2.2-.35-.29.06.09,0-.05,0,0,.18.13s0,0,0,0a.11.11,0,0,0,0,.08h0s0,0,0,0l0,0h0l.06.12h0l0,0s0,0,0,.05,0,0,0,.05h0l.07.12h0l0,0L86,21h0s0,.07,0,.06h0a.05.05,0,0,0,0,0s0,0,0,0h0l0,0h0l0,.08h0l0,0s0,0,0,0a0,0,0,0,0,0,0s0,.05,0,0,0,0,0,0a.88.88,0,0,0,.05.15v0h0l0,0s0,0,0,0a.29.29,0,0,0,0,.13s0,0,0-.07v0h0l0,.1s0,0,0,.05,0,0,0,0a.2.2,0,0,0,0,.08s0,.06,0,.06l0,.05,0,0s0,.09,0,.13h0l0,.07,0,.08a.1.1,0,0,0,0,.05l0,.06a.21.21,0,0,0,0,.06l0,.07,0,0a.14.14,0,0,0,0,.06s0,0,0,0l0,0h0l.05,0v0l0,0,0,0v0h0s.1,0,.08,0h0a.51.51,0,0,0,.31-.19,0,0,0,0,1,0,0,.08.08,0,0,0,0,0l0,0s0,0,0,0h0l0,0h0l0-.05h0l0-.05.1-.09a0,0,0,0,1,0,0l0,0,.17-.15h0l.06,0,.14.08.08,0,.27.17.22.12.21.12.16.1-.13-.07.13.07.15.09c.06.05.32.17.49.26l-.11-.07c.3.17.44.27.73.42l0,0,.09,0,.53.31-.18-.1.17.1,1.08.64.29.19a3.18,3.18,0,0,1,.37.27l0,0,.2.18.13.13.06.07a2,2,0,0,1,.33.43v0a3.07,3.07,0,0,1,.38.66c0,.08.1.28.12.31,0,.21.08.42.1.64h0a.54.54,0,0,0,0,.11.43.43,0,0,1,0-.05c0,.23,0,.34,0,.65s0-.16,0,.36v.12l0,.12c0,.07,0,0,0,0,0,.23,0,.4-.06.5v.09a1.93,1.93,0,0,0,0,.34c0,.07,0,.13,0,.2s0,0,0,.06,0,0,0,0l0,0,.11-.09c.09-.07,0,0,0,0a1.59,1.59,0,0,1,.24-.2c-.15.12.12-.06,0,0l.25-.15.3-.13a2.18,2.18,0,0,1,.72-.06c-.56,0,.23,0-.1,0a.92.92,0,0,0-.33,0c-.13,0-.19,0,.15,0h-.24l-.24.06s.48-.11.07,0a2.71,2.71,0,0,1,.94,0h0v0a.29.29,0,0,0,0,.09c0,.06,0,.1,0,.13A3.27,3.27,0,0,1,96,30l0-.14a.63.63,0,0,0,0-.15,3.72,3.72,0,0,1-.08.57c-.06.16-.07.18,0,.1a4.9,4.9,0,0,1-.5,1l-.07.11.09-.14a.86.86,0,0,1,.07-.1h0a1.13,1.13,0,0,0,.12-.19l-.08.14-.08.14a1.43,1.43,0,0,1-.14.2l0,0,0,.05,0,0,0,0s0,0,0,0L95,31.68h0l-.25-.06-.43-.11L94,31.46l-.68-.06-.8-.06c.13,0-.09,0,0,0l-.59,0h.37c-.44,0-1,0-1.54,0a.58.58,0,0,0,.23,0s-.34,0-.49,0c-.35,0-.11,0-.51,0a8.67,8.67,0,0,0-.88.06h0l-.1,0a.27.27,0,0,0-.08.07.14.14,0,0,0,0,.06.12.12,0,0,0,0,.09A.53.53,0,0,0,88.87,31.84ZM94,34.73l-.15.07-.25.08-.08,0H93.4l-.13,0A1,1,0,0,1,93,35h-.23l-.06,0,.2,0h.12l.12,0,.13,0h.21l.24-.12.09,0,.19-.05.27-.08Zm-.14-1a4.39,4.39,0,0,0-.49.08c-.09,0-.86,0-1,0h0a1.71,1.71,0,0,1-.45,0l-.43-.07h0l-.08-.09.38,0h.69l.38.07.5-.08,1,.07-.54.06Zm1,1.35-.11.08a1.84,1.84,0,0,0-.22.17,5.33,5.33,0,0,0-.49.46c-.08.09-.83.64-1,.77a1.46,1.46,0,0,1-.28.21l-.19.1a1.71,1.71,0,0,1-.23.13l-.25.12-.12,0h0l.36-.3.21-.15.23-.17.23-.18.42-.23.21-.23.21-.23s.28-.18.57-.33a3,3,0,0,1,.4-.2h0l.18-.09Zm-.84-2.27a4.25,4.25,0,0,0-.8,0c-.13,0-1.14-.09-1.34-.07a2,2,0,0,1-.6-.07l-.58-.11,0,0-.08-.09.52,0,.28,0,.32,0h.31l.5.12.69-.06.22,0,.47.09.69.14Zm1.6,2.75-.06.07c-.1.12-.21.28-.35.43-.28.32-.58.63-.63.7s-.58.48-.94.78a2,2,0,0,0-.34.31,3.52,3.52,0,0,1-.35.31,2.5,2.5,0,0,1-.23.17l-.09.07a2,2,0,0,0-.19.15l-.27.24-.23,0,.31-.44.07-.1L92.5,38l.09-.08a1.84,1.84,0,0,1,.2-.19l.3-.27.29-.17.28-.16.57-.63.22-.16c.14-.09.32-.22.49-.35l.48-.39.21-.17Zm1.53-1.48a.56.56,0,0,0,0,.08l-.13.17a1.34,1.34,0,0,1-.25.23l-.14.09a1.21,1.21,0,0,1-.38,0,1.11,1.11,0,0,1-.37-.15l-.12-.12a1.22,1.22,0,0,1-.17-.29,1.48,1.48,0,0,1-.11-.45,2.93,2.93,0,0,1,.05-.29l.09-.26a2.61,2.61,0,0,1-.06-.27,1.5,1.5,0,0,1,0-.29,1.59,1.59,0,0,1,.11-.18,1.43,1.43,0,0,1,.14-.2,1.87,1.87,0,0,1,.33-.3l0,.07a.88.88,0,0,0,0,.15,1.74,1.74,0,0,0-.05.22l0,0a1.7,1.7,0,0,0-.1.32,1.64,1.64,0,0,0,0,.32c0,.07,0,.15,0,.22a1.62,1.62,0,0,0,0,.22,1,1,0,0,0,0,.24,1,1,0,0,0,0,.24.57.57,0,0,0,.11.16.49.49,0,0,0,.13.12.51.51,0,0,0,.13.09l.16.05a.39.39,0,0,0,.1.08l.08,0,0,0a1.8,1.8,0,0,0,.2-.19l.27-.13.18-.11.08-.06-.07.12ZM95.54,22.21c0,.07-.21-.37-.17-.32l-.08-.16s0-.06,0-.05-.1-.2-.14-.3l0,0s0,0,0,0L95,21.12h0L95,21l0-.05h0l-.1-.13a1.65,1.65,0,0,0-.15-.25,1.43,1.43,0,0,0-.14-.2c0-.07-.11-.16-.17-.23a.86.86,0,0,1-.07-.1c-.06-.06-.15-.19-.2-.25l-.1-.1-.2-.15,0,0,0,0h0l0,0,0,0h0l-.13-.1c-.06-.07,0,0,.14.09h0l0,0h0l-.13-.1-.33-.28a1.94,1.94,0,0,1-.25-.23s0,0,0-.05l-.18-.15-.07-.06-.21-.17,0,0a.71.71,0,0,1-.14-.1l0,0h0a1.58,1.58,0,0,1-.14-.17c0-.07-.1-.15-.16-.22s-.2-.23-.26-.3,0,0-.09-.14a.84.84,0,0,0-.1-.12l-.06,0-.44-.2h0l.17.09c.13.06.34.14.28.13A3.68,3.68,0,0,1,91,17s.06,0,.07,0L90.83,17h0l-.13-.06-.19-.08L90,16.49l-.15-.12s-.09-.06-.14-.1l-.14-.1a.81.81,0,0,1-.14-.12L89.35,16l-.07,0-.35-.25.06,0h0l-.19-.14-.08,0-.13-.07-.15-.11h0l.07,0c.07,0-.14-.1-.23-.18s0,0,0,0l-.1-.07-.11-.06L88,15h0v0l0,0h0l0,0s.08.06,0,0l0,0L88,15l0,0,.27.13.18.08h0l.13.06.46.21s-.05,0,0,0l.24.12.22.1.24.12,0,0,0,0,.49.25h0l.21.11.12,0-.07,0a2.75,2.75,0,0,1,.38.2,2.09,2.09,0,0,0,.3.15,2.43,2.43,0,0,0,.32.18l0,0h0c.14.1,0,0,0,0s.57.46.43.37l.27.21c.08.05,0,0,.14.08s.14.13.13.14l0,0,.31.25h0l.3.24,0,0,.09.07.1.08s0,0,.1.1l.07.06.09.08h0l0,0,.07.05.07.07a.9.9,0,0,1,.1.09l0,0,.12.09.11.12v0l.07.07.06.08,0,0c0,.05.08.1.12.17l0,.07h0v0l.32.48.08.12.19.31.05.09c0,.08.09.15.13.22l0,.06,0,0,.12.2,0,.06.11.18.17.31.24.43.1.18a.61.61,0,0,1,.05.12l0,0,.07.14s0,0,0,0a.65.65,0,0,1,0,.13l.14.32h0l0,.13,0,.1.11.25v0h0a2,2,0,0,1,.1.21L97,24c0,.06,0,.11.06.15s0,0,.07.09a.25.25,0,0,0,0,.07l0,.05h0c0,.07.06.1,0,.1l.12.17,0,0,0,.05c.06.08.11.17.17.26l.1.15h0l.12.2a.55.55,0,0,0,0-.1l0,0-.08-.14h0v0s0,0,0,0a2.75,2.75,0,0,1,.2.38.09.09,0,0,1,0-.05l.16.29s0,0,0,.07,0,0,0,0a.33.33,0,0,1,0,.15s0,.05,0,0l.09.18c.09.23-.14-.27,0,.17,0,.09.07.18.11.27h0l0,.08s0,0,0,0a.19.19,0,0,1,0,.07v0a.9.9,0,0,1,0,.4.77.77,0,0,1,0,.15h0a.13.13,0,0,1,0,.06c0,.1,0,.2,0,0,0,.17-.08.58-.12.8h0s0,.08,0,.12v0h0c0-.16,0-.37.08-.5,0,.11,0,.22,0,.33,0-.07,0-.18,0-.28,0,.22-.06.45-.11.66s-.08.42-.13.64c0-.08,0-.07,0,0a.73.73,0,0,1,0,.2.11.11,0,0,1,0,.05c0,.13-.06.25-.08.37a1,1,0,0,1,0-.13c-.06.28-.12.57-.2.88v0l0,.14,0,.2v-.22h0v-.11s0-.12,0-.15v-.23s0-.07,0-.08,0,.13,0,.22v-.44c0-.18,0-.34,0-.51,0,.15,0,.31,0,.45,0,0,0-.1,0-.12v0a2.35,2.35,0,0,0,0-.27s0,.14,0,.18,0-.29,0-.41a.28.28,0,0,0,0,.13l0-.77c0,.27,0,.5,0,.76V29.2c0-.14,0-.27,0-.38s0-.32,0-.32l0-.17s0,0,0-.15v-.11h0c0-.08,0-.18,0-.28a2.35,2.35,0,0,1,0-.26v-.24h0v0l0-.28a.77.77,0,0,0,0-.15.41.41,0,0,1,0-.1v0a5.47,5.47,0,0,0-.15-.58l-.15-.4a.85.85,0,0,0-.11-.26c-.08-.17-.18-.39-.25-.58l-.12-.23,0-.1,0,0-.13-.21h0l-.06-.1-.06-.09h0a.41.41,0,0,1,0-.09l0,0a.35.35,0,0,0,0-.08l.06.11c0-.07-.08-.13-.13-.21l0,.05L96,23.18l-.41-.86a.66.66,0,0,0,0-.11ZM94.89,21h0l0,.08,0-.08a.83.83,0,0,1-.08-.12l.08.12ZM93.82,19.6h0s0,0,0,0l0,.05,0,0Zm.61-2.9h0v0h0s0,0,0,0l0,0h0a.1.1,0,0,1,.08-.05h0a.23.23,0,0,1,.12,0,.23.23,0,0,1,.11,0h0l0,0,0,0h0a.2.2,0,0,1,.08.08.24.24,0,0,1,0,.09s0,.08,0,.13v0a1.1,1.1,0,0,1,0,.18h0a0,0,0,0,1,0,.05.13.13,0,0,1-.07.09h0l0,0h-.07l0,0,0,0h0l0,0h0a.07.07,0,0,1-.07,0s0,0,0,0v0s0,0,0,0h0s0,0,0,0a0,0,0,0,1,0,0h0v0h0v0h0s0,0,0,0h0l0,0h0v0h0v0h0s0,0,0,0h0v0h0l0,0v0h0l0,0h0v0h0l0,0,.06,0h0v0h0l0,0h0l0,0h0l0,0h0s0,0,0,0h0a0,0,0,0,0,0,0s0,0-.05,0h0s0,0,0,0h0Zm.86,1.43a.27.27,0,0,1,.07.08l0,.13a.08.08,0,0,1,0,.05,1.8,1.8,0,0,1,0,.19.15.15,0,0,1,0,.18h0v0a.05.05,0,0,1,0,0h0l0,0h0l0,0a.14.14,0,0,1,0,0h0a0,0,0,0,1,0,0s0,0,0,0a.05.05,0,0,1,0,0h-.1a.05.05,0,0,1,0,0h0l0,0v0a.06.06,0,0,1,0-.07l0,0h0s0,0,0,0h0l0,0-.2-.16.2.16,0,0h0v0h0v0h0l0,0h0s0,0,0,0h0a0,0,0,0,1,0,0h0a0,0,0,0,0,0,0h0v0l0,0H95s0,0,0,0h0v0s0,0,0,0h0a.05.05,0,0,0,0,0s0,0-.06,0h-.07s0,0,0,0v0l0,0v0s0,0,.05-.08l0,0a.26.26,0,0,1,.11-.07l.12,0,0,0,0,0h.16Zm-2.56-1.92s0,0,0,0h0l0,0,0,0h0A.53.53,0,0,1,93,16h.11l0,0a.25.25,0,0,1,.1.08h0l0,0h0l0,.06h0s0,0,0,0v0s0,.12,0,.15v.09c0,.06,0,.07,0,.07l0,.05h0v-.09s0,0,0-.07l0,0a.08.08,0,0,0-.07,0h0a.05.05,0,0,1-.05,0H92.9s0,0,0,0v0h0s0,0,0,0h0v0l0,0,0,.06,0,0h0s0,0,0,0h0a.44.44,0,0,0,0,.1v.06h0s0,0,0,0h-.24a0,0,0,0,1,0,0v0h0l0,0a.35.35,0,0,1-.11-.1l0,0v0h0l0,0s0,0,0,0l0,0,0-.07h0s0,0,0,0a.08.08,0,0,1,0,0s0,0,0-.05,0,0,0,0l.07,0h0a.1.1,0,0,0,.06-.05h0a.11.11,0,0,1,.08,0Zm5,.82.17.06h0l.29.11.06,0h0a1.34,1.34,0,0,1,.27.07c.26.1.56.18.81.3h0l.14.06.42.16.06,0h.06l.4.08H100l-.2,0-.09,0h0l-.34-.05s-.07,0-.09,0h-.11l-.11,0a.46.46,0,0,0-.2,0h-.22a.2.2,0,0,1-.11,0h-.23l-.17-.06-.09,0-.32-.08-.35-.07-.2-.06h0a5.71,5.71,0,0,1-.47-.39h0v0l.12-.18.07-.1h0v0h0l.19.1.24.09.08,0Zm2.44,1.9-.22,0h0l-.27,0-.07,0h-.09l-.09,0s-.11,0-.16-.05h-.1l-.09,0h0s-.08,0-.09,0h0a.28.28,0,0,1-.13,0h0l-.13-.06-.07,0-.25-.1-.27-.09-.16-.06h0l-.18-.16h0l-.17-.18h0l.17-.22,0,0h0v0h0l.07.05h0l.07,0,.18.09h0l.06,0,.24.12.13.06h0l.23.12.05,0h0l.21.07a5.12,5.12,0,0,1,.65.25l.11.06.34.12h.09l.35,0Zm-2.06,3.76a.36.36,0,0,0,0-.09h0s0-.05-.08-.07,0,0,0,0a.19.19,0,0,0-.15,0l0,0-.07,0h0l0,0v0h0v0h0v0h0s0,0,0,0h0v0h0v0h0s0,0,0,0h0v0a.08.08,0,0,0,0,0h0l0,0v0h0l0,0,0,0h0v.17h0s0,0,0,0v0h-.06a.74.74,0,0,1-.21,0h-.07l0,0s0,0,0,0h0s0,0,0,0l0-.07,0,0h0v0l0-.06a.09.09,0,0,1,0-.05.08.08,0,0,1,0,0s0,0,0-.05h0s0,0,0,0h0s0,0,0,0v-.08h0v0a157349295472.57,157349295472.57,0,0,0,0-.08l0,0h0l0,0h0l.06,0h0a.1.1,0,0,0,0-.06h0a.14.14,0,0,1,.13,0h0a.1.1,0,0,1,.05-.08l0,0a.7.7,0,0,1,.23-.11h.13a.38.38,0,0,1,.13.09h0l0,0h0l.06.06h0s0,0,0,0l0,0s.08.12.07.16a.17.17,0,0,1,0,.1c0,.06,0,.09,0,.09a.1.1,0,0,1,0,0s0,0,0,0h0Zm-2-3.69.06-.06h0v0a.14.14,0,0,1,.09-.08l0,0h0a.51.51,0,0,1,.3-.06h0l0,0h0a.28.28,0,0,1,.14.1h0A.2.2,0,0,1,97,19v0h0c0,.05,0,.1,0,.15a.13.13,0,0,1,0,.06,2.28,2.28,0,0,1,0,.26.09.09,0,0,1,0,.05.21.21,0,0,1-.08.16h0l0,0,0,0,0,0,0,0h0l0,0s0,0,0,0a0,0,0,0,0,0,0h0a.11.11,0,0,1-.07,0h0l0,0h0a.11.11,0,0,1-.12,0h0l0,0h0v-.05h0l0-.06h0a.08.08,0,0,1,0,0h0a.05.05,0,0,1,0,0h0v-.05h.06s0,0,0,0h0v0h0s0,0,0,0h0l0,0h0a.05.05,0,0,1,0,0h0l0,0h-.11s0,0,0,0l0,0h0l0,0-.06,0s0,0-.07,0-.06,0-.07,0h-.07l0,0ZM97,21.23h-.1a0,0,0,0,1,0,0h-.16s0,0,0,0h0v-.08h0a0,0,0,0,1,0,0h0v0h0v0h0v0s0,0,0,0h0l0,0h0s0,0,0,0l0,0,0,0h0s0,0,0-.05h0a0,0,0,0,0,0,0h0v0h0v0s0,0,0-.05h0s0,0,0,0h-.06v0h0l0,0v0s0,0,.08,0h0a.26.26,0,0,1,.16.09h0a0,0,0,0,1,0,0v0h0v0a.18.18,0,0,1,0,.16l0,.1v0l0,.12v0a0,0,0,0,0,0,0,.1.1,0,0,1,0,.06Zm-.11,2.43a1.51,1.51,0,0,1-.12-.26h0a.14.14,0,0,1,0-.06,2.22,2.22,0,0,0,.14.32ZM99,22.12h0l0,0h0l0,0h0l0,0h0a.06.06,0,0,1-.06,0h-.07s0,0,0,0,0,0,0-.05h0v0h0v0h0v0s0,0,0,0h0v0h0v0h0a.08.08,0,0,1,0,0v0h0a0,0,0,0,1,0,0h0l0,0h0a0,0,0,0,1,0,0v0h0l0,0h0l0,0h0s0,0,0,0,0,0,0,0h0a.42.42,0,0,0,0-.05h0l0,0s0,0,0,0h0s0,0,0,0h0s0,0,0,0h0l0,0h0v-.06h0a.15.15,0,0,1,0-.07l0,0s0,0,0,0h0a.17.17,0,0,1,.1-.07h.13l0,0,.08,0h0a.16.16,0,0,1,.11.1.93.93,0,0,1,0,.13l0,.05,0,.18v0h0a.22.22,0,0,1,0,.14l0,0v0s0,0,0,0l0,0h0ZM99,25.17h0l-.08.07h0l0,0,0,0,0,0h0a.32.32,0,0,1-.14,0h-.07l0,0h0l0,0,0,0h0s0,0,0,0h0l0,0s0,0,0,0a.11.11,0,0,1,0-.12h0v0a.06.06,0,0,1,0,0h0s0,0,0,0h.05a.34.34,0,0,0,.06-.06h.07l0,0h0s0,0,0,0h0l0,0h.1l0,0h0a.09.09,0,0,0,0-.06h0s0,0,0,0v0h0v0h0s0,0,0,0h0v0h0a.08.08,0,0,1,0,0,.11.11,0,0,1,0,0s0,0,0,0H98.6s0,0,0,0l-.07,0h0v0h0a0,0,0,0,0,0,0h0l0,0,0,0,0,0a.13.13,0,0,1,.12-.06.06.06,0,0,1,.06,0,.25.25,0,0,1,.17,0,.69.69,0,0,1,.13.11l0,0s0,0,0,.05h0a.33.33,0,0,1,0,.16.29.29,0,0,1,0,.16.91.91,0,0,1-.09.17l0,.06,0,.05,0,.05ZM85.37,15.05l-.05,0,0,0,0,0-.06,0-.15.12-.19.1-.13.06,0,0-.13,0a1.5,1.5,0,0,1-.27.07c-.09,0-.19,0-.25,0h-.12l-.33-.08-.33-.07,0-.31V15.1l.19,0,.47,0a3.05,3.05,0,0,0,.6-.06,1.18,1.18,0,0,0,.3-.1l.16-.1.07,0,.07-.06a1.24,1.24,0,0,0,.26-.25,1.93,1.93,0,0,0,.43-.9.65.65,0,0,0,0-.24v0a.46.46,0,0,0,0-.2l0-.18a.78.78,0,0,0,0,.09,2,2,0,0,1,.08.22,2.1,2.1,0,0,1,0,.79,2.24,2.24,0,0,1-.29.74l-.15.22,0,0ZM83,13.34a.38.38,0,0,1-.08-.17l0-.1c0-.06,0-.09,0-.1v-.08h0v-.14a.33.33,0,0,1,0-.14l0-.06.05-.11,0-.06a.62.62,0,0,1,.14-.14.08.08,0,0,1,0,0l.06,0a.6.6,0,0,1,.37,0l.21.08.07,0,0,0a.6.6,0,0,1,.08.08.57.57,0,0,1,.1.13l0,.06a.46.46,0,0,1,.05.2v.08a.22.22,0,0,1,0,.08.07.07,0,0,1,0,.05v0a.29.29,0,0,1,0,.09h0a.08.08,0,0,1,0,0v0a.23.23,0,0,1-.06.12l0,0,0,0,0,0h0a.19.19,0,0,0-.06.07h0l-.12.07h0a.18.18,0,0,1-.09,0l-.06,0a.61.61,0,0,1-.27,0h0l-.06,0h0l-.14-.09h0l0,0h0l-.07-.06h0s0,0,0,0Zm3.6,1a1.09,1.09,0,0,1,0,.18,2.19,2.19,0,0,1-.17.55,2.29,2.29,0,0,1-.3.5h0l-.18.2L85.7,16l-.1.08-.11.08-.24.16-.26.13h-.56l0-.23v-.09l.11,0a1.09,1.09,0,0,0,.31-.08l.2-.07.22-.12a4.66,4.66,0,0,0,.47-.3,1.82,1.82,0,0,0,.42-.36,1.34,1.34,0,0,0,.11-.14,1.45,1.45,0,0,0,.17-.26l.09-.19a1.21,1.21,0,0,0,0-.14l0-.13ZM95.07,28.2a1.61,1.61,0,0,1-.17.28h0l-.16-.08a2.33,2.33,0,0,0,.07-.25,2.51,2.51,0,0,0,0-.61V26.9c0-.07,0-.14,0-.21v-.08a2.32,2.32,0,0,0,.07.46l.1.46,0,.17a.37.37,0,0,0,0,.08V28Z"/></g></g></g></svg>