<svg xmlns="http://www.w3.org/2000/svg" viewBox="0 0 430.26 341.27"><defs><style>.cls-1{fill:none;}.cls-2{fill:#2a6a35;}.cls-3{fill:#fff;}</style></defs><title>energyAsset 4</title><g id="Layer_2" data-name="Layer 2"><g id="Layer_1-2" data-name="Layer 1"><path class="cls-1" d="M104.16,279.24h0c-.13,0-.21,0-.22.09-.15.43,6.17,4.54,10.06,7.28a14.94,14.94,0,0,0,2.37-6.77C112,279.6,105.45,279,104.16,279.24Z"/><path class="cls-1" d="M100.56,281c-.44-.12-4.51,6.13-7.24,10a14.89,14.89,0,0,0,6.74,2.33C100.32,288.56,101,281.12,100.56,281Z"/><path class="cls-1" d="M103.17,280.47h0c-.34.29,3.06,7,5.07,11.3a15,15,0,0,0,5.41-4.66C109.67,284.5,103.51,280.17,103.17,280.47Z"/><path class="cls-1" d="M103.43,276.7c.29.34,7-3.1,11.38-5.1a15,15,0,0,0-4.7-5.45h0C107.51,270.14,103.13,276.35,103.43,276.7Z"/><path class="cls-1" d="M51.66,286.67c.3.34,7.07-3.1,11.39-5.11a14.94,14.94,0,0,0-4.69-5.45h0C55.76,280.09,51.37,286.32,51.66,286.67Z"/><path class="cls-1" d="M74.13,94.14H88.94v20h9.34V52.45H65.41v61.64h8.72ZM86.27,58.23h7.37v11H86.27Zm0,18.67h7.37v11H86.27ZM70.05,58.23h7.37v11H70.05Zm0,18.67h7.37v11H70.05Z"/><polygon class="cls-1" points="72.53 43.23 67.92 48.39 72.53 48.39 72.53 43.23"/><path class="cls-1" d="M100.93,275.85c.44-.08.85-7.66,1.27-12.41a15,15,0,0,0-3.58.25h0a15.33,15.33,0,0,0-3.47,1.13C97.31,269.07,100.49,275.94,100.93,275.85Z"/><path class="cls-1" d="M98.81,278.91l-12.32-1.26h0a14.69,14.69,0,0,0,.24,3.54,15.94,15.94,0,0,0,1.13,3.46C92.12,282.5,98.9,279.36,98.81,278.91Z"/><path class="cls-1" d="M98.91,277.57c.15-.42-6.18-4.54-10.08-7.28h0a14.86,14.86,0,0,0-2.3,6.77C91.29,277.33,98.76,278,98.91,277.57Z"/><path class="cls-1" d="M99.43,280.2s-.11,0-.24,0h0c-1.28.29-7.12,3.23-11,5.06a14.86,14.86,0,0,0,4.67,5.39C95.42,286.65,99.72,280.54,99.43,280.2Z"/><path class="cls-1" d="M102.3,275.94c.42.15,4.58-6.22,7.31-10.12a15,15,0,0,0-6.8-2.34h0C102.55,268.23,101.87,275.8,102.3,275.94Z"/><path class="cls-1" d="M95.66,206.33h22.77a3.17,3.17,0,0,0,3.06-3.07V185a3.17,3.17,0,0,0-3.06-3H95.34a3.11,3.11,0,0,0-2.69,3v18.24A3.16,3.16,0,0,0,95.66,206.33Z"/><path class="cls-1" d="M99.69,276.43c.33-.29-3.09-7.05-5.1-11.37a15,15,0,0,0-5.41,4.71C93.17,272.38,99.35,276.73,99.69,276.43Z"/><path class="cls-1" d="M104,277.93c.09.44,7.62.84,12.37,1.26l-.24-3.65a14.63,14.63,0,0,0-1.1-3.39C110.82,274.3,104,277.48,104,277.93Z"/><path class="cls-1" d="M52.4,289.2h0c-.13,0-.21,0-.22.09-.15.43,6.18,4.54,10.07,7.28a14.9,14.9,0,0,0,2.37-6.77C60.3,289.57,53.7,289,52.4,289.2Z"/><path class="cls-1" d="M56.48,301.73a14.81,14.81,0,0,0,5.42-4.65c-4-2.6-10.13-6.93-10.49-6.65S54.47,297.41,56.48,301.73Z"/><path class="cls-1" d="M48.8,290.93h0c-.42-.15-4.5,6.11-7.23,10a14.82,14.82,0,0,0,6.73,2.34C48.56,298.52,49.23,291.08,48.8,290.93Z"/><path class="cls-1" d="M127.58,206.33h25.83a3.16,3.16,0,0,0,3-3.07V185a3.16,3.16,0,0,0-3-3H127.26a3.17,3.17,0,0,0-2.75,3v18.24A3.17,3.17,0,0,0,127.58,206.33Z"/><path class="cls-1" d="M47.66,290.16s-.11,0-.23,0h0c-1.28.29-7.12,3.22-11,5a14.83,14.83,0,0,0,4.66,5.39C43.66,296.61,48,290.5,47.66,290.16Z"/><path class="cls-1" d="M47.05,288.87c-.09-.44-7.56-.85-12.31-1.27h0a14.67,14.67,0,0,0,.25,3.54,14.9,14.9,0,0,0,1.12,3.46C40.37,292.45,47.13,289.31,47.05,288.87Z"/><path class="cls-1" d="M50.18,291h0c-.44.08-.85,7.54-1.27,12.29a15.52,15.52,0,0,0,3.64-.24A15.1,15.1,0,0,0,55.92,302C53.77,297.74,50.62,290.94,50.18,291Z"/><path class="cls-1" d="M197.43,206.33h19.76a3.16,3.16,0,0,0,3-3.07,35.11,35.11,0,0,0-6.62-20,3,3,0,0,0-2.48-1.3h-14a3.08,3.08,0,0,0-2.69,3v18.24A3.13,3.13,0,0,0,197.43,206.33Z"/><path class="cls-1" d="M50.53,285.91c.43.15,4.59-6.23,7.32-10.13a15,15,0,0,0-6.8-2.34h0C50.79,278.19,50.11,285.77,50.53,285.91Z"/><path class="cls-1" d="M162.5,206.33h25.84a3.16,3.16,0,0,0,3-3.07V185a3.16,3.16,0,0,0-3-3H162.18a3.17,3.17,0,0,0-2.74,3v18.24A3.17,3.17,0,0,0,162.5,206.33Z"/><path class="cls-1" d="M63.32,282.1h0c-4.24,2.16-11.13,5.35-11,5.79s7.63.85,12.38,1.27a15.17,15.17,0,0,0-.24-3.66A15.35,15.35,0,0,0,63.32,282.1Z"/><path class="cls-1" d="M49.16,285.82c.45-.09.85-7.67,1.28-12.41a14.82,14.82,0,0,0-3.56.24h0a14.49,14.49,0,0,0-3.48,1.14C45.54,279,48.72,285.9,49.16,285.82Z"/><path class="cls-1" d="M47.92,286.39c.34-.29-3.09-7.05-5.09-11.36h0a14.82,14.82,0,0,0-5.4,4.71C41.41,282.35,47.58,286.69,47.92,286.39Z"/><path class="cls-1" d="M361.65,65.26a3.94,3.94,0,0,1,.26,1.38,4,4,0,0,1-5.47,3.75,3.19,3.19,0,0,1-.32.79h0C359,73.83,362,75.86,364.8,76a42.62,42.62,0,0,0-3-10.66Z"/><path class="cls-1" d="M241.55,103.77h5.26a1.54,1.54,0,0,0,1.56-1.52v-5a1.55,1.55,0,0,0-1.56-1.53h-5.26A1.55,1.55,0,0,0,240,97.29v5A1.54,1.54,0,0,0,241.55,103.77Z"/><path class="cls-1" d="M255.77,116.9H261a1.55,1.55,0,0,0,1.56-1.53v-5a1.54,1.54,0,0,0-1.57-1.52h-5.25a1.54,1.54,0,0,0-1.57,1.52v5A1.55,1.55,0,0,0,255.77,116.9Z"/><path class="cls-1" d="M241.55,116.9h5.26a1.55,1.55,0,0,0,1.56-1.53v-5a1.54,1.54,0,0,0-1.57-1.52h-5.25a1.54,1.54,0,0,0-1.57,1.52v5A1.55,1.55,0,0,0,241.55,116.9Z"/><path class="cls-1" d="M196.61,116.9h5.26a1.55,1.55,0,0,0,1.56-1.53v-5a1.54,1.54,0,0,0-1.56-1.52H196.6a1.53,1.53,0,0,0-1.56,1.52v5A1.55,1.55,0,0,0,196.61,116.9Z"/><path class="cls-1" d="M255.77,103.77H261a1.54,1.54,0,0,0,1.56-1.52v-5A1.55,1.55,0,0,0,261,95.76h-5.26a1.55,1.55,0,0,0-1.56,1.53v5A1.54,1.54,0,0,0,255.77,103.77Z"/><path class="cls-1" d="M235.5,75.05c0-7.82-4.43-17.06-13.79-16.87S208.28,68.59,208.28,75C208.28,75.12,235.5,75.32,235.5,75.05Z"/><path class="cls-1" d="M196.61,103.77h5.26a1.54,1.54,0,0,0,1.56-1.52v-5a1.55,1.55,0,0,0-1.56-1.53h-5.26a1.55,1.55,0,0,0-1.56,1.53v5A1.54,1.54,0,0,0,196.61,103.77Z"/><path class="cls-1" d="M377,61.65a4.69,4.69,0,0,1-.71-2.48,4.21,4.21,0,0,1,.09-.87c-.16,0-.3.05-.46.05a4.75,4.75,0,0,1-3.36-1.4,4.75,4.75,0,0,1-3.37,1.4,4.94,4.94,0,0,1-1.44-.25,5.2,5.2,0,0,1-1.44,6,46.73,46.73,0,0,0,3.78,6.34h0C372.71,69.13,374.83,65.07,377,61.65Z"/><path class="cls-1" d="M388,66.63c0-.12,0-.23,0-.35a3.68,3.68,0,0,1-.57.06A3.73,3.73,0,0,1,383.8,63a4.72,4.72,0,0,1-2.78.91H381a100.73,100.73,0,0,0-9.13,21.71c2.05-.76,10-6.6,14.49-10.82h0A40.37,40.37,0,0,0,391,69.51h-.05A2.89,2.89,0,0,1,388,66.63Z"/><path class="cls-1" d="M182.39,103.77h5.26a1.54,1.54,0,0,0,1.56-1.52v-5a1.55,1.55,0,0,0-1.56-1.53h-5.26a1.55,1.55,0,0,0-1.56,1.53v5A1.54,1.54,0,0,0,182.39,103.77Z"/><path class="cls-1" d="M47.15,287.52c.15-.42-6.17-4.54-10.07-7.28h0a14.9,14.9,0,0,0-2.3,6.77C39.54,287.28,47,287.94,47.15,287.52Z"/><path class="cls-1" d="M349.66,69.6l-.29-.33a3,3,0,0,1-4.78-1.5,2.52,2.52,0,0,1-2.11,1.13,2.62,2.62,0,0,1-.79-.14c1.81,3.52,3.42,6.95,5.8,8.93h0c5.68,4.71,8.34,5,10.55,4.34A32,32,0,0,0,352.88,73,3.45,3.45,0,0,1,349.66,69.6Z"/><polygon class="cls-1" points="116.4 35.45 113.51 38.7 113.51 48.39 116.4 48.39 116.4 35.45"/><path class="cls-1" d="M110.38,94.14h14.81v20h3l2.83-4.84h-2.24l5.22-9h-2.61l3.81-6.58V52.45H102.33v61.64h8Zm12.81-35.91h7.37v11h-7.37Zm0,18.67h7.37v11h-7.37ZM107,58.23h7.38v11H107Zm0,18.67h7.38v11H107Z"/><polygon class="cls-1" points="109.45 43.23 104.84 48.39 109.45 48.39 109.45 43.23"/><polygon class="cls-1" points="90.63 42.64 90.63 48.4 95.77 48.4 90.63 42.64"/><path class="cls-1" d="M358.4,233.67l.05,9.6.18,27.63,6.76-.68-.13-22a.81.81,0,0,1,.81-.81l8.4-.06h0a.82.82,0,0,1,.57.24.8.8,0,0,1,.24.57l.13,21L397.3,267l-.21-33.58Z"/><path class="cls-1" d="M104.29,293.12a15.1,15.1,0,0,0,3.39-1.09c-2.15-4.26-5.3-11-5.74-11h0c-.44.08-.84,7.54-1.26,12.29A15.27,15.27,0,0,0,104.29,293.12Z"/><polygon class="cls-1" points="79.48 35.45 76.58 38.7 76.58 48.39 79.48 48.39 79.48 35.45"/><polygon class="cls-1" points="86.58 38.11 83.54 34.7 83.54 48.39 86.58 48.39 86.58 38.11"/><path class="cls-1" d="M356.77,233.68l-95.81.58.18,30.62L357,270.93l-.17-27.59Zm-47.22,22.78a.78.78,0,0,1-.56.22h-.05l-7.26-.48a.79.79,0,0,1-.76-.8l-.07-12.35a.79.79,0,0,1,.23-.58.87.87,0,0,1,.57-.24l7.26,0h0a.81.81,0,0,1,.81.81l.08,12.87A.78.78,0,0,1,309.55,256.46Zm34.24.42a.82.82,0,0,1-.55.22h-.06l-7.94-.54a.8.8,0,0,1-.76-.8l-.08-13.54a.78.78,0,0,1,.23-.58.82.82,0,0,1,.57-.24l7.95-.05h0a.81.81,0,0,1,.81.81l.09,14.12A.81.81,0,0,1,343.79,256.88Z"/><path class="cls-1" d="M182.39,116.9h5.26a1.55,1.55,0,0,0,1.56-1.53v-5a1.54,1.54,0,0,0-1.57-1.52h-5.25a1.54,1.54,0,0,0-1.57,1.52v5A1.55,1.55,0,0,0,182.39,116.9Z"/><polygon class="cls-1" points="123.5 38.1 120.46 34.7 120.46 48.39 123.5 48.39 123.5 38.1"/><polygon class="cls-1" points="366.88 249.07 367.01 269.9 373.8 269.35 373.67 249.03 366.88 249.07"/><polygon class="cls-1" points="396.69 231.81 377.43 185.13 358.78 232.04 396.69 231.81"/><polygon class="cls-1" points="127.56 42.64 127.56 48.4 132.7 48.4 127.56 42.64"/><path class="cls-2" d="M389.17,149c0,.12-49.43,15.76-136.62,11.35C167.38,156,82.23,136,46.05,126.48c.26-1.08-.53-2.14-.06-2.76.6-.81,4.66.26,5.5-2.11s-2.29-4.07-2.36-5.23,2.23-.64,2.76-2.74h0c.53-2.1-1.92-3.06-2.58-4.51s1.16-2.26,1-5-2.91-2.36-3.58-3.93,2-2.7,1.64-6.55-3.15-4.28-3.87-5.54.29-3-.32-5.73S40.51,80,39.6,78.73s.63-3.78.13-5.82S37.07,71.63,36,70.66s.27-3.24-.27-4.89-3.61-1-4.21-1.25.66-4.31-2.33-4.72-2.73,3.25-4.12,3.72-2.31-1.87-4-.94-.29,2.86-.88,3.86-2.41-.38-4.15.88.32,4.5,0,5.23-3.1,0-3.72,1.7.86,2.6.92,3.69-4.89,1.5-6,4.41.86,3.89.91,4.79-1.59.35-2,1.85.63,2.1,1.37,3.68S4.2,95,3.49,97s.71,3.61,1,5.48c.43,2.76-1.31.91-2.5,3.82s1.69,3.65,1.58,5.08-3,1.52-3.53,5.1,3.93,5.6,4.4,7.12-1.64,1.77-.86,4.25,5.28.8,6.82.72,1.3,1.22,3.88,2.41,4.59-1.14,4.59-1.14A3.63,3.63,0,0,0,21,131.19a3.29,3.29,0,0,0,1.71.16c-.23,2.91-1.19,11.5-1.19,11.5l9.73,1.78s-.75-11.09-.67-12.07a1.24,1.24,0,0,1,.12-.42,4,4,0,0,0,3.89-.42c36.21,11.79,107.56,31.88,184,36.7,90,5.67,126.9,2.84,184.87-15C403.57,153.35,389.17,148.7,389.17,149Z"/><path class="cls-2" d="M398.65,232.34v0l-20.09-48.68a.77.77,0,0,0-.81-.5l-.55,0a.59.59,0,0,0-.23,0l-98.36,8.26s-.05,0-.08,0a.82.82,0,0,0-.31.11,1.31,1.31,0,0,0-.11.12c-.05.06-.11.1-.15.16v0s0,0,0,0l-8.85,19.7a383.22,383.22,0,0,0-86,48.06c-47.57,35.68-74.6,65.95-83.85,79.61.06-.15,48.58.8,48.17.4,40.38-49.8,57.74-76.87,95.9-101.14,6.16-3.92,12.47-7.8,18.86-11.54l-2.77,6.16h0a.78.78,0,0,0-.07.33l.2,32.18a.81.81,0,0,0,.76.81l97.48,6.15h.13l40.3-4.06a.81.81,0,0,0,.73-.81l-.22-35.12A.6.6,0,0,0,398.65,232.34Zm-21.22-47.21,19.26,46.68-37.91.23ZM261.14,264.88,261,234.26l95.81-.58.06,9.66.17,27.59Zm105.87,5-.12-20.83,6.78,0,.13,20.32Zm8.41-.69-.13-21a.8.8,0,0,0-.24-.57.82.82,0,0,0-.57-.24h0l-8.4.06a.81.81,0,0,0-.81.81l.13,22-6.76.68-.18-27.63-.05-9.6,38.69-.24L397.3,267Z"/><path class="cls-2" d="M343.15,241.35h0l-7.95.05a.82.82,0,0,0-.57.24.78.78,0,0,0-.23.58l.08,13.54a.8.8,0,0,0,.76.8l7.94.54h.06a.82.82,0,0,0,.81-.82L344,242.16A.81.81,0,0,0,343.15,241.35Z"/><path class="cls-2" d="M308.91,242.19h0l-7.26,0a.87.87,0,0,0-.57.24.79.79,0,0,0-.23.58l.07,12.35a.79.79,0,0,0,.76.8l7.26.48H309a.8.8,0,0,0,.81-.81L309.72,243A.81.81,0,0,0,308.91,242.19Z"/><path class="cls-2" d="M48.22,232.63a7.48,7.48,0,1,0-3.16-4.79A7.43,7.43,0,0,0,48.22,232.63Z"/><path class="cls-2" d="M79.42,286.59l-4.3-22.35,13.55-11.73a3.22,3.22,0,0,0,1.1-2.62,3.17,3.17,0,0,0-1.4-2.46L67.07,233a3.22,3.22,0,0,0-2.36-.49h0a3.2,3.2,0,0,0-2.09,1.35l-8.79,13-12.11,2.33A3.22,3.22,0,0,0,39,253a3.2,3.2,0,0,0,3.91,2.52l13.41-2.58a3.24,3.24,0,0,0,2-1.35h0l5.39-8L78,253.23l-8.51,7.37a3.2,3.2,0,0,0-1,3l4.65,24.17a3.21,3.21,0,0,0,6.31-1.22Z"/><path class="cls-2" d="M45.86,268.39a20.34,20.34,0,1,0,23.81,16.13A20.37,20.37,0,0,0,45.86,268.39Zm12.5,7.72a14.94,14.94,0,0,1,4.69,5.45c-4.32,2-11.09,5.45-11.39,5.11s4.1-6.58,6.7-10.56Zm-7.31-2.67a15,15,0,0,1,6.8,2.34c-2.73,3.9-6.89,10.28-7.32,10.13s.26-7.72.52-12.47Zm-4.18.21h0a14.82,14.82,0,0,1,3.56-.24c-.43,4.74-.83,12.32-1.28,12.41s-3.62-6.79-5.77-11A14.49,14.49,0,0,1,46.87,273.65Zm-4,1.38h0c2,4.31,5.43,11.07,5.09,11.36s-6.51-4-10.5-6.65A14.82,14.82,0,0,1,42.82,275Zm-5.74,5.21h0C41,283,47.3,287.1,47.15,287.52s-7.61-.24-12.37-.51A14.9,14.9,0,0,1,37.08,280.24ZM35,291.14a14.67,14.67,0,0,1-.25-3.54h0c4.75.42,12.22.83,12.31,1.27s-6.68,3.58-10.94,5.73A14.9,14.9,0,0,1,35,291.14Zm1.4,4.07c3.92-1.83,9.76-4.76,11-5h0c.12,0,.18,0,.23,0,.3.34-4,6.45-6.61,10.44A14.83,14.83,0,0,1,36.39,295.21Zm5.18,5.73c2.73-3.9,6.81-10.16,7.23-10h0c.43.15-.24,7.59-.5,12.35A14.82,14.82,0,0,1,41.57,300.94Zm11,2.14a15.52,15.52,0,0,1-3.64.24c.42-4.75.83-12.21,1.27-12.29h0c.44-.09,3.59,6.71,5.74,11A15.1,15.1,0,0,1,52.55,303.08Zm3.93-1.35c-2-4.32-5.41-11-5.07-11.3s6.51,4.05,10.49,6.65A14.81,14.81,0,0,1,56.48,301.73Zm5.77-5.16c-3.89-2.74-10.22-6.85-10.07-7.28,0-.05.09-.07.22-.09h0c1.3-.21,7.9.37,12.22.6A14.9,14.9,0,0,1,62.25,296.57Zm2.4-7.41c-4.75-.42-12.3-.83-12.38-1.27s6.8-3.63,11-5.79h0a15.35,15.35,0,0,1,1.09,3.4A15.17,15.17,0,0,1,64.65,289.16Z"/><path class="cls-2" d="M105.29,298.37a20.33,20.33,0,1,0-23.8-16.12A20.38,20.38,0,0,0,105.29,298.37Zm2.95-6.6c-2-4.33-5.41-11-5.07-11.3h0c.34-.3,6.5,4,10.48,6.64A15,15,0,0,1,108.24,291.77Zm5.76-5.16c-3.89-2.74-10.21-6.85-10.06-7.28,0-.05.09-.07.22-.09h0c1.29-.21,7.88.36,12.21.6A14.94,14.94,0,0,1,114,286.61Zm2.16-11.07.24,3.65c-4.75-.42-12.28-.82-12.37-1.26s6.79-3.63,11-5.78A14.63,14.63,0,0,1,116.16,275.54Zm-6-9.39a15,15,0,0,1,4.7,5.45c-4.33,2-11.09,5.44-11.38,5.1s4.08-6.56,6.68-10.55Zm-.5-.33c-2.73,3.9-6.89,10.27-7.31,10.12s.25-7.71.51-12.46h0A15,15,0,0,1,109.61,265.82Zm-11-2.13h0a15,15,0,0,1,3.58-.25c-.42,4.75-.83,12.33-1.27,12.41s-3.62-6.78-5.78-11A15.33,15.33,0,0,1,98.62,263.69Zm-4,1.37c2,4.32,5.43,11.08,5.1,11.37s-6.52-4.05-10.51-6.66A15,15,0,0,1,94.59,265.06Zm-5.76,5.23h0c3.9,2.74,10.23,6.86,10.08,7.28s-7.62-.24-12.38-.51A14.86,14.86,0,0,1,88.83,270.29Zm-2.1,10.9a14.69,14.69,0,0,1-.24-3.54h0l12.32,1.26c.09.45-6.69,3.59-11,5.74A15.94,15.94,0,0,1,86.73,281.19Zm1.41,4.07c3.93-1.83,9.77-4.77,11-5.06h0c.13,0,.21,0,.24,0,.29.34-4,6.45-6.62,10.45A14.86,14.86,0,0,1,88.14,285.26ZM93.32,291c2.73-3.89,6.8-10.14,7.24-10s-.24,7.59-.5,12.35A14.89,14.89,0,0,1,93.32,291Zm8.62-9.92h0c.44-.09,3.59,6.7,5.74,11a15.1,15.1,0,0,1-3.39,1.09,15.27,15.27,0,0,1-3.61.24C101.1,288.61,101.5,281.15,101.94,281.07Z"/><path class="cls-2" d="M298.69,116.44a4.33,4.33,0,1,0-4.33-4.32A4.32,4.32,0,0,0,298.69,116.44Z"/><path class="cls-2" d="M286.64,125.67a2.07,2.07,0,0,0,2.3,1.79l6.44-.81a2.14,2.14,0,0,0,.92-.36,2.29,2.29,0,0,0,.47-.29l1.51-1.3,1.84,6.69a.24.24,0,0,0,0,.08h0l.65,2.08-4.16,7.19a2.34,2.34,0,0,0-.29,1.45,1.11,1.11,0,0,0,0,.19v7.87a2.37,2.37,0,0,0,4.74,0v-7.72l1.66-2.88,1.29,4.09a2.32,2.32,0,0,0,.56.93l4.37,6.83a2.37,2.37,0,1,0,4-2.52l-4.58-7.16-2.43-7.74.85-1.48a3.57,3.57,0,0,0,.4-.68h0a2.35,2.35,0,0,0,.31-1.33,3.79,3.79,0,0,0-.12-1.15l-1.64-6,1.14.49,3.27,5a2.06,2.06,0,0,0,3.46-2.25l-3.55-5.43a2.12,2.12,0,0,0-.73-.67,1.86,1.86,0,0,0-.47-.29l-4.94-2.14a3.76,3.76,0,0,0-6.56,1.81l-3,2.58-5.93.75A2.07,2.07,0,0,0,286.64,125.67Z"/><line class="cls-1" x1="326.82" y1="132.37" x2="326.82" y2="132.37"/><line class="cls-1" x1="326.82" y1="132.37" x2="326.82" y2="132.37"/><path class="cls-2" d="M325.74,150.87a2.44,2.44,0,0,0,1.78.63,2.4,2.4,0,0,0,1.69-.82l5.4-5.93a2.51,2.51,0,0,0,.58-1.12l.66-3-3.6-5.88h0l-1.69,7.21-5,5.46h0a2.45,2.45,0,0,0,.14,3.47Z"/><path class="cls-2" d="M328.49,134.14a1.72,1.72,0,0,0,1.74-1.7c.07-3.22.3-4.91,1.06-6.11a9.61,9.61,0,0,1,3.6-2.88l-1.74,7.47-.15.63a3,3,0,0,0,.4,2.52l2.86,4.67.81,1.33,6.54,10.68h0a2.4,2.4,0,0,0,1.51,1.13,2.43,2.43,0,0,0,1.86-.29,2.4,2.4,0,0,0,1.1-1.52,2.43,2.43,0,0,0-.31-1.86L339,133.86l.91-3.45.67-2.52,1.4-5.26a2.78,2.78,0,0,0-2.59-3.44h0l-1.15,0a9.63,9.63,0,0,0-4.31.93h0c-2.65,1.38-4.41,2.64-5.54,4.42-1.34,2.11-1.51,4.53-1.58,7.86a1.7,1.7,0,0,0,.46,1.23A1.74,1.74,0,0,0,328.49,134.14Z"/><path class="cls-2" d="M341.59,129.24l.16.17c1.74,1.79,4.05,2.52,7.28,3.37h0a1.67,1.67,0,0,0,1.31-.16,1.76,1.76,0,0,0,.8-1.05,1.72,1.72,0,0,0-.19-1.31,1.69,1.69,0,0,0-1.06-.78c-3.12-.81-4.7-1.43-5.69-2.44a6.86,6.86,0,0,1-1.39-2.39Z"/><polygon class="cls-2" points="340.13 119.2 340.13 119.2 340.11 119.2 340.11 119.2 340.13 119.2"/><line class="cls-1" x1="340.11" y1="119.2" x2="339.39" y2="119.18"/><path class="cls-2" d="M341,109.24a4.35,4.35,0,1,0,4.27,4.45A4.34,4.34,0,0,0,341,109.24Z"/><circle class="cls-2" cx="123" cy="224.52" r="12.16" transform="translate(-122.73 152.73) rotate(-45)"/><circle class="cls-2" cx="195.93" cy="224.52" r="12.16" transform="translate(-75.74 346.98) rotate(-73.15)"/><path class="cls-2" d="M86.08,224.52h21.75a15.18,15.18,0,1,1,30.35,0c15.07,0,25.94,0,42.57,0a15.18,15.18,0,0,1,30.36,0c5.71,0,14.91,0,19.26,0v-6.13l-3-1.46c0-18.19-7.64-39.4-10.65-40.9-23.31-.11-46.77-.11-66.85-.11a4.76,4.76,0,0,0-4.41-4.57c-16.36-.44-32.78-1.14-49.09-1.51h0A4.78,4.78,0,0,0,92.27,176H86.51C86.51,192,86.08,210,86.08,224.52ZM194.42,185a3.08,3.08,0,0,1,2.69-3h14a3,3,0,0,1,2.48,1.3,35.11,35.11,0,0,1,6.62,20,3.16,3.16,0,0,1-3,3.07H197.43a3.13,3.13,0,0,1-3-3.07Zm-35,0a3.17,3.17,0,0,1,2.74-3h26.16a3.16,3.16,0,0,1,3,3v18.24a3.16,3.16,0,0,1-3,3.07H162.5a3.17,3.17,0,0,1-3.06-3.07Zm-34.93,0a3.17,3.17,0,0,1,2.75-3h26.15a3.16,3.16,0,0,1,3,3v18.24a3.16,3.16,0,0,1-3,3.07H127.58a3.17,3.17,0,0,1-3.07-3.07Zm-31.86,0a3.11,3.11,0,0,1,2.69-3h23.09a3.17,3.17,0,0,1,3.06,3v18.24a3.17,3.17,0,0,1-3.06,3.07H95.66a3.16,3.16,0,0,1-3-3.07Z"/><path class="cls-3" d="M220.08,29.93a3.19,3.19,0,0,0-1.23,2.77c0,.45.72.41.68,0h0c0-.71.17-1.82.85-2.19A.33.33,0,1,0,220.08,29.93Z"/><path class="cls-3" d="M228,28.26h-5.07a.91.91,0,0,1-.08.39,3.63,3.63,0,0,1,2.89,3.8c0,.95,0,3.59.85,3.59a.7.7,0,0,1,0,1.41h-9.23a.71.71,0,1,1,0-1.41c.81,0,.85-2.64.85-3.59a3.63,3.63,0,0,1,2.89-3.8.91.91,0,0,1-.08-.39h-5.15v12H228Zm-6,10.88a.92.92,0,0,1-.81-1.4h1.66A.93.93,0,0,1,222,39.14Z"/><path class="cls-2" d="M198.25,135.18v3.07a.86.86,0,0,0,.87.84H244.3a.86.86,0,0,0,.87-.84v-3.07h0a.86.86,0,0,0-.87-.84H199.12A.86.86,0,0,0,198.25,135.18Z"/><path class="cls-2" d="M202.74,128.62a.85.85,0,0,0-.86.84v3h39.66v-3a.86.86,0,0,0-.87-.84H202.74Z"/><path class="cls-2" d="M220,110.34a2,2,0,1,0-2,1.9A1.93,1.93,0,0,0,220,110.34Z"/><path class="cls-2" d="M227.36,110.34a2,2,0,1,0-2,1.9A1.93,1.93,0,0,0,227.36,110.34Z"/><path class="cls-2" d="M166.5,84.73h5.42V130.4h-.32a2.34,2.34,0,0,0-2.37,2.3v2.91a2.33,2.33,0,0,0,2.37,2.3h24.74v-2.72a2.75,2.75,0,0,1,2.78-2.7H200v-3a2.75,2.75,0,0,1,2.78-2.7h1.55v-2.71a2.56,2.56,0,0,1,2.59-2.52h2.35V97.08a2.35,2.35,0,0,1,2.39-2.31h20.14a2.35,2.35,0,0,1,2.39,2.31v24.46h2.36a2.55,2.55,0,0,1,2.58,2.51v2.72h1.56a2.75,2.75,0,0,1,2.78,2.7v3h.85a2.74,2.74,0,0,1,2.78,2.69v2.73h24.74a2.34,2.34,0,0,0,2.37-2.3V132.7a2.34,2.34,0,0,0-2.37-2.3h-.31V84.73h5.42a2.86,2.86,0,0,0,2.73-1.93,2.74,2.74,0,0,0-1.07-3.12h0S246.07,57.62,230.3,47V29.09h8.28s-4.12-2.8-8.33-6.2a78.24,78.24,0,0,1-8.32-8.12s-4.87,5.2-8.45,8.17a100.92,100.92,0,0,1-8.55,6.1l.13.05h8.33v18c-15.91,10.67-48.56,32.62-48.56,32.62a2.75,2.75,0,0,0-1.06,3.12A2.86,2.86,0,0,0,166.5,84.73Zm87.71,12.56a1.55,1.55,0,0,1,1.56-1.53H261a1.55,1.55,0,0,1,1.56,1.53v5a1.54,1.54,0,0,1-1.56,1.52h-5.26a1.54,1.54,0,0,1-1.56-1.52Zm1.56,11.6H261a1.54,1.54,0,0,1,1.57,1.52v5A1.55,1.55,0,0,1,261,116.9h-5.26a1.55,1.55,0,0,1-1.56-1.53v-5A1.54,1.54,0,0,1,255.77,108.89ZM240,97.29a1.55,1.55,0,0,1,1.56-1.53h5.26a1.55,1.55,0,0,1,1.56,1.53v5a1.54,1.54,0,0,1-1.56,1.52h-5.26a1.54,1.54,0,0,1-1.56-1.52Zm1.56,11.6h5.25a1.54,1.54,0,0,1,1.57,1.52v5a1.55,1.55,0,0,1-1.56,1.53h-5.26a1.55,1.55,0,0,1-1.56-1.53v-5A1.54,1.54,0,0,1,241.55,108.89ZM215.87,28.26H221a.91.91,0,0,0,.08.39,3.63,3.63,0,0,0-2.89,3.8c0,.95,0,3.59-.85,3.59a.71.71,0,1,0,0,1.41h9.23a.7.7,0,1,0,0-1.41c-.8,0-.85-2.64-.85-3.59a3.63,3.63,0,0,0-2.89-3.8.91.91,0,0,0,.08-.39H228v12H215.87Zm4.51,2.25c-.68.37-.85,1.48-.85,2.19h0c0,.41-.64.45-.68,0a3.19,3.19,0,0,1,1.23-2.77A.33.33,0,1,1,220.38,30.51Zm1.33,27.67c9.36-.19,13.79,9.05,13.79,16.87,0,.27-27.22.07-27.22-.07C208.28,68.59,212.34,58.37,221.71,58.18ZM195.05,97.29a1.55,1.55,0,0,1,1.56-1.53h5.26a1.55,1.55,0,0,1,1.56,1.53v5a1.54,1.54,0,0,1-1.56,1.52h-5.26a1.54,1.54,0,0,1-1.56-1.52Zm1.55,11.6h5.26a1.54,1.54,0,0,1,1.56,1.52v5a1.55,1.55,0,0,1-1.56,1.53h-5.26a1.55,1.55,0,0,1-1.56-1.53v-5A1.53,1.53,0,0,1,196.6,108.89Zm-15.77-11.6a1.55,1.55,0,0,1,1.56-1.53h5.26a1.55,1.55,0,0,1,1.56,1.53v5a1.54,1.54,0,0,1-1.56,1.52h-5.26a1.54,1.54,0,0,1-1.56-1.52Zm1.56,11.6h5.25a1.54,1.54,0,0,1,1.57,1.52v5a1.55,1.55,0,0,1-1.56,1.53h-5.26a1.55,1.55,0,0,1-1.56-1.53v-5A1.54,1.54,0,0,1,182.39,108.89Z"/><path class="cls-2" d="M206.21,124.05v2.71h31v-2.71a.67.67,0,0,0-.67-.66H206.89A.68.68,0,0,0,206.21,124.05Z"/><path class="cls-2" d="M221.15,37.74a.92.92,0,0,0,.81,1.4.93.93,0,0,0,.85-1.4Z"/><rect class="cls-2" x="70.05" y="58.23" width="7.38" height="11.01"/><rect class="cls-2" x="86.27" y="58.23" width="7.38" height="11.01"/><rect class="cls-2" x="70.05" y="76.9" width="7.38" height="11.01"/><rect class="cls-2" x="86.27" y="76.9" width="7.38" height="11.01"/><path class="cls-2" d="M63.38,118.15h62.45l0,0H128l-5.22,9h19.76l-1.41,15.28h5.05l-1.4-15.28h19.76l-5.22-9h2.23l-5.22-9H159l-5.59-9H156L143.7,79.05l-4.45,7.67V50.42a2,2,0,0,0-.52-1.35h0L120.28,28.42a2,2,0,0,0-3,0l-17,19-17-19a2,2,0,0,0-1.51-.68,2,2,0,0,0-1.51.68L61.87,49.07a2,2,0,0,0-.52,1.35v65.7A2,2,0,0,0,63.38,118.15Zm64.18-75.51,5.14,5.75h-5.14Zm-7.1-7.94,3,3.4V48.39h-3Zm-6.95,4,2.89-3.25V48.39h-2.89Zm-4.06,4.53v5.16h-4.61Zm-7.12,9.22H135.2V93.72l-3.81,6.58H134l-5.22,9H131l-2.83,4.84h-3v-20H110.38v20h-8Zm-11.7-9.81,5.14,5.75H90.63ZM83.54,34.7l3,3.41V48.39h-3Zm-7,4,2.9-3.25V48.39h-2.9Zm-4,4.53v5.16H67.92Zm-7.12,9.22H98.28v61.64H88.94v-20H74.13v20H65.41Z"/><rect class="cls-2" x="106.97" y="58.23" width="7.38" height="11.01"/><rect class="cls-2" x="123.19" y="58.23" width="7.38" height="11.01"/><rect class="cls-2" x="106.97" y="76.9" width="7.38" height="11.01"/><rect class="cls-2" x="123.19" y="76.9" width="7.38" height="11.01"/><path class="cls-2" d="M430.25,41.55A2.53,2.53,0,0,0,428,38.8h0a2.35,2.35,0,0,0-1.12.15A3.62,3.62,0,0,0,425,37.3a3.28,3.28,0,1,0-4.45-4.8,2.75,2.75,0,0,0-2.46-2.56,2.44,2.44,0,0,0-.54,0,2.45,2.45,0,0,0,.24-.81,2.6,2.6,0,0,0-4.46-2.06,2.65,2.65,0,0,0-2.07-1.49,2.61,2.61,0,0,0-2.67,1.62,3.74,3.74,0,0,0-6.54,1,3.33,3.33,0,0,0-5.56-.66,2.62,2.62,0,0,0-4.19-1.87,2,2,0,0,0,.06-.26,2.61,2.61,0,0,0-.93-2.28,2.25,2.25,0,0,0,.85-.45,2.55,2.55,0,0,0,.56.14,2.23,2.23,0,0,0,2.44-2,2.13,2.13,0,0,0-.21-1.18,2.43,2.43,0,0,0-.38-4.76,1.45,1.45,0,0,0-.36,0,2.14,2.14,0,0,0,.08-.44,2.44,2.44,0,0,0-3.13-2.58,2.93,2.93,0,0,0,.3-1,3,3,0,0,0-5.08-2.46,2.69,2.69,0,0,0-2.42-2.65,2.66,2.66,0,0,0-2.24.83,2.46,2.46,0,0,0-2.12-1.76,2.49,2.49,0,0,0-2.45,1.29,2.49,2.49,0,0,0-1.76-1h-.35a2.48,2.48,0,0,0-4.69-.24A2.08,2.08,0,0,0,369,4a2,2,0,0,0-.66,4,2.24,2.24,0,0,0,0,4.33,2.6,2.6,0,0,0-1.1,1.26,2.93,2.93,0,0,0-3.63-.28,3,3,0,0,0-5.13-1.71,2.92,2.92,0,0,0-4-.33,3.42,3.42,0,0,0,0-.46,2.57,2.57,0,0,0-2.38-2.56,1.9,1.9,0,0,0,.19-.86,2.07,2.07,0,0,0-1-1.73,2.81,2.81,0,0,0-2.25-4.53,2.77,2.77,0,0,0-2,.85,2.89,2.89,0,0,0-5.64.9V3a3.87,3.87,0,0,0-1.4-.27,4.1,4.1,0,0,0-4.1,4.1,4,4,0,0,0,.23,1.29,3.57,3.57,0,0,0-4.76.67,3.75,3.75,0,1,0-5.95,4.16,4.44,4.44,0,0,0-3.78,3.84A3.75,3.75,0,0,0,318.57,15a3.79,3.79,0,0,0-3.41,2.18,2.2,2.2,0,0,0-.36,0,3.2,3.2,0,0,0-1.69,5.93A2.49,2.49,0,0,0,313,27a2.2,2.2,0,0,0-.9,1.76,2.14,2.14,0,0,0,.05.45h-.05a2.17,2.17,0,0,0-.62.1,2,2,0,0,0,.08-.55,2.2,2.2,0,0,0-4.39,0,2.1,2.1,0,0,0,.06.51,2.2,2.2,0,0,0-.95.48,3,3,0,0,0-5.18-.23,2.28,2.28,0,0,0-1.13-.31,2.16,2.16,0,0,0-1.1.3,2.34,2.34,0,0,0-4.29.67,2.27,2.27,0,0,0-.72,1.34,4.27,4.27,0,0,0-6.73,2.75,3.17,3.17,0,1,0,3,4.83,4.17,4.17,0,0,0,1.23.21,4.33,4.33,0,0,0,.89-.1,3.71,3.71,0,0,0-.07.67,3.74,3.74,0,0,0,5.25,3.43,3.17,3.17,0,0,0,5.78,1.7,4,4,0,0,0,4,3.59,4,4,0,0,0,2.17-.64,2.77,2.77,0,0,0,0,.3,3.52,3.52,0,0,0,3.51,3.52,3.61,3.61,0,0,0,1.4-.29,3.5,3.5,0,0,0,.72,3.68,3.46,3.46,0,0,0-1,2.41,3.51,3.51,0,0,0,3.51,3.52,3.45,3.45,0,0,0,1.58-.39,4.34,4.34,0,0,0,8.4,1A6.82,6.82,0,0,0,333.81,66a6.65,6.65,0,0,0,2.49-.48,2.17,2.17,0,0,0,.53,1.12,51,51,0,0,0,7.63,13.24c5.44,6.6,13.15,19.91,13.49,29.36s-2.43,37.7-2.43,37.7l15.41-2.84s-1.25-35.14,3-47.71c.83-2.45,11.55-16.16,14.12-18.7a95.13,95.13,0,0,0,7.54-8.9.83.83,0,0,0,.22-.08,2.39,2.39,0,0,0,2.34,2,2.42,2.42,0,0,0,1.46-.51s0,0,0,.08a2.72,2.72,0,0,0,4.59,2A2.85,2.85,0,1,0,408,68a1.92,1.92,0,0,0,.38-.94,1.89,1.89,0,0,0-.31-1.25,1.76,1.76,0,0,0,.33.07,2,2,0,0,0,2-2,1.29,1.29,0,0,0,0-.19,3.65,3.65,0,0,0,5.31-2.84,3.43,3.43,0,0,0-.07-1.11,5.75,5.75,0,0,0,5.56-10.07,2.5,2.5,0,0,0,.34-2.71,2.46,2.46,0,0,0,2-.69,2.93,2.93,0,0,0,2.21,1.47,2.89,2.89,0,0,0,2.91-4.1A2.53,2.53,0,0,0,430.25,41.55ZM347.49,77.69h0c-2.38-2-4-5.41-5.8-8.93a2.62,2.62,0,0,0,.79.14,2.52,2.52,0,0,0,2.11-1.13,3,3,0,0,0,4.78,1.5l.29.33A3.45,3.45,0,0,0,352.88,73,32,32,0,0,1,358,82C355.83,82.66,353.17,82.4,347.49,77.69Zm8.63-6.51h0a3.19,3.19,0,0,0,.32-.79,4,4,0,0,0,5.47-3.75,3.94,3.94,0,0,0-.26-1.38l.19,0a42.62,42.62,0,0,1,3,10.66C362,75.86,359,73.83,356.12,71.18Zm13.95-.77a46.73,46.73,0,0,1-3.78-6.34,5.2,5.2,0,0,0,1.44-6,4.94,4.94,0,0,0,1.44.25,4.75,4.75,0,0,0,3.37-1.4,4.75,4.75,0,0,0,3.36,1.4c.16,0,.3,0,.46-.05a4.21,4.21,0,0,0-.09.87,4.69,4.69,0,0,0,.71,2.48c-2.15,3.42-4.27,7.48-6.91,8.76Zm16.25,4.39h0c-4.53,4.22-12.44,10.06-14.49,10.82A100.73,100.73,0,0,1,381,63.91H381A4.72,4.72,0,0,0,383.8,63a3.73,3.73,0,0,0,3.7,3.33,3.68,3.68,0,0,0,.57-.06c0,.12,0,.23,0,.35a2.89,2.89,0,0,0,2.9,2.89H391A40.37,40.37,0,0,1,386.32,74.8Z"/><polygon class="cls-2" points="217.77 340.67 217.77 340.66 217.77 340.66 217.77 340.67"/><path class="cls-2" d="M347,284a1.63,1.63,0,0,0-1.68-1.55c-.39,0-20.85,1-47.74,9.39-40.32-19.64-78.24-21.45-78.62-21.47a1.65,1.65,0,0,0-1.68,1.55,1.62,1.62,0,0,0,1.55,1.69c.36,0,35.74,1.71,74.25,19.67-5.1,1.7-10.4,3.67-15.81,5.94A227.64,227.64,0,0,0,219.13,283a1.62,1.62,0,1,0-.44,3.21A225.86,225.86,0,0,1,273.16,301c-4.64,2.06-9.34,4.36-14.05,6.9a229.81,229.81,0,0,0-39.89-11.54,1.62,1.62,0,0,0-.62,3.19A226.7,226.7,0,0,1,255.39,310c-4.13,2.34-8.26,4.88-12.34,7.64a234,234,0,0,0-23.75-7.25,1.62,1.62,0,0,0-.78,3.15c7.21,1.79,14.33,3.94,21.23,6.38a170.69,170.69,0,0,0-22,18.49,1.61,1.61,0,0,0,0,2.29,1.59,1.59,0,0,0,1.14.48,1.61,1.61,0,0,0,1.15-.48c51.26-51.25,124.68-54.94,125.41-55A1.62,1.62,0,0,0,347,284Z"/><path class="cls-2" d="M347,296.45a1.62,1.62,0,0,0-1.83-1.38h0c-22.52,3.11-65.86,12.84-103.15,43.19a1.62,1.62,0,0,0,2,2.51c36.69-29.84,79.37-39.42,101.55-42.48A1.63,1.63,0,0,0,347,296.45Z"/><path class="cls-2" d="M347,309.72h0a1.62,1.62,0,0,0-1.9-1.29c-19.31,3.75-48.11,11.94-75.69,29.72a1.62,1.62,0,0,0,.88,3,1.56,1.56,0,0,0,.88-.26c27.14-17.49,55.51-25.56,74.54-29.25A1.62,1.62,0,0,0,347,309.72Z"/><path class="cls-2" d="M345,322.43a222.22,222.22,0,0,0-43.83,15.76,1.62,1.62,0,0,0,.71,3.08,1.68,1.68,0,0,0,.71-.17,218.51,218.51,0,0,1,43.19-15.52,1.62,1.62,0,1,0-.78-3.15Z"/><polygon class="cls-2" points="301.89 341.27 301.89 341.27 301.89 341.27 301.89 341.27"/></g></g></svg>