<svg xmlns="http://www.w3.org/2000/svg" viewBox="0 0 222.75 330.32"><defs><style>.cls-1{fill:#2a6a35;}</style></defs><title>energyAsset 6</title><g id="Layer_2" data-name="Layer 2"><g id="Layer_1-2" data-name="Layer 1"><path class="cls-1" d="M199.09,294.24l0-49.07H212.7V216H197.12s0-29.21-19.46-54.51-42.86-37-42.86-37L134.44,97H125.7q.08,4.55.31,9.08a101,101,0,0,0-28.52-.64c-.33,0-.77,0-.88-.3s.62-.37.43-.09l.71-.71a8.46,8.46,0,0,0,1.59-5.94,11.19,11.19,0,0,0-.28-1.4h-9.4L90,124.5s-23.36,11.69-42.82,37S27.74,216,27.74,216H12.16v29.18H25.77v49.07H0l0,35.7,1,.38,117.13-27.91L222.75,330V294.27Zm-123.46-.55H49.72V245.36l25.91,0Zm23.47,0V245.38H125l0,48.34Zm49.33,0,0-48.33,25.91,0,0,48.31Z"/><path class="cls-1" d="M97.75,104.32,97,105c.19-.28-.54-.23-.43.09s.55.33.88.3a101,101,0,0,1,28.52.64q-.24-4.53-.31-9.08-.18-9.63.35-19.26c.2-3.62.45-7.4-1-10.73a15.89,15.89,0,0,1-1.52-3.74,9.25,9.25,0,0,1,.18-3q.89-5.3,1.78-10.58a1.72,1.72,0,0,1,.5-1.15,1.68,1.68,0,0,1,1.15-.22c2.79.14,5.91.54,8.08-1.21a6.54,6.54,0,0,0,2.13-5.25A18.12,18.12,0,0,0,136,36.16a6.78,6.78,0,0,0-1.23-2.37c-2.06-2.24-5.68-1-8.72-.91a1.61,1.61,0,0,1-1.08-.26c-.44-.35-.43-1-.48-1.57-.23-2.16-2-3.85-3.82-5s-3.91-2-5.49-3.48-2.56-3.94-1.53-5.85a15.7,15.7,0,0,1,1.56-2,7.71,7.71,0,0,0,.5-7.43,19.13,19.13,0,0,0-4.68-6.15,3.35,3.35,0,0,0-2-1.15,3.47,3.47,0,0,0-2.43,1.23c-2.8,2.57-5.85,5.93-5,9.62a13.42,13.42,0,0,0,2.39,4.24c.93,1.34,2.15,3,1.56,4.52-1.52,3.93-5.37,4.86-6.87,5.58-3,1.45-4.62,4.85-5.18,8.15s-.31,6.7-.83,10c-.39,2.41-1.17,4.73-1.66,7.12a32.47,32.47,0,0,0,.57,14.86,7.58,7.58,0,0,1,.44,3.48,5.1,5.1,0,0,1-2.57,3.12,3.63,3.63,0,0,0,6.54,1.12c1.43,2.19,1,5,.73,7.65a32.74,32.74,0,0,0,1.24,13.17c.33,1,.72,2.05,1,3.1a11.19,11.19,0,0,1,.28,1.4A8.46,8.46,0,0,1,97.75,104.32Z"/></g></g></svg>