<svg xmlns="http://www.w3.org/2000/svg" viewBox="0 0 280.63 325.45"><defs><style>.cls-1,.cls-3{fill:#2a6a35;}.cls-1,.cls-2{fill-rule:evenodd;}.cls-2{fill:none;stroke:#2a6a35;stroke-miterlimit:10;stroke-width:8px;}</style></defs><title>energyAsset 2</title><g id="Layer_2" data-name="Layer 2"><g id="Layer_1-2" data-name="Layer 1"><path class="cls-1" d="M129.65,273.85a20,20,0,0,0,20-20c0-7.37-14.75-27.39-20-35.82-5.28,9.48-20,28.45-20,35.82C109.63,265.42,118.06,273.85,129.65,273.85Z"/><path class="cls-1" d="M245.73,222.46a34.46,34.46,0,0,0,34.9-34.91c0-14.18-25.08-48-33.81-63.26-9.82,16.36-36,49.08-36,63.26a35.14,35.14,0,0,0,34.9,34.91Z"/><path class="cls-2" d="M194.43,321.45a32.91,32.91,0,0,0,33.08-33.08c0-13.73-23.71-46.19-31.83-60.55-9.36,15.61-34.33,46.81-34.33,60.55a33.31,33.31,0,0,0,33.08,33.08Z"/><path class="cls-3" d="M146.86,198.66v7H109.53v-7A37.39,37.39,0,0,0,72.17,161.3H1.29V124H72.17a74.74,74.74,0,0,1,74.69,74.71Z"/><path class="cls-3" d="M180.08,76.86H5.57A5.58,5.58,0,0,0,5.57,88H180.08a20.62,20.62,0,1,1-20.62,20.62,5.58,5.58,0,0,0-11.15,0,31.77,31.77,0,1,0,31.77-31.77ZM46.57,63.54H149.21a31.77,31.77,0,1,0-31.77-31.77,5.58,5.58,0,0,0,11.15,0,20.62,20.62,0,1,1,20.62,20.62H46.57a5.58,5.58,0,1,0,0,11.15Z"/></g></g></svg>