<svg xmlns="http://www.w3.org/2000/svg" viewBox="0 0 351.9 205.37"><defs><style>.cls-1{fill:#fff;}</style></defs><title>vcvAsset 1</title><g id="Layer_2" data-name="Layer 2"><g id="Layer_1-2" data-name="Layer 1"><path class="cls-1" d="M342.1,0l.9,3.3c.3,1.1.7,2.2,1,3.4-1,.5-2,1-3,1.4-1.6.7-3.2,1.3-4.8,2.1l-6.9,3.3c-2.4,1.2-4.7,2.3-7.1,3.6-2.6,1.4-5.1,2.8-7.6,4.2-2.7,1.5-5.4,3-8,4.6-3.6,2.2-7.1,4.5-10.6,6.8-2.4,1.5-4.7,3.1-7,4.8-3.2,2.3-6.4,4.6-9.6,7-2.6,1.9-5.1,3.9-7.6,5.9-1.8,1.4-3.5,2.9-5.3,4.4L261.4,59c-1.5,1.3-2.9,2.6-4.4,3.9-2,1.8-4,3.5-5.9,5.3l-.5.5c-2.4,2.3-4.8,4.7-7.2,7.1-2.6,2.6-5.2,5.3-7.7,8-1.7,1.8-3.3,3.7-4.9,5.5-2.2,2.6-4.4,5.1-6.4,7.8-2.6,3.4-5.1,6.9-7.6,10.4-1.5,2-2.8,4.1-4.2,6.2a2.34,2.34,0,0,1-1.2,1c-3.4,1.3-6.8,2.6-10.2,4-1.6.7-3.2,1.4-4.7,2.2-1,.5-1.9,1-3,1.6a3.54,3.54,0,0,0-.1-.6c-.1-1.7-.3-3.4-.4-5.1-.3-2.4-.5-4.7-.9-7.1s-.9-4.8-1.3-7.2c-.5-3.6-1.4-7.1-2.2-10.6-.5-2-1.1-4-1.7-5.9l-2.1-6.6c-1.5-4.1-3-8.1-4.6-12.2-1.1-2.9-2.2-5.8-3.5-8.7a31.12,31.12,0,0,0-4-6.8,17,17,0,0,0-6.5-4.8c.1,0,.3-.1.4-.1a55.35,55.35,0,0,1,8.6-3.9,24,24,0,0,1,4.8-1,13.55,13.55,0,0,1,3.5.1,5.42,5.42,0,0,1,2.4.9,16,16,0,0,1,4.2,4,45.69,45.69,0,0,1,4.3,6.5c1.3,2.4,2.5,4.8,3.7,7.2.8,1.7,1.6,3.4,2.3,5.2a85.7,85.7,0,0,1,4.2,13.3c.8,3.5,1.5,7.1,2.2,10.7a18,18,0,0,0,.5,1.9l3-3.3c.1-.1.2-.3.3-.4,1.5-1.6,3.1-3.2,4.6-4.8,2.7-2.8,5.3-5.5,8.1-8.3,2-2,4-3.9,6-5.8,1.5-1.4,3.1-2.8,4.7-4.2,1.4-1.2,2.7-2.5,4.1-3.7,1.6-1.4,3.2-2.7,4.9-4l5.4-4.5,4.5-3.6c2-1.6,4.1-3.1,6.1-4.6s3.8-2.9,5.8-4.2c3.9-2.7,7.8-5.4,11.7-8,3.7-2.4,7.5-4.8,11.3-7.1,4-2.3,8-4.5,12-6.8,1.7-.9,3.4-1.9,5.1-2.7q4.65-2.4,9.3-4.5c5.4-2.4,10.7-4.7,16.2-6.9,2.5-1,5.1-1.8,7.6-2.8,1.1-.4,2.2-.9,3.3-1.3A1.51,1.51,0,0,1,342.1,0Z"/><path class="cls-1" d="M209.7,143.2c.9-1.1.9-1.1,1.9-.7.5.2.8-.1,1.2-.3a15.93,15.93,0,0,0,1.3-1.3l2.1-1.5a2.72,2.72,0,0,1,2.6-.3,3.36,3.36,0,0,0,2.6-.3,3.21,3.21,0,0,1,2.7-.2,2.59,2.59,0,0,1,1.4,1.1,1.8,1.8,0,0,0,1.6.9,2.28,2.28,0,0,1,2.4,1.2,1.59,1.59,0,0,0,2,.7,2.28,2.28,0,0,1,3.2,1.6v.5c0,.6.3.8.9.9a1.66,1.66,0,0,1,1.7,1.5,5.27,5.27,0,0,1-.3,1.2c-.1.5-.6.5-.9.7l-.6.3c.2.7.2,1.4-.6,1.8-.1.1-.1.4-.2.6-.3.7-.7.8-1.3.4-.1-.1-.3-.2-.4-.3a.78.78,0,0,0-1,.2.58.58,0,0,0,.2.9,3.13,3.13,0,0,1,1.1.9c.8.7.8,1.1.3,2.1v.4a5.86,5.86,0,0,0,4.3.5,10,10,0,0,0,2.1-1,23,23,0,0,1,8.3-3.3,14.83,14.83,0,0,1,6.6.5c2.7.9,5.2,2,7.7,3.1,2.7,1.3,5.5,2.5,8.2,3.8,1.4.7,2.7,1.4,4,2.1a4.55,4.55,0,0,0,2,.5h8.7a1.62,1.62,0,0,1,1.4.7l5.7,7.5v.3c-.4.1-.7.1-1.2.2v3.4a26.15,26.15,0,0,0,2.8,0c1.5-.2,2.6.2,3.1,1.7a10,10,0,0,0,1.5,2.3,6.89,6.89,0,0,0-.8.3v8.6c.7.1,1.5.1,2.2.2l5.9.9c1.3.3,2.7.7,4,1a2.85,2.85,0,0,1,1.4.8c-.4-.1-.9-.1-1.3-.2a18.51,18.51,0,0,0-4.7-.8c-1.3-.1-2.5-.1-3.8-.2a23.41,23.41,0,0,0-4.6.1,37.51,37.51,0,0,0-5.7.9c-1.8.4-3.5.6-5.3.9-2.2.3-4.4.1-6.7.2a33.76,33.76,0,0,1-6.3-.7c-2.1-.4-4.2-.8-6.4-1.1a53.42,53.42,0,0,0-8-.1,30.25,30.25,0,0,0-6.7,1.1,23.31,23.31,0,0,1-5.9.8h-3.4c-2,0-4-.2-6.1-.4-2.4-.3-4.8-.8-7.2-1.3a24.77,24.77,0,0,0-2.7-.3,15,15,0,0,0-2.2-.2,54.62,54.62,0,0,0-5.8.4,50.33,50.33,0,0,0-5.6,1c-1.3.3-2.7.3-4.1.5a30.12,30.12,0,0,1-6,.2,37.46,37.46,0,0,1-8.2-.9c-1.6-.3-3.3-.6-4.9-.8-1.1-.2-2.3-.1-3.5-.3a21.76,21.76,0,0,0-5.1.1,44.8,44.8,0,0,0-6.2,1.1l-4.2.6a49.85,49.85,0,0,1-7.7.2,26.26,26.26,0,0,1-4.8-.6c-2.1-.3-4.1-.9-6.2-1.1s-4.1-.2-6.2-.3a33.23,33.23,0,0,0-9.4,1.2c-1.2.3-2.5.4-3.7.6a44.53,44.53,0,0,1-7.3.2,25.79,25.79,0,0,1-3.9-.4c-1.6-.2-3.3-.4-4.9-.7-1.3-.2-2.6-.4-3.8-.6l-3.1-.3h-3.8a23.24,23.24,0,0,0-5.9.7,59.68,59.68,0,0,1-6.1,1c-2.5.3-4.9.1-7.4.2a15.44,15.44,0,0,1-3-.4c-1.1-.1-2.1-.3-3.2-.5s-2.1-.3-3.1-.5-2.2-.2-3.2-.4a41.8,41.8,0,0,0-5-.2,31.77,31.77,0,0,0-9.2,1.1c-1.3.3-2.6.4-3.8.6a43.32,43.32,0,0,1-7.2.2,34.27,34.27,0,0,1-5.5-.6c-2.1-.3-4.1-.5-6.2-.9a38.82,38.82,0,0,0-9-.4,25.42,25.42,0,0,0-4.7.7c-1.9.3-3.8.7-5.7,1a25.79,25.79,0,0,1-3.9.4c-.9,0-1.8-.2-2.7-.2a49,49,0,0,1-10.1-1.3A3.38,3.38,0,0,1,0,189l2.4.3c1.3.1,2.7.3,4,.4a16.15,16.15,0,0,0,2.2,0,29.86,29.86,0,0,0,4.3-.4,2.47,2.47,0,0,0,.9-.4.8.8,0,0,0,.3-1.1c-.3-.9-.3-1.6.7-2.1a4.51,4.51,0,0,0,1.4-1c.3-.2.6-.7.5-1-.1-.5,0-.8.3-1a1.35,1.35,0,0,0,.5-1.2c0-.9.4-1.3,1.4-1.4s2.1-.1,3.2-.2c-.1-.4-1.2-.2-.8-1.1a6,6,0,0,0,1.2-.2c-.6-.7-.3-1.5-.2-2.2a1.07,1.07,0,0,1,.2-.6c.9-.6,1.4-1.7,2.7-1.7h.3c1-1.1,2.3-.2,3.4-.4.3-.1.6.2.9.2a1.94,1.94,0,0,1,1.6.5c.1.1.3.1.6.1V157.3a5,5,0,0,1,1.1-3.6c1-1.1,1.9-2.3,3.5-2.7a3.51,3.51,0,0,1,3.5.9,13.77,13.77,0,0,1,2.2,2.6,3,3,0,0,1,.5,1.6v10.6c.1,0,.2,0,.2.1.3-.5.5-1,.8-1.5.6-1.3,1.1-2.5,1.7-3.8a3.59,3.59,0,0,1,.7-1c1.5-1.5,2.9-3,4.4-4.4a1.79,1.79,0,0,1,.7-.5c2-.7,3.9-1.4,5.9-2.1a1.48,1.48,0,0,1,1.3,0c2,.8,4.1,1.5,6.1,2.2a8.34,8.34,0,0,1,1.2.8c1.2,1.1,2.4,2.2,3.5,3.3a1.12,1.12,0,0,0,1.5.3,67.44,67.44,0,0,1,12.5-4c.8-.2,1.6-.4,2.5-.6-.4-.5-1-.8-.7-1.3a7.3,7.3,0,0,1,.9-1c-.1-.5-.5-1.2.4-1.7s1.3.2,1.9.6c.5-.5.2-1.5,1.3-1.4.6.6.6.6.7,1.3.5,0,1-.1,1.5-.1.2.4.3.8.5,1.2a1.43,1.43,0,0,1,1.5.3,1.69,1.69,0,0,0,1,.3c1.1-.1,2.3-.4,3.4-.6l2.6-.3c1.6-.1,3.3-.2,4.9-.2,1,0,2,.2,3,.3,1.6.1,3.2.2,4.9.4,0-.4.1-.7.1-1,.4-4.7.2-9.5.2-14.2v-.4c.4-1.1.7-2.2,1.1-3.3l2.3-.3a4.33,4.33,0,0,1,.1.5c.1,4.7.2,9.5.2,14.2v3.5a2.77,2.77,0,0,0,.1.9c1.3,0,2.6.1,3.8,0a39.34,39.34,0,0,0,4.8-.6c1.6-.3,3.2-.5,4.8-.9a23.47,23.47,0,0,0,10.1-4.7c2.9-2.5,6.3-4.1,9.7-5.8,1.4-.7,2.8-1.2,4.2-1.8a9.42,9.42,0,0,1,6.2.1c1.8.6,3.6,1.4,5.4,2.1,1.4.5,2.8,1.1,4.3,1.6a.94.94,0,0,0,.9-.1,1.82,1.82,0,0,1,2.1.2c.6-.5,1.3-.7,1.8-.2.7-.2,1.2-.4,1.8-.6-.4-.5-.7-1-1.1-1.5-1.5-.2-1.5-.2-.8-1.6a1.59,1.59,0,0,1,1.8-1.1,1.09,1.09,0,0,0,.5-.1,5.92,5.92,0,0,0-.4-.6,1.3,1.3,0,0,1-.1-1.9c.4-.5.8-.6,1.8-.2.1-.5-.1-1.2.5-1.4a7.93,7.93,0,0,1,1.7-.2c.1-.5,0-1.4,1.1-1.3s.9.9,1.1,1.7a3.19,3.19,0,0,1,.7-.6,1.47,1.47,0,0,1,2.3.3.76.76,0,0,1,.1.9c-.1.2-.1.5-.2.8,1.7.8,1.3,1.5,0,2.6a1.6,1.6,0,0,1,1.6.9c.2.6.1,1-.4,1.2s-1,.3-1,.7a3.26,3.26,0,0,0,.4,1.3,6.53,6.53,0,0,1,1.4,0,4.7,4.7,0,0,1,1.2.9,6.72,6.72,0,0,1,2.8-2.2c-.2-.8-.6-1.7.4-2.2s1.6.2,2.3.8a3,3,0,0,1,.4-1c.3-.7,1.1-.9,1.5-.3a3.7,3.7,0,0,1,.5,1.1c1.5-.4,1.9,0,2.3,1.4a1.13,1.13,0,0,1,1.6.3c.8,1-.2,1.6-.7,2.5,1.4,0,2.6.6,4.1.3a3.78,3.78,0,0,0,.5-.8c.4-.6.7-1.1,1.4-1.3,1-.3,1.2-.2,2,.6C208.9,142.8,209.3,143,209.7,143.2Zm-89.2,21c0-.1.1-.2.1-.3a.88.88,0,0,1,.7-.9.93.93,0,0,1,1.1.5,2.26,2.26,0,0,0,1.1.8,1,1,0,0,1,.6,1.5c-.1.3-.2.7-.3,1.1.3,0,.4.1.6,0,1.1-.2,1.1-.2,1.2.9a.87.87,0,0,0,.5.9c.6.4.7.7.4,1.5l-.3.6a2.51,2.51,0,0,1,.7.4,1.33,1.33,0,0,1,.3.5c-.2.5-.1,1.1-.6,1.5-.3.2-.7.5-1.1.8.7.4,1.1.7,1.5.9a1.18,1.18,0,0,0,1.4.2,7.49,7.49,0,0,1,1.6-.4,4.68,4.68,0,0,1,3.8.6,2.31,2.31,0,0,0,1.9.6,4.28,4.28,0,0,1,2.9.8,2.27,2.27,0,0,0,1.8.5,7.58,7.58,0,0,1,1.6-.3c.8-.1,2.1.6,2.2,1.4s.5.8,1,.8c1.4,0,1.8.6,1.4,2h1.5a6.15,6.15,0,0,0,1.4-.1,7.17,7.17,0,0,0-.8-4.8,14.46,14.46,0,0,1-1.1-2.9,1.79,1.79,0,0,0-1.1-1.3,1.24,1.24,0,0,1-.9-1.4.37.37,0,0,0-.1-.3h-.7c-.1-.4-.3-.7-.4-1.2-.2.2-.4.4-.6.4s-.7.1-.7,0c-.2-.7-.8-.5-1.2-.6-.9-.2-1.1-.8-.5-1.5a9.32,9.32,0,0,1,1-1c-1.1,0-1.3-1.2-2.3-1.2a.45.45,0,0,1-.3-.3c0-.5-.4-.7-.7-1a1,1,0,0,1-.2-.9c.3-.5,0-.8-.2-1.2a2.36,2.36,0,0,0,.9-2c-.2,0-.3-.1-.5-.2s-.4-.1-.6-.2a.74.74,0,0,1-.4-1.1c.1-.4.2-.9.3-1.4a1,1,0,0,1,.8-.8,2.77,2.77,0,0,0,.9-.1l.6-.9a1.41,1.41,0,0,1,2.3-.3c.3.3.6.6.9.2a1.36,1.36,0,0,1,1.6-.1c.7-.6,1.4-1.3,2.2-1.9s1.5-1.2,2.4-.9a3.61,3.61,0,0,0,2.7-.3,2,2,0,0,1,2.6.7,1.66,1.66,0,0,0,1.5.8,1.55,1.55,0,0,1,1.6.8,1,1,0,0,0,1.2.5,1.88,1.88,0,0,0,.8-.2,1.3,1.3,0,0,1,1.7,1.3,3.54,3.54,0,0,1,.1.6c.3-.3.5-.5.5-.6a5.65,5.65,0,0,0,0-1.3c0-1.4.1-1.5,1.4-1.1.1,0,.1,0,.3-.1l.3-1.2a1.32,1.32,0,0,1,1.4-1.1,1.64,1.64,0,0,1,1.5,1c.2.3.5.8.8.9a3.28,3.28,0,0,0,2.7-.4,5.55,5.55,0,0,1-.8-.6,1.33,1.33,0,0,1-.3-1.9c.6-1,.5-1.1-.4-1.8-.1-.1-.2-.1-.3-.2a1.26,1.26,0,0,1-.3-1.3.8.8,0,0,1,1-.6h.9c.5-.1.8-.4.6-.9-.2-.7-.4-1.2-1.2-1.4-1.6-.5-3-1.1-4.6-1.7a26.77,26.77,0,0,0-6-2.1,8,8,0,0,0-4.8.4,82.46,82.46,0,0,0-8,3.7,23.51,23.51,0,0,0-4.5,3,22.64,22.64,0,0,1-6.1,3.7,37.08,37.08,0,0,1-10.4,2.7,63.17,63.17,0,0,1-7.6.6c-.2,0-.4.1-.7.1a24.62,24.62,0,0,1,.2,2.6v9.9c0,.2.1.3.1.5,0-1.4,0-1.5,1.3-1.4,0-.5.1-1,.1-1.6A1.42,1.42,0,0,0,120.5,164.2Zm152.7-2.1v-.2a14.14,14.14,0,0,0-2.4-1.3c-3.4-1.6-6.8-3.1-10.3-4.7a31,31,0,0,0-7.2-2.6,14.17,14.17,0,0,0-5.8,0,22,22,0,0,0-7,3.1,6.77,6.77,0,0,1-6.3.8,2.35,2.35,0,0,0-.8-.2c-.2.2-.5.4-.7.6a1.24,1.24,0,0,1-1.4.4c-.8-.1-1,.1-1.2.9a3.51,3.51,0,0,1-.6,1.4,2.87,2.87,0,0,0-.7,1.8c-.1.9-.5,1.1-1.4.9-.4-.1-.9-.2-1.4-.3a7,7,0,0,0-.3,1.2,2.93,2.93,0,0,1-.7,1.6l-1.2,1.8c-.8,1.6-1.5,3.3-2.2,5,1.2.1,1.3,1.5,1.8,2.1.9-.1,1.5-.2,2.2-.3s1.2-.6,2-.1v-4.4a6.89,6.89,0,0,0-.8-.3c3.6-1.9,7.1-3.7,10.5-5.5,2.4,1.1,4.6,2.4,7,3.4v-3.5a4.88,4.88,0,0,1-.7-.3c0-.1,0-.1.1-.2,3.2-1.7,6.5-3.5,9.7-5.2a1.21,1.21,0,0,1,1.3.1c3.2,1.6,6.3,3.2,9.5,4.8.2.1.5.3.9.5-.6.1-1,.1-1.4.2v4.5a9.32,9.32,0,0,0,1-1c.4-.5.9-1,1.3-1.5.8-.9,1.6-1.8,2.3-2.7a1.68,1.68,0,0,1,1.5-.7C270.9,162.2,272,162.1,273.2,162.1ZM113.6,176.5c-.2-7.3.5-14.7.1-22.3-.9-.1-1.8-.1-2.6-.2H110c-1.2-.1-2.4-.3-3.5-.4a42.12,42.12,0,0,0-10,.7,15.54,15.54,0,0,0-2.3.5c-.3.1-.8.2-.7.8,1.1-.2,1.2-.1,1.6.4a3.33,3.33,0,0,1,.6,1,.63.63,0,0,1-.4.9,1.34,1.34,0,0,1-.5.1c-.5.4-.8.9-1.2,1a2.44,2.44,0,0,0-1.1.9c.2.3.2.8.7.6.6-1.3.6-1.3,1.9-.7.7-.4.7-.4,1.5.1,1-.4,1.7-.3,2.2.4a1.06,1.06,0,0,1,.1.8,8.4,8.4,0,0,1-.4,1.2c.5.1.9.3,1.2.2s.8,0,1,.4a1,1,0,0,1-.4,1.3c-.8.7-.8.7-.3,1.7a1.1,1.1,0,0,1-.3,1.4,5.93,5.93,0,0,0-.8.8,9.32,9.32,0,0,0,1.4.2,1,1,0,0,1,.8,1.5,5,5,0,0,1-.7.8H105a1.46,1.46,0,0,1,1.2.5c1.2,1.3,2.5,2.5,3.8,3.8a4.35,4.35,0,0,1,.6.7,5.28,5.28,0,0,1-1.2.1v2.7c.4,0,.7-.2,1-.1.6.2.9-.1,1.3-.3C112.3,177.5,112.8,177.1,113.6,176.5ZM79.5,160.7a7.26,7.26,0,0,1,.5-.9c.1-.2.3-.4.2-.5-.2-.7.3-.9.7-1,.4.2.7.5.9.4.7-.2,1,.1,1.3.7.2.3.4.5.9.2a2.72,2.72,0,0,1,0-.9,2.65,2.65,0,0,1,.5-.6c.2.2.4.3.6.5s.1.3.2.7c.4-.5.7-.9,1-1.3a13.28,13.28,0,0,0-1.6-1.2,6.37,6.37,0,0,0-.7.2,80.13,80.13,0,0,0-10.6,3.1,6,6,0,0,0-2.4,1.2c1.1,2.1,2.2,4.1,3.3,6.1a9.29,9.29,0,0,0-1,.5,2.32,2.32,0,0,0-.4,2.5,1.85,1.85,0,0,0,.7.2h3.9c.2-.1.5-.2.6-.4s-.1-.5-.2-.7-.3-.2-.4-.4a3.55,3.55,0,0,1-.2-1c.1-.4.5-.4.8-.4h1.4c-.1-.3-.2-.4-.2-.6s-.1-.3-.2-.5c-.1-.6.3-1,.8-.9.2,0,.4.2.6.3a.94.94,0,0,0,1.3,0c.4-.3.3-.8.1-1.2a1.7,1.7,0,0,0-.7.1c-.4.2-.9,0-.9-.3-.2-.7-.8-.7-1.3-1.1,0-.7.1-1.5-1-1.5-.4,0-.5-.6-.3-1a.69.69,0,0,1,1-.3l.9.6c.3.2.6.2.7-.2A5.56,5.56,0,0,0,79.5,160.7Zm115.1,21.4v-6.6c0-.2-.2-.4-.2-.6-1.6.4-2.6-.3-2.3-1.6-.7.2-1.3.9-2.1.5s-.4-1.3-.8-2a10.59,10.59,0,0,1-1.2,1,1.51,1.51,0,0,1-1.7-.3,1.33,1.33,0,0,1,.5-1.6,6,6,0,0,0,.8-.8c-.9-.7-1.2-.8-1.9-.3a17.1,17.1,0,0,0-1.4,1.1v3.2a3.87,3.87,0,0,0,2.6.3,2.88,2.88,0,0,1,1.3-.1,6.94,6.94,0,0,1,1.3.5c.2.2.2.6.3.9a1.21,1.21,0,0,0,.5.5,5.07,5.07,0,0,0,1.3.2c.6.1,1.1.5,1,.9a1.83,1.83,0,0,1-.7,1,3.58,3.58,0,0,1-1.1.4,1.72,1.72,0,0,1-.1.8c-.2.2-.6.2-.8.3,0,1.1.6,2.2,1.5,2.3Zm-35.2-8.2c-.4-.2-.6-.4-.8-.5a1.91,1.91,0,0,1-1.2-2.2v-.3a1,1,0,0,0-1.1-.8c-.5,0-.6.4-.7.8a2.22,2.22,0,0,1-.5,1.1,5.49,5.49,0,0,0-1.2,2.1,10.72,10.72,0,0,1-1,2.2c-1.1,1.5-.5,3.2-.6,4.8h3.3a4.88,4.88,0,0,0-.3-.7c.7-.2,1-.9,1.4-1.4-.8-.6-1.9-.3-2.6-1a8.43,8.43,0,0,0,.6-1.4,1,1,0,0,1,.9-.9c1.3.2,2.1-.5,3-1.2C158.7,174.3,158.9,174.2,159.4,173.9Zm38.3,3.9v4.5c1.8-.2,3.6.5,5.4.1-.1-1.1-.2-2.1-.3-3.1a1.08,1.08,0,0,0-.3-.7c-.4-.8-.7-.9-1.6-.8-.4.1-.9.2-1.1,0A2,2,0,0,0,197.7,177.8ZM173.6,171c.8.4,1.4.7,2.1,1,.1.1.4,0,.5,0a4.41,4.41,0,0,1,3.5.8c.5.3.9.7,1.7.5-.2-1,.3-2-.4-3-.5.3-1,.8-1.5.3a3.49,3.49,0,0,1-.5-1.3,6.8,6.8,0,0,1-1.9.3,3.91,3.91,0,0,1-1.6-1C174.9,169.4,173.6,169.7,173.6,171Zm-66.7,5c-1.4,0-2.7-.1-4.1,0v4.4h4.1Zm-11.2,0v4.3h4V176Zm-6.6,4.3h4V176h-4ZM85.7,176h-4v4.3h4Zm-10.9,0v4.3c1.4,0,2.7.1,4,0V176Zm157.1-3.9v4.1a12.21,12.21,0,0,0,2.7-.1v-4Zm-13.1-1.2c-.2-2.7-.3-5.3-1.4-7.9a4.89,4.89,0,0,1-.8,1.3,2.31,2.31,0,0,0-.3,2.5c.4,1,.9,1.9,1.3,2.8C217.8,170.2,217.9,170.7,218.8,170.9Zm58.4,6.5v-2.2c0-1.9-.3-2.2-2.2-1.9h-.1c-.2.2-.5.3-.5.5v3.6Zm-25.9.5v-4.2h-2.5v4.2Zm40.9,3.1v4h2.5v-4Zm-9.9.1v4h2.5v-4Zm-13,4v-4h-2.5v4Zm-18-14.9v-4.1h-2.5v4.1Zm7.7,0v-4.1h-2.6v4.1Zm25.9,7.2v-4.1h-2.6v4.1Zm-18.1-4.1v4.1h2.5v-4c-.3,0-.5-.1-.7-.1Zm-24.6,2.8a10.73,10.73,0,0,0,0-4h-2.4v4Zm-22.4-9.6c.9.1,1.1-.4,1.3-.9s.4-1.2.6-1.7.1-.9.2-1.4a.89.89,0,0,0-.5-.8c-.9-.5-1-.8-.7-1.8v-.4c-.3.2-.5.4-.5.6C220,162.2,219.9,164.3,219.8,166.5Zm3.3-2a3.55,3.55,0,0,0-.8,1.2,4.45,4.45,0,0,1-1.6,2.6,2.11,2.11,0,0,0-.1,2.7,10.41,10.41,0,0,0,2.9-5.7C223.5,165.2,223.3,165,223.1,164.5Zm11.4,19.3a9.44,9.44,0,0,0,0-4.1h-2.4a1.1,1.1,0,0,0,.3,1.2c.4.4.7,1.1,1.1,1.6Zm-85.3-13.3c-.2.4-.5.7-.6,1a2.74,2.74,0,0,0-.2,1.2,8.16,8.16,0,0,0,1.7,3.5A10.28,10.28,0,0,0,149.2,170.5Zm58.2,7.1a1.7,1.7,0,0,0-1.6.6c-.9.9-.6,2.2-.8,3.3,0,.2.1.5.1.8,1.3-.7,1.3-.7,1.2-1.6,0-.1,0-.4.1-.4C207.1,179.6,206.7,178.4,207.4,177.6Zm-56.1-9.5a15.45,15.45,0,0,0,0,4.8,3.05,3.05,0,0,0,1.2-3A11.27,11.27,0,0,0,151.3,168.1Zm2.3,3.5c-.2.2-.5.4-.5.7a5.29,5.29,0,0,1-1.1,2.1,1.65,1.65,0,0,0-.3,1.9C152.9,175.4,154,173.1,153.6,171.6Z"/><path class="cls-1" d="M163.3,62.2c-.6-.4-1.3-.7-1.9-1.1a22.57,22.57,0,0,0-7-2.9,10.9,10.9,0,0,0-2.6-.3,27.9,27.9,0,0,0-5,.2,19,19,0,0,0-8,3,25.38,25.38,0,0,0-3.6,2.9,18.18,18.18,0,0,0-4.6,7.2,29.28,29.28,0,0,0-1.5,6,17,17,0,0,0-.2,3.9,26.94,26.94,0,0,0,2.6,11.1,20.11,20.11,0,0,0,10,9.5,20.35,20.35,0,0,0,5.5,1.5,44.22,44.22,0,0,0,6.3.2,16.75,16.75,0,0,0,4.9-1.2,28.55,28.55,0,0,0,5.4-3c.1-.1.3-.1.7-.2-.8,6.1-1.5,12-2.2,17.9a30.41,30.41,0,0,1-7.4,2.4,31.09,31.09,0,0,1-4.4.6c-1.3.1-2.6,0-3.9,0a34.09,34.09,0,0,1-13-2.8,35.69,35.69,0,0,1-6.8-4c-.7-.5-1.3-1.1-2-1.7s-1.3-1.1-1.9-1.7a43.73,43.73,0,0,1-5.9-7.7,41,41,0,0,1-3.8-9.5,50.33,50.33,0,0,1-1-5.6,21.74,21.74,0,0,1-.2-3.6,15,15,0,0,1-.2-2.2c.1-1.7.3-3.5.4-5.2a32,32,0,0,1,.9-5.4,35.2,35.2,0,0,1,2.5-7.1,33.07,33.07,0,0,1,4.4-7.2,59.2,59.2,0,0,1,5.6-5.6,30.92,30.92,0,0,1,7.5-4.8,41.29,41.29,0,0,1,9.2-3,45.44,45.44,0,0,1,10.4-.6,34.67,34.67,0,0,1,6.3,1.1l2.1.6a1,1,0,0,1,.7.7c.1.9.3,1.7.4,2.6.2,1.4.3,2.9.5,4.3s.4,2.8.6,4.3.3,3,.5,4.5c.1.7.2,1.3.3,2A.73.73,0,0,0,163.3,62.2Z"/><path class="cls-1" d="M50.1,44.3c6.1-1.3,12-2.6,17.9-3.9,4.7,14,9.4,27.9,14.1,41.9h1.1c.4-1.4.8-2.9,1.3-4.3,1.4-3.9,2.8-7.7,4.2-11.6,1.6-4.5,3.2-8.9,4.7-13.4,1.4-3.8,2.8-7.7,4.1-11.5.4-1,.6-1,1.6-.8,1.9.4,3.8.6,5.8,1,1.3.2,2.6.5,3.9.7,1.5.3,3,.5,4.6.8a22.5,22.5,0,0,1,2.2.5c-.8,1.9-1.5,3.6-2.3,5.3-1.2,2.7-2.3,5.4-3.5,8.2-1,2.2-2,4.3-2.9,6.5-.9,2-1.7,3.9-2.5,5.9s-1.7,3.8-2.5,5.8c-1.2,2.8-2.4,5.5-3.6,8.3-.8,1.9-1.7,3.8-2.5,5.8-1.2,2.8-2.4,5.5-3.6,8.3-.7,1.5-1.3,3-2,4.5-1.2,2.7-2.3,5.4-3.5,8.1-.9,2-1.8,4-2.6,6-.5,1-.9,2.1-1.3,3.1-.2.4-.4.8-.8,1.5C71.2,95.1,60.7,69.8,50.1,44.3Z"/><path class="cls-1" d="M16.4,203.1c.6.1,1.3.1,1.9.2a29.29,29.29,0,0,0,6.6.4,33.09,33.09,0,0,0,7.7-.9c2.6-.5,5.2-1.3,7.9-1.3.9,0,1.9-.2,2.8-.2,1.6.1,3.2.2,4.7.4l6.2.9c1.9.3,3.9.5,5.8.7a37.45,37.45,0,0,0,5.8.1,45.19,45.19,0,0,0,8.2-1.3,18.44,18.44,0,0,1,4.1-.6c1.2-.1,2.5-.2,3.7-.2,1.7.1,3.4.3,5.1.4,2.3.2,4.6.7,6.8,1.1,1.7.3,3.4.3,5.1.5,1.2.1,2.5.2,3.7.2a30.53,30.53,0,0,0,6-.6c2.3-.5,4.5-1,6.8-1.3,2-.2,4.1-.7,6.2-.1a3.35,3.35,0,0,0,1,0l5.5.6c1.6.2,3.3.4,4.9.7a39.45,39.45,0,0,0,9.1.6,23.93,23.93,0,0,0,5.3-.6c1.8-.4,3.6-.8,5.4-1.1a12.25,12.25,0,0,1,1.9-.2c2.1-.1,4.3-.3,6.4-.2a40.76,40.76,0,0,1,6.9.9c1.5.4,3.1.5,4.6.8a34.92,34.92,0,0,0,7.9.4c1.3,0,2.5-.3,3.8-.4,2.4-.1,4.6-1,6.9-1.3a36.29,36.29,0,0,1,8.7-.4,66.26,66.26,0,0,1,7.6,1.1c1.3.3,2.6.4,3.8.6a28.31,28.31,0,0,0,5.8.4,51.26,51.26,0,0,0,9.5-1.1,52.49,52.49,0,0,1,5.5-.9c1.6-.2,3.1-.1,4.7-.2a32.47,32.47,0,0,1,6.9.8,40.76,40.76,0,0,0,6.1.9c2.2.2,4.3.4,6.5.4a40.61,40.61,0,0,0,9.2-1.1,21.79,21.79,0,0,1,5.7-.8c1.1,0,2.2-.2,3.3-.2,1.8.1,3.5.3,5.3.4,2.6.1,5,.9,7.6,1.3l2.8.3c1.6.1,3.2.2,4.8.2,1.4,0,2.9-.3,4.3-.4,2.5-.1,5-.9,7.4-1.3a15.14,15.14,0,0,1,3-.2,19.4,19.4,0,0,1,3.4-.2c2.2.2,4.3.2,6.5.6s4.5.9,6.7,1.4a4.57,4.57,0,0,1,2.4,1.2l-3-.6c-1.4-.3-2.8-.5-4.2-.7a32.12,32.12,0,0,0-6.2-.1,24.18,24.18,0,0,0-4.7.6c-1.9.3-3.8.8-5.7,1.1-1.1.2-2.2.2-3.2.3a24.52,24.52,0,0,1-2.7.2c-1.8-.1-3.7-.3-5.5-.4-2.6-.1-5-.9-7.6-1.3-1-.2-2.1-.1-3.1-.3a28.16,28.16,0,0,0-5.8-.2,35.93,35.93,0,0,0-4.6.5c-1.8.3-3.5.8-5.3,1.1a26.6,26.6,0,0,1-2.8.3,24.52,24.52,0,0,1-2.7.2,54.29,54.29,0,0,1-5.7-.2,63.08,63.08,0,0,1-8.7-1.4,24,24,0,0,0-4.6-.5c-1.1-.1-2.1,0-3.2,0a30.53,30.53,0,0,0-6,.6c-1.8.4-3.7.8-5.5,1.1a28.5,28.5,0,0,1-2.9.3,24.52,24.52,0,0,1-2.7.2c-.7,0-1.4-.1-2.2-.1-.5,0-1-.1-1.5-.1a27.34,27.34,0,0,1-5-.6c-2.1-.4-4.1-.8-6.2-1.1-1.6-.2-3.2-.2-4.8-.3a44.53,44.53,0,0,0-10.9,1.3,34.69,34.69,0,0,1-4.5.6c-1.4.1-2.9.2-4.3.2-1.7,0-3.3-.3-5-.4a44.21,44.21,0,0,1-7.1-1.3c-1-.2-2-.1-2.9-.3a29.13,29.13,0,0,0-5.9-.2,26.26,26.26,0,0,0-4.8.6c-1.8.3-3.7.8-5.5,1.1-1,.2-2.1.2-3.1.3s-2.2.2-3.3.2c-1.8-.1-3.5-.2-5.3-.4-2.7-.3-5.4-.7-8-1.1a31.25,31.25,0,0,0-4.3-.4c-1.4,0-2.8-.2-4.2-.2a27.76,27.76,0,0,0-5.7.7,37.13,37.13,0,0,1-5.8,1.1c-1.4.1-2.9.3-4.3.4a22.75,22.75,0,0,1-2.6-.2c-1.4-.1-2.8-.1-4.2-.2-1.9-.2-3.7-.7-5.5-.9l-4.5-.6c-1.7-.1-3.3-.2-5-.2a28.55,28.55,0,0,0-8.2,1.2,9.29,9.29,0,0,1-2.9.5c-2.3.2-4.6.4-6.9.4-1.5,0-3-.3-4.5-.4-2.1-.1-4.2-.6-6.3-.9-1.8-.3-3.6-.5-5.5-.7a32.47,32.47,0,0,0-5.4-.1c-2,.1-4.1.6-6.1.9s-4.2.9-6.3,1.1a27.85,27.85,0,0,1-5,.1,24.57,24.57,0,0,1-3.7-.4c-1.3-.1-2.5-.3-3.8-.5A10.52,10.52,0,0,1,16.4,203.1Z"/><path class="cls-1" d="M319.3,197c-2.4-.5-4.8-.9-7.1-1.2a39.76,39.76,0,0,0-6.9-.1,29.78,29.78,0,0,0-5.1.7,31.07,31.07,0,0,1-6.1,1c-1.8.1-3.7.4-5.5.4-1.5,0-3.1-.3-4.6-.4-2.6-.2-5.1-.9-7.7-1.3-1-.2-2.1-.1-3.1-.3a26.8,26.8,0,0,0-4.9-.2,40,40,0,0,0-9.1,1.3,16.47,16.47,0,0,1-3.2.6,31,31,0,0,1-4.3.2c-2.1-.1-4.1-.2-6.2-.4-1.3-.1-2.5-.3-3.8-.4s-2.5-.5-3.8-.7c-1.5-.2-3-.5-4.5-.6-1.2-.1-2.4,0-3.6,0a38.4,38.4,0,0,0-7.5.9l-5,.9c-1.1.1-2.2.1-3.2.2-.6,0-1.2.2-1.8.2-1.8-.1-3.6-.3-5.4-.4-2.5-.2-4.9-.9-7.3-1.3a45.26,45.26,0,0,0-7.4-.5,39.85,39.85,0,0,0-9.1,1.2,22.26,22.26,0,0,1-3.6.5,35.48,35.48,0,0,1-6.5.4,40.66,40.66,0,0,1-6-.6c-2.4-.5-4.7-.9-7.1-1.3a18.84,18.84,0,0,0-3.4-.2h-1.6a40.48,40.48,0,0,0-11,1.4c-1.4.3-2.9.4-4.4.6a26.35,26.35,0,0,1-2.8.2c-2-.1-4-.3-6-.4a62.93,62.93,0,0,1-7.4-1.1c-1.6-.3-3.3-.3-5-.5-1.3-.1-2.6-.2-3.9-.2a25.64,25.64,0,0,0-6.2.7,28.16,28.16,0,0,1-5.8,1c-1.7.1-3.3.4-5,.4s-3.3-.3-5-.4c-2.6-.1-5.1-.8-7.6-1.1-1.4-.2-2.7-.3-4.1-.4-1.2-.1-2.3-.2-3.5-.2a31.86,31.86,0,0,0-9.2,1.2,23.31,23.31,0,0,1-5.9.8c-1.1,0-2.2.2-3.3.2-1.8-.1-3.5-.3-5.3-.4-2.8-.2-5.6-.9-8.3-1.3a18.84,18.84,0,0,0-3.4-.2c-1.3-.1-2.7-.2-4-.2a31.83,31.83,0,0,0-6.2.7c-2.1.4-4.2,1-6.4,1.2a51,51,0,0,1-6.8.2c-1.7,0-3.4-.5-5-.6a27,27,0,0,1-4.8-.9,4.24,4.24,0,0,1-1.4-.6c.6.1,1.3.1,1.9.2a36.37,36.37,0,0,0,7.4.4,32.85,32.85,0,0,0,6.3-.7c2.4-.4,4.8-1.1,7.2-1.4a19.57,19.57,0,0,1,5.4-.2,69.93,69.93,0,0,1,8,1,58.28,58.28,0,0,0,7.3,1,47.31,47.31,0,0,0,5.3.1,47.76,47.76,0,0,0,5.3-.6c1.6-.3,3.2-.7,4.8-1.1a20.61,20.61,0,0,1,2.6-.3c1.5-.1,3-.2,4.6-.2a31.25,31.25,0,0,1,4.3.4c2.1.3,4.2.5,6.3.9s3.9.5,5.9.7a23.58,23.58,0,0,0,4.6.1,44.53,44.53,0,0,0,7.2-1,25.9,25.9,0,0,1,6.2-1c1,0,2-.2,2.9-.2,1.5.1,3.1.2,4.6.4,1.8.2,3.5.4,5.3.7l3.6.6c.7.1,1.4.2,2,.3,1.8.1,3.6.2,5.3.2a40.61,40.61,0,0,0,9.2-1.1c1.3-.3,2.6-.4,3.8-.6a27.56,27.56,0,0,1,6.4-.4,53.21,53.21,0,0,1,5.6.6c1.8.3,3.7.7,5.5,1.1a26.6,26.6,0,0,0,2.8.3c2.1.1,4.1.2,6.2.2,1.2,0,2.4-.2,3.6-.3,3-.2,5.8-1.3,8.7-1.6a43.49,43.49,0,0,1,5.1-.2,41.24,41.24,0,0,1,8.6,1,35.45,35.45,0,0,0,4.7.7,36.57,36.57,0,0,0,6.6.4c1.5-.1,2.9-.3,4.4-.4,2.4-.1,4.7-.9,7-1.3a28.5,28.5,0,0,1,2.9-.3c1.4-.1,2.8-.2,4.1-.2a27,27,0,0,1,6.9.7c2.2.4,4.4.9,6.6,1.1s4.3.4,6.5.4a31.86,31.86,0,0,0,9.2-1.2,22.55,22.55,0,0,1,5.8-.8c1.2,0,2.5-.2,3.7-.2a34.66,34.66,0,0,1,6.4.6c2,.4,4,.8,5.9,1.1a15.14,15.14,0,0,0,3,.2c1.7.1,3.3.2,5,.2,1.3,0,2.7-.3,4-.4,2.5-.2,4.9-.9,7.3-1.3a17.74,17.74,0,0,1,3.2-.2,17.85,17.85,0,0,1,2.3-.2c1.9.1,3.7.3,5.6.4a49.27,49.27,0,0,1,6.7,1.1,20.74,20.74,0,0,1,3.3,1A4.4,4.4,0,0,1,319.3,197Z"/><path class="cls-1" d="M135.8,131.8a3.18,3.18,0,0,1-.9.3H119.4c-.1,0-.1,0-.2-.1-.2-.5.1-.8.5-1,1.9-1,3.8-2,6-1.4a19.67,19.67,0,0,0,2.4.3c1.9.2,3.8.4,5.7.7a9,9,0,0,1,2.1.8C135.8,131.5,135.8,131.6,135.8,131.8Z"/><path class="cls-1" d="M113.9,133.4a4.12,4.12,0,0,1,.3.8,8.58,8.58,0,0,1-2.5,4.9c-1.1,1-2.3,1.9-3.5,2.9s-2.7,2-4.1,3a2.26,2.26,0,0,1-2,.4,8.79,8.79,0,0,1,.6-1c3.5-3.6,7.1-7.1,10.7-10.7A1.07,1.07,0,0,1,113.9,133.4Z"/><path class="cls-1" d="M114.7,129.5c-.5-.1-.8,0-1-.2a9.91,9.91,0,0,1-1.7-1.1,3.92,3.92,0,0,1-1-.8,1.78,1.78,0,0,1-.7-.8c-1-2.2-1.9-4.4-2.8-6.7l-1.2-3.3a1.57,1.57,0,0,1,.3-1.9,4.62,4.62,0,0,0,.7.7c.9,1.6,1.7,3.2,2.6,4.8,1.5,2.8,3,5.5,4.6,8.3A4.4,4.4,0,0,0,114.7,129.5Z"/><path class="cls-1" d="M117.7,131.6a1.85,1.85,0,1,1-3.7-.1,2.23,2.23,0,0,1,1.9-1.9A1.9,1.9,0,0,1,117.7,131.6Z"/><path class="cls-1" d="M271,86.9h-.9c-.1,0-.2,0-.3.2L265,99.3c-.2.5-.3.7-.5.7s-.2-.2-.4-.5l-4.5-10.8c-.7-1.7-.8-1.8-1.5-1.8h-.5v-.6h4.6v.6h-1.1c-.1,0-.2,0-.2.1s1.5,3.5,4.2,10c2.7-6.6,3.7-9,3.7-9.8,0-.3-.2-.4-.5-.4h-1.2v-.6h4v.7Z"/><path class="cls-1" d="M278.2,98.3a5.44,5.44,0,0,1-4,1.7c-2.7,0-4-2.1-4-4.6s1.3-5.1,4.1-5.1c2,0,2.9,1.3,3.7,3L271.8,95c.1,2.1,1,4,3.4,4a4,4,0,0,0,2.7-1.1Zm-2-5.1c-.3-.9-1.1-2.3-2.2-2.3-1.5,0-2.1,2.1-2.1,3.4Z"/><path class="cls-1" d="M282.2,95.7c0,2.3,0,3.3.7,3.3h1v.6h-4.5V99h.7c.2,0,.4-.1.4-.3v-5c0-2.5-.2-2.5-.9-2.5h-.8v-.6c.3,0,1-.1,1.7-.2s1.4-.2,1.6-.2V92c.8-.9,1.8-1.8,2.7-1.8a1.16,1.16,0,0,1,1,.4c-.3,1.6-.3,1.6-.5,1.6s-.1-.7-1.2-.7a2.65,2.65,0,0,0-2,1.2v3Z"/><path class="cls-1" d="M289.8,95.7c0,2.3,0,3.3.7,3.3h.9v.6H287V99h.7c.2,0,.4-.1.4-.3v-5c0-2.5-.2-2.5-.9-2.5h-.8v-.6c.3,0,1-.1,1.7-.2s1.4-.2,1.6-.2v1.7c1.1-.9,1.9-1.7,3.5-1.7a2,2,0,0,1,2.2,1.7c1-.8,1.9-1.7,3.3-1.7,2.2,0,2.5,1.4,2.5,3v2.4c0,2.3,0,3.3.7,3.3h.9v.6h-4.4V99h.7c.2,0,.4-.1.4-.3v-5c0-1.9-.7-2.4-1.7-2.4a3.69,3.69,0,0,0-2.4,1.2v3.2c0,2.3,0,3.3.7,3.3h.9v.6h-4.4V99h.7c.2,0,.4-.1.4-.3v-5c0-1.9-.7-2.4-1.7-2.4a4,4,0,0,0-2.4,1.2v3.2Z"/><path class="cls-1" d="M313,94.9c0,1.7-1.1,5-4.8,5-2.7,0-4.3-2-4.3-4.6,0-1.7,1.1-5,4.8-5C311.4,90.3,313,92.3,313,94.9Zm-1.7.5c0-1.8-.8-4.5-3.1-4.5-2.1,0-2.6,2.2-2.6,3.9s.8,4.5,3.1,4.5C310.8,99.3,311.3,97.1,311.3,95.4Z"/><path class="cls-1" d="M323.5,95.7c0,2.3,0,3.3.7,3.3h.9v.6h-4.4V99h.7c.2,0,.4-.1.4-.3v-5c0-1.9-.7-2.4-1.7-2.4a4,4,0,0,0-2.7,1.2v3.2c0,2.3,0,3.3.7,3.3h.9v.6h-4.4V99h.7c.2,0,.4-.1.4-.3v-5c0-2.5-.2-2.5-.9-2.5H314v-.6c.3,0,1-.1,1.7-.2s1.4-.2,1.6-.2v1.6c1.1-.8,2-1.6,3.5-1.6,2.2,0,2.5,1.4,2.5,3v2.5Z"/><path class="cls-1" d="M331.1,90.6c-.1.5-.1.6-.4.6h-1.8v5.5c0,1.3.1,2.3,1.4,2.3a3.53,3.53,0,0,0,1.4-.3l.2.5a6.75,6.75,0,0,1-2.4.8,1.91,1.91,0,0,1-2.2-2.1V91.2c-1,0-1.1,0-1.1-.1s.2-.3,2.4-2.5h.3v2.1h2.2Z"/><path class="cls-1" d="M250.1,109.4c-.2,0-.2-.1-.3-.4-.1-.8-1.9-1.3-3.1-1.3-3.9,0-6.1,2.9-6.1,6.6a5.68,5.68,0,0,0,5.6,6c1.9,0,4-.9,4.1-2,0-.2,0-.4.3-.4s.2.1.2.3,0,.5-.1,1.8a11.25,11.25,0,0,1-4.8,1.1c-4.2,0-7.1-2.2-7.1-6.6s3.8-7.6,8.2-7.6a10.48,10.48,0,0,1,3.6.7C250.3,109.3,250.3,109.4,250.1,109.4Z"/><path class="cls-1" d="M261.4,116c0,1.7-1.1,5-4.8,5-2.7,0-4.3-2-4.3-4.6,0-1.7,1.1-5,4.8-5C259.9,111.4,261.4,113.4,261.4,116Zm-1.7.5c0-1.8-.8-4.5-3.1-4.5-2.1,0-2.6,2.2-2.6,3.9s.8,4.5,3.1,4.5C259.2,120.4,259.7,118.2,259.7,116.5Z"/><path class="cls-1" d="M272,116.8c0,2.3,0,3.3.7,3.3h.9v.6h-4.4v-.6h.7c.2,0,.4-.1.4-.3v-5c0-1.9-.7-2.4-1.7-2.4a4,4,0,0,0-2.7,1.2v3.2c0,2.3,0,3.3.7,3.3h.9v.6h-4.4v-.6h.7c.2,0,.4-.1.4-.3v-5c0-2.5-.2-2.5-.9-2.5h-.8v-.6c.3,0,1-.1,1.7-.2s1.4-.2,1.6-.2v1.6c1.1-.8,2-1.6,3.5-1.6,2.2,0,2.5,1.4,2.5,3v2.5Z"/><path class="cls-1" d="M277,121a7.27,7.27,0,0,1-2.5-.4c-.1-.9-.3-1.5-.3-1.7s.1-.3.2-.3a.27.27,0,0,1,.3.3c.3.9,1.7,1.4,2.6,1.4,1.1,0,2.5-.5,2.5-1.9,0-2.1-5.3-.9-5.3-4.2,0-1,.8-2.8,3.8-2.8a4.19,4.19,0,0,1,2.2.5,8.47,8.47,0,0,1,.1,1.3c0,.2,0,.3-.2.3s-.2-.1-.3-.2a2.68,2.68,0,0,0-2.3-1.2c-.9,0-2.1.5-2.1,1.6,0,2.1,5.4,1,5.4,4.3C281.2,120.2,278.8,121,277,121Z"/><path class="cls-1" d="M290.6,119.3a5.44,5.44,0,0,1-4,1.7c-2.7,0-4-2.1-4-4.6s1.3-5.1,4.1-5.1c2,0,2.9,1.3,3.7,3l-6.2,1.7c.1,2.1,1,4,3.4,4a4,4,0,0,0,2.7-1.1Zm-2.1-5.1c-.3-.9-1.1-2.3-2.2-2.3-1.5,0-2.1,2.1-2.1,3.4Z"/><path class="cls-1" d="M294.6,116.8c0,2.3,0,3.3.7,3.3h1v.6h-4.5v-.6h.7c.2,0,.4-.1.4-.3v-5c0-2.5-.2-2.5-.9-2.5h-.8v-.6c.3,0,1-.1,1.7-.2s1.4-.2,1.6-.2v1.8c.8-.9,1.8-1.8,2.7-1.8a1.16,1.16,0,0,1,1,.4c-.3,1.6-.3,1.6-.5,1.6s-.1-.7-1.2-.7a2.65,2.65,0,0,0-2,1.2v3Z"/><path class="cls-1" d="M308.6,112.3c-.8,0-.9,0-1.1.4l-3.6,8.2c-.1.1-.1.3-.3.3s-.2-.1-.3-.3c-3.5-8.5-3.7-8.5-4-8.5h-.6v-.6h4.2v.6H302c-.1,0-.3,0-.3.2a64,64,0,0,0,2.5,6.2c1.7-4,2.2-5.5,2.2-6a.37.37,0,0,0-.4-.4h-1v-.6h3.6v.5Z"/><path class="cls-1" d="M314.4,115v-1.1c0-.9-.1-1.7-1.6-1.7a3.37,3.37,0,0,0-1.7.5c0,1.1-.5,2-1.2,2a.65.65,0,0,1-.6-.6c0-1.5,2.2-2.7,4.5-2.7,2.1,0,2.2,1,2.2,2.7v3.2c0,1.7.1,2.3,1.4,2.6l-.6,1.1a2.53,2.53,0,0,1-2.3-1.9c-.8.8-2.2,1.9-3.4,1.9a1.81,1.81,0,0,1-1.9-2c0-1.8,1.8-2.6,4.4-3.7Zm0,.6c-2.1.8-3.5,1.5-3.5,3a1,1,0,0,0,1.1,1.1,3.34,3.34,0,0,0,2.4-1.4Z"/><path class="cls-1" d="M323.5,111.7c-.1.5-.1.6-.4.6h-1.8v5.5c0,1.3.1,2.3,1.4,2.3a3.53,3.53,0,0,0,1.4-.3l.2.5a6.75,6.75,0,0,1-2.4.8,1.91,1.91,0,0,1-2.2-2.1v-6.7c-1,0-1.1,0-1.1-.1s.2-.3,2.4-2.5h.3v2.1h2.2Z"/><path class="cls-1" d="M329.6,120.7h-4.5v-.6h.7c.2,0,.4-.1.4-.3v-5c0-2.5-.2-2.5-.9-2.5h-.7v-.6c.3,0,1-.1,1.7-.2s1.4-.2,1.6-.2v5.4c0,2.3,0,3.3.7,3.3h1v.7Zm-1.7-12.4a.9.9,0,1,1-.9-.9A1,1,0,0,1,327.9,108.3Z"/><path class="cls-1" d="M339.7,116c0,1.7-1.1,5-4.8,5-2.7,0-4.3-2-4.3-4.6,0-1.7,1.1-5,4.8-5C338.1,111.4,339.7,113.4,339.7,116Zm-1.7.5c0-1.8-.8-4.5-3.1-4.5-2.1,0-2.6,2.2-2.6,3.9s.8,4.5,3.1,4.5C337.5,120.4,338,118.2,338,116.5Z"/><path class="cls-1" d="M350.3,116.8c0,2.3,0,3.3.7,3.3h.9v.6h-4.4v-.6h.7c.2,0,.4-.1.4-.3v-5c0-1.9-.7-2.4-1.7-2.4a4,4,0,0,0-2.7,1.2v3.2c0,2.3,0,3.3.7,3.3h.9v.6h-4.4v-.6h.7c.2,0,.4-.1.4-.3v-5c0-2.5-.2-2.5-.9-2.5h-.8v-.6c.3,0,1-.1,1.7-.2s1.4-.2,1.6-.2v1.6c1.1-.8,2-1.6,3.5-1.6,2.2,0,2.5,1.4,2.5,3v2.5Z"/><path class="cls-1" d="M281.4,129h-.9c-.1,0-.2,0-.3.2l-4.8,12.2c-.2.5-.3.7-.5.7s-.2-.2-.4-.5L270,130.8c-.7-1.7-.8-1.8-1.5-1.8H268v-.6h4.5v.6h-1.1c-.1,0-.2,0-.2.1s1.5,3.5,4.2,10c2.7-6.6,3.7-9,3.7-9.8,0-.3-.2-.4-.5-.4h-1.2v-.6h4v.7Z"/><path class="cls-1" d="M289.3,137.1c0,1.7-1.1,5-4.8,5-2.7,0-4.3-2-4.3-4.6,0-1.7,1.1-5,4.8-5C287.7,132.4,289.3,134.4,289.3,137.1Zm-1.7.5c0-1.8-.8-4.5-3.1-4.5-2.1,0-2.6,2.2-2.6,3.9s.8,4.5,3.1,4.5C287.1,141.4,287.6,139.3,287.6,137.6Z"/><path class="cls-1" d="M295.9,132.8c-.1.5-.1.6-.4.6h-1.8v5.5c0,1.3.1,2.3,1.4,2.3a3.53,3.53,0,0,0,1.4-.3l.2.5a6.75,6.75,0,0,1-2.4.8,1.91,1.91,0,0,1-2.2-2.1v-6.7c-1,0-1.1,0-1.1-.1s.2-.3,2.4-2.5h.3v2.1h2.2Z"/><path class="cls-1" d="M305.4,140.4a5.44,5.44,0,0,1-4,1.7c-2.7,0-4-2.1-4-4.6s1.3-5.1,4.1-5.1c2,0,2.9,1.3,3.7,3l-6.2,1.7c.1,2.1,1,4,3.4,4a4,4,0,0,0,2.7-1.1Zm-2.1-5.1c-.3-.9-1.1-2.3-2.2-2.3-1.5,0-2.1,2.1-2.1,3.4Z"/><path class="cls-1" d="M309.4,137.9c0,2.3,0,3.3.7,3.3h1v.6h-4.5v-.6h.7c.2,0,.4-.1.4-.3v-5c0-2.5-.2-2.5-.9-2.5H306v-.6c.3,0,1-.1,1.7-.2s1.4-.2,1.6-.2v1.8c.8-.9,1.8-1.8,2.7-1.8a1.16,1.16,0,0,1,1,.4c-.3,1.6-.3,1.6-.5,1.6s-.1-.7-1.2-.7a2.65,2.65,0,0,0-2,1.2v3Z"/><path class="cls-1" d="M316.5,142.1a7.27,7.27,0,0,1-2.5-.4c-.1-.9-.3-1.5-.3-1.7s.1-.3.2-.3a.27.27,0,0,1,.3.3c.3.9,1.7,1.4,2.6,1.4,1.1,0,2.5-.5,2.5-1.9,0-2.1-5.3-.9-5.3-4.2,0-1,.8-2.8,3.8-2.8a4.19,4.19,0,0,1,2.2.5,8.47,8.47,0,0,1,.1,1.3c0,.2,0,.3-.2.3s-.2-.1-.3-.2a2.68,2.68,0,0,0-2.3-1.2c-.9,0-2.1.5-2.1,1.6,0,2.1,5.4,1,5.4,4.3C320.8,141.2,318.4,142.1,316.5,142.1Z"/></g></g></svg>