<svg xmlns="http://www.w3.org/2000/svg" viewBox="0 0 318.9 143.3"><defs><style>.cls-1{fill:#fff;}</style></defs><title>vecanAsset 1</title><g id="Layer_2" data-name="Layer 2"><g id="Layer_1-2" data-name="Layer 1"><path class="cls-1" d="M107,109h1.3l-3.7,10.3h-1.2L99.7,109H101l2.4,6.7a10.41,10.41,0,0,1,.6,2.2,20.16,20.16,0,0,1,.7-2.3Z"/><path class="cls-1" d="M116.2,119.3h-5.8V109h5.7v1.1h-4.5v3.3h4.3v1.1h-4.3v3.8h4.5v1Z"/><path class="cls-1" d="M120.4,115v4.3h-1.2V109H122a4.28,4.28,0,0,1,2.8.7,2.66,2.66,0,0,1,.9,2.2,2.77,2.77,0,0,1-2.1,2.8l2.8,4.6H125l-2.5-4.3Zm0-1H122a3.31,3.31,0,0,0,1.9-.5,2.18,2.18,0,0,0,0-3,3.09,3.09,0,0,0-1.9-.5h-1.6Z"/><path class="cls-1" d="M133.3,119.3l-3.5-9.1h-.1a20.12,20.12,0,0,1,.1,2.6v6.5h-1.1V109h1.8l3.3,8.5h.1l3.3-8.5H139v10.3h-1.2v-6.7a21.75,21.75,0,0,1,.1-2.5h-.1l-3.5,9.1h-1Z"/><path class="cls-1" d="M151.4,114.1a6.05,6.05,0,0,1-1.2,3.9,4.2,4.2,0,0,1-3.5,1.4,4.51,4.51,0,0,1-3.5-1.4,6.94,6.94,0,0,1,0-7.8,4.51,4.51,0,0,1,3.5-1.4,4.67,4.67,0,0,1,3.5,1.4A6.05,6.05,0,0,1,151.4,114.1Zm-8.2,0a5.07,5.07,0,0,0,.9,3.2,3,3,0,0,0,2.6,1.1,3.31,3.31,0,0,0,2.6-1.1,4.89,4.89,0,0,0,.9-3.2,4.59,4.59,0,0,0-.9-3.1,3.17,3.17,0,0,0-2.6-1.1,3.31,3.31,0,0,0-2.6,1.1A4.59,4.59,0,0,0,143.2,114.1Z"/><path class="cls-1" d="M162.5,119.3h-1.4l-5.6-8.6h-.1a27.15,27.15,0,0,1,.1,2.8v5.8h-1.1V109h1.4l5.6,8.6h.1a8.33,8.33,0,0,0-.1-1.2V109h1.1Z"/><path class="cls-1" d="M169.2,119.3H168v-9.2h-3.3V109h7.7v1.1h-3.3v9.2Z"/><path class="cls-1" d="M184.9,119.3h-5.7V109h5.7v1.1h-4.5v3.3h4.3v1.1h-4.3v3.8h4.5Z"/><path class="cls-1" d="M195.9,119.3h-1.4l-5.6-8.6h-.1a27.15,27.15,0,0,1,.1,2.8v5.8h-1.1V109h1.4l5.6,8.6h.1a8.33,8.33,0,0,0-.1-1.2V109h1.1Z"/><path class="cls-1" d="M205.2,119.3h-5.7V109h5.7v1.1h-4.5v3.3H205v1.1h-4.3v3.8h4.5Z"/><path class="cls-1" d="M209.4,115v4.3h-1.2V109H211a4.28,4.28,0,0,1,2.8.7,2.66,2.66,0,0,1,.9,2.2,2.77,2.77,0,0,1-2.1,2.8l2.8,4.6H214l-2.5-4.3Zm0-1H211a3.31,3.31,0,0,0,1.9-.5,2.18,2.18,0,0,0,0-3,3.09,3.09,0,0,0-1.9-.5h-1.6Z"/><path class="cls-1" d="M222.3,113.9h3.5v5a8.47,8.47,0,0,1-1.7.4,12.12,12.12,0,0,1-2,.1,4.59,4.59,0,0,1-3.6-1.4,5.71,5.71,0,0,1-1.3-3.9,6.09,6.09,0,0,1,.6-2.8,3.72,3.72,0,0,1,1.9-1.8,6.71,6.71,0,0,1,2.8-.6,8.15,8.15,0,0,1,3.1.6l-.5,1.1a6.6,6.6,0,0,0-2.7-.6,3.84,3.84,0,0,0-2.9,1.1,4.33,4.33,0,0,0-1.1,3.1,4.55,4.55,0,0,0,1,3.2,4.08,4.08,0,0,0,3,1.1,14.92,14.92,0,0,0,2.1-.2v-3.2h-2.3v-1.2Z"/><path class="cls-1" d="M231.6,114.1l2.7-5.1h1.3l-3.4,6.3v4H231v-3.9l-3.4-6.3h1.3Z"/><path class="cls-1" d="M241.7,116.6a3,3,0,0,1,.5-1.6,4.66,4.66,0,0,1,1.8-1.4,4.82,4.82,0,0,1-.8-1,2.12,2.12,0,0,1-.3-.7,2,2,0,0,1-.1-.8,1.75,1.75,0,0,1,.7-1.6,2.88,2.88,0,0,1,1.9-.6,2.44,2.44,0,0,1,1.8.6,2.18,2.18,0,0,1,.7,1.6,2.39,2.39,0,0,1-.5,1.4,4.47,4.47,0,0,1-1.6,1.3l2.9,2.8a2.07,2.07,0,0,0,.6-1c.1-.4.3-.8.4-1.3h1.2a7.45,7.45,0,0,1-1.4,3.1l2.1,2H250l-1.3-1.3a5.45,5.45,0,0,1-1.7,1.1,5.82,5.82,0,0,1-1.9.3,3.17,3.17,0,0,1-2.3-.7A3.33,3.33,0,0,1,241.7,116.6Zm3.2,1.8a3.93,3.93,0,0,0,2.8-1.1l-3.1-3a6.29,6.29,0,0,0-1.1.8,1.79,1.79,0,0,0-.5.7,1.85,1.85,0,0,0,.3,2.1A2.54,2.54,0,0,0,244.9,118.4Zm-1.1-7.4a1.61,1.61,0,0,0,.3.9c.2.3.5.6.9,1.1a8.51,8.51,0,0,0,1.3-1,1.28,1.28,0,0,0,.4-1,1,1,0,0,0-.4-.9,1.82,1.82,0,0,0-2,0A1.06,1.06,0,0,0,243.8,111Z"/><path class="cls-1" d="M262.4,109.9a3.69,3.69,0,0,0-2.7,1.1,4.45,4.45,0,0,0-1,3.1,4.77,4.77,0,0,0,.9,3.1,3.39,3.39,0,0,0,2.7,1.1,8.55,8.55,0,0,0,2.5-.4v1a6.77,6.77,0,0,1-2.6.4,4.51,4.51,0,0,1-3.5-1.4,5.69,5.69,0,0,1-1.2-3.9,6.09,6.09,0,0,1,.6-2.8,4.24,4.24,0,0,1,1.7-1.8,5.26,5.26,0,0,1,2.6-.6,6.09,6.09,0,0,1,2.8.6l-.5,1A6.82,6.82,0,0,0,262.4,109.9Z"/><path class="cls-1" d="M267.8,119.3V109H269v9.2h4.5v1.1Z"/><path class="cls-1" d="M276,119.3V109h1.2v10.3Z"/><path class="cls-1" d="M285.2,119.3l-3.5-9.1h-.1a20.12,20.12,0,0,1,.1,2.6v6.5h-1.1V109h1.8l3.3,8.5h.1l3.3-8.5h1.8v10.3h-1.2v-6.7a21.75,21.75,0,0,1,.1-2.5h-.1l-3.5,9.1h-1Z"/><path class="cls-1" d="M300.9,119.3l-1.3-3.3h-4.1l-1.3,3.3H293l4.1-10.3h1l4,10.3Zm-1.7-4.4-1.2-3.2a13.08,13.08,0,0,1-.5-1.5c-.1.4-.2.9-.4,1.5l-1.2,3.2Z"/><path class="cls-1" d="M307.4,119.3h-1.2v-9.2h-3.3V109h7.7v1.1h-3.2Z"/><path class="cls-1" d="M318.7,119.3H313V109h5.7v1.1h-4.5v3.3h4.3v1.1h-4.3v3.8h4.5Z"/><path class="cls-1" d="M107.6,136.5l-1.3-3.3h-4.1l-1.3,3.3H99.7l4.1-10.3h1l4,10.3Zm-1.6-4.3-1.2-3.2a13.08,13.08,0,0,1-.5-1.5,15.46,15.46,0,0,0-.4,1.5l-1.2,3.2Z"/><path class="cls-1" d="M115.4,127.2a3.69,3.69,0,0,0-2.7,1.1,4.45,4.45,0,0,0-1,3.1,4.77,4.77,0,0,0,.9,3.1,3.39,3.39,0,0,0,2.7,1.1,8.55,8.55,0,0,0,2.5-.4v1a6.77,6.77,0,0,1-2.6.4,4.51,4.51,0,0,1-3.5-1.4,5.69,5.69,0,0,1-1.2-3.9,6.09,6.09,0,0,1,.6-2.8,4.24,4.24,0,0,1,1.7-1.8,5.26,5.26,0,0,1,2.6-.6,6.09,6.09,0,0,1,2.8.6l-.5,1A6.35,6.35,0,0,0,115.4,127.2Z"/><path class="cls-1" d="M123.9,136.5h-1.2v-9.2h-3.3v-1.1h7.7v1.1h-3.3v9.2Z"/><path class="cls-1" d="M129.5,136.5V126.2h1.2v10.3Z"/><path class="cls-1" d="M143.1,131.4a6.05,6.05,0,0,1-1.2,3.9,4.2,4.2,0,0,1-3.5,1.4,4.51,4.51,0,0,1-3.5-1.4,6.94,6.94,0,0,1,0-7.8,4.51,4.51,0,0,1,3.5-1.4,4.67,4.67,0,0,1,3.5,1.4A5.69,5.69,0,0,1,143.1,131.4Zm-8.2,0a5.07,5.07,0,0,0,.9,3.2,3,3,0,0,0,2.6,1.1,3.31,3.31,0,0,0,2.6-1.1,4.89,4.89,0,0,0,.9-3.2,4.59,4.59,0,0,0-.9-3.1,3.17,3.17,0,0,0-2.6-1.1,3.31,3.31,0,0,0-2.6,1.1A4.59,4.59,0,0,0,134.9,131.4Z"/><path class="cls-1" d="M154.2,136.5h-1.4l-5.6-8.6h-.1a27.15,27.15,0,0,1,.1,2.8v5.8h-1.1V126.2h1.4l5.6,8.6h.1a8.33,8.33,0,0,0-.1-1.2v-7.4h1.1Z"/><path class="cls-1" d="M170.2,136.5h-1.4l-5.6-8.6h-.1a27.15,27.15,0,0,1,.1,2.8v5.8h-1.1V126.2h1.4l5.6,8.6h.1a8.33,8.33,0,0,0-.1-1.2v-7.4h1.1Z"/><path class="cls-1" d="M179.5,136.5h-5.7V126.2h5.7v1.1H175v3.3h4.3v1.1H175v3.8h4.5Z"/><path class="cls-1" d="M185.6,136.5h-1.2v-9.2h-3.3v-1.1h7.7v1.1h-3.3v9.2Z"/><path class="cls-1" d="M200.1,136.5h-1.2l-2.1-6.9a10.38,10.38,0,0,1-.3-1.2c-.1-.5-.2-.7-.2-.8a19.45,19.45,0,0,1-.5,2l-2,6.8h-1.2l-2.7-10.3h1.3l1.6,6.3c.2.9.4,1.7.5,2.4a10.15,10.15,0,0,1,.6-2.5l1.8-6.2H197l1.9,6.3c.2.7.4,1.5.6,2.5.1-.7.3-1.5.5-2.4l1.6-6.3h1.3Z"/><path class="cls-1" d="M214.1,131.4a6.05,6.05,0,0,1-1.2,3.9,4.2,4.2,0,0,1-3.5,1.4,4.51,4.51,0,0,1-3.5-1.4,6.94,6.94,0,0,1,0-7.8,4.51,4.51,0,0,1,3.5-1.4,4.67,4.67,0,0,1,3.5,1.4A5.69,5.69,0,0,1,214.1,131.4Zm-8.2,0a5.07,5.07,0,0,0,.9,3.2,3,3,0,0,0,2.6,1.1,3.31,3.31,0,0,0,2.6-1.1,4.89,4.89,0,0,0,.9-3.2,4.59,4.59,0,0,0-.9-3.1,3.17,3.17,0,0,0-2.6-1.1,3.31,3.31,0,0,0-2.6,1.1A4.59,4.59,0,0,0,205.9,131.4Z"/><path class="cls-1" d="M218.3,132.3v4.3h-1.2V126.3h2.8a4.28,4.28,0,0,1,2.8.7,2.66,2.66,0,0,1,.9,2.2,2.77,2.77,0,0,1-2.1,2.8l2.8,4.6h-1.4l-2.5-4.3Zm0-1.1h1.6a3.31,3.31,0,0,0,1.9-.5,2.18,2.18,0,0,0,0-3,3.09,3.09,0,0,0-1.9-.5h-1.6Z"/><path class="cls-1" d="M234.2,136.5h-1.4l-3.7-5-1.1,1v4h-1.2V126.2H228v5.1l4.7-5.1h1.4l-4.1,4.5Z"/><path class="cls-1" d="M87.1,5.4V5.3A2.84,2.84,0,0,0,88.2,3a3,3,0,0,0-3-3,2.72,2.72,0,0,0-2.1.9L45,1.2,8.4,1.5A3,3,0,0,0,3,3.3a3,3,0,0,0,3,3h.4v.1l-.1.7-.1.4L6,7.8,5.3,9l-.2.5-.3.9-.1.5-.1.9v.5l.1.5.3.7.2.5h0A3,3,0,0,0,4,16.4a3.11,3.11,0,0,0,1.6,2.7l-.2.8-.1,1.5-.1.6-.7,2.3-.1.5-.1.5.1,1.4L4.7,29l.2.6.7,1.5,1.6,2.7a2.84,2.84,0,0,0-1.1,2.3,3,3,0,0,0,1.7,2.7v.1l-.2.6-.8,1.6-.2.4-.2.5v1.1L7,45.9l.1.5v1.1L7,48.7l-.1.2H6.6a3,3,0,0,0-3,3,3.37,3.37,0,0,0,.5,1.7l-.1.6L2.6,58.6a3,3,0,0,0-2.6,3,3,3,0,0,0,3,3H3v1.9l.4,2.7.2.9.2.7.4.5.1.1v.7l-.1.7-.2.9-.1.5a3.08,3.08,0,0,0-1.6,2.6,3,3,0,0,0,2.2,2.9L2.4,85.1l-.2.6-.1.9v.5A3,3,0,0,0,.3,89.9a3,3,0,0,0,3,3,3,3,0,0,0,3-3,1.27,1.27,0,0,0-.1-.6l.1-.3.2-1.1.1-.3.1-.1.3-.1h.2l.5.1h.1l.1.2.3.9a2.87,2.87,0,0,0-1,2.2,2.92,2.92,0,0,0,2.5,2.9c-.2,9.3-.4,18.6-.6,28a2.88,2.88,0,0,0-1.6,2.6A3,3,0,0,0,9,126.9c0,1.7-.1,3.4-.1,5.2l-.1.9-.5,2.3.1.2c0,.1.1.2.1.4a3.08,3.08,0,0,0-1.4,2.5,3,3,0,0,0,3,3,2.88,2.88,0,0,0,2.6-1.6l14.9.6c4.5.2,9,.3,13.5.5a3,3,0,0,0,5.9-.6,2.91,2.91,0,0,0-2-2.8l-.6-.8-1.9-2-.3-.5-.2-.5-.1-.5-.1-.8v-.9l.1-.5.3-.5.3-.8a3,3,0,0,0,2.5-3,2.66,2.66,0,0,0-.3-1.2l.6-1.5.2-2.8.6-2.8a3,3,0,0,0,2-2.8,3.17,3.17,0,0,0-1.9-2.8l.1-.8.5-.6.2-.7-.1-.7-.2-.3v-.4l.1-.4.2-.4.5-.6.6-1.4.1-1.6-.2-2.3.2-6.7a2.92,2.92,0,0,0,1.6-2.7,3.13,3.13,0,0,0-1.2-2.4l.2-.4,1.5-1.5.7-1.2.4-1.3.4-2.6v-.1A2.92,2.92,0,0,0,54,80.8a4.25,4.25,0,0,0-.2-1.1l2.3-2.1.6-1.1.4-1.3h0a3,3,0,0,0,2.6-3,3.13,3.13,0,0,0-1.2-2.4L61.2,66l.2-1.1-.3-.4a2.79,2.79,0,0,0,.6-1.8,3.55,3.55,0,0,0-.2-1l.9-1.7.7-2.1.3-2.6V50l.2-2.3a2.2,2.2,0,0,0,.8.1,3,3,0,0,0,3-3c0-.3-.1-.6-.1-.9l.4-.1,2.1.1,1.4-.2,1.1-.8L73.8,41l.6-.5.6-.4a3.08,3.08,0,0,0,2.5,1.4,3,3,0,0,0,3-3,3.37,3.37,0,0,0-.5-1.7l.7-1.2,1.4-1.1L83.3,33v-.4a3,3,0,0,0,2.7-3,2.79,2.79,0,0,0-.6-1.8v-.3l-.4-.8-.6-.9-1.3-3.3-.1-.8v-.1a3,3,0,0,0,1.2-2.4,3,3,0,0,0-1.7-2.7l.4-.9L87,9.8l.5-2L87,6.6ZM45,3l37.2-.3v.2A3.59,3.59,0,0,0,82.4,4L57.3,15.9a2.86,2.86,0,0,0-2.5-1.3,3.13,3.13,0,0,0-2.4,1.2L9.8,3.3ZM75.8,36.8,65.2,37a2.29,2.29,0,0,0-.7-1l5.9-8.6a1.48,1.48,0,0,0,.7.1l5.3,8.6A4.35,4.35,0,0,0,75.8,36.8Zm-13,6.5-9.1-2.5v-.1l6.2-1.1A3.08,3.08,0,0,0,62.4,41h.5l.7,1.3A3.92,3.92,0,0,0,62.8,43.3Zm-6.1,19L36.3,64.2a3,3,0,0,0-1.4-1.3L37.8,51a2.87,2.87,0,0,0,1.8-.7L56.7,62.1ZM49,80.1l-6.1.7a2.9,2.9,0,0,0-2.6-1.4h-.2l-3.2-5.3L37,74l12,6.1Zm-4.8,43.1-.2.5a3.19,3.19,0,0,0-1.4-.3,3.31,3.31,0,0,0-1.5.4c-.1-.2-.2-.5-.3-.7l3.9-5.1a.35.35,0,0,1,.2.1l-.6,2.4Zm-32,12.4a3.36,3.36,0,0,0-1.4-.5c0-.1-.1-.2-.1-.3l.4-1.8.1-1.1v-.1c0-1.6.1-3.2.1-4.9a2.1,2.1,0,0,0,1.1-.4l6.1,4.2a3.59,3.59,0,0,0-.2,1.1,2.2,2.2,0,0,0,.1.8ZM5.8,60.1a3.11,3.11,0,0,0-1.4-1.6l1.3-4.2a2.2,2.2,0,0,0,.8.1,2.79,2.79,0,0,0,1.8-.6L11.4,56a2.77,2.77,0,0,0-.3,1.3,3.08,3.08,0,0,0,.3,1.3,2.77,2.77,0,0,0-.9-.1,3.11,3.11,0,0,0-2.7,1.6ZM8.9,45.2l-.6-2.8v-.7l.2-.5.8-1.6.3-.8.1-.4a3,3,0,0,0,2-1.4l3.6,1.1a2.72,2.72,0,0,0,.6,1.7l-7,8,.1-.7V45.8ZM6.8,9.7l.7-1.2L7.7,8V7.9l4.8,7.5a1.61,1.61,0,0,0-.4.7l-2.2-.4a3,3,0,0,0-3-2.8l-.1-.1-.1-.2-.1-.3-.1-.4-.1-.5.1-.6.1-.3.2-.7ZM59.4,37.8l-5.9,1.1A3,3,0,0,0,50.7,37a3.19,3.19,0,0,0-1.4.3l-9.6-6.1a2.77,2.77,0,0,0,.1-.9,1.48,1.48,0,0,0-.1-.7l12.9-9.8a3.12,3.12,0,0,0,2.1.9,1.7,1.7,0,0,0,.7-.1l5.4,14.9A3.08,3.08,0,0,0,59.4,37.8ZM33,62.6a2.75,2.75,0,0,0-1.6,1L17.1,58v-.6l18.6-7.1c.1.1.2.2.3.2Zm1.7-14.1-18.2,7a3,3,0,0,0-2.4-1.2,3.19,3.19,0,0,0-1.4.3L9.4,52.2a2.77,2.77,0,0,0,.1-.9,2.66,2.66,0,0,0-.3-1.2l8.1-9.2a2.77,2.77,0,0,0,.9.1,3.26,3.26,0,0,0,2.3-1l14.2,7.2c0,.2-.1.4-.1.6A2,2,0,0,1,34.7,48.5ZM16,27.7l5-.1a2.85,2.85,0,0,0,.8,1.4l-3,6.2h-.7l-2.8-6.1A3.69,3.69,0,0,0,16,27.7Zm1.8-9.8,34.1.2L38.8,28a3.16,3.16,0,0,0-1.9-.7,3,3,0,0,0-2.4,1.2l-7.6-1.7a3,3,0,0,0-3-3,3,3,0,0,0-1,.2l-5.4-5.5C17.7,18.4,17.7,18.2,17.8,17.9Zm2.6,18.2,3-6.2h.5a2.81,2.81,0,0,0,2.4-1.3l7.6,1.7h0a2.77,2.77,0,0,0,.1.9L20.4,36.1Zm-2.9-20a3,3,0,0,0-2.7-1.7,1.7,1.7,0,0,0-.7.1L8.2,5.2a1.38,1.38,0,0,0,.3-.4L47.4,16.2Zm-8,1.5,2.4.4a3,3,0,0,0,2.9,2.4,2.6,2.6,0,0,0,1.5-.4l5.1,5.3c-.1.2-.2.3-.3.5l-5.3.1A3,3,0,0,0,13,24a1.48,1.48,0,0,0-.7.1L8.7,18.4A3,3,0,0,0,9.5,17.6Zm2.9,12.3a1.7,1.7,0,0,0,.7.1h.5l2.7,6.1-.5.5-3.7-1.2a3.16,3.16,0,0,0-1.3-2.2Zm1.1,31.6a3.08,3.08,0,0,0-.3-1.3,2.77,2.77,0,0,0,.9.1,3.23,3.23,0,0,0,2.1-.8l14.4,5.7v.3a3.13,3.13,0,0,0,2.1,2.9l.3,1.2a2,2,0,0,0-.8,1.2l-15,1.5a3.08,3.08,0,0,0-2.5-1.4h-.5L12,64A2.71,2.71,0,0,0,13.5,61.5Zm4.1,12.6,14.5-1.5a3,3,0,0,0,2.6,2.2l3.4,5.6-.6.9-15.1.3A2.92,2.92,0,0,0,19.7,80h-.5l-2.6-4A2.28,2.28,0,0,0,17.6,74.1ZM39.1,101,21,110.1a4.05,4.05,0,0,0-.9-.5l-.2-14.7A3,3,0,0,0,22,93.6Zm3.8,15a2,2,0,0,0,.4.8l-3.9,5.1a2.66,2.66,0,0,0-1.2-.3,3.13,3.13,0,0,0-2.4,1.2l-14-9.3h0ZM19.8,129.5l-6.1-4.2a2.66,2.66,0,0,0,.3-1.2,4.19,4.19,0,0,0-.4-1.6l4.7-7.1,1.8,13.8C20,129.4,19.9,129.4,19.8,129.5Zm.9-40.4.1-3.2a3,3,0,0,0,1.9-2.3l14.2-.3L21.8,90A2,2,0,0,0,20.7,89.1Zm-2.2-3.3c.1.1.3.1.4.2l-.1,3a3.36,3.36,0,0,0-1.6,1l-3.4-.5Zm-.7,20.9L12.5,92.9a3.13,3.13,0,0,0,.9-1.1l3.3.5a3.2,3.2,0,0,0,1,1.9Zm-.6,3.4a3.17,3.17,0,0,0-1.1,2.3,3.46,3.46,0,0,0,.7,2l-4.7,7a6.37,6.37,0,0,0-.7-.2c.2-8.2.3-16.3.5-24.5Zm4.7,19-1.8-13.9c.2-.1.3-.1.5-.2l14.6,9.7h0v.2l-11.6,5.2A2.53,2.53,0,0,0,21.9,129.1Zm21.1-15-21-2.4h0l18-9a2.87,2.87,0,0,0,1.9,1.1l2.1,9.1A2.81,2.81,0,0,0,43,114.1ZM39.8,99.3,22.6,91.8v-.2l15.7-7a2.07,2.07,0,0,0,1,.6l1.7,13A2.54,2.54,0,0,0,39.8,99.3Zm-.5-53.9a3.1,3.1,0,0,0-1.7-.5,2.79,2.79,0,0,0-2,.8L21.3,38.4v-.6l13.9-5.1a2.72,2.72,0,0,0,1.7.6,2.79,2.79,0,0,0,1.8-.6l9.4,6a3.34,3.34,0,0,0-.2,2.2ZM68.9,26.3l-6,8.7h-.1L57.2,19.6l11,4.7v.2A2.41,2.41,0,0,0,68.9,26.3ZM7.3,29.8l-.6-1.2-.1-.4-.3-2.1-.1-1.2.1-.5L7,22.1l.1-.9.1-1.4v-.2l3.5,5.6a2.93,2.93,0,0,0,0,3.8L9,32.7H8.9ZM5.9,61.9l1.6.1a3.08,3.08,0,0,0,2.6,2.5l2.3,7.4a2.5,2.5,0,0,0-.8,1.8L8,74.8a2.77,2.77,0,0,0-2-1.3l.2-.6.1-1v-.5l-.1-.5-.1-.5L5.9,70l-.3-.5-.1-.4-.2-.7-.4-2.5V63.5A3.09,3.09,0,0,0,5.9,61.9Zm4.2,24.9-.3-.6-.5-.5-.5-.2-.9-.2h-1l-.4.1-.5.2-.4.4-.2.4-.2.5a3.55,3.55,0,0,0-.9-.4v-.3l.1-.6.1-.4,2.3-5.9.1-.3a2.87,2.87,0,0,0,1.7-2.6l3.6-1.1a3,3,0,0,0,2.6,1.5h.3l2.6,4.1a3,3,0,0,0-.8,2.1,2.82,2.82,0,0,0,.4,1.5l-4.6,3.7a3.16,3.16,0,0,0-1.9-.7h-.4Zm3.4,50.9c0-.2-.1-.4-.1-.6l6.2-2.8a3.16,3.16,0,0,0,1.9.7,3,3,0,0,0,2.5-1.3l15,5.1c-3.6-.1-7.2-.3-10.7-.4C23.3,138.1,18.4,137.9,13.5,137.7Zm29.7-.4a4.7,4.7,0,0,0-.9.6l-18-6.1v-.2l11.5-5.1a2.84,2.84,0,0,0,2.3,1.1,3.31,3.31,0,0,0,1.5-.4,3,3,0,0,0,1.5,1.8l-.1.3-.3.6-.3,1v1.3l.1,1,.2.8.3.7.5.8Zm3.9-31.7-.4.9-.4.5-.4.7-.3.8-.1,1.1.1.6.2.2-.5.5-1.6-7.3a3,3,0,0,0-.9-5.6L41.3,86.2,45,91.5a3.19,3.19,0,0,0-.3,1.4,2.92,2.92,0,0,0,2.5,2.9l-.2,6.5.2,2.3Zm3.1-18.9-.5.8L48.2,89l-.4.8h-.1a2.77,2.77,0,0,0-1.3.3l-4-5.6a3.1,3.1,0,0,0,.9-1.9l6.1-.7a2.73,2.73,0,0,0,1.5,1.3l-.4,2.4Zm5.4-10.5L53.7,78a3,3,0,0,0-1.6-.5,3.6,3.6,0,0,0-2.2.9L38,72.4c0-.2.1-.4.1-.6a3,3,0,0,0-2.7-3l-.2-.7a3.46,3.46,0,0,0,1.1-1l18.5,4.7v.1a2.88,2.88,0,0,0,1.6,2.6l-.3.9Zm2-7.3A2.84,2.84,0,0,0,55.3,70L38.4,65.7,57.1,64a3.08,3.08,0,0,0,2.5,1.4H60l-2.4,3.5Zm5-13.8-.2,2.2-.6,1.8-.5.9a3,3,0,0,0-1.6-.5,2.72,2.72,0,0,0-2.1.9l-17-11.8a1.7,1.7,0,0,0,.1-.7,3,3,0,0,0-.2-1l8.6-4.5a2.79,2.79,0,0,0,1.8.6,2.72,2.72,0,0,0,1.7-.6l10,2.8a3.58,3.58,0,0,0,.4,1.1l-.1.1-.3,3.3ZM73.4,39.5l-1.5,1.9-.5.4-.7.1-2.2-.1-1.5.3a2.93,2.93,0,0,0-1.6-.4h-.1l-.8-1.5a3.22,3.22,0,0,0,.8-1.4l9.2-.1-.2.1Zm8.3-6.6-1.5,1.3-.7,1.3a3,3,0,0,0-1-.2h-.3L73,26.9l.2-.2,7.7,2.8A3.08,3.08,0,0,0,82.3,32v.2Zm.5-10.3,1.4,3.7.1.1a3.6,3.6,0,0,0-2.3,1.3l-7.3-2.6c0-.2.1-.4.1-.7a1.27,1.27,0,0,0-.1-.6l5.6-3A2.84,2.84,0,0,0,82,21.9h.1ZM86,8.8l-3.9,5.6-.8,1.7A3,3,0,0,0,79,19v.2l-5.8,3.1a2.79,2.79,0,0,0-2-.8,2.84,2.84,0,0,0-2.3,1.1l-11-4.7v-.2L83.7,5.5a2.82,2.82,0,0,0,1.5.4h.2v.2l.6,1,.2.6Z"/><path class="cls-1" d="M100.1,44.2l13.4,33.6,13.6-33.6h8L113.4,96.3,92.2,44.2Z"/><path class="cls-1" d="M169.1,51.1H149.7V62.7h18.9v6.9H149.7V85.8h19.4v6.9H142.4V44.3h26.7Z"/><path class="cls-1" d="M215.8,46.8v8.7c-4.2-3.5-8.6-5.3-13.1-5.3a16.64,16.64,0,0,0-12.6,5.4A18.27,18.27,0,0,0,185,68.7a17.8,17.8,0,0,0,5.1,12.9,16.82,16.82,0,0,0,12.6,5.2,14.67,14.67,0,0,0,6.6-1.3,19.38,19.38,0,0,0,3.1-1.7,34.35,34.35,0,0,0,3.4-2.6V90a26.11,26.11,0,0,1-13.2,3.5,24.38,24.38,0,0,1-17.7-7.2,24,24,0,0,1-7.3-17.6,24.63,24.63,0,0,1,6.1-16.5,25.29,25.29,0,0,1,32.1-5.4Z"/><path class="cls-1" d="M255.9,80.9H235.2l-5.4,11.8h-7.9l24-51.5L269,92.7h-8Zm-3-6.9-7.2-16.5L238.2,74Z"/><path class="cls-1" d="M276.3,92.6V40.9l35.3,37V44.2h7.3V95.6L283.6,58.7V92.6Z"/></g></g></svg>