<svg xmlns="http://www.w3.org/2000/svg" viewBox="0 0 318.91 143.06"><defs><style>.cls-1{fill:#231f20;}.cls-2{fill:#70b744;}</style></defs><title>vecan_colorAsset 1</title><g id="Layer_2" data-name="Layer 2"><g id="Layer_1-2" data-name="Layer 1"><path class="cls-1" d="M107,109h1.29l-3.71,10.28h-1.18L99.67,109h1.26l2.36,6.65a17.3,17.3,0,0,1,.65,2.23,18.87,18.87,0,0,1,.66-2.27Z"/><path class="cls-1" d="M116.1,119.3h-5.73V109h5.73v1.06h-4.53v3.31h4.26v1.06h-4.26v3.78h4.53Z"/><path class="cls-1" d="M120.3,115v4.28h-1.2V109h2.82a4.44,4.44,0,0,1,2.79.72,2.62,2.62,0,0,1,.91,2.18,2.74,2.74,0,0,1-2.07,2.76l2.79,4.62h-1.41L122.44,115Zm0-1h1.63a2.79,2.79,0,0,0,1.86-.51,1.86,1.86,0,0,0,.59-1.5,1.72,1.72,0,0,0-.6-1.47,3.25,3.25,0,0,0-1.93-.45H120.3Z"/><path class="cls-1" d="M133.27,119.3l-3.49-9.11h-.05c.06.72.1,1.58.1,2.57v6.54h-1.11V109h1.8l3.26,8.48h.05l3.29-8.48h1.78V119.3h-1.19v-6.62c0-.76,0-1.59.1-2.48h-.06l-3.52,9.1Z"/><path class="cls-1" d="M151.37,114.14a5.7,5.7,0,0,1-1.25,3.89,5,5,0,0,1-7,0,5.72,5.72,0,0,1-1.23-3.92,5.61,5.61,0,0,1,1.24-3.89,4.46,4.46,0,0,1,3.51-1.38,4.4,4.4,0,0,1,3.46,1.4A5.67,5.67,0,0,1,151.37,114.14Zm-8.2,0a4.89,4.89,0,0,0,.89,3.17,3.18,3.18,0,0,0,2.59,1.08,3.14,3.14,0,0,0,2.58-1.07,5,5,0,0,0,.87-3.18,4.88,4.88,0,0,0-.87-3.14,3.09,3.09,0,0,0-2.57-1.07,3.18,3.18,0,0,0-2.6,1.08A4.81,4.81,0,0,0,143.17,114.14Z"/><path class="cls-1" d="M162.41,119.3H161l-5.62-8.63h0c.07,1,.11,1.94.11,2.79v5.84h-1.1V109h1.35l5.6,8.59h.06c0-.13,0-.53-.07-1.22s0-1.18,0-1.47V109h1.12Z"/><path class="cls-1" d="M169.12,119.3h-1.2v-9.22h-3.25V109h7.7v1.06h-3.25Z"/><path class="cls-1" d="M184.83,119.3H179.1V109h5.73v1.06H180.3v3.31h4.26v1.06H180.3v3.78h4.53Z"/><path class="cls-1" d="M195.86,119.3H194.5l-5.62-8.63h-.06c.08,1,.11,1.94.11,2.79v5.84h-1.1V109h1.35l5.6,8.59h.06c0-.13,0-.53-.06-1.22s-.05-1.18,0-1.47V109h1.12Z"/><path class="cls-1" d="M205.14,119.3h-5.73V109h5.73v1.06H200.6v3.31h4.26v1.06H200.6v3.78h4.54Z"/><path class="cls-1" d="M209.33,115v4.28h-1.2V109H211a4.45,4.45,0,0,1,2.8.72,2.64,2.64,0,0,1,.9,2.18,2.74,2.74,0,0,1-2.06,2.76l2.79,4.62H214L211.47,115Zm0-1H211a2.78,2.78,0,0,0,1.85-.51,1.83,1.83,0,0,0,.59-1.5,1.72,1.72,0,0,0-.6-1.47,3.25,3.25,0,0,0-1.93-.45h-1.55Z"/><path class="cls-1" d="M222.28,113.91h3.49v5a10.56,10.56,0,0,1-1.66.4,13.82,13.82,0,0,1-2,.13,4.73,4.73,0,0,1-3.64-1.39,5.46,5.46,0,0,1-1.3-3.89,6,6,0,0,1,.64-2.81,4.35,4.35,0,0,1,1.86-1.84,5.91,5.91,0,0,1,2.83-.64,7.65,7.65,0,0,1,3.07.61l-.47,1a6.92,6.92,0,0,0-2.68-.59,3.81,3.81,0,0,0-2.93,1.12,4.34,4.34,0,0,0-1,3.1,4.47,4.47,0,0,0,1,3.16,4,4,0,0,0,3,1.07,9.12,9.12,0,0,0,2.09-.24V115h-2.3Z"/><path class="cls-1" d="M231.58,114.16l2.74-5.14h1.29l-3.43,6.29v4H231v-3.93L227.55,109h1.3Z"/><path class="cls-1" d="M241.59,116.63a2.78,2.78,0,0,1,.48-1.61,5.19,5.19,0,0,1,1.76-1.42,8.17,8.17,0,0,1-.81-1,2.89,2.89,0,0,1-.34-.71,2.28,2.28,0,0,1-.13-.78,2,2,0,0,1,.69-1.64,2.83,2.83,0,0,1,1.92-.59,2.59,2.59,0,0,1,1.79.58,2.09,2.09,0,0,1,.65,1.64,2.33,2.33,0,0,1-.47,1.39,5.57,5.57,0,0,1-1.59,1.29l2.87,2.75a3.22,3.22,0,0,0,.62-1,8.38,8.38,0,0,0,.4-1.28h1.18a6.73,6.73,0,0,1-1.44,3l2.1,2h-1.61l-1.3-1.25a4.93,4.93,0,0,1-3.6,1.39,3.37,3.37,0,0,1-2.34-.75A2.59,2.59,0,0,1,241.59,116.63Zm3.2,1.76a3.87,3.87,0,0,0,2.81-1.08l-3.07-3a6.5,6.5,0,0,0-1.1.79,2,2,0,0,0-.48.67,2.1,2.1,0,0,0-.16.82,1.67,1.67,0,0,0,.55,1.3A2.11,2.11,0,0,0,244.79,118.39Zm-1.09-7.32a1.9,1.9,0,0,0,.25.92,5.65,5.65,0,0,0,.87,1.06,4.46,4.46,0,0,0,1.26-1,1.58,1.58,0,0,0,.36-1,1.13,1.13,0,0,0-.37-.88,1.33,1.33,0,0,0-1-.34,1.48,1.48,0,0,0-1,.34A1.14,1.14,0,0,0,243.7,111.07Z"/><path class="cls-1" d="M262.3,109.94a3.39,3.39,0,0,0-2.68,1.13,4.56,4.56,0,0,0-1,3.09,4.67,4.67,0,0,0,.95,3.12,3.37,3.37,0,0,0,2.69,1.1,9.17,9.17,0,0,0,2.46-.39V119a7.52,7.52,0,0,1-2.64.4,4.45,4.45,0,0,1-3.5-1.38,5.64,5.64,0,0,1-1.24-3.92,6.15,6.15,0,0,1,.6-2.78,4.18,4.18,0,0,1,1.71-1.84,5.22,5.22,0,0,1,2.64-.65,6.44,6.44,0,0,1,2.83.59l-.51,1A5.37,5.37,0,0,0,262.3,109.94Z"/><path class="cls-1" d="M267.7,119.3V109h1.2v9.2h4.53v1.08Z"/><path class="cls-1" d="M275.89,119.3V109h1.2V119.3Z"/><path class="cls-1" d="M285.18,119.3l-3.49-9.11h-.05c.06.72.09,1.58.09,2.57v6.54h-1.1V109h1.8l3.26,8.48h.05L289,109h1.79V119.3h-1.19v-6.62c0-.76,0-1.59.09-2.48h0l-3.52,9.1Z"/><path class="cls-1" d="M300.81,119.3,299.53,116h-4.12l-1.26,3.27h-1.21L297,109h1l4,10.32ZM299.16,115l-1.2-3.18c-.15-.4-.31-.9-.47-1.48a14,14,0,0,1-.45,1.48L295.83,115Z"/><path class="cls-1" d="M307.35,119.3h-1.2v-9.22H302.9V109h7.7v1.06h-3.25Z"/><path class="cls-1" d="M318.6,119.3h-5.73V109h5.73v1.06h-4.54v3.31h4.26v1.06h-4.26v3.78h4.54Z"/><path class="cls-1" d="M107.54,136.58l-1.28-3.27h-4.12l-1.26,3.27H99.67l4.06-10.32h1l4,10.32Zm-1.65-4.35-1.2-3.18c-.15-.4-.31-.9-.47-1.48a14,14,0,0,1-.45,1.48l-1.21,3.18Z"/><path class="cls-1" d="M115.31,127.22a3.35,3.35,0,0,0-2.67,1.13,4.51,4.51,0,0,0-1,3.09,4.67,4.67,0,0,0,.94,3.12,3.38,3.38,0,0,0,2.7,1.1,9,9,0,0,0,2.45-.39v1a7.46,7.46,0,0,1-2.63.4,4.47,4.47,0,0,1-3.51-1.38,5.69,5.69,0,0,1-1.23-3.92,6.28,6.28,0,0,1,.59-2.78,4.25,4.25,0,0,1,1.72-1.84,5.22,5.22,0,0,1,2.64-.65,6.44,6.44,0,0,1,2.83.59l-.51,1A5.41,5.41,0,0,0,115.31,127.22Z"/><path class="cls-1" d="M123.88,136.58h-1.19v-9.22h-3.26V126.3h7.71v1.06h-3.26Z"/><path class="cls-1" d="M129.4,136.58V126.3h1.2v10.28Z"/><path class="cls-1" d="M143.06,131.42a5.7,5.7,0,0,1-1.25,3.89,5,5,0,0,1-7,0,6.77,6.77,0,0,1,0-7.81,4.49,4.49,0,0,1,3.52-1.38,4.41,4.41,0,0,1,3.46,1.4A5.67,5.67,0,0,1,143.06,131.42Zm-8.19,0a4.89,4.89,0,0,0,.89,3.17,3.63,3.63,0,0,0,5.16,0,5,5,0,0,0,.87-3.18,4.88,4.88,0,0,0-.86-3.14,3.1,3.1,0,0,0-2.57-1.07,3.17,3.17,0,0,0-2.6,1.08A4.81,4.81,0,0,0,134.87,131.42Z"/><path class="cls-1" d="M154.1,136.58h-1.36L147.12,128h-.06q.12,1.52.12,2.79v5.84h-1.11V126.3h1.35l5.61,8.59h.05c0-.13,0-.53-.06-1.22s-.05-1.18,0-1.47v-5.9h1.12Z"/><path class="cls-1" d="M170.14,136.58h-1.37L163.16,128h-.06c.08,1,.11,1.94.11,2.79v5.84h-1.1V126.3h1.35l5.6,8.59h.06c0-.13,0-.53-.06-1.22s-.05-1.18,0-1.47v-5.9h1.12Z"/><path class="cls-1" d="M179.42,136.58h-5.73V126.3h5.73v1.06h-4.54v3.31h4.26v1.06h-4.26v3.78h4.54Z"/><path class="cls-1" d="M185.58,136.58h-1.2v-9.22h-3.25V126.3h7.7v1.06h-3.25Z"/><path class="cls-1" d="M200.07,136.58h-1.18l-2.07-6.88c-.1-.31-.21-.69-.33-1.16a6.21,6.21,0,0,1-.19-.83,19,19,0,0,1-.49,2l-2,6.84h-1.18l-2.73-10.28h1.26l1.63,6.35a24.16,24.16,0,0,1,.49,2.42,17.68,17.68,0,0,1,.56-2.52l1.84-6.25h1.27l1.93,6.31a17.24,17.24,0,0,1,.57,2.46,21.12,21.12,0,0,1,.51-2.44l1.62-6.33h1.26Z"/><path class="cls-1" d="M214.07,131.42a5.7,5.7,0,0,1-1.24,3.89,5,5,0,0,1-7,0,5.7,5.7,0,0,1-1.23-3.92,5.61,5.61,0,0,1,1.24-3.89,4.46,4.46,0,0,1,3.51-1.38,4.4,4.4,0,0,1,3.46,1.4A5.67,5.67,0,0,1,214.07,131.42Zm-8.19,0a4.89,4.89,0,0,0,.89,3.17,3.18,3.18,0,0,0,2.59,1.08,3.14,3.14,0,0,0,2.58-1.07,5,5,0,0,0,.87-3.18,4.88,4.88,0,0,0-.87-3.14,3.09,3.09,0,0,0-2.57-1.07,3.18,3.18,0,0,0-2.6,1.08A4.81,4.81,0,0,0,205.88,131.42Z"/><path class="cls-1" d="M218.28,132.3v4.28h-1.19V126.3h2.82a4.44,4.44,0,0,1,2.79.72,2.65,2.65,0,0,1,.91,2.18,2.74,2.74,0,0,1-2.07,2.76l2.79,4.62h-1.41l-2.49-4.28Zm0-1h1.64a2.83,2.83,0,0,0,1.86-.51,1.86,1.86,0,0,0,.59-1.5,1.72,1.72,0,0,0-.6-1.47,3.29,3.29,0,0,0-1.93-.45h-1.56Z"/><path class="cls-1" d="M234.13,136.58h-1.4l-3.75-5-1.08,1v4h-1.19V126.3h1.19v5.1l4.67-5.1H234l-4.14,4.46Z"/><path class="cls-2" d="M87,5.42l0-.12A3,3,0,0,0,85.12,0,3,3,0,0,0,83,.91c-13.17.09-25.82.2-38.06.3-11.8.11-24,.21-36.65.3A3,3,0,1,0,5.85,6.25l.4,0v.06L6.11,7,6,7.37l-.15.31L5.12,8.86l-.21.46-.28.85-.09.49-.1.87,0,.46.07.48.26.72.25.46,0,0A3,3,0,0,0,3.92,16a3,3,0,0,0,1.62,2.66l-.15.76-.07,1.48-.07.59-.69,2.26-.1.47-.06.49.07,1.43.34,2.31L5,29.1l.65,1.48,1.61,2.74a3,3,0,0,0,.6,5l0,.12-.22.6-.81,1.55L6.6,41l-.18.55,0,.59,0,.53L7,45.51l0,.51v1.09L7,48.29l-.06.23a2.07,2.07,0,0,0-.35,0,3,3,0,0,0-2.46,4.68L4,53.81,2.61,58.19a3,3,0,0,0,.38,6H3l0,.94,0,1,.41,2.73.21.85.25.7.36.55.07.15.05.13,0,.24v.36l-.08.65-.24.89L4,73.76a3,3,0,0,0,.67,5.52L2.64,84.67l-.17.64-.09.85v.54a3,3,0,1,0,4.15,2.76,2.69,2.69,0,0,0-.06-.57l.14-.29.23-1.12L7,87.21l.1-.06.3-.05h.19l.52.12.08,0,.12.18.27.94a2.92,2.92,0,0,0-1,2.17,3,3,0,0,0,2.5,3q-.29,14-.58,28a3,3,0,0,0-.11,5.23c0,1.71-.07,3.43-.1,5.15l-.11.88L8.68,135l.08.24.12.37a3,3,0,1,0,4.21,4l14.91.56,13.49.51a3,3,0,1,0,3.89-3.42l-.59-.84-1.89-2-.29-.52-.2-.46-.13-.54-.08-.81,0-.9.15-.48.28-.54.33-.84a3,3,0,0,0,2.55-3,3.05,3.05,0,0,0-.26-1.21l.64-1.5.18-2.81.65-2.81a3,3,0,0,0,.11-5.58l.08-.79.49-.63.15-.7-.08-.72-.21-.32,0-.39.14-.43.23-.38.49-.59.65-1.39.13-1.59-.2-2.3L49,95.53a3,3,0,0,0,1.62-2.65,3,3,0,0,0-1.16-2.36l.19-.36,1.5-1.46.73-1.22.38-1.3.42-2.62v-.13a3,3,0,0,0,2-4L57,77.37l.55-1.12.4-1.32v0a3,3,0,0,0,1.43-5.31L62,65.79l.22-1.06-.32-.39a3,3,0,0,0,.64-1.84,3,3,0,0,0-.16-1l.92-1.7L64,57.75l.3-2.58,0-5.34.24-2.27a3.18,3.18,0,0,0,.82.11,3,3,0,0,0,3-3,2.83,2.83,0,0,0-.15-.93l.37-.07,2.12.09,1.36-.22,1.1-.78,1.5-1.93.57-.53.61-.39a3,3,0,0,0,5.49-1.63,3,3,0,0,0-.53-1.7l.69-1.19,1.35-1.14L84,32.8l0-.41a3,3,0,0,0,2.1-4.8l0-.3-.36-.8-.57-.9L83.9,22.25l-.14-.81,0-.12a3,3,0,0,0-.59-5.07l.42-.85,4.06-5.82.48-2-.47-1.23ZM44.93,3.05c12-.1,24.35-.21,37.21-.3a1.93,1.93,0,0,0,0,.24,3.07,3.07,0,0,0,.21,1.1L57.24,16a3,3,0,0,0-4.83-.11L9.85,3.34C22,3.25,33.62,3.15,44.93,3.05ZM75.76,36.81,65.14,37a3.1,3.1,0,0,0-.66-1l5.88-8.6a2.52,2.52,0,0,0,.67.09l5.31,8.65A3.11,3.11,0,0,0,75.76,36.81ZM62.69,43.37l-9.12-2.54s0,0,0-.06l6.24-1.13A3,3,0,0,0,62.36,41a3.57,3.57,0,0,0,.46,0l.73,1.32A3.13,3.13,0,0,0,62.69,43.37ZM56.6,62.29,36.17,64.14a3,3,0,0,0-1.41-1.32l3-11.92a3,3,0,0,0,1.81-.72L56.63,62ZM49,80.18l-6.14.71a3,3,0,0,0-2.55-1.44h-.18l-3.21-5.34.07-.07,12,6.09Zm-4.86,43.07-.2.48a3,3,0,0,0-1.35-.33,2.92,2.92,0,0,0-1.55.44,2.79,2.79,0,0,0-.31-.68L44.6,118l.24.09-.55,2.42Zm-32,12.43a3,3,0,0,0-1.44-.49,2.41,2.41,0,0,0-.08-.25l.42-1.85.14-1.07v-.09c0-1.61.07-3.23.1-4.85a2.79,2.79,0,0,0,1.14-.37L18.53,131a3,3,0,0,0-.2,1.08,2.66,2.66,0,0,0,.1.75ZM5.78,60.08a3,3,0,0,0-1.36-1.55l1.29-4.18a2.94,2.94,0,0,0,.84.12,3,3,0,0,0,1.82-.62l3.05,2.24a2.88,2.88,0,0,0,0,2.58,2.92,2.92,0,0,0-.93-.15A3,3,0,0,0,7.8,60.15ZM8.86,45.27l-.61-2.76v-.64l.17-.49.82-1.56L9.55,39l.1-.44a3,3,0,0,0,2-1.38l3.57,1.12a3,3,0,0,0,.59,1.7l-7,8,.09-.73V45.93ZM6.73,9.76l.7-1.17.23-.46,0-.15,4.78,7.52a2.88,2.88,0,0,0-.43.66l-2.18-.35a3,3,0,0,0-3-2.76l-.12-.14-.15-.2-.14-.25-.15-.38-.06-.53L6.35,11l.05-.28L6.62,10ZM59.38,37.85l-5.89,1.07A3,3,0,0,0,50.7,37a2.91,2.91,0,0,0-1.4.35l-9.6-6.12a3,3,0,0,0,.12-.86,2.66,2.66,0,0,0-.1-.75l13-9.85a3,3,0,0,0,2.12.89,2.83,2.83,0,0,0,.71-.1l5.37,14.89A3,3,0,0,0,59.38,37.85ZM32.92,62.62a3,3,0,0,0-1.63,1L17,57.94a3.07,3.07,0,0,0,0-.53.38.38,0,0,0,0-.1l18.56-7.13.3.23Zm1.75-14-18.22,7a3,3,0,0,0-3.73-.82L9.41,52.33a3,3,0,0,0,.13-.85,3,3,0,0,0-.26-1.2l8.06-9.2a3.24,3.24,0,0,0,.89.13,3,3,0,0,0,2.25-1l14.17,7.17a2.6,2.6,0,0,0-.06.56A3,3,0,0,0,34.67,48.58ZM15.92,27.74l5-.1a3,3,0,0,0,.77,1.4l-3.05,6.23a3.11,3.11,0,0,0-.43,0,1.88,1.88,0,0,0-.34,0l-2.76-6.13A2.93,2.93,0,0,0,15.92,27.74Zm1.78-9.8,34.09.2L38.73,28.07a3,3,0,0,0-4.3.55l-7.6-1.69a3,3,0,0,0-3-3,2.94,2.94,0,0,0-1,.17l-5.36-5.49A2.78,2.78,0,0,0,17.7,17.94Zm2.61,18.14,3-6.18a2.92,2.92,0,0,0,.51,0,3,3,0,0,0,2.43-1.25l7.58,1.68h0a2.89,2.89,0,0,0,.13.88L20.42,36.2Zm-2.88-20a3,3,0,0,0-2.67-1.66,3.37,3.37,0,0,0-.71.09L8.13,5.2a3.18,3.18,0,0,0,.27-.37L47.29,16.27Zm-8,1.5,2.39.39a3,3,0,0,0,4.42,2l5.13,5.25a3.39,3.39,0,0,0-.29.53l-5.3.1A3,3,0,0,0,13,24a2.84,2.84,0,0,0-.72.09L8.74,18.39A2.79,2.79,0,0,0,9.44,17.6Zm2.85,12.31A3,3,0,0,0,13,30a2.42,2.42,0,0,0,.47,0L16.22,36a2.86,2.86,0,0,0-.46.52l-3.65-1.15a3,3,0,0,0-1.27-2.22Zm1.16,31.6a3,3,0,0,0-.29-1.26,2.92,2.92,0,0,0,.93.15,3,3,0,0,0,2.06-.83l14.41,5.69a2.64,2.64,0,0,0,0,.28,3,3,0,0,0,2.13,2.86L33,69.61a3,3,0,0,0-.85,1.2l-15,1.54A3,3,0,0,0,14.57,71a2.42,2.42,0,0,0-.47,0l-2.19-6.9A3,3,0,0,0,13.45,61.51Zm4.1,12.64L32,72.67a3,3,0,0,0,2.61,2.18L38,80.48a3,3,0,0,0-.56.94l-15.09.34a3,3,0,0,0-3.18-1.57l-2.58-4A3,3,0,0,0,17.55,74.15Zm21.52,26.93-18.1,9a2.8,2.8,0,0,0-.89-.54l-.16-14.71A3,3,0,0,0,22,93.61ZM42.84,116a2.71,2.71,0,0,0,.35.82l-3.89,5.11a3,3,0,0,0-3.55.93l-14-9.28h0ZM19.69,129.52l-6.05-4.18a3,3,0,0,0-.18-2.79l4.75-7L20,129.35A1.87,1.87,0,0,0,19.69,129.52Zm.95-40.38.08-3.2a3,3,0,0,0,1.93-2.35l14.23-.32L21.81,90A2.88,2.88,0,0,0,20.64,89.14Zm-2.18-3.3a2.41,2.41,0,0,0,.42.16l-.07,3a3.06,3.06,0,0,0-1.59,1l-3.39-.47Zm-.71,20.88-5.34-13.8a3.18,3.18,0,0,0,.89-1.1l3.28.45a3,3,0,0,0,1,1.91Zm-.66,3.38a3,3,0,0,0-.32,4.24l-4.72,7a2.52,2.52,0,0,0-.68-.18q.27-12.27.51-24.52Zm4.73,19L20,115.19a2.62,2.62,0,0,0,.48-.22l14.63,9.7h0c0,.06,0,.12,0,.17L23.52,130A3,3,0,0,0,21.82,129.08Zm21.12-14.91-21-2.41v-.05l18-9a3,3,0,0,0,1.9,1.12l2.06,9.08A3,3,0,0,0,42.94,114.17ZM39.7,99.34,22.53,91.83a1,1,0,0,0,0-.17l15.75-7a3,3,0,0,0,1,.59l1.66,13A3,3,0,0,0,39.7,99.34Zm-.47-53.91a2.92,2.92,0,0,0-1.65-.5,3,3,0,0,0-2,.81L21.2,38.49a2.44,2.44,0,0,0,0-.27,1.94,1.94,0,0,0,0-.34L35.1,32.8a2.93,2.93,0,0,0,3.54,0l9.37,6A2.94,2.94,0,0,0,47.72,40a3,3,0,0,0,.14.9ZM68.8,26.37l-6,8.73-.14,0L57.12,19.64l11,4.67a.76.76,0,0,0,0,.15A3,3,0,0,0,68.8,26.37ZM7.28,29.78l-.55-1.22-.11-.4L6.3,26l0-1.23.08-.54L7,22l.12-.87.06-1.38,0-.25,3.48,5.62a3,3,0,0,0,0,3.82L9.07,32.63H9ZM5.87,61.93l1.64,0a3,3,0,0,0,2.58,2.49l2.35,7.4a3,3,0,0,0-.85,1.81L8,74.78a3,3,0,0,0-2-1.33l.17-.63.13-1V71.3l-.06-.47-.13-.46L5.9,70l-.33-.51-.13-.37-.17-.67-.39-2.55,0-.83,0-1.61A3,3,0,0,0,5.87,61.93ZM10,86.83l-.31-.62-.46-.47-.48-.23-.88-.22-.56,0-.37,0-.44.1L6,85.64,5.55,86l-.24.4-.22.48a2.79,2.79,0,0,0-.87-.35v-.31l.06-.56.1-.41,2.27-5.91.06-.25a3,3,0,0,0,1.73-2.56L12,75.48A3,3,0,0,0,14.57,77a1.94,1.94,0,0,0,.34,0l2.64,4.14a3,3,0,0,0-.45,3.51l-4.59,3.7a3,3,0,0,0-1.92-.71l-.35,0Zm3.41,50.94a3.2,3.2,0,0,0-.15-.61l6.15-2.82a3,3,0,0,0,4.37-.66l15,5-10.74-.41Zm29.74-.41a2.91,2.91,0,0,0-.87.61l-18-6.07c0-.07,0-.14,0-.21l11.53-5.12a3,3,0,0,0,2.31,1.09,3,3,0,0,0,1.55-.43,3,3,0,0,0,1.46,1.8l-.13.34-.3.57-.31,1,0,1.26.1,1,.18.79.31.75.47.84ZM47,105.66l-.4.88-.38.45-.41.66-.29.79-.14,1.12.14.57.15.16-.45.53-1.65-7.26a3,3,0,0,0-.85-5.6L41.24,86.15,45,91.48a3,3,0,0,0,2.17,4.34l-.22,6.48.19,2.25Zm3.14-18.92-.48.82-1.54,1.49-.45.84h-.07a3,3,0,0,0-1.31.3l-4-5.63a3,3,0,0,0,.86-1.87L49.3,82a3.06,3.06,0,0,0,1.54,1.34l-.37,2.38Zm5.32-10.49L53.55,78a3,3,0,0,0-3.79.44l-11.93-6a2.69,2.69,0,0,0,.06-.57,3,3,0,0,0-2.74-3L35,68.15a2.91,2.91,0,0,0,1.09-1l18.5,4.71s0,.08,0,.12a3,3,0,0,0,1.58,2.63l-.28.93Zm2-7.29A3,3,0,0,0,55.2,70.1L38.31,65.8l18.74-1.71a3,3,0,0,0,2.53,1.4,3.13,3.13,0,0,0,.44,0L57.57,69Zm5-13.88-.23,2.18L61.68,59l-.51.94a3,3,0,0,0-1.59-.46,3,3,0,0,0-2.1.87l-17-11.77a2.69,2.69,0,0,0,.09-.7,3.11,3.11,0,0,0-.18-1l8.55-4.5A2.93,2.93,0,0,0,50.7,43a3,3,0,0,0,1.74-.56l10,2.78a2.9,2.9,0,0,0,.45,1.12l-.07.14-.34,3.28ZM73.35,39.56l-1.47,1.87-.54.38-.75.13-2.15-.1-1.51.3a3,3,0,0,0-1.56-.44h-.06l-.85-1.53a3,3,0,0,0,.78-1.37l9.17-.13-.24.14Zm8.24-6.64-1.54,1.29-.72,1.27a2.93,2.93,0,0,0-1-.17l-.32,0-5.19-8.45a1.56,1.56,0,0,0,.2-.16l7.75,2.76A3,3,0,0,0,82.21,32v.17Zm.52-10.26,1.4,3.68.07.1a3,3,0,0,0-2.26,1.28L74,25.11a2.82,2.82,0,0,0,.08-.65,2.9,2.9,0,0,0-.07-.6l5.58-3A3,3,0,0,0,81.89,22H82Zm3.8-13.85L82,14.41l-.82,1.65A3,3,0,0,0,78.91,19a1.34,1.34,0,0,0,0,.2l-5.81,3.1a3,3,0,0,0-2-.79,3,3,0,0,0-2.33,1.12l-11-4.68a.76.76,0,0,0,0-.15L83.57,5.54A3,3,0,0,0,85.12,6h.16l0,.17.64,1,.23.61Z"/><path class="cls-1" d="M100,44.23l13.4,33.58L127,44.23h8L113.23,96.32,92,44.23Z"/><path class="cls-1" d="M169,51.1H149.59V62.74h18.86v6.88H149.59V85.81H169v6.87H142.28V44.23H169Z"/><path class="cls-1" d="M215.71,46.84V55.5q-6.35-5.31-13.12-5.31A16.69,16.69,0,0,0,190,55.56a18.11,18.11,0,0,0-5.15,13A17.67,17.67,0,0,0,190,81.48a17,17,0,0,0,12.61,5.24,15.41,15.41,0,0,0,6.56-1.26,18.55,18.55,0,0,0,3.12-1.69,36.7,36.7,0,0,0,3.41-2.57V90a26.38,26.38,0,0,1-13.18,3.55,24.31,24.31,0,0,1-17.73-7.25,24,24,0,0,1-7.31-17.63,24.87,24.87,0,0,1,6.12-16.51,24.35,24.35,0,0,1,19.48-8.88A24.71,24.71,0,0,1,215.71,46.84Z"/><path class="cls-1" d="M255.84,80.91H235.1l-5.4,11.77h-7.87l24-51.49,23.13,51.49h-8Zm-3-6.87-7.19-16.47L238.14,74Z"/><path class="cls-1" d="M276.27,92.68V40.94l35.33,37V44.23h7.31v51.4L283.58,58.76V92.68Z"/></g></g></svg>