<svg xmlns="http://www.w3.org/2000/svg" viewBox="0 0 240.08 100.61"><defs><style>.cls-1{fill:#fff;}</style></defs><title>whiteAsset 1</title><g id="Layer_2" data-name="Layer 2"><g id="Layer_1-2" data-name="Layer 1"><g id="White_Logo" data-name="White Logo"><path class="cls-1" d="M30.23,8.71A7.78,7.78,0,0,0,31,5.88C31,3,28.36,2.72,26.12,2.51V.91h14.2v1.6a8.87,8.87,0,0,0-3.52.91c-1.76,1-3,4.32-3.79,6.09L21.63,37.28H18.16L6.46,8.71C5,5.18,4.27,2.78,0,2.51V.91H15.81v1.6c-1.66.16-4.54.05-4.54,2.4A7.25,7.25,0,0,0,12,7.74L21.2,31.62Z"/><path class="cls-1" d="M51.43,30.28c0,3,.27,5.13,4.17,5.34l1.06.06v1.6h-13v-1.6h.53c1.44-.11,2.94-.32,3.69-1.77a9.47,9.47,0,0,0,.53-3.79V7.74c0-2.83-.27-4.91-3.95-5.18l-.8-.05V.91h11.8l17.41,29H73V7.8c0-2.94-.27-5-4.17-5.24l-1.07-.05V.91H80.86v1.6l-.59.05c-1.44.11-3,.27-3.74,1.71A9.47,9.47,0,0,0,76,8.06V37.28H71.41L51.54,4.91h-.11Z"/><path class="cls-1" d="M95.6,17.84V6.89c0-1.34.05-2.24,1.33-3s4.76-1,6.31-1c5,0,10.31,1.23,10.31,7.26a7.26,7.26,0,0,1-3,6.14c-2.08,1.45-4.48,1.5-6.89,1.5Zm13.73,1.76c5.12-.48,9.82-3.79,9.82-9.35,0-7.47-6.62-9.34-12.76-9.34H85.13v1.6l1,.05c3.84.22,4.11,2.25,4.11,5.18V30.12a9.47,9.47,0,0,1-.53,3.79c-.81,1.5-2.41,1.61-3.9,1.71l-.7.06v1.6h15.76v-1.6H99.77c-3.9-.27-4.17-2.46-4.17-5.45V20.08h7.48L115,37.28h8.92v-1.6c-2.83-.48-4.38-1.71-6-4Z"/><path class="cls-1" d="M159.63,14.26h-1.71l-.22-.43a37.32,37.32,0,0,0-4.64-7.47,11.71,11.71,0,0,0-8.87-3.69,10.7,10.7,0,0,0-9.45,5.23c-2.09,3.37-2.73,7.59-2.73,11.54,0,3.69.75,8,3,11.06a12.74,12.74,0,0,0,10.26,5,15.69,15.69,0,0,0,13.19-8l2.3,1.28a18.08,18.08,0,0,1-16.35,9.4c-11.05,0-18.8-8-18.8-19C125.6,9,133,0,143.55,0a15.5,15.5,0,0,1,10.63,3.85l1.17-2.46h1.71Z"/><path class="cls-1" d="M167.8,1.63h3.92v.84c-.92,0-1,.21-1,.56a2.11,2.11,0,0,0,.14.66L172.8,9.5,174.62,4a2.45,2.45,0,0,0,.13-.74c0-.44-.18-.66-1-.74V1.63h3v.84c-.52.08-.84.35-1.16,1.29L173,11.51h-1.25l-2.58-7.64c-.34-1-.56-1.28-1.37-1.4Z"/><path class="cls-1" d="M179.4,6.35a1.5,1.5,0,0,1,1.45-1.56,1.2,1.2,0,0,1,1.24,1.34v.22Zm4.5.87c0-2.31-1.38-3.3-3.05-3.3a3.42,3.42,0,0,0-3.38,3.74c0,2.13,1.26,3.91,3.39,3.91a3.11,3.11,0,0,0,3.19-2.07l-.66-.34a2.3,2.3,0,0,1-2.18,1.45c-1.43,0-1.93-1.33-1.93-2.79a3.25,3.25,0,0,1,0-.6Z"/><path class="cls-1" d="M186.29,6.23c0-.57-.11-.73-1-.79V4.57a4,4,0,0,0,2-.65h.59v1a2.67,2.67,0,0,1,1.89-1c.59,0,1.11.23,1.11,1,0,.48-.26.87-.7.87-.66,0-.68-.6-1.3-.6a1,1,0,0,0-.91.6V9.56c0,.6.14,1,1,1v.87h-3.7v-.87c.88,0,1-.39,1-1Z"/><path class="cls-1" d="M191.5,10.55c.88,0,1-.39,1-1V6.23c0-.57-.11-.73-1-.79V4.57a4,4,0,0,0,2-.65h.59v.9a3,3,0,0,1,2.13-.9,1.77,1.77,0,0,1,1.83,1,3.75,3.75,0,0,1,2.26-1c1.95,0,2.1,1.35,2.1,2.36V9.56c0,.6.15,1,1,1v.87h-3.6v-.87c.84-.19.93-.31.93-1.05V6c0-.63-.19-1-.86-1a2.06,2.06,0,0,0-1.31.54l-.3.24V9.56c0,.6.15,1,1,1v.87h-3.61v-.87c.84-.19.93-.31.93-1.05V6c0-.63-.19-1-.86-1a2.11,2.11,0,0,0-1.31.54l-.3.24V9.56c0,.6.15,1,1,1v.87h-3.7Z"/><path class="cls-1" d="M206.5,7.7c0-1.84.44-2.91,1.79-2.91s1.8,1.07,1.8,2.91-.45,2.91-1.8,2.91S206.5,9.55,206.5,7.7Zm-1.81,0a3.62,3.62,0,1,0,7.21,0,3.61,3.61,0,1,0-7.21,0Z"/><path class="cls-1" d="M214.26,6.23c0-.57-.11-.73-1-.79V4.57a4,4,0,0,0,2-.65h.6v1a3.45,3.45,0,0,1,2.41-1,1.85,1.85,0,0,1,2,2.07V9.56c0,.6.14,1,1,1v.87h-3.49v-.87c.58-.1.82-.25.82-.91V6.16c0-1-.35-1.19-.85-1.19a2.75,2.75,0,0,0-1.82.87V9.56c0,.6.15,1,1,1v.87h-3.7v-.87c.88,0,1-.39,1-1Z"/><path class="cls-1" d="M223.49,5h-1V4.16c1.16-.09,1.64-1.11,1.94-2.44h.73V4.07H227V5h-1.81v4.2c0,.83.22,1.2.8,1.2a2.26,2.26,0,0,0,1.23-.54l.48.63a3.31,3.31,0,0,1-2.39,1.05,1.65,1.65,0,0,1-1.77-1.89Z"/><path class="cls-1" d="M168.33,28.05c.77,0,1.12-.33,1.12-1.08V21c0-.74-.35-1-1.12-1.07v-.84h3.2l3.35,6.65h0V21c0-.74-.35-1-1.12-1.07v-.84H177v.84c-.76,0-1.11.33-1.11,1.07v7.89h-1.14l-4.29-8.29h0V27c0,.75.35,1,1.11,1.08v.84h-3.21Z"/><path class="cls-1" d="M182.15,27.3a2.21,2.21,0,0,1-1.44.59.9.9,0,0,1-1-1c0-1,1.05-1.53,2.45-1.68Zm2.64.4a.7.7,0,0,1-.56.29c-.25,0-.43-.17-.43-.59V23.64c0-1.56-.77-2.25-2.65-2.25-1.68,0-2.79.79-2.79,1.92a.75.75,0,0,0,.73.82c.48,0,.67-.22.75-1.08a1,1,0,0,1,1.12-.79c.94,0,1.19.37,1.19,1.21v1c-2.67.28-4.1,1.11-4.1,2.73A1.84,1.84,0,0,0,180,29a3.34,3.34,0,0,0,2.25-.95,1.33,1.33,0,0,0,1.36.95,1.81,1.81,0,0,0,1.61-.81Z"/><path class="cls-1" d="M186.92,22.5h-1v-.88c1.16-.08,1.65-1.1,2-2.44h.73v2.36h1.8v1h-1.8v4.2c0,.82.21,1.19.79,1.19a2.2,2.2,0,0,0,1.23-.53l.49.63A3.37,3.37,0,0,1,188.69,29a1.64,1.64,0,0,1-1.77-1.9Z"/><path class="cls-1" d="M192.57,23.7c0-.58-.1-.74-1-.8V22a6.18,6.18,0,0,0,2-.49h.67V26.8c0,1,.35,1.19.85,1.19a2.75,2.75,0,0,0,1.82-.87V23.7c0-.58-.1-.74-1-.8V22a6.18,6.18,0,0,0,2-.49h.67V27c0,.6.15,1,1,1v.87H197v-.83a3.49,3.49,0,0,1-2.42,1,1.85,1.85,0,0,1-2-2.07Z"/><path class="cls-1" d="M201.9,23.7c0-.58-.11-.74-1-.8V22a3.94,3.94,0,0,0,2-.64h.6v1a2.64,2.64,0,0,1,1.89-1c.58,0,1.11.22,1.11,1,0,.48-.26.88-.71.88-.66,0-.67-.61-1.29-.61a1,1,0,0,0-.92.61V27c0,.6.15,1,1,1v.87h-3.7V28c.87,0,1-.39,1-1Z"/><path class="cls-1" d="M211.2,27.3a2.19,2.19,0,0,1-1.44.59.9.9,0,0,1-1-1c0-1,1.05-1.53,2.45-1.68Zm2.64.4a.7.7,0,0,1-.56.29c-.25,0-.43-.17-.43-.59V23.64c0-1.56-.77-2.25-2.64-2.25-1.69,0-2.8.79-2.8,1.92a.75.75,0,0,0,.73.82c.49,0,.67-.22.76-1.08a1,1,0,0,1,1.12-.79c.93,0,1.18.37,1.18,1.21v1c-2.67.28-4.1,1.11-4.1,2.73a1.85,1.85,0,0,0,2,1.86,3.34,3.34,0,0,0,2.25-.95,1.33,1.33,0,0,0,1.37.95,1.8,1.8,0,0,0,1.6-.81Z"/><path class="cls-1" d="M214.94,28c.88,0,1-.39,1-1V20.7c0-.58-.11-.74-1-.8V19a6.18,6.18,0,0,0,2-.49h.68V27c0,.6.15,1,1,1v.87h-3.7Z"/><path class="cls-1" d="M171.18,38.42c0-.79.17-1,1.28-1,1.45,0,2,.72,2,1.71,0,1.27-.62,1.79-2.4,1.79h-.85Zm-2.85,7.93h4v-.84c-.76,0-1.11-.33-1.11-1.08V41.89h1L175,46.35h2.36v-.84c-.69-.13-.87-.31-1.31-1l-1.89-2.83a2.58,2.58,0,0,0,2.15-2.61c0-1.31-.65-2.56-3.17-2.56h-4.82v.84c.77,0,1.12.33,1.12,1.08v6c0,.75-.35,1-1.12,1.08Z"/><path class="cls-1" d="M180.11,41.28c.09-.92.61-1.56,1.45-1.56a1.2,1.2,0,0,1,1.24,1.33v.23Zm4.5.87c0-2.31-1.38-3.3-3.05-3.3a3.42,3.42,0,0,0-3.38,3.73c0,2.13,1.26,3.92,3.39,3.92a3.13,3.13,0,0,0,3.19-2.07l-.66-.35a2.3,2.3,0,0,1-2.18,1.46c-1.43,0-1.93-1.34-1.93-2.79a4.34,4.34,0,0,1,0-.6Z"/><path class="cls-1" d="M186.12,43.9l.73-.16a2.58,2.58,0,0,0,2.52,1.8c.77,0,1.42-.39,1.42-1s-.23-.8-1.23-1l-1.1-.24c-1.16-.25-2.08-.7-2.05-2a2.4,2.4,0,0,1,2.68-2.37,3.41,3.41,0,0,1,1.92.58l.17-.43h.48l.31,2-.72.14a2.26,2.26,0,0,0-2.08-1.47c-.66,0-1.2.39-1.2.91s.2.63.78.77l1.75.4c1.09.26,1.86.72,1.86,2.07,0,1.5-1.11,2.63-3,2.63a3.27,3.27,0,0,1-2.09-.65l-.16.5h-.57Z"/><path class="cls-1" d="M195.65,42.63c0-1.85.45-2.91,1.8-2.91s1.79,1.06,1.79,2.91-.44,2.91-1.79,2.91S195.65,44.47,195.65,42.63Zm-1.81-.05a3.62,3.62,0,1,0,7.21,0,3.61,3.61,0,1,0-7.21,0Z"/><path class="cls-1" d="M203.41,41.16c0-.57-.1-.74-1-.8v-.87a6.18,6.18,0,0,0,2-.49h.67v5.26c0,1,.35,1.19.85,1.19a2.8,2.8,0,0,0,1.83-.87V41.16c0-.57-.11-.74-1-.8v-.87a6.18,6.18,0,0,0,2-.49h.67v5.49c0,.6.15,1,1,1v.87h-2.6v-.83a3.49,3.49,0,0,1-2.42,1,1.85,1.85,0,0,1-2-2.07Z"/><path class="cls-1" d="M212.74,41.16c0-.57-.1-.74-1-.8v-.87a4,4,0,0,0,2-.64h.59v1a2.68,2.68,0,0,1,1.89-1c.58,0,1.11.22,1.11,1,0,.48-.26.87-.71.87-.66,0-.67-.6-1.29-.6a1,1,0,0,0-.92.6v3.72c0,.6.15,1,1,1v.87h-3.7v-.87c.87,0,1-.39,1-1Z"/><path class="cls-1" d="M224.77,44.56a3.37,3.37,0,0,1-3.31,1.94c-2.13,0-3.38-1.79-3.38-3.92a3.43,3.43,0,0,1,3.51-3.73c1.44,0,2.75.67,2.75,2,0,.55-.28.93-.82.93a.78.78,0,0,1-.83-.84c0-.18,0-.36,0-.51,0-.47-.66-.75-1.29-.75-1.08,0-1.56,1.11-1.56,3s.72,2.79,2,2.79a2.34,2.34,0,0,0,2.14-1.35Z"/><path class="cls-1" d="M227.76,42.15a3,3,0,0,0,0,.6c0,1.45.5,2.79,1.94,2.79a2.28,2.28,0,0,0,2.17-1.46l.66.35a3.13,3.13,0,0,1-3.19,2.07c-2.13,0-3.38-1.79-3.38-3.92a3.41,3.41,0,0,1,3.37-3.73c1.68,0,3.05,1,3.05,3.3Zm2.76-.87v-.23a1.2,1.2,0,0,0-1.24-1.33c-.84,0-1.36.64-1.44,1.56Z"/><path class="cls-1" d="M233.84,43.9l.73-.16a2.58,2.58,0,0,0,2.53,1.8c.77,0,1.41-.39,1.41-1s-.22-.8-1.22-1l-1.11-.24c-1.16-.25-2.08-.7-2.05-2a2.4,2.4,0,0,1,2.68-2.37,3.41,3.41,0,0,1,1.92.58l.18-.43h.47l.31,2-.72.14a2.26,2.26,0,0,0-2.08-1.47c-.66,0-1.2.39-1.2.91s.21.63.79.77l1.74.4c1.09.26,1.86.72,1.86,2.07,0,1.5-1.11,2.63-3,2.63a3.29,3.29,0,0,1-2.09-.65l-.16.5h-.57Z"/><path class="cls-1" d="M175.15,54h.65l.83,3.25-.74.25c-.76-1.94-2-2.7-3-2.7-1.54,0-2.48,1.58-2.48,4.09s1,4.09,2.65,4.09a3.33,3.33,0,0,0,3-2.1l.75.4A4,4,0,0,1,173,64c-2.82,0-4.5-2.33-4.5-5.09s1.68-5.07,4.19-5.07a3.74,3.74,0,0,1,2.2.74v0Z"/><path class="cls-1" d="M180,60.09c0-1.85.45-2.91,1.8-2.91s1.79,1.06,1.79,2.91S183.14,63,181.79,63,180,61.93,180,60.09ZM178.18,60a3.62,3.62,0,1,0,7.21,0,3.61,3.61,0,1,0-7.21,0Z"/><path class="cls-1" d="M187.75,58.62c0-.57-.1-.74-1-.8V57a6.18,6.18,0,0,0,2-.49h.67v5.26c0,1,.35,1.19.85,1.19a2.8,2.8,0,0,0,1.83-.87V58.62c0-.57-.11-.74-1-.8V57a6.18,6.18,0,0,0,2-.49h.67V62c0,.6.15,1,1,1v.87h-2.6V63a3.49,3.49,0,0,1-2.42,1,1.85,1.85,0,0,1-2-2.07Z"/><path class="cls-1" d="M197.08,58.62c0-.57-.1-.74-1-.8V57a4,4,0,0,0,2-.64h.59v1a3.52,3.52,0,0,1,2.42-1,1.83,1.83,0,0,1,2,2.07V62c0,.6.15,1,1,1v.87h-3.5v-.87c.58-.11.82-.26.82-.92V58.54c0-1-.35-1.18-.85-1.18a2.77,2.77,0,0,0-1.82.87V62c0,.6.15,1,1,1v.87h-3.7v-.87c.88,0,1-.39,1-1Z"/><path class="cls-1" d="M212.11,62A3.38,3.38,0,0,1,208.8,64c-2.13,0-3.39-1.79-3.39-3.92a3.43,3.43,0,0,1,3.51-3.73c1.45,0,2.76.67,2.76,2a.82.82,0,0,1-.83.93.78.78,0,0,1-.82-.84c0-.18,0-.36,0-.51,0-.47-.66-.75-1.3-.75-1.08,0-1.55,1.11-1.55,3s.72,2.79,2,2.79a2.31,2.31,0,0,0,2.13-1.35Z"/><path class="cls-1" d="M213.12,57a6.18,6.18,0,0,0,2-.49h.67V62c0,.6.15,1,1,1v.87h-3.7v-.87c.88,0,1-.39,1-1V58.62c0-.57-.11-.74-1-.8Zm2-3.64a1.15,1.15,0,1,1-1,1.14A1.09,1.09,0,0,1,215.12,53.31Z"/><path class="cls-1" d="M218,62.94c.88,0,1-.39,1-1V55.62c0-.57-.11-.74-1-.8V54a6.18,6.18,0,0,0,2-.49h.68V62c0,.6.15,1,1,1v.87H218Z"/><path class="cls-1" d="M9.57,74.66c16.22-9.23,33.37-17.08,52-19.7a78,78,0,0,1,25.69.82c10,1.94,18.75,6.66,27.69,11.27,16.15,8.32,32.81,15.88,50.69,19.65,18.57,3.92,37.52,2.25,55.72-2.64,1.18-.31.32-6.71.56-6.78-18.37,4.93-37,6.29-55.73,2.64-17.87-3.48-34.6-11.43-50.68-19.65C107.07,55.94,99,51.71,89.68,49.41a76.56,76.56,0,0,0-27.53-1.23c-18.55,2.21-36,10.58-52,19.7-1.43.81.14,6.38-.56,6.78Z"/><path class="cls-1" d="M10.4,91C33.31,76.24,59.32,64,87.32,68c14.72,2.1,27.76,10.15,41.81,14.58A116.33,116.33,0,0,0,171,87.64c.81,0,.76-6.79.56-6.78a119.78,119.78,0,0,1-40-4.53c-14.31-4.07-27.19-12-41.85-14.84C61.52,56,33.94,69.41,11,84.21c-1.45.94.22,6.29-.55,6.78Z"/><path class="cls-1" d="M9.28,91.42C30.89,79.55,54.57,73.67,78.77,81c13.19,4,25.73,9.94,39,13.83a137.71,137.71,0,0,0,37.32,5.8c.67,0,.91-6.78.56-6.78-26.44-.24-50-10.26-74.42-19S31.68,72.65,9.84,84.64c-1.42.78.12,6.41-.56,6.78Z"/></g></g></g></svg>